<?xml version="1.0" encoding="utf-8"?>
<!-- Generator: Adobe Illustrator 22.0.1, SVG Export Plug-In . SVG Version: 6.00 Build 0)  -->
<svg version="1.1" id="Calque_1" xmlns="http://www.w3.org/2000/svg" xmlns:xlink="http://www.w3.org/1999/xlink" x="0px" y="0px"
	 viewBox="0 0 26.5 13.9" style="enable-background:new 0 0 26.5 13.9;" xml:space="preserve">
<style type="text/css">
	.st0{fill:url(#SVGID_1_);}
	.st1{fill:url(#SVGID_2_);}
	.st2{fill:#231F20;}
</style>
<g>
	<radialGradient id="SVGID_1_" cx="18.9492" cy="12.9377" r="19.8176" gradientUnits="userSpaceOnUse">
		<stop  offset="0" style="stop-color:#757575"/>
		<stop  offset="1" style="stop-color:#FFFFFF"/>
	</radialGradient>
	<path class="st0" d="M19.4,12.1c0,0.7-0.6,1.3-1.3,1.3H7.7c-0.7,0-1.3-0.6-1.3-1.3V1.8c0-0.7,0.6-1.3,1.3-1.3h10.4
		c0.7,0,1.3,0.6,1.3,1.3V12.1z"/>
	<radialGradient id="SVGID_2_" cx="8.3842" cy="1.3537" r="14.942" gradientUnits="userSpaceOnUse">
		<stop  offset="0" style="stop-color:#757575"/>
		<stop  offset="1" style="stop-color:#FFFFFF"/>
	</radialGradient>
	<path class="st1" d="M17.7,11.3c0,0.4-0.3,0.7-0.7,0.7H8.7C8.3,12,8,11.7,8,11.3V1.8c0-0.4,0.3-0.7,0.7-0.7h8.4
		c0.4,0,0.7,0.3,0.7,0.7V11.3z"/>
	<g>
		<polygon class="st2" points="12.7,2.6 12.7,7.1 11.5,7.1 13.1,10.4 14.7,7.1 13.5,7.1 13.5,2.6 		"/>
	</g>
</g>
</svg>
