<svg xmlns="http://www.w3.org/2000/svg" xmlns:xlink="http://www.w3.org/1999/xlink" viewBox="-4291 6722 1920 1606">
  <defs>
    <style>
      .cls-1 {
        clip-path: url(#clip-Screen_2-3);
      }

      .cls-2, .cls-6 {
        fill: #fff;
      }

      .cls-2, .cls-3, .cls-4, .cls-5 {
        fill-rule: evenodd;
      }

      .cls-3 {
        fill: #f66464;
      }

      .cls-4 {
        fill: #d3e0df;
      }

      .cls-5 {
        fill: #c73e3e;
      }

      .cls-7 {
        fill: #f7a71b;
      }

      .cls-8 {
        fill: #f6901e;
      }

      .cls-9 {
        fill: #69c9d0;
      }

      .cls-10, .cls-16 {
        fill: #231f20;
      }

      .cls-10 {
        opacity: 0.16;
      }

      .cls-11 {
        fill: #8e489a;
      }

      .cls-12 {
        fill: #212120;
        opacity: 0.52;
      }

      .cls-13, .cls-15 {
        fill: #e3f3f5;
      }

      .cls-13 {
        opacity: 0.57;
      }

      .cls-14 {
        opacity: 0.39;
      }

      .cls-17 {
        fill: #274748;
      }

      .cls-18 {
        fill: #43b6b8;
      }
    </style>
    <clipPath id="clip-Screen_2-3">
      <rect x="-4291" y="6722" width="1920" height="1606"/>
    </clipPath>
  </defs>
  <g id="Screen_2-3" data-name="Screen 2-3" class="cls-1">
    <g id="Groupe_292" data-name="Groupe 292" transform="translate(-4290 5186)">
      <g id="Groupe_250" data-name="Groupe 250" transform="translate(1393.422 1690.557)">
        <g id="Groupe_224" data-name="Groupe 224" transform="translate(0 0)">
          <path id="Tracé_959" data-name="Tracé 959" class="cls-2" d="M226.68,144.084C239.026,77.29,198.16,13.83,135.564,2.348,72.967-9.258,12.346,35.56,0,102.23Z" transform="translate(0 0.166)"/>
          <path id="Tracé_960" data-name="Tracé 960" class="cls-3" d="M231.28,113.472C240.416,63.716,197.2,13.96,134.608,2.354,71.888-9.128,13.736,21.862,4.6,71.741Z" transform="translate(1.079 0.036)"/>
          <path id="Tracé_961" data-name="Tracé 961" class="cls-2" d="M192.535,84.275,36.6,55.507C43.391,18.221,84.01-5.731,126.976,2.294,170.065,10.2,199.449,46.988,192.535,84.275Z" transform="translate(8.588 0.219)"/>
          <path id="Tracé_962" data-name="Tracé 962" class="cls-3" d="M79.3,56.14l53.707,9.877c6.05-32.594-1.111-61.362-15.927-64.078C102.141-.777,85.226,23.546,79.3,56.14Z" transform="translate(18.607 0.451)"/>
          <path id="Tracé_963" data-name="Tracé 963" class="cls-4" d="M196.961,145.733a5.349,5.349,0,0,1-.617-.123h0a5.347,5.347,0,0,1-.617-.123h0c-.247,0-.37-.123-.617-.123h0c-.37-.123-.864-.247-1.235-.37h-.123l-.494-.123h0c-.247,0-.37-.123-.617-.123h-.123l-.494-.123h0c-.123,0-.37-.123-.494-.123h0c-.123,0-.37-.123-.494-.123h-.123l-.37-.123h-.247l-.37-.123L189.8,144c-.123,0-.37-.123-.494-.123h-.123v.247h0v.123h0v.123h0v.247h0v.37h0a.454.454,0,0,1-.123.37c-1.605,8.766-14.939,13.581-29.755,10.865-.247,0-.37-.123-.617-.123h-.247l-.494-.123h-.123c-.247,0-.37-.123-.617-.123h-.247l-.494-.123h-.123c-.123,0-.37-.123-.494-.123h-.123c-.247,0-.37-.123-.617-.123h-.123l-.494-.123h-.123l-.37-.123h-.123c-.123,0-.37-.123-.494-.123h-.123l-.37-.123-.123-.123-.37-.123-.247-.123-.37-.123-.247-.123-.37-.123h-.123c-.123-.123-.37-.123-.494-.247h0c-.123-.123-.37-.123-.494-.247l-.123-.123-.494-.247H149.3c-.123-.123-.37-.123-.494-.247l-.123-.123c-.123,0-.247-.123-.37-.123l-.123-.123c-.123-.123-.247-.123-.37-.247H147.7c-.123-.123-.37-.123-.494-.247l-.123-.123-.37-.123-.123-.123-.37-.247h0c-.123-.123-.247-.123-.37-.247l-.247-.123-.247-.123-.123-.123c-.123-.123-.247-.123-.37-.247h0c-.123-.123-.247-.123-.37-.247l-.123-.123-.247-.247-.123-.123c-.123-.123-.247-.123-.37-.247H143.5l-.247-.247-.123-.123-.247-.247-.123-.123c-.123-.123-.247-.247-.37-.247l-.123-.123-.247-.247-.123-.123-.247-.247-.123-.123c-.123-.123-.247-.247-.37-.247l-.123-.123-.247-.247-.123-.123-.247-.247-.123-.123-.247-.247-.123-.123-.247-.247-.123-.123-.247-.247-.123-.247-.123-.247-.123-.123-.123-.247-.123-.123c-.123-.123-.123-.247-.247-.37v-.123c-.123-.123-.123-.123-.123-.247l-.123-.123-.123-.247-.123-.123h0a.431.431,0,0,0-.123-.247h0l-.123-.123-.123-.247-.123-.123-.123-.247-.123-.123a13.418,13.418,0,0,1-.123,2.222c-1.605,8.766-14.939,13.581-29.755,10.865S81.77,143.634,83.375,134.868a14.929,14.929,0,0,1,.617-2.222l-.123.123-.123.123-.123.123-.123.123-.123.123h0l-.247.247h0l-.123.123-.247.123-.123.123c-.123,0-.123.123-.247.123h-.123c-.123.123-.247.123-.37.247l-.123.123-.247.123-.123.123-.247.123-.247.123-.247.123-1.729-.123-.247.123-.123.123c-.123,0-.247.123-.37.123l-.247.123-.247.123-.123.123-.247.123-.123.123c-.123,0-.247.123-.37.123h-.123l-.37.123h-.123l-.37.123H75.72c-.123,0-.247.123-.494.123H75.1l-.247.123h-.247l-.37.123h-.123c-.123,0-.247.123-.494.123H73.5l-.37.123H72.88c-.123,0-.37.123-.494.123h0c-.123,0-.37.123-.494.123h-.741a.742.742,0,0,0-.494.123h-.123l-.494.123h-.617a.742.742,0,0,0-.494.123H58.435a1.113,1.113,0,0,1-.617-.123h-.123l-.494-.123h-.247c-.247,0-.37-.123-.617-.123-14.816-2.716-25.557-11.976-23.952-20.742a10.286,10.286,0,0,1,.494-1.852H27.692c-.494,0-.864-.123-1.358-.123h0a1.113,1.113,0,0,1-.617-.123h0a5.347,5.347,0,0,1-.617-.123h0a5.347,5.347,0,0,1-.617-.123C9.667,111.287-1.075,102.027.53,93.261a.454.454,0,0,1,.123-.37v-.123c0-.123,0-.123.123-.247V92.4c0-.123,0-.123.123-.247v-.123c0-.123.123-.247.123-.37v-.123c0-.123.123-.123.123-.247v-.123c0-.123.123-.123.123-.247v-.123a.431.431,0,0,1,.123-.247h0c-.247-.247-.247-.37-.247-.494v-.123c0-.123.123-.123.123-.247l.123-.123c0-.123.123-.123.123-.247v-.123c.123-.123.123-.247.247-.37h0l.247-.247.123-.123c0-.123.123-.123.123-.247l.123-.123.247-.247h0c.123-.123.123-.247.247-.247L3,87.458l.247-.247.123-.123h.247l.123-.123c.123-.123.247-.123.247-.247h.123l.247-.123.123-.123.123-.123.123-.123.247-.247h0c.123-.123.247-.123.37-.247l.123-.123.247-.123.123-.123.247-.123H6.21c.123-.123.247-.123.37-.247H6.7l.247-.123.37-.247.247-.123.123-.123.247-.123.247-.123L8.555,84l.123-.123.247-.123.123-.123.247-.123.247-.123h0c.123,0,.247-.123.37-.123h0l.123-.123.247-.123.247-.123.247-.123.37.247.37-.123.247-.123.37-.123.247-.123.247-.123.247-.123h.247l.247-.123h0c.123,0,.247-.123.494-.123h1.728l.494-.123h4.321C10.531,77.828,4.358,70.667,5.592,63.876,7.2,55.11,20.531,50.3,35.347,53.012a5.347,5.347,0,0,1,.617.123h0c.247,0,.37.123.494.123h.123c.247,0,.37.123.617.123h.123a4.387,4.387,0,0,0,1.235.247h0c.247,0,.37.123.617.123h0a.943.943,0,0,1,.617.247h0c.247,0,.37.123.617.123h.123c.247,0,.37.123.617.123h.123c.123,0,.37.123.494.123h0c.247.123.37.123.617.247h0c.123,0,.37.123.494.123l.123.123c.123,0,.37.123.494.123h.123c.123.123.37.123.494.247h0c.123.123.37.123.494.247h.123c.123.123.37.123.494.247h0c.123.123.37.123.494.247h0c.123.123.37.123.494.247h0c.123.123.37.123.494.247h.123c.123.123.247.123.494.247h.123a12.258,12.258,0,0,1-2.84-9.507c1.605-8.766,14.939-13.581,29.755-10.865C85.227,38.319,93.992,43.875,97.2,50.172a13.42,13.42,0,0,1,.123-2.222c1.605-8.766,14.939-13.581,29.755-10.865s25.557,11.976,23.952,20.742a14.926,14.926,0,0,1-.617,2.222c5.186-4.692,15.31-6.791,26.174-4.815,14.816,2.716,25.557,11.976,23.952,20.742-.617,3.21-2.716,5.926-6.05,7.9h9.383c.37,0,.864.123,1.235.123h.123a1.113,1.113,0,0,1,.617.123h.123a1.113,1.113,0,0,1,.617.123h0a5.347,5.347,0,0,1,.617.123c14.816,2.716,25.557,11.976,23.952,20.742a.454.454,0,0,1-.123.37v.123l-.123.247v.123c0,.123,0,.123-.123.247v.123c0,.123-.123.247-.123.37v.123c0,.123-.123.123-.123.247v.123c0,.123-.123.123-.123.247v.123a.431.431,0,0,1-.123.247h0a.431.431,0,0,1-.123.247v.123c0,.123-.123.123-.123.247l-.123.123c0,.123-.123.123-.123.247v.123c-.123.123-.123.247-.247.37h0l-.247.247-.123.123-.123.247-.123.123-.247.247h0c-.123.123-.123.247-.247.247l-.123.123-.247.247-.123.123-.247.247-.123.123c-.123.123-.247.123-.247.247l-.123.123-.247.123-.123.123-.123.123-.123.123c-.123,0-.123.123-.247.123l-.123.123c-.123.123-.247.123-.247.247l-.123.123-.247.123-.123.123-.247.123-.123.123c-.123.123-.247.123-.37.247l-.123.123-.247.123-.123.123-.247.123-.247.123-.247.123c-.123.123-.247.123-.494.247l-.123.123-.247.123-.247.123-.247.123-.247.123-.247.123c-.123,0-.247.123-.37.123l-.247.123-.247.123-.247.123-.247.123-.247.123-.247.123c-.123,0-.37.123-.494.123l-.247.123-.247.123h-.123l-.37.123H218.2l-.37.123-.494.123-.37.123h-.123l-.37.123h-.123l.864-.864h0c-.494.123-.864.123-1.358.247h-.494c-.494,0-.864.123-1.358.123h-1.975l.123.123c.247.123.37.123.617.247l.247.123.247.123.247.123.247.123.247.123.247.123.37.247h0l.247.123.247.123.247.123.247.123.247.123h0l.37.247.247.123.247.123.247.123.247.123.247.123.247.123.247.123c.123.123.247.123.37.247l.247.123.247.123.247.123.247.123.123.123c.123.123.247.247.37.247h.123c.123.123.247.123.37.247l.123.123.247.247.123.123.247.247.123.123c.123.123.247.247.37.247l.123.123.247.247.123.123.247.247.123.123.37.37h0v.123l.247.247.123.123.247.247.123.123.247.247.123.123c.123.123.247.247.247.37l.123.123.247.247.123.123.123.247.123.123c.123.123.123.247.247.37h0c.123.123.123.247.247.37l.123.123.123.247.123.123a.431.431,0,0,0,.123.247v.123c.123.123.123.247.247.37v.123c0,.123.123.123.123.247l.123.123c0,.123.123.123.123.247v.123c0,.123.123.247.123.37h0c0,.123.123.247.123.37v.123l.123.247v.123c0,.123.123.247.123.37h0c0,.123.123.247.123.37v1.235h0v2.84C225.111,143.634,211.777,148.449,196.961,145.733Z" transform="translate(0.087 8.394)"/>
          <g id="Groupe_223" data-name="Groupe 223" transform="translate(5.42 60.278)">
            <path id="Tracé_964" data-name="Tracé 964" class="cls-5" d="M18.6,78.064C9.217,73.866,3.415,66.952,4.526,60.409c1.605-8.766,14.939-13.581,29.755-10.865a5.347,5.347,0,0,1,.617.123h.123A323.954,323.954,0,0,0,18.6,78.064Z" transform="translate(-4.39 -48.787)"/>
            <path id="Tracé_965" data-name="Tracé 965" class="cls-5" d="M168,75.1h.123a5.35,5.35,0,0,1,.617.123C183.556,77.94,194.3,87.2,192.693,95.965a.454.454,0,0,1-.123.37v.123l-.123.247v.123c0,.123,0,.123-.123.247V97.2c0,.123-.123.247-.123.37v.123c0,.123-.123.123-.123.247v.123c0,.123-.123.123-.123.247v.123a.431.431,0,0,1-.123.247h0a.431.431,0,0,1-.123.247v.123c0,.123-.123.123-.123.247l-.123.123c0,.123-.123.123-.123.247v.123c-.123.123-.123.247-.247.37h0l-.247.247-.123.123-.123.247-.123.123-.247.247h0c-.123.123-.123.247-.247.247l-.123.123-.247.247-.123.123-.247.247-.123.123c-.123.123-.247.123-.247.247l-.123.123-.247.123-.123.123-.123.123-.123.123c-.123,0-.123.123-.247.123l-.123.123c-.123.123-.247.123-.247.247l-.123.123-.247.123-.123.123-.247.123-.123.123c-.123.123-.247.123-.37.247l-.123.123-.247.123-.123.123-.247.123-.247.123-.247.123c-.123.123-.247.123-.494.247l-.123.123-.247.123-.247.123-.247.123-.247.123-.247.123c-.123,0-.247.123-.37.123l-.247.123-.247.123-.247.123-.247.123-.247.123-.247.123c-.123,0-.37.123-.494.123l-.247.123-.247.123h-.123l-.37.123h-.123l-.37.123-.494.123-.37.123h-.123l-.37.123h-.123v-.988h0c-.494.123-.864.123-1.358.247h-.494c-.494,0-.864.123-1.358.123h-1.111A259.615,259.615,0,0,0,168,75.1Z" transform="translate(33.999 -42.613)"/>
          </g>
          <path id="Tracé_966" data-name="Tracé 966" class="cls-5" d="M183.006,143.437c1.111-32.965-1.605-62.843-7.655-87.042a44.31,44.31,0,0,0-4.321-.988c-10.865-1.975-20.989.123-26.174,4.815A11.686,11.686,0,0,0,145.473,58c1.605-8.766-9.136-18.026-23.952-20.742s-28.15,2.1-29.755,10.865a13.419,13.419,0,0,0-.123,2.222c-3.21-6.3-11.853-11.853-22.841-13.828-1.482-.247-2.963-.494-4.321-.617C50.159,56.4,36.948,83.31,26.207,114.547h.617a10.286,10.286,0,0,0-.494,1.852c-1.605,8.766,9.136,18.026,23.952,20.742.247,0,.37.123.617.123h.247l.494.123h.123a1.113,1.113,0,0,1,.617.123H62.876a.742.742,0,0,0,.494-.123h.617l.494-.123H64.6a.742.742,0,0,0,.494-.123h.741c.123,0,.37-.123.494-.123h0c.123,0,.37-.123.494-.123h.247l.37-.123h.123c.123,0,.247-.123.494-.123h.123l.37-.123H68.8l.247-.123h.123c.123,0,.247-.123.494-.123h.123l.37-.123h.123l.37-.123h.123c.123,0,.247-.123.37-.123l.123-.123.247-.123.123-.123.247-.123.247-.123c.123,0,.247-.123.37-.123l.123-.123.247-.247.123-.123.247-.123.247-.123.247-.123.123-.123.247-.123.123-.123c.123-.123.247-.123.37-.247h.123c.123,0,.123-.123.247-.123l.123-.123.247-.123.123-.123h0l.247-.247h0l.123-.123.123-.123.123-.123.123-.123.123-.123a11.686,11.686,0,0,0-.617,2.222c-1.605,8.766,9.136,18.026,23.952,20.742s28.15-2.1,29.755-10.865a13.42,13.42,0,0,0,.123-2.222l.123.123.123.247.123.123.123.247.123.123h0a.431.431,0,0,0,.123.247h0l.123.123.123.247.123.123c0,.123.123.123.123.247v.123c.123.123.123.247.247.37l.123.123.123.247.123.123.123.247.123.247.247.247.123.123.247.247.123.123.247.247.123.123.247.247.123.123.247.247.123.123c.123.123.247.247.37.247l.123.123.247.247.123.123.247.247.123.123c.123.123.247.247.37.247l.123.123.247.247.123.123.247.247h.123c.123.123.247.123.37.247l.123.123.247.247.123.123c.123.123.247.123.37.247h0c.123.123.247.123.37.247l.123.123.247.123.247.123c.123.123.247.123.37.247h0l.37.247.123.123.37.123.123.123c.123.123.37.123.494.247h.123c.123.123.247.123.37.247l.123.123c.123,0,.247.123.37.123l.123.123c.123.123.37.123.494.247h.123l.494.247.123.123c.123.123.37.123.494.247h0c.123.123.37.123.494.247h.123l.37.123.247.123.37.123.247.123.37.123.123.123.37.123h.123c.123,0,.37.123.494.123h.123l.37.123h.123l.494.123h.123c.247,0,.37.123.617.123h.123c.123,0,.37.123.494.123h.123l.494.123h.247c.247,0,.37.123.617.123h.123l.494.123h.247c.247,0,.37.123.617.123,14.816,2.716,28.15-2.1,29.755-10.865a.454.454,0,0,1,.123-.37h0v-.37h0v-.247h0v-.123h0v-.123h0v-.247h.123c.988-.247,1.111-.247,1.358-.124Z" transform="translate(6.141 8.468)"/>
          <path id="Tracé_967" data-name="Tracé 967" class="cls-4" d="M130.012,45.172c-4.321-3.7-10.618-6.667-18.026-8.025-7.284-1.358-14.322-.864-19.631.988-8.642,24.446-17.655,57.04-25.434,94.2h0l.123-.123c-.123.247-.123.494-.247.617-.123.864-.37,1.729-.494,2.593-.617,8.4,9.877,17.038,24.075,19.631s27.039-1.728,29.508-9.754l.37-2.593v-.741l.123.123h0C126.308,104.682,129.519,70.976,130.012,45.172Z" transform="translate(15.552 8.579)"/>
        </g>
        <path id="Tracé_968" data-name="Tracé 968" class="cls-6" d="M37.8,53.158a1.3,1.3,0,0,1,2.593-.123L51.381,259.59a1.3,1.3,0,1,1-2.593.123Z" transform="translate(8.869 12.198)"/>
        <path id="Tracé_969" data-name="Tracé 969" class="cls-6" d="M15.6,73.286a1.259,1.259,0,0,1,2.469-.494l38.4,181.986a1.259,1.259,0,1,1-2.469.494Z" transform="translate(3.656 16.887)"/>
        <path id="Tracé_970" data-name="Tracé 970" class="cls-6" d="M173.432,74.535a1.216,1.216,0,1,1,2.222.988L90.34,264.423a1.216,1.216,0,1,1-2.222-.988Z" transform="translate(20.654 17.366)"/>
        <path id="Tracé_971" data-name="Tracé 971" class="cls-6" d="M191.356,101.31a1.25,1.25,0,1,1,2.1,1.358L90.238,258.356A1.25,1.25,0,1,1,88.14,257Z" transform="translate(20.632 23.68)"/>
        <path id="Tracé_972" data-name="Tracé 972" class="cls-6" d="M85.471,47.691a1.259,1.259,0,0,1,2.469.494L49.173,261.161a1.259,1.259,0,0,1-2.469-.494Z" transform="translate(10.954 10.998)"/>
        <path id="Tracé_973" data-name="Tracé 973" class="cls-6" d="M129.117,55.591a1.259,1.259,0,1,1,2.469.494L90.473,268.69A1.259,1.259,0,1,1,88,268.2Z" transform="translate(20.645 12.852)"/>
      </g>
      <g id="Groupe_251" data-name="Groupe 251" transform="translate(1430.029 1916.235) rotate(11)">
        <path id="Tracé_68" data-name="Tracé 68" class="cls-7" d="M13.3,14.641c-2.092-3.625-1.394-9.11.6-14.641h-6.6C6.934,5.484,7.259,11.248,9.4,14.269c0,0-7.9-.232-9.11,2.37,0,0-1.023,2,.79,2.417a15.144,15.144,0,0,0,1.766.232c-.186.7-.046,1.348.79,1.441a6.515,6.515,0,0,0,3.811-1.115H7.77c.046.465.744,1.255,2.417,1.534a5.061,5.061,0,0,0,5.485-3.161C16.276,15.989,13.3,14.641,13.3,14.641Z" transform="translate(40.628 97.559)"/>
        <path id="Tracé_69" data-name="Tracé 69" class="cls-7" d="M2.451,14.641C4.543,11.015,3.846,5.531,1.847,0h6.6c.372,5.485.046,11.248-2.092,14.269,0,0,7.9-.232,9.11,2.37,0,0,1.023,2-.79,2.417a15.157,15.157,0,0,1-1.766.232c.186.7.046,1.348-.79,1.441a6.516,6.516,0,0,1-3.811-1.115H7.982c-.046.465-.744,1.255-2.417,1.534A5.061,5.061,0,0,1,.081,17.987C-.523,15.989,2.451,14.641,2.451,14.641Z" transform="translate(67.7 97.512)"/>
        <path id="Tracé_70" data-name="Tracé 70" class="cls-8" d="M4.648,49.373c.279.558,14.13-23.193,13.014-39.414,0,0,7.158-1.627,6.368-3.393,0,0-.93-1.3-4.183-.186,0,0,3.3-5.159,1.627-6.228s-3.3,3.858-4.183,4.044c-.883.139-.372-1.627-.976-3.161S14.13.849,14.223,2.383c.139,1.534.558,2.928-.837,2.092S9.529,1.639,9.2,3.777c-.232,1.534,3.254,3.951,3.625,4.741.418.837-1.023,14.083-5.392,22.589S.047,44.725,0,44.957A11.12,11.12,0,0,1,4.648,49.373Z" transform="translate(91.019 20.578)"/>
        <path id="Tracé_71" data-name="Tracé 71" class="cls-8" d="M19.443,49.373C19.164,49.93,5.313,26.18,6.429,9.959c0,0-7.158-1.627-6.368-3.393,0,0,.93-1.3,4.183-.186,0,0-3.3-5.159-1.627-6.228S5.917,4.009,6.8,4.2c.883.139.372-1.627.976-3.161S9.961.849,9.868,2.383c-.139,1.487-.6,2.882.79,2.045s3.858-2.835,4.183-.7c.232,1.534-3.254,3.951-3.625,4.741-.418.837,1.023,14.083,5.392,22.589S24,44.678,24.044,44.911C24.137,45.19,21.255,45.98,19.443,49.373Z" transform="translate(0 17.743)"/>
        <path id="Tracé_72" data-name="Tracé 72" class="cls-9" d="M85.01,98.163c.418.465.79.93,1.162,1.348a12.618,12.618,0,0,0,1.115,1.115c.372.325.7.6,1.023.883a11.929,11.929,0,0,0,1.534,1.069c.372.232.558.325.558.325-.139-.418-.232-.79-.372-1.162-.046-.186-.139-.372-.186-.558s-.139-.372-.186-.558c-.139-.372-.232-.744-.372-1.115s-.232-.744-.372-1.115c-.511-1.487-1.023-2.975-1.534-4.415-.093-.232-.186-.511-.279-.744l.046.046c.372.325.744.558,1.023.79a8.989,8.989,0,0,0,1.58.93c.372.186.6.279.6.279l-.418-1.115c-.046-.186-.139-.372-.186-.558s-.139-.372-.186-.558a9.741,9.741,0,0,1-.372-1.069c-.139-.372-.232-.744-.372-1.069-.465-1.441-.976-2.835-1.441-4.23-.232-.7-.511-1.394-.744-2.045-.232-.7-.511-1.348-.79-2.045l-.139-.279c.372.418.744.79,1.069,1.115a17.358,17.358,0,0,0,1.348,1.162,2.908,2.908,0,0,0,.511.372,54.339,54.339,0,0,0-2.092-8.924c-.046-.139-.093-.325-.139-.465a.816.816,0,0,1,.232.186,17.286,17.286,0,0,0,1.534,1.023c.372.232.558.325.558.325a57.9,57.9,0,0,0-3.439-8.738q-.7-1.464-1.394-2.789c.325.093.6.186.837.232.279.046.465.093.465.093a37.872,37.872,0,0,0-1.673-5.577c-.418-.976-.837-1.952-1.3-2.835a6.5,6.5,0,0,0,1.3.79,3.276,3.276,0,0,0,1.58.325,2.5,2.5,0,0,0,.372-.046.36.36,0,0,1,.139-.046,3.866,3.866,0,0,1-.93-1.394,15.723,15.723,0,0,1-.511-1.58c-.325-1.162-.651-2.277-1.023-3.439-.372-1.115-.7-2.231-1.115-3.346-.325-.837-.651-1.673-.976-2.463.232.279.511.511.744.744.7.7,1.3,1.348,1.813,1.859a9.57,9.57,0,0,0,.744.7,3.741,3.741,0,0,0,.651.418c.186.093.325.139.418.186a.2.2,0,0,1,.139.046,5.718,5.718,0,0,1-.465-2,10.282,10.282,0,0,0-.232-1.162,10.852,10.852,0,0,0-.325-1.162,32.081,32.081,0,0,0-1.72-4.23c-.6-1.3-1.208-2.51-1.72-3.625a6.2,6.2,0,0,1-.325-.837h0c.651.511,1.255.93,1.766,1.255a8.25,8.25,0,0,0,1.255.651,3.212,3.212,0,0,1,.465.232,25.549,25.549,0,0,0-.79-3.486c-.325-1.115-.651-2.138-.93-3.068-.139-.465-.279-.93-.372-1.394-.139-.465-.232-.976-.372-1.441a2.969,2.969,0,0,1-.093-.325c.139.046.232.093.372.139a7.171,7.171,0,0,0,.79.232,6.064,6.064,0,0,1,.6.139c.325.046.511.093.511.093-1.069-2.277-2.092-4.276-2.975-6.182-.465-.93-.883-1.859-1.255-2.742a1.392,1.392,0,0,0-.186-.372c.139.093.325.232.465.325a6.374,6.374,0,0,1,.93.744l.232.232.093.093a4.133,4.133,0,0,0,.093-2.138,9.56,9.56,0,0,0-.651-2.045,13.311,13.311,0,0,0-2-3.346c-.186-.186-.325-.372-.511-.558q.558.07.976.139c.651.093,1.208.186,1.58.232a5.258,5.258,0,0,1,.558.093,15.105,15.105,0,0,0-6-5.206c1.208-.186,2.277-.372,3.161-.511.79-.139,1.441-.279,1.906-.372l.7-.139A27.342,27.342,0,0,0,75.9,6.368c-.93-.232-1.813-.465-2.742-.6.651-.186,1.208-.325,1.58-.418.465-.139.7-.186.7-.186a20.375,20.375,0,0,0-5.577-1.534,23.7,23.7,0,0,0-5.438-.046,28.831,28.831,0,0,0-6.042,1.348C60.1,3.718,61.631,2.649,62.7,1.906c.558-.372,1.023-.7,1.348-.883A4.332,4.332,0,0,1,64.559.7,13.879,13.879,0,0,0,59.586.418a17.045,17.045,0,0,0-4.462,1.208A21.246,21.246,0,0,0,48.989,5.81a4.9,4.9,0,0,0-.232-.883,6.77,6.77,0,0,0-1.441-2.463A6.294,6.294,0,0,0,45.41.93,5.527,5.527,0,0,0,43.644.279,1.069,1.069,0,0,0,42.9,0h-.511a1.459,1.459,0,0,0-.418.046,17.85,17.85,0,0,1,1.023,2.51c.279.744.465,1.487.651,2.185a14.13,14.13,0,0,0-4.369-2.556,12.65,12.65,0,0,0-2.928-.7,13.313,13.313,0,0,0-2.324-.046,8.459,8.459,0,0,0-1.487.186,5.258,5.258,0,0,0-.558.093,34.731,34.731,0,0,0,2.975,2.463l.558.418a15.913,15.913,0,0,0-1.859-.79,17.9,17.9,0,0,0-3.207-.79,22.141,22.141,0,0,0-5.206-.093,16.712,16.712,0,0,0-2,.325,31.336,31.336,0,0,0,2.882,2.185,5.4,5.4,0,0,0-.837-.186,11.956,11.956,0,0,0-3.625-.279,8.976,8.976,0,0,0-1.673.279c-.511.139-.976.325-1.394.465a11.411,11.411,0,0,0-2.045,1.162,10.351,10.351,0,0,0-1.162.976,2.07,2.07,0,0,0-.372.372c1.3.186,2.556.325,3.718.465.139,0,.279.046.418.046A12.442,12.442,0,0,0,16.268,9.9a12.1,12.1,0,0,0-3.579,2.975,5.628,5.628,0,0,0-.79,1.115,2.055,2.055,0,0,0-.232.418,34.906,34.906,0,0,0,3.9-.186,11.43,11.43,0,0,0-1.534,1.441c-.465.511-.883,1.069-1.255,1.534-.372.511-.7.93-.976,1.3a6.761,6.761,0,0,1-.7.93c-.186.232-.279.372-.279.372a6.624,6.624,0,0,0,3.021.139c-.046.046-.093.139-.186.186q-.558.627-.976,1.115a10.249,10.249,0,0,1-.79.744c-.232.186-.325.279-.325.279a4.667,4.667,0,0,0,2.231.7c-.279.325-.511.7-.744.976-.418.558-.744,1.023-1.069,1.394a7.812,7.812,0,0,1-.883.883,1.769,1.769,0,0,0-.279.232c-.093.046-.093.093-.093.093a4.193,4.193,0,0,0,1.859.418,5.066,5.066,0,0,0,1.208-.139l-.046.279-.79.79a16.06,16.06,0,0,0-2.092,2.975,10.252,10.252,0,0,0-.511,1.023c-.093.232-.186.418-.186.418a9.367,9.367,0,0,0,2.556-.093c-.046.046-.046.093-.093.093a12.98,12.98,0,0,0-1.813,3.951c-.372,1.255-.558,2.51-.744,3.439-.046.465-.139.837-.139,1.115a2.869,2.869,0,0,0-.046.418,8.2,8.2,0,0,0,2.185-.837c-.186.279-.372.6-.558.883-.93,1.534-1.72,2.928-2.37,3.951-.325.511-.6.93-.744,1.208a4.827,4.827,0,0,0-.279.465,10.582,10.582,0,0,0,2.37-.418,18.583,18.583,0,0,0-1.441,2.649c-.372.79-.651,1.534-.883,2.185-.232.7-.465,1.348-.6,1.952a3.624,3.624,0,0,0-.046,1.394c.046.139.046.279.093.325l.046.093a6.084,6.084,0,0,1,1.255-.883c.418-.232.883-.465,1.394-.79a2.578,2.578,0,0,0,.372-.279l-.093.7c-.046.046-.093.139-.139.186-.837,1.162-1.58,2.231-2.324,3.254S6.739,59.167,6.089,60s-1.255,1.534-1.766,2.138a9.465,9.465,0,0,0-.7.79,7.742,7.742,0,0,1-.558.6,5.468,5.468,0,0,0-.465.511,13.849,13.849,0,0,0,4.973-1.441,16.259,16.259,0,0,0,1.952-1.115c-1.162,2.37-2.138,4.555-2.928,6.6-.93,2.277-1.673,4.323-2.185,5.763-.232.744-.465,1.348-.6,1.766a6.076,6.076,0,0,0-.186.651,20.177,20.177,0,0,0,4.741-3.718l-.093.651c-.372.837-.744,1.627-1.069,2.417-1.162,2.649-2.092,4.973-2.742,6.646-.325.837-.558,1.487-.744,2a4.021,4.021,0,0,0-.232.744,24.952,24.952,0,0,0,3.346-2.6c-.279,1.115-.511,2.138-.79,3.068a14.109,14.109,0,0,1-.558,1.673c-.093.279-.186.511-.279.79l-.279.7a13.341,13.341,0,0,1-1.348,2.324,7.279,7.279,0,0,1-1.3,1.348c-.093.093-.186.139-.232.186a.642.642,0,0,0-.186.139c-.093.093-.139.093-.139.093a6.531,6.531,0,0,0,2.789-.372A8.889,8.889,0,0,0,6,91.61c-.046.186-.139.372-.186.511a17.571,17.571,0,0,1-1.3,2.649,19.571,19.571,0,0,1-1.58,2.045c-.511.558-.93,1.023-1.208,1.3a3.35,3.35,0,0,1-.465.465,10.72,10.72,0,0,0,3.9-.837c-.372.232-.744.465-1.069.7a18.687,18.687,0,0,1-2.045,1.115l-.837.418a6.824,6.824,0,0,1-.651.279c-.372.139-.558.232-.558.232a10.494,10.494,0,0,0,4,.93c-.093.093-.232.139-.325.232-1.115.837-1.72,1.394-1.72,1.394a23.984,23.984,0,0,0,6.321,0c-.139.139-.232.279-.372.418a13.844,13.844,0,0,0-1.255,1.58A18.667,18.667,0,0,0,14.13,103.6c.558-.232,1.069-.465,1.58-.7a6.821,6.821,0,0,0-.418.7,2.119,2.119,0,0,0-.186.372,12.053,12.053,0,0,0,5.02-.279c-.7.837-1.069,1.394-1.069,1.394a17.765,17.765,0,0,0,7.018-1.023,18.2,18.2,0,0,0,2.37-1.023,2.774,2.774,0,0,0-.418.7,3.343,3.343,0,0,0-.465,1.115v.418a1.582,1.582,0,0,1,.651-.093h.651a3.518,3.518,0,0,0,.7-.046,3.588,3.588,0,0,0,.7-.093,15.74,15.74,0,0,0,2.649-.6c.465-.139.883-.325,1.348-.511a1.893,1.893,0,0,0-.279.511,4.3,4.3,0,0,1-.232.418c1.162-.046,2.231-.093,3.3-.232a27.8,27.8,0,0,0,2.835-.558c-.093.418-.139.7-.139.7a9.2,9.2,0,0,0,4-.511v.418a.846.846,0,0,0,.186.511c.093.093.186.093.186.046v-.046h.046c.046,0,.093-.046.186-.046h.139l.093-.046c.046,0,.093,0,.093-.046h.093l.325-.186.325-.186c.093-.046.186-.139.279-.186a3.876,3.876,0,0,0,.558-.372,15.989,15.989,0,0,0,1.673-1.3l.558.558.7.558a4.014,4.014,0,0,0,.744.465,5.315,5.315,0,0,0,1.441.6,4.561,4.561,0,0,0,1.023.093,1.643,1.643,0,0,0,.279-.046.162.162,0,0,0,.093-.046,19.133,19.133,0,0,1-.232-2.092,12.78,12.78,0,0,0,2.556,1.627,12.353,12.353,0,0,0,1.487.6,11.517,11.517,0,0,0-.418-3.393h.139a7.148,7.148,0,0,0,.6.558c.325.279.6.511.93.744a6.747,6.747,0,0,0,.883.558,6.582,6.582,0,0,0,.837.372,4.763,4.763,0,0,0,1.208.372c.279.046.465.093.465.093-.046-.279-.139-.511-.186-.79l-.093-.372-.046-.139a1.743,1.743,0,0,0,.465.046,3.7,3.7,0,0,0,1.023,0,1.286,1.286,0,0,0,.372-.046c-.093-.279-.139-.558-.232-.79a16.431,16.431,0,0,0,1.58,1.115,10,10,0,0,0,3.393,1.069c.465.046.837.093,1.115.093h.418a12.442,12.442,0,0,0-1.162-2.882c.139.046.279.139.418.186a11.812,11.812,0,0,0,3.9.837,10.261,10.261,0,0,0,1.208,0,2.109,2.109,0,0,0,.465-.046l-.139-.279a12.209,12.209,0,0,0,3.9,1.023c-.139-.6-.279-1.208-.465-1.766.093.093.186.232.279.325a11.068,11.068,0,0,0,1.72,1.627,7.347,7.347,0,0,0,1.673.883,3.873,3.873,0,0,0,.7.186,2.4,2.4,0,0,0,.511.093,3.13,3.13,0,0,0,.465.046c-.279-.976-.511-1.859-.744-2.742a10.455,10.455,0,0,1-.232-1.023,15.812,15.812,0,0,0,2.231,2.138,10.068,10.068,0,0,0,2.37,1.394,6.436,6.436,0,0,0,1.72.418h.6a12.823,12.823,0,0,1-2.138-3.439c-.279-.6-.558-1.208-.837-1.859-.279-.6-.558-1.255-.837-1.859-.093-.232-.232-.511-.325-.744.046-.093.093-.139.139-.232A2.628,2.628,0,0,0,85.01,98.163Z" transform="translate(12.378 0)"/>
        <ellipse id="Ellipse_18" data-name="Ellipse 18" class="cls-10" cx="9.249" cy="9.249" rx="9.249" ry="9.249" transform="matrix(0.939, -0.345, 0.345, 0.939, 33.182, 23.598)"/>
        <ellipse id="Ellipse_19" data-name="Ellipse 19" class="cls-6" cx="8.413" cy="8.413" rx="8.413" ry="8.413" transform="translate(36.64 19.707)"/>
        <ellipse id="Ellipse_20" data-name="Ellipse 20" class="cls-11" cx="5.438" cy="5.438" rx="5.438" ry="5.438" transform="translate(38.7 32.666) rotate(-78.586)"/>
        <path id="Tracé_73" data-name="Tracé 73" class="cls-12" d="M5.577,2.79A2.789,2.789,0,1,1,2.789,0,2.739,2.739,0,0,1,5.577,2.79Z" transform="translate(42.31 25.655)"/>
        <path id="Tracé_74" data-name="Tracé 74" class="cls-6" d="M5.042.9c.186.79-.79,1.673-2.138,2.045-1.394.372-2.7,0-2.882-.744C-.163,1.408.813.525,2.161.153,3.555-.218,4.857.107,5.042.9Z" transform="translate(41.916 23.923)"/>
        <path id="Tracé_75" data-name="Tracé 75" class="cls-6" d="M3.289.459c.186.511-.372,1.208-1.255,1.58s-1.813.279-2-.232S.408.6,1.291.226,3.057-.053,3.289.459Z" transform="translate(45.063 30.31)"/>
        <ellipse id="Ellipse_21" data-name="Ellipse 21" class="cls-10" cx="9.249" cy="9.249" rx="9.249" ry="9.249" transform="translate(63.319 19.568)"/>
        <ellipse id="Ellipse_22" data-name="Ellipse 22" class="cls-6" cx="8.413" cy="8.413" rx="8.413" ry="8.413" transform="translate(64.155 19.428)"/>
        <ellipse id="Ellipse_23" data-name="Ellipse 23" class="cls-11" cx="5.438" cy="5.438" rx="5.438" ry="5.438" transform="translate(67.083 22.728)"/>
        <path id="Tracé_76" data-name="Tracé 76" class="cls-12" d="M0,2.79A2.789,2.789,0,1,0,2.789,0,2.739,2.739,0,0,0,0,2.79Z" transform="translate(69.733 25.376)"/>
        <path id="Tracé_77" data-name="Tracé 77" class="cls-6" d="M.023.9c-.186.79.79,1.673,2.138,2.045,1.394.372,2.7,0,2.882-.744C5.228,1.408,4.252.525,2.9.153,1.51-.218.209.107.023.9Z" transform="translate(70.639 23.644)"/>
        <path id="Tracé_78" data-name="Tracé 78" class="cls-6" d="M.036.459C-.15.97.408,1.667,1.291,2.039s1.813.279,2-.232S2.917.6,2.034.226.268-.053.036.459Z" transform="translate(69.232 30.032)"/>
        <g id="Groupe_16" data-name="Groupe 16" transform="translate(15.811 12.598)">
          <path id="Tracé_79" data-name="Tracé 79" class="cls-13" d="M23.751,1.534A40.936,40.936,0,0,0,18.08,0H15.106L0,21.194c1.813.418,3.486,1.441,5.3,1.952,1.673.511,3.439.837,5.113,1.255L26.261,2.231A25.268,25.268,0,0,1,23.751,1.534Z" transform="translate(7.164 2.833)"/>
          <g id="Groupe_15" data-name="Groupe 15">
            <g id="Groupe_14" data-name="Groupe 14" class="cls-14" transform="translate(6.547 3.369)">
              <path id="Tracé_80" data-name="Tracé 80" class="cls-15" d="M14.792.069C2.894-.489,1.081,2.532,1.081,2.532S-.732,4.159.337,13.036c1.208,10.551,7.2,10.83,18.359,10.5,9.714-.279,10.876-10.365,10.969-15.9C29.759,2.067,26.691.673,14.792.069Z"/>
              <path id="Tracé_81" data-name="Tracé 81" class="cls-15" d="M26.5,1.212C22.037-.786,9.627-.043,4,1.491a5.309,5.309,0,0,0-4,5.438c.186,4.183.279,15.152,9.9,16.407s16.221-.976,17.43-4.787C28.59,14.738,30.961,3.211,26.5,1.212Z" transform="translate(42.534 0.39)"/>
            </g>
            <path id="Tracé_82" data-name="Tracé 82" class="cls-13" d="M25.238,1.58A40.937,40.937,0,0,0,19.568.046L16.593,0,0,23.611c1.813.418,2.789.883,4.555,1.441,1.673.511,5.624-.093,7.3-.558L27.7,2.277C26.865,2.045,26.028,1.859,25.238,1.58Z" transform="translate(54.386 3.577)"/>
            <path id="Tracé_83" data-name="Tracé 83" class="cls-16" d="M83.482,1.625C79.95.091,58.895,1.439,50.11,1.9c-7.065.372-10.272.279-10.272.279S16.878-2.187,4.468,1.439c0,0-4.276.837-4.183,3.718s-1.534,6.879,2.092,9.714C6,17.753.75,28.211,16.552,29.372s19.8-2.882,21.148-8.18c1.348-5.345,3.9-8.6,7.251-6.461,3.346,2.092.465,14.5,16.593,15.338,16.082.837,17.151-5.345,18.406-9.435s1.813-6.693,3.439-7.994C84.969,11.246,87.014,3.158,83.482,1.625ZM25.244,26.909c-11.155.325-17.151.046-18.406-10.5-1.069-8.877.744-10.5.744-10.5S9.395,2.833,21.293,3.437c11.9.558,14.966,2,14.873,7.53C36.12,16.5,34.958,26.63,25.244,26.909Zm51.173-4.6c-1.255,3.811-7.808,6-17.43,4.787-9.621-1.255-9.714-12.177-9.9-16.407a5.309,5.309,0,0,1,4-5.438c5.624-1.534,18.034-2.277,22.5-.279S77.672,18.5,76.417,22.308Z"/>
          </g>
        </g>
        <path id="Tracé_84" data-name="Tracé 84" class="cls-17" d="M35.975,12.038A12.894,12.894,0,0,1,23.053,24.959H0C4.276,15.106,4.276,9.11,0,0H24.122A11.842,11.842,0,0,1,35.975,11.852Z" transform="translate(43.379 56.425)"/>
        <path id="Tracé_85" data-name="Tracé 85" class="cls-17" d="M0,0" transform="translate(53.14 60.051)"/>
        <path id="Tracé_86" data-name="Tracé 86" class="cls-6" d="M0,0V2.975A4.525,4.525,0,0,0,8.6,4.927a4.567,4.567,0,0,0,4.044,2.556,4.52,4.52,0,0,0,4.323-3.161,4.52,4.52,0,0,0,4.323,3.161,4.562,4.562,0,0,0,4.555-4.555V0Z" transform="translate(42.543 56.007)"/>
        <path id="Tracé_87" data-name="Tracé 87" class="cls-6" d="M18.592,0a4.013,4.013,0,0,0-3.579,2.231A4,4,0,0,0,11.48,0,3.947,3.947,0,0,0,7.715,2.789,4.006,4.006,0,0,0,3.951,0,3.947,3.947,0,0,0,0,3.951V6.507H22.542V3.9A3.968,3.968,0,0,0,18.592,0Z" transform="translate(42.543 75.389)"/>
        <path id="Tracé_88" data-name="Tracé 88" class="cls-18" d="M3.439,0S3.393.232,3.3.651s-.232.93-.418,1.58c-.093.325-.186.651-.279,1.023a8.088,8.088,0,0,1-.511,1.162A4.7,4.7,0,0,1,0,6.228s.093-.232.279-.6a15.739,15.739,0,0,0,.7-1.487c.139-.279.232-.6.372-.976a11.35,11.35,0,0,1,.465-1.115A5.486,5.486,0,0,1,3.439,0Z" transform="translate(23.951 72.274)"/>
        <path id="Tracé_89" data-name="Tracé 89" class="cls-18" d="M4.927,0V.186A2.667,2.667,0,0,1,4.88.744a5.638,5.638,0,0,1-.6,1.859A7.465,7.465,0,0,1,2.649,4.741,9.534,9.534,0,0,1,0,6.414s.139-.232.418-.651c.279-.372.7-.93,1.162-1.534s1.023-1.3,1.58-2C3.765,1.487,4.369.79,4.927,0Z" transform="translate(23.393 86.311)"/>
        <path id="Tracé_90" data-name="Tracé 90" class="cls-18" d="M6.275,0A3.006,3.006,0,0,1,5.9.6,8,8,0,0,1,4.787,1.952a7.169,7.169,0,0,1-2,1.348A6.809,6.809,0,0,1,0,3.9a3.4,3.4,0,0,1,.558-.418c.372-.279.837-.6,1.441-1.023A23.014,23.014,0,0,1,6.275,0Z" transform="translate(25.903 93.329)"/>
        <path id="Tracé_91" data-name="Tracé 91" class="cls-18" d="M3.858,0a.36.36,0,0,1-.046.139,2.358,2.358,0,0,1-.093.418q-.139.558-.418,1.394A5.77,5.77,0,0,1,2.231,3.765a5.571,5.571,0,0,1-.976.79A3.594,3.594,0,0,1,0,4.927a.576.576,0,0,0,.093-.139,1.483,1.483,0,0,1,.279-.325A9.878,9.878,0,0,0,1.162,3.3c.325-.511.651-1.069,1.069-1.673A6.759,6.759,0,0,1,3.858,0Z" transform="translate(25.02 57.448)"/>
        <path id="Tracé_92" data-name="Tracé 92" class="cls-18" d="M3.346,0A3.13,3.13,0,0,1,3.3.465a3.555,3.555,0,0,1-.418,1.069A3.139,3.139,0,0,1,1.813,2.7,3.5,3.5,0,0,1,0,3.3s.093-.139.232-.372a4.72,4.72,0,0,1,.7-.883A7.137,7.137,0,0,1,3.346,0Z" transform="translate(28.552 47.176)"/>
        <path id="Tracé_93" data-name="Tracé 93" class="cls-18" d="M0,0A3.212,3.212,0,0,1,.7.232a12.378,12.378,0,0,1,1.72.79A8.958,8.958,0,0,1,4.462,2.649a7.749,7.749,0,0,1,1.627,2.6s-.232-.139-.6-.418-.93-.651-1.534-1.115A22.55,22.55,0,0,1,0,0Z" transform="translate(83.955 45.689)"/>
        <path id="Tracé_94" data-name="Tracé 94" class="cls-18" d="M2.649,0A2.323,2.323,0,0,1,2.7.511a5.107,5.107,0,0,1-.186,1.3,4.207,4.207,0,0,1-.79,1.58A4.552,4.552,0,0,1,0,4.694a3.8,3.8,0,0,1,.186-.511c.093-.325.279-.744.465-1.208A9.826,9.826,0,0,1,2.649,0Z" transform="translate(30.923 64.42)"/>
        <path id="Tracé_95" data-name="Tracé 95" class="cls-18" d="M1.3,0l.093.093A2.021,2.021,0,0,1,1.58.418a3.645,3.645,0,0,1,.372,1.3A3.275,3.275,0,0,1,1.58,3.532a3.725,3.725,0,0,1-.6.883A3.581,3.581,0,0,1,0,5.066a.36.36,0,0,1,.046-.139,2.108,2.108,0,0,0,.093-.372c.093-.279.186-.7.325-1.208C.558,2.882.7,2.324.837,1.766A11.155,11.155,0,0,1,1.3,0Z" transform="translate(32.364 78.735)"/>
        <path id="Tracé_96" data-name="Tracé 96" class="cls-18" d="M0,0A.509.509,0,0,0,.186.093C.279.139.418.232.651.372c.372.232.883.6,1.487,1.023a15.211,15.211,0,0,1,1.813,1.72A6.418,6.418,0,0,1,5.3,5.81L5.159,5.67c-.093-.093-.232-.186-.418-.372C4.415,5.02,3.9,4.555,3.346,4.09A21.168,21.168,0,0,1,1.534,2.324,6.981,6.981,0,0,1,0,0Z" transform="translate(83.165 61.027)"/>
        <path id="Tracé_97" data-name="Tracé 97" class="cls-18" d="M0,0A5.011,5.011,0,0,1,1.58,1.023,5.261,5.261,0,0,1,2.742,2.463,6.809,6.809,0,0,1,3.486,4.6a2.726,2.726,0,0,1-.465-.325A8.4,8.4,0,0,1,2,3.346,8.8,8.8,0,0,1,0,0Z" transform="translate(87.069 55.031)"/>
        <path id="Tracé_98" data-name="Tracé 98" class="cls-18" d="M.036,0S.176.232.408.651A13.6,13.6,0,0,1,1.2,2.417a14.779,14.779,0,0,1,1.116,5.67,4.276,4.276,0,0,1-.418-.7c-.232-.418-.558-1.069-.883-1.813A12.71,12.71,0,0,1,.036,0Z" transform="translate(84.058 74.877)"/>
        <path id="Tracé_99" data-name="Tracé 99" class="cls-18" d="M0,0,.139.139A2.756,2.756,0,0,1,.511.511c.325.325.744.744,1.255,1.3A17.1,17.1,0,0,1,3.3,3.718,10.2,10.2,0,0,1,4.09,4.88c.279.418.511.883.79,1.348a.508.508,0,0,0-.186-.093,2.984,2.984,0,0,1-.465-.279A8.858,8.858,0,0,1,2.7,4.694,10.958,10.958,0,0,1,1.023,2.649,9.758,9.758,0,0,1,0,0Z" transform="translate(89.765 71.159)"/>
        <path id="Tracé_100" data-name="Tracé 100" class="cls-18" d="M0,0A2.726,2.726,0,0,1,.465.325a13.517,13.517,0,0,1,1.069.93A8.274,8.274,0,0,1,2.7,2.789a4.808,4.808,0,0,1,.511.976c.186.372.325.744.511,1.162a.36.36,0,0,1-.139-.046,2.038,2.038,0,0,1-.418-.232,6.128,6.128,0,0,1-1.208-.976A7.958,7.958,0,0,1,0,0Z" transform="translate(91.392 89.611)"/>
        <path id="Tracé_101" data-name="Tracé 101" class="cls-18" d="M0,0A.36.36,0,0,1,.139.046,2.743,2.743,0,0,1,.511.232a5.79,5.79,0,0,1,1.069.93,5.049,5.049,0,0,1,.976,1.627,6.582,6.582,0,0,1,.325,1.023c.093.372.139.744.232,1.208a.575.575,0,0,0-.139-.093,1.483,1.483,0,0,1-.325-.279,6.164,6.164,0,0,1-.93-1.115A10.754,10.754,0,0,1,.744,1.906,9.53,9.53,0,0,1,0,0Z" transform="translate(77.541 91.098)"/>
        <path id="Tracé_102" data-name="Tracé 102" class="cls-18" d="M4.556,0A8.1,8.1,0,0,1,0,5.066,13.164,13.164,0,0,1,4.556,0Z" transform="translate(41.519 91.052)"/>
        <path id="Tracé_103" data-name="Tracé 103" class="cls-18" d="M0,0A6.3,6.3,0,0,1,3.858,4.555,9.847,9.847,0,0,1,0,0Z" transform="translate(64.945 89.1)"/>
        <path id="Tracé_104" data-name="Tracé 104" class="cls-18" d="M.181,0A1.316,1.316,0,0,1,.459.139a1.86,1.86,0,0,1,.558.511,1.225,1.225,0,0,1,.232.93,1.5,1.5,0,0,1-.7,1.069,2.418,2.418,0,0,0-.139-.232,3.763,3.763,0,0,1-.279-.6A2.7,2.7,0,0,1,.181,0Z" transform="translate(62.255 96.815)"/>
      </g>
    </g>
  </g>
</svg>
