<svg xmlns="http://www.w3.org/2000/svg" xmlns:xlink="http://www.w3.org/1999/xlink" viewBox="-50 6722 1920 1606">
  <defs>
    <style>
      .cls-1 {
        clip-path: url(#clip-Screen_2-5);
      }

      .cls-2 {
        fill: #2e3234;
      }

      .cls-3 {
        fill: #7ea4b3;
      }
    </style>
    <clipPath id="clip-Screen_2-5">
      <rect x="-50" y="6722" width="1920" height="1606"/>
    </clipPath>
  </defs>
  <g id="Screen_2-5" data-name="Screen 2-5" class="cls-1">
    <g id="Groupe_295" data-name="Groupe 295" transform="translate(-233.028 7524.16)">
      <path id="Tracé_476" data-name="Tracé 476" class="cls-2" d="M2.417,194.914c1.51-.6,3.927-1.813,6.948-3.021,1.51-.6,3.021-1.208,4.834-1.813s3.927-1.208,6.042-2.115c2.115-.6,4.531-1.208,6.646-1.813,2.417-.6,4.834-1.208,7.552-1.813a143.7,143.7,0,0,1,16.918-2.115,129.186,129.186,0,0,1,18.73,0,154.944,154.944,0,0,1,19.636,3.021,127.847,127.847,0,0,1,19.032,6.344l4.834,2.115c1.813.906,3.021,1.511,4.532,2.417,2.719,1.51,5.74,3.323,8.459,5.136a153.509,153.509,0,0,1,15.407,12.386,135.339,135.339,0,0,1,12.688,13.9,132.473,132.473,0,0,1,9.969,13.9c1.208,2.417,2.719,4.531,3.927,6.646s2.115,4.229,3.323,6.344c.906,2.115,1.813,3.927,2.417,5.74.906,1.813,1.511,3.625,2.115,5.136,1.208,3.021,1.813,5.438,2.417,7.25l.906,2.719a18.649,18.649,0,0,1,.3-2.719c0-1.813.6-4.531.3-7.855a38.52,38.52,0,0,0-.3-5.74c-.3-2.115-.3-4.229-.6-6.646s-.906-4.834-1.51-7.552a83.338,83.338,0,0,0-2.417-8.157c-2.115-5.74-4.229-11.782-7.855-17.824a111.368,111.368,0,0,0-12.386-17.824,124.336,124.336,0,0,0-16.918-16.313,87.139,87.139,0,0,0-10.271-6.948c-1.51-.906-3.323-1.813-4.531-2.719a57.029,57.029,0,0,0,1.813-5.438c1.208-3.927,3.021-8.761,4.834-14.5.906-2.719,1.813-5.74,3.021-8.761.906-3.021,2.115-6.344,3.323-9.667,2.417-6.646,5.136-13.594,8.459-20.543a120.5,120.5,0,0,1,12.084-20.845L158.9,92.8l1.813-2.417a55.158,55.158,0,0,1,3.927-4.834c1.51-1.51,2.719-3.021,4.229-4.531A54.016,54.016,0,0,0,173.1,77.1a37.392,37.392,0,0,1,5.438-4.229l1.51-1.208.6-.3h.3l.3-.3,2.719-1.813,5.438-3.625,5.74-3.021c1.813-1.208,3.927-1.813,5.74-2.719a50.37,50.37,0,0,1,6.042-2.417c4.229-1.208,8.157-2.719,12.386-3.625,8.459-2.115,16.918-2.719,25.074-3.021a123.09,123.09,0,0,1,23.866,2.115,35.127,35.127,0,0,1,5.438,1.208,46.6,46.6,0,0,0,5.136,1.51c1.813.6,3.323.906,5.136,1.511,1.51.6,3.323,1.208,4.834,1.813l4.531,1.813a27.622,27.622,0,0,0,4.229,2.115c1.51.6,2.719,1.51,4.229,2.115,1.208.906,2.417,1.51,3.625,2.417A108.631,108.631,0,0,1,317.2,76.189a78.969,78.969,0,0,1,6.948,6.646l2.417,2.417-1.51-3.021a20.114,20.114,0,0,1-1.813-3.625c-.906-1.51-1.51-3.323-3.021-4.834-1.208-1.813-2.719-3.625-4.229-6.042a6.589,6.589,0,0,0-1.208-1.51l-1.51-1.51a33.076,33.076,0,0,1-3.021-3.323l-3.323-3.323c-1.208-.906-2.417-2.115-3.927-3.323a51.654,51.654,0,0,0-4.229-3.323,39.36,39.36,0,0,0-4.531-3.021c-.906-.6-1.51-.906-2.417-1.51,1.51-.6,3.323-1.208,5.136-2.115,3.927-1.208,8.761-3.021,14.2-4.229,2.719-.6,5.74-1.51,8.761-2.115a91.491,91.491,0,0,1,9.667-1.813A167.02,167.02,0,0,1,351.644,34.8c3.927,0,7.855-.3,12.084,0,2.115,0,4.229.3,6.042.3,2.115.3,4.229.3,6.344.6,8.459.6,17.22,2.417,25.678,3.927,8.761,2.115,17.522,4.229,25.981,7.552l6.344,2.115,6.042,2.417c3.927,1.511,8.459,3.625,12.688,5.74l.906.3h.6l1.51.906,3.021,1.511c2.115.906,3.927,2.115,5.74,3.021A94.6,94.6,0,0,1,475.5,69.845a118.226,118.226,0,0,1,19.032,14.8,24.152,24.152,0,0,1,3.927,3.927l2.115,2.115,1.813,1.813a74.674,74.674,0,0,1,6.344,8.157,82.008,82.008,0,0,1,13.594,29.908,12.849,12.849,0,0,1,.6,3.323c-.906.3-1.813.3-2.719.6a60.407,60.407,0,0,0-11.178,3.021c-3.625,1.208-6.948,2.719-9.969,3.927-3.021,1.51-5.74,3.323-8.459,4.834-2.417,1.813-4.834,3.323-6.646,4.834a40.03,40.03,0,0,0-5.136,4.834,47.817,47.817,0,0,0-3.927,3.927,34.7,34.7,0,0,1-2.417,3.021c-1.51,1.813-2.115,2.719-2.115,2.719s.906-.6,3.021-1.813a72.581,72.581,0,0,1,8.157-4.834c1.813-.906,3.625-2.115,5.74-3.021s4.531-1.813,7.25-3.021c2.719-.906,5.438-1.51,8.157-2.417,3.021-.6,6.042-1.208,9.365-1.813,3.323-.3,6.646-.906,10.271-.906h5.438c1.813,0,3.625.3,5.438.3a8.363,8.363,0,0,1,2.719.3c.906,0,1.813.3,2.719.3a37.015,37.015,0,0,0,5.74.6c3.927.906,7.855,1.51,11.782,2.719,7.855,1.813,15.709,4.834,23.866,8.157a189.25,189.25,0,0,1,23.262,12.084,210.888,210.888,0,0,1,21.449,15.1,204.111,204.111,0,0,1,18.73,17.22c3.021,3.021,5.438,6.042,8.157,9.063a107.33,107.33,0,0,1,6.948,9.365,39.365,39.365,0,0,1,3.021,4.532l2.719,4.532c1.813,3.021,3.323,6.042,4.834,9.063a102.358,102.358,0,0,1,6.646,16.918c1.208,4.834,2.417,9.365,3.021,13.292a71.934,71.934,0,0,0-10.573,11.178,66.53,66.53,0,0,0-8.761,12.084q-3.172,5.438-4.531,8.157l-1.511,3.021,2.417-2.417c1.511-1.511,3.927-3.625,6.646-6.344a96.487,96.487,0,0,1,11.178-8.761c2.115-1.51,4.229-3.021,6.646-4.531v1.208a3.666,3.666,0,0,0,.3-1.511c2.417-1.51,5.136-3.323,8.157-4.834a141.3,141.3,0,0,1,40.783-15.105c1.813-.3,3.625-.6,5.74-.906l6.344-.906c3.927-.3,7.855-.6,12.084-.6a114.8,114.8,0,0,1,24.772,2.417,127.5,127.5,0,0,1,23.866,6.948,146.162,146.162,0,0,1,21.751,10.876,78.5,78.5,0,0,1,16.918,13.9,17.127,17.127,0,0,1,3.021,3.927,10.591,10.591,0,0,1,1.51,2.417l1.208,1.813a48.143,48.143,0,0,1,4.531,8.761c2.719,5.74,4.834,11.782,6.948,16.918s3.927,9.667,5.74,13.292a72.575,72.575,0,0,0,4.834,8.157l1.813,2.719s-.3-1.208-.906-3.323a78.489,78.489,0,0,1-1.813-9.063c-.6-3.927-1.208-8.761-2.115-14.2a60.487,60.487,0,0,0-1.208-7.25,4.294,4.294,0,0,1,1.813.6c2.115.6,4.834,1.51,7.855,2.115,3.021.906,6.344,2.115,9.667,3.323,3.323,1.51,7.25,3.021,10.876,4.834A104.857,104.857,0,0,1,906,336.6c3.625,2.417,7.25,5.136,10.876,7.855,3.323,3.021,6.948,6.042,9.969,9.365l2.417,2.719a16.606,16.606,0,0,1,2.115,2.719c1.208,1.511,2.417,3.625,3.927,5.438a88.538,88.538,0,0,1,6.344,11.782,62.928,62.928,0,0,1,4.531,11.782c1.208,3.927,2.115,7.552,3.021,11.178.3,1.813.6,3.625.906,5.136.3,1.813.3,3.323.6,4.834,0,1.813.3,3.625.3,5.438H949.5c-5.136.6-9.969,1.51-13.9,2.115-4.229.906-7.552,1.813-10.573,2.719a69.949,69.949,0,0,0-6.646,2.417c-1.511.6-2.417.906-2.417.906a13.688,13.688,0,0,1,2.417.3c1.51,0,3.927.3,6.948.6s6.344.6,10.573,1.208c3.927.6,8.459.906,13.292,1.813s9.969,1.51,15.407,2.719,10.876,2.719,16.615,4.229c5.438,1.813,11.178,3.927,16.615,6.344a118.29,118.29,0,0,1,16.011,8.761l3.927,2.719a37.762,37.762,0,0,1,3.625,2.719c2.115,1.51,4.531,3.625,6.646,5.438a157.709,157.709,0,0,1,11.782,12.99,99.44,99.44,0,0,1,9.063,13.9,75.243,75.243,0,0,1,6.042,13.595,52.035,52.035,0,0,0,2.115,6.344c.6,2.115.906,4.229,1.51,6.042l.906,5.438a27.653,27.653,0,0,1,.3,4.834,63.566,63.566,0,0,1,.3,6.948v2.417a8.356,8.356,0,0,1,1.208-2.115,57.355,57.355,0,0,0,2.719-6.646c.3-1.51,1.208-3.021,1.511-4.834s.906-3.927,1.208-6.042.3-4.532.6-6.948a70.911,70.911,0,0,0-.3-7.855,95.717,95.717,0,0,0-3.323-17.22,79.925,79.925,0,0,0-8.157-18.126l-2.719-4.532c-.906-1.51-2.115-2.719-3.021-4.229a90,90,0,0,0-6.948-8.157c-2.719-2.417-5.136-5.136-8.157-7.552-1.51-1.208-3.021-2.417-4.229-3.323l-2.115-1.511-.906-.6-.6-.3-.3-.3-.6-.3h0a98.751,98.751,0,0,0-19.636-9.667,131.2,131.2,0,0,0-19.939-5.438,106.48,106.48,0,0,0-19.032-1.813h-9.365c.6-1.208.906-2.417,1.511-3.927s.906-3.323,1.511-5.136a53.365,53.365,0,0,1,1.208-6.042,52.914,52.914,0,0,0,.3-13.9,71.9,71.9,0,0,0-2.719-15.407,85.56,85.56,0,0,0-6.344-15.709c-1.51-2.417-2.719-5.136-4.834-7.552a37.721,37.721,0,0,0-2.719-3.625l-2.719-3.323c-2.115-2.115-4.229-4.229-6.344-6.042.6-.3.906-.906,1.51-1.208,3.323-2.417,7.552-5.136,12.386-8.157,2.417-1.208,5.136-2.719,7.855-4.229,3.021-1.208,5.74-2.719,9.063-3.927s6.344-2.417,9.969-3.625a36.523,36.523,0,0,1,5.438-1.51c1.813-.3,3.625-.906,5.74-1.208,3.625-.906,7.855-1.51,11.782-2.417,4.229-.3,8.157-1.208,12.386-1.511a188.7,188.7,0,0,1,26.283-.6,261.433,261.433,0,0,1,26.887,2.417c9.063,1.51,17.824,3.323,26.585,5.438,8.761,2.417,17.22,4.834,25.074,8.157,3.927,1.51,7.854,3.323,11.782,4.834,3.625,1.813,7.25,3.323,10.876,5.438a106.994,106.994,0,0,1,9.969,5.74c1.51.906,3.323,1.813,4.531,2.719a51.232,51.232,0,0,1,4.229,3.021,126.73,126.73,0,0,1,14.8,11.782,115.784,115.784,0,0,1,10.573,10.573,39.267,39.267,0,0,1,3.625,4.229c-1.51.906-3.323,1.813-4.532,2.719a95.3,95.3,0,0,0-8.157,5.74,128.71,128.71,0,0,0-21.449,21.449c-2.417,2.719-3.927,5.136-5.136,6.646s-1.813,2.417-1.813,2.417a27.942,27.942,0,0,1,2.719-1.511c1.51-.906,4.229-2.417,7.25-4.229s6.646-3.927,11.178-6.646c4.229-2.417,9.063-5.136,14.2-7.855l8.157-3.625a23.683,23.683,0,0,1,4.229-1.51c.906-.3,1.51-.6,2.417-.906l2.115-.6a122.643,122.643,0,0,1,19.938-3.927,131.976,131.976,0,0,1,22.053-.906,199.656,199.656,0,0,1,22.96,1.51,197.529,197.529,0,0,1,22.657,3.927,215.958,215.958,0,0,1,21.147,6.042,180.273,180.273,0,0,1,19.032,8.157,154.927,154.927,0,0,1,15.709,9.667,81.057,81.057,0,0,1,11.782,10.574,63.331,63.331,0,0,1,4.229,5.136,43.256,43.256,0,0,1,3.323,4.531,222.752,222.752,0,0,0-15.709,47.43c-1.51,7.552-2.719,14.8-3.625,20.845q-1.36,9.516-1.812,16.313c-.6,9.063-.906,14.2-.906,14.2a37.951,37.951,0,0,1,1.208-3.625q1.36-3.625,3.625-9.969c3.021-8.459,7.25-20.543,12.99-34.439,2.719-6.948,6.042-14.5,9.667-22.355s7.855-15.709,12.386-23.564A198.959,198.959,0,0,1,1396,408.5a210.648,210.648,0,0,1,19.334-20.845,152.413,152.413,0,0,1,22.658-16.918,59.912,59.912,0,0,1,6.042-3.323,56.332,56.332,0,0,1,6.042-3.021c1.813-.906,4.229-1.813,6.646-2.719l1.813-.6,1.208-.3,3.021-.906c16.615-5.438,33.835-5.74,48.034-3.625a86.17,86.17,0,0,1,19.334,4.834,106.108,106.108,0,0,1,14.2,6.646c3.625,2.417,6.646,3.927,8.761,5.74,2.115,1.51,3.021,2.115,3.021,2.115a15.475,15.475,0,0,1-2.115-3.021,62.916,62.916,0,0,0-6.948-8.157,75.5,75.5,0,0,0-13.292-10.271c-2.719-1.813-5.74-3.323-9.063-5.136a90.683,90.683,0,0,0-10.875-4.229c-15.407-5.136-35.044-6.948-55.586-2.417l-3.927.906-.906.3h-1.208l-1.812.6c-2.417.906-4.532,1.51-7.25,2.417a57.061,57.061,0,0,0-7.552,3.323l-7.25,3.625a125.807,125.807,0,0,0-26.585,19.032,181.3,181.3,0,0,0-16.615,17.522c-.6-2.417-.906-4.834-1.51-7.855-.6-4.229-1.51-9.063-2.115-14.2s-1.208-10.876-1.511-16.616c-.3-3.021-.3-6.042-.3-8.761a18.584,18.584,0,0,1,.3-4.229,28.164,28.164,0,0,1,.6-4.229,25.327,25.327,0,0,1,2.719-7.552,47.635,47.635,0,0,1,4.532-7.25,54.8,54.8,0,0,1,12.386-12.688,61.58,61.58,0,0,1,15.709-8.761,69.279,69.279,0,0,1,8.459-2.719c1.51-.3,2.719-.6,4.229-.906a20.787,20.787,0,0,1,3.927-.6c1.51,0,3.021-.3,4.532-.3s2.719-.3,4.229-.3h4.229a19.945,19.945,0,0,1,4.229.3,116.623,116.623,0,0,1,15.407,2.719,72.679,72.679,0,0,1,12.99,4.531,79.591,79.591,0,0,1,9.969,4.531q4.079,2.266,6.344,3.625a13.782,13.782,0,0,0,2.417,1.208,6.2,6.2,0,0,0-1.51-2.115,44.108,44.108,0,0,0-4.531-6.042c-3.927-5.136-10.876-11.782-20.845-17.522a.3.3,0,0,1-.3-.3c2.417-4.834,5.136-9.969,7.553-14.8,3.927-7.25,8.157-14.2,12.386-21.147a231.382,231.382,0,0,1,13.594-19.939c4.834-6.646,9.667-12.688,14.8-19.032,10.573-12.084,21.751-23.564,33.835-33.231,6.042-5.136,12.688-9.365,19.032-13.9a192.714,192.714,0,0,1,20.241-11.48,185.933,185.933,0,0,1,21.449-8.459,28.593,28.593,0,0,1,5.438-1.51l3.021-.906,1.51-.3h1.208a72.776,72.776,0,0,1,11.178-2.115,190.668,190.668,0,0,1,22.96-2.115,202.24,202.24,0,0,1,23.262.906,271.771,271.771,0,0,1,46.221,9.063c7.854,2.115,15.407,4.229,23.262,6.948l3.021.906,1.208.3c.3,0,.3,0,.6.3,1.208.6,3.021,1.511,4.531,2.115,3.323,1.813,6.646,3.927,9.969,6.042l5.74,3.625,5.136-3.927c2.719-2.115,5.74-4.531,8.761-6.646a51.255,51.255,0,0,0,4.23-3.021l2.115-1.208a6.607,6.607,0,0,1,1.511-.906h.3c-.6.3-.3,0-.3,0h.3l.6-.3,1.208-.6,2.417-.906c1.51-.6,3.323-1.208,4.833-1.813l9.969-2.719c3.323-.6,6.948-1.208,10.271-1.51l2.417-.3,2.719-.3h10.271a27.643,27.643,0,0,1,5.136.3c1.813.3,3.625.3,5.438.6l5.136.906a25.587,25.587,0,0,1,5.136,1.208c1.812.3,3.625.906,5.136,1.208,3.323.906,6.948,2.115,10.271,3.323a36.851,36.851,0,0,1,5.136,2.115c1.813.6,3.323,1.511,4.834,2.115,3.323,1.51,6.344,3.323,9.667,5.136,3.021,2.115,6.344,3.927,9.063,6.042,3.021,2.115,5.74,4.531,8.761,6.948a98.216,98.216,0,0,1,8.157,7.855c2.719,2.719,4.833,5.74,7.552,8.459a95.872,95.872,0,0,0-12.688-18.73h0c.906-.6,2.417-1.813,4.531-3.323a66.093,66.093,0,0,1,6.042-4.229,89.436,89.436,0,0,1,7.855-4.834,110.407,110.407,0,0,1,19.938-9.063c1.813-.6,3.625-1.208,5.74-1.813s3.927-.906,6.042-1.51c3.625-.6,7.855-1.51,11.782-1.51,3.927-.3,8.157-.3,12.084-.3,3.927.3,8.157.6,11.782,1.208,3.927.6,7.552,1.51,11.178,2.417,1.812.6,3.323.906,5.136,1.51l1.208.6c.3,0,.6.3,1.208.3.906.3,1.51.6,2.417.906a91.516,91.516,0,0,1,14.5,7.25c1.813,1.208,3.021,2.115,3.927,2.719a10.914,10.914,0,0,1,1.511,1.208,8.452,8.452,0,0,0-.3-1.813,35.044,35.044,0,0,0-1.812-4.834,25.2,25.2,0,0,0-4.229-6.948,76.429,76.429,0,0,0-6.948-7.855c-.6-.6-1.51-1.208-2.115-1.813a4.171,4.171,0,0,0-1.208-.906l-1.208-.906a42.4,42.4,0,0,0-5.438-3.625,73.622,73.622,0,0,0-8.459-4.229c.906-1.51,2.115-3.625,3.625-5.74,2.417-3.927,5.136-8.459,8.157-13.9,3.323-5.438,6.948-11.178,10.875-17.522,4.229-6.344,8.459-12.99,13.595-19.939A247.705,247.705,0,0,1,2067.268,49.6a146.638,146.638,0,0,1,20.241-18.428c1.813-1.208,3.625-2.719,5.74-3.927,1.812-1.208,3.625-2.417,5.74-3.625a26.538,26.538,0,0,1,3.021-1.813L2105.333,20l3.323-1.813.906-.3.3-.3h0l1.51-.6a116.887,116.887,0,0,1,26.585-7.855A170.086,170.086,0,0,1,2165.45,6.1c4.531-.3,9.063-.3,13.594-.3s8.761.3,13.293.3c8.458.3,16.615.906,24.168,1.813,14.8,1.511,27.491,3.323,36.252,4.834s13.9,2.417,13.9,2.417V710.3H0V195.821S.906,195.519,2.417,194.914Z" transform="translate(0 10.782)"/>
      <g id="Groupe_152" data-name="Groupe 152" transform="translate(0 0.465)">
        <path id="Tracé_477" data-name="Tracé 477" class="cls-3" d="M729.882,71.331a53.1,53.1,0,0,0-12.688,5.136,66.54,66.54,0,0,0-5.74,3.625,16.6,16.6,0,0,0-2.719,2.115c-.906.906-1.813,1.51-2.417,2.115a71.058,71.058,0,0,0-9.063,9.969c-2.719,3.323-5.136,6.948-7.553,10.271-2.115,3.323-4.229,6.646-6.042,9.667s-3.323,5.438-4.531,7.552-2.417,3.927-3.021,5.136a7.473,7.473,0,0,1-1.208,1.813v-2.115a45.114,45.114,0,0,1,.3-5.74,115.592,115.592,0,0,1,3.323-20.845,80.762,80.762,0,0,1,13.9-28.1,15.829,15.829,0,0,1,3.021-3.323l3.323-3.323a55.559,55.559,0,0,1,7.552-5.74,51.954,51.954,0,0,1,17.824-7.855,100.636,100.636,0,0,1,18.428-2.719,84.165,84.165,0,0,1,17.522.906,98.285,98.285,0,0,1,29.3,9.063,76.325,76.325,0,0,1,10.272,6.344,55.167,55.167,0,0,1,7.25,5.74,27.276,27.276,0,0,1,4.229,4.229l1.51,1.51a9.445,9.445,0,0,0-2.115-.6c-1.208-.3-3.323-.906-5.74-1.511s-5.136-1.208-8.459-2.115c-3.323-.6-6.948-1.511-10.875-2.115a179.87,179.87,0,0,0-26.887-2.115,121.687,121.687,0,0,0-14.8.906A55.35,55.35,0,0,0,729.882,71.331Z" transform="translate(1363.97 97.346)"/>
        <path id="Tracé_478" data-name="Tracé 478" class="cls-3" d="M568.441,120.652l-2.719,1.208a51.944,51.944,0,0,0-9.667,6.948c-3.323,2.719-6.344,5.74-9.365,8.761-3.021,3.323-6.042,6.344-9.063,9.667s-5.74,6.646-8.761,9.969c-2.719,3.323-5.438,6.948-8.157,10.574-5.438,6.948-10.573,14.5-15.709,22.053a198.758,198.758,0,0,1,10.271-25.074c2.115-4.229,4.229-8.157,6.344-12.084,2.417-3.927,4.531-7.855,7.25-11.782,5.136-7.552,10.271-15.1,16.918-22.355a57.177,57.177,0,0,1,11.178-9.667l1.813-1.208,1.51-.906,3.625-1.813a69.11,69.11,0,0,1,6.948-3.021,86.153,86.153,0,0,1,14.5-3.927l3.625-.6,3.625-.3c1.208,0,2.115-.3,3.323-.3l3.927-.3a79.87,79.87,0,0,1,14.8.6,120.982,120.982,0,0,1,14.5,2.417,116.4,116.4,0,0,1,42.9,21.147c3.021-3.323,6.344-6.948,9.667-10.271a98.49,98.49,0,0,1,20.543-16.011,88.46,88.46,0,0,1,12.084-5.74,65.876,65.876,0,0,1,13.292-3.323A98.272,98.272,0,0,1,740.94,84.4a89.609,89.609,0,0,1,12.688.906c2.115.3,3.927.6,6.042.906a46.886,46.886,0,0,1,6.344,1.208c4.229.906,8.157,1.813,12.084,3.021s7.855,2.417,11.782,3.927,7.552,3.021,11.178,4.834,7.25,3.625,10.875,5.74l5.136,3.323,5.136,3.625a113.664,113.664,0,0,1,9.365,7.552,50.169,50.169,0,0,1,4.23,3.927c.3-.3.6-.3,1.208-.6l1.812-1.208a107.312,107.312,0,0,1,16.616-8.459c5.74-2.417,12.084-4.532,18.126-6.646a174.939,174.939,0,0,1,19.032-5.438c12.99-3.323,26.887-6.344,41.388-7.552a168.732,168.732,0,0,1,44.409.906,148.743,148.743,0,0,1,42.6,13.292,184.642,184.642,0,0,1,36.252,22.96,120.9,120.9,0,0,1,26.887,30.21,110.371,110.371,0,0,1,13.594,33.533,158.366,158.366,0,0,1,3.323,29.606,169.018,169.018,0,0,1-.6,22.355c-.3,6.344-.906,11.178-1.208,14.2-.3,3.323-.6,5.136-.6,5.136s-.906-6.948-2.417-19.334c-.6-6.042-1.812-13.594-3.323-21.751a180.118,180.118,0,0,0-6.948-27.189,117.873,117.873,0,0,0-6.042-14.2c-1.208-2.417-2.719-4.532-3.927-6.948-.6-.906-1.511-2.417-2.417-3.625s-1.51-2.115-2.417-3.323c-6.646-9.063-15.407-17.22-25.377-24.47a199.236,199.236,0,0,0-33.231-19.334,147.91,147.91,0,0,0-37.46-10.876c-12.688-2.115-26.283-2.115-39.273-1.208a327.031,327.031,0,0,0-38.971,5.438c-6.344,1.208-12.386,2.719-18.73,4.229-6.042,1.51-11.782,3.021-17.22,4.834a116.7,116.7,0,0,0-15.407,6.042l-1.813.906a9.928,9.928,0,0,0-1.812.906,22.53,22.53,0,0,0-3.625,2.115c-2.115,1.208-4.23,2.719-6.344,3.927a161.123,161.123,0,0,0-21.147,18.126c-5.74,6.042-10.875,11.48-14.8,16.313-8.157,9.365-12.688,14.8-12.688,14.8s.906-1.511,2.417-4.532,3.625-7.25,6.948-12.688a206.7,206.7,0,0,1,12.084-19.032,130.122,130.122,0,0,1,19.636-22.355c2.115-1.813,4.23-3.625,6.646-5.438a16.591,16.591,0,0,1,2.719-2.115l-4.229-2.417-5.136-2.719-5.438-2.417L808.006,112.8a76.526,76.526,0,0,0-10.875-3.625c-3.625-.906-7.553-2.115-11.178-3.021s-7.552-1.51-11.178-2.115-7.553-.906-11.178-1.208a32.834,32.834,0,0,0-5.438-.3,42.549,42.549,0,0,1-6.042-.3c-3.625,0-7.553,0-10.875.3-3.625.3-7.25.906-10.573,1.51A36.64,36.64,0,0,0,721,107.36a66.031,66.031,0,0,0-9.063,4.834c-11.48,7.552-21.449,19.334-31.419,31.116l-6.948,8.459-8.157-7.855a112.6,112.6,0,0,0-9.063-7.855,114.331,114.331,0,0,0-9.969-6.646c-3.625-2.115-7.25-3.625-10.875-5.438a73.425,73.425,0,0,0-11.48-3.927c-3.927-1.208-7.855-1.813-11.782-2.719a81.35,81.35,0,0,0-12.084-.906H590.8l-3.021.3c-3.927.6-7.854,1.208-11.782,2.115l-5.438,1.813Z" transform="translate(1020.603 169.167)"/>
        <path id="Tracé_479" data-name="Tracé 479" class="cls-3" d="M1.813,204.79a44.944,44.944,0,0,1,5.438-5.438,52.593,52.593,0,0,1,4.229-3.625c1.51-1.208,3.323-2.417,5.438-3.927,2.115-1.208,4.229-2.719,6.646-3.927s4.834-2.417,7.552-3.927A126.814,126.814,0,0,1,49.242,177.6a96.665,96.665,0,0,1,21.449-3.021,106,106,0,0,1,23.564,1.813,117.241,117.241,0,0,1,23.564,7.25l3.625,1.813a32.935,32.935,0,0,1,.3-5.136c.3-4.229.3-9.365.906-15.1s1.208-12.688,2.417-19.939c.6-3.625,1.51-7.25,2.417-11.178s2.115-7.855,3.323-12.084c2.719-8.157,6.042-16.918,10.876-25.074a72.278,72.278,0,0,1,3.927-6.344,45.035,45.035,0,0,1,4.531-6.042c1.511-1.813,3.021-3.927,4.834-6.042l5.74-5.74c1.813-1.813,3.625-3.021,5.438-4.834l1.208-1.208.6-.6.3-.3h.3l.3-.3,3.323-2.115a49.675,49.675,0,0,1,6.646-4.229l6.948-3.625c2.417-1.208,4.834-2.115,7.25-3.323a70.7,70.7,0,0,1,7.25-2.719,138.955,138.955,0,0,1,15.1-3.927c2.417-.3,5.136-.906,7.552-1.208s5.136-.3,7.553-.6l3.625-.3h3.625c2.417,0,4.834.3,7.25.3a127.534,127.534,0,0,1,27.189,5.438c2.115.6,4.229,1.51,6.042,2.115,2.115.906,3.927,1.813,5.74,2.719l5.438,2.719a.3.3,0,0,1,.3.3c1.51-1.208,3.323-2.719,5.438-4.229a116.749,116.749,0,0,1,13.292-8.157,105.209,105.209,0,0,1,18.428-8.157,122.355,122.355,0,0,1,23.564-5.74c4.229-.6,8.761-1.208,12.99-1.51,2.115,0,4.531-.3,6.948-.3h6.948a156.284,156.284,0,0,1,28.7,2.719,205.066,205.066,0,0,1,29,7.552l6.948,2.719,6.948,3.021,3.625,1.511A16.189,16.189,0,0,0,455.868,48c2.115,1.208,4.229,2.115,6.344,3.323l.906.3.906.6,1.51.906c1.208.6,2.115,1.208,3.323,1.813a41.494,41.494,0,0,1,6.042,3.927c3.927,2.719,8.157,5.438,11.782,8.459a117.768,117.768,0,0,1,19.636,19.032,58.066,58.066,0,0,1,3.927,5.136c.6.906,1.208,1.51,1.813,2.417l1.813,2.719a90.933,90.933,0,0,1,5.74,10.573,81.957,81.957,0,0,1,6.344,19.636,77.206,77.206,0,0,1,1.208,15.709,10.276,10.276,0,0,1-.3,3.021h0c2.115-.3,4.229-.3,6.344-.6,1.208,0,2.115-.3,3.323-.3H546.5a103.962,103.962,0,0,1,13.594,1.51,148.564,148.564,0,0,1,27.491,7.552c9.063,3.323,17.824,8.157,26.283,12.99a198.7,198.7,0,0,1,23.564,17.522c3.625,3.323,7.25,6.646,10.271,9.969,1.511,1.813,3.323,3.625,4.834,5.136l4.531,5.438a93.242,93.242,0,0,1,7.855,11.178,56.112,56.112,0,0,1,3.323,5.74,34.434,34.434,0,0,1,3.021,5.74c1.813,3.927,3.625,7.553,5.136,11.178a76.516,76.516,0,0,1,3.625,10.876,41.2,41.2,0,0,1,1.208,5.136c.3,1.813.6,3.323.906,5.136.6,3.323.6,6.646.906,9.365.3,3.927,0,7.25,0,10.271a115.657,115.657,0,0,1,41.69-21.751l3.323-.906,1.813-.3.906-.3h.906c2.115-.3,4.229-.906,6.344-1.208a59.426,59.426,0,0,1,7.25-.906,58.667,58.667,0,0,1,7.25-.6,119.812,119.812,0,0,1,29.3,2.115A124.642,124.642,0,0,1,834.4,278.8a83.726,83.726,0,0,1,19.032,19.636,35.593,35.593,0,0,1,3.323,5.74,17.935,17.935,0,0,0,1.208,2.417c.3.906.906,2.115,1.208,3.021a114.484,114.484,0,0,1,3.625,10.876c.6,3.021,1.208,5.74,1.813,8.459.6-.3,1.51-.3,2.417-.6a51.988,51.988,0,0,1,8.761-1.511,31.064,31.064,0,0,1,5.438-.3h6.042a76.637,76.637,0,0,1,13.594,1.813c4.834.906,9.667,2.719,14.8,4.531a90.107,90.107,0,0,1,14.8,8.157c1.51.906,2.719,2.115,4.229,3.021a8.012,8.012,0,0,1,1.511-1.813,71.806,71.806,0,0,1,10.573-11.48c2.417-1.813,4.834-4.229,7.553-6.344,2.719-1.813,5.74-4.229,8.761-6.042,3.323-1.813,6.646-3.927,10.271-5.74,1.813-.906,3.625-1.813,5.74-2.719,1.813-.906,3.927-1.51,6.042-2.417a52.043,52.043,0,0,1,6.344-2.115,52.065,52.065,0,0,0,6.344-2.115c4.532-.906,9.063-2.417,13.594-3.021a181.533,181.533,0,0,1,29-2.719c9.969-.3,19.939.906,29.908,2.115a183.879,183.879,0,0,1,29,6.646,191.314,191.314,0,0,1,26.887,10.573c4.229,2.115,8.157,4.229,12.084,6.646s7.552,4.531,11.178,7.25a123.283,123.283,0,0,1,9.969,7.553,108.267,108.267,0,0,1,8.761,7.855,85.085,85.085,0,0,1,12.99,15.709,94.278,94.278,0,0,1,7.855,13.292,38.16,38.16,0,0,1,2.417,5.438h0c.906-.3,1.813-.906,2.719-1.208a105.039,105.039,0,0,1,22.657-7.552,132.288,132.288,0,0,1,24.772-3.021,147.648,147.648,0,0,1,25.678,1.208,175.7,175.7,0,0,1,25.074,5.136,119.156,119.156,0,0,1,23.262,8.761,131.631,131.631,0,0,1,20.241,11.782,100.982,100.982,0,0,1,15.407,14.2,70.779,70.779,0,0,1,9.969,14.8c1.208,2.417,2.115,4.531,3.021,6.646.3.6.3,1.208.6,1.813a162.3,162.3,0,0,1,15.1-24.47c.6-.906,1.51-1.813,2.115-2.719a136.8,136.8,0,0,1-10.272-23.262c-1.812-5.136-3.625-10.876-5.135-16.918a91.482,91.482,0,0,1-1.813-9.667c-.3-1.813-.3-3.323-.6-5.438,0-2.115-.3-4.229,0-5.74.3-8.459,3.021-16.011,6.948-23.262a67.1,67.1,0,0,1,36.856-30.512,49.445,49.445,0,0,1,11.48-3.021,50.312,50.312,0,0,1,11.782-1.208h5.136c1.813.3,3.625.3,5.438.6a56.275,56.275,0,0,1,10.271,2.115,74.156,74.156,0,0,1,15.709,6.344c1.51-5.136,3.323-10.573,5.136-15.709,3.021-7.855,6.042-15.407,9.667-22.96s7.25-14.8,11.48-22.053,8.761-14.2,13.594-21.147a228.085,228.085,0,0,1,32.929-38.065,197.576,197.576,0,0,1,19.637-16.011q10.422-7.25,21.751-13.594a190.146,190.146,0,0,1,23.866-10.573c2.115-.6,4.229-1.51,6.042-2.115l3.021-.906,1.511-.3.906-.3.906-.3c4.23-.906,8.459-2.115,12.688-2.719a148.589,148.589,0,0,1,25.98-2.719,180.59,180.59,0,0,1,25.678,1.208,300.9,300.9,0,0,1,49.545,10.574c7.854,2.417,16.011,5.136,23.866,7.855l3.021.906,1.511.6c.6.3,1.51.6,2.115.906,2.417,1.208,4.531,2.417,6.344,3.323l5.438,3.625c1.208-.906,2.719-1.813,4.23-2.719,1.51-1.208,3.323-2.115,5.135-3.323.906-.6,1.813-.906,2.719-1.511a16.191,16.191,0,0,1,3.323-1.511h.3l.6-.3h.3l.6-.3,1.51-.6,3.021-.906a40.24,40.24,0,0,1,5.74-1.511,80.416,80.416,0,0,1,11.782-2.115c3.927-.6,7.854-.906,12.084-1.208h6.042l6.042.3a40.941,40.941,0,0,1,6.042.6c2.115.3,3.927.6,6.042.906a38.857,38.857,0,0,1,5.74,1.208l5.74,1.51c1.812.3,3.625,1.208,5.74,1.813a40.341,40.341,0,0,1,5.438,2.115c1.813.6,3.625,1.511,5.438,2.115l5.136,2.719c1.813.906,3.323,1.813,5.136,2.719a26.084,26.084,0,0,1,4.834,3.021,122.3,122.3,0,0,1,18.126,14.2c2.719,2.417,4.834,5.136,7.25,7.552v-.6a27.293,27.293,0,0,1,1.511-4.834,70.909,70.909,0,0,1,3.323-7.25,59.93,59.93,0,0,1,5.74-8.459,71.711,71.711,0,0,1,20.241-16.918c2.115-1.208,4.531-2.115,6.646-3.323,1.208-.6,2.417-.906,3.927-1.51l3.323-.906a96,96,0,0,1,15.709-3.021,68.451,68.451,0,0,1,15.709.6,62.39,62.39,0,0,1,14.8,3.625c.6.3,1.51.6,2.115.906a65.719,65.719,0,0,0,1.813-6.646c1.208-4.229,2.719-9.667,4.834-15.407.906-3.021,2.115-6.042,3.323-9.365s2.719-6.646,4.229-10.271q4.531-10.876,10.875-22.657a179.927,179.927,0,0,1,15.709-23.866c1.51-1.813,3.323-3.927,4.833-6.042s3.625-3.927,5.136-5.74l2.719-2.719,3.021-2.719c2.115-1.813,3.927-3.625,6.042-5.438,2.115-1.51,4.229-3.323,6.344-4.834s4.833-3.021,7.25-4.531c1.208-.6,2.417-1.51,3.625-2.115l3.323-1.813,3.323-1.813.906-.3.3-.3.906-.3,1.813-.906a131.83,131.83,0,0,1,31.418-8.761A179.873,179.873,0,0,1,2164.242.57c4.833.3,9.667.6,14.5,1.208,4.531.6,9.365,1.208,13.594,1.813a252.384,252.384,0,0,1,24.772,5.438,259.819,259.819,0,0,1,35.346,12.688c4.229,1.813,7.25,3.625,9.365,4.531,2.115,1.208,3.323,1.813,3.323,1.813s-5.136-.906-13.9-2.417-21.147-3.323-36.252-4.834c-7.552-.6-15.407-1.208-24.168-1.813-4.229-.3-8.459-.3-13.292-.3-4.229,0-8.761,0-13.594.3a170.089,170.089,0,0,0-27.491,3.021,134.5,134.5,0,0,0-26.585,7.855l-1.51.6h0l-.3.3-.906.3-3.323,1.813-3.323,1.813c-1.208.6-1.812,1.208-3.021,1.813-1.812,1.208-3.625,2.115-5.74,3.625-1.813,1.208-3.625,2.719-5.74,3.927A168.6,168.6,0,0,0,2065.758,62.5a206.163,206.163,0,0,0-16.615,20.543c-5.136,6.948-9.365,13.594-13.594,19.939-3.927,6.344-7.553,12.386-10.875,17.522-3.021,5.438-6.042,9.969-8.157,13.9a47.526,47.526,0,0,1-3.625,5.74,73.642,73.642,0,0,1,8.459,4.229,42.413,42.413,0,0,1,5.438,3.625l1.208.906a4.167,4.167,0,0,1,1.208.906,13.142,13.142,0,0,1,2.115,1.813,54.019,54.019,0,0,1,6.948,7.855,61.321,61.321,0,0,1,4.229,6.948,35.078,35.078,0,0,1,1.813,4.834,8.453,8.453,0,0,1,.3,1.813,6.7,6.7,0,0,1-1.511-1.208c-.906-.6-2.417-1.511-3.927-2.719a91.515,91.515,0,0,0-14.5-7.25c-.906-.3-1.511-.6-2.417-.906-.3,0-.906-.3-1.208-.3l-1.208-.6a46.6,46.6,0,0,0-5.136-1.51c-3.625-.906-7.25-1.813-11.178-2.417a77.908,77.908,0,0,0-11.782-1.208,53.926,53.926,0,0,0-12.084.3c-3.927.3-8.157.906-11.782,1.51-2.115.6-3.927.906-6.042,1.511-1.813.6-3.927,1.208-5.74,1.813a101.615,101.615,0,0,0-19.939,9.063c-2.719,1.511-5.438,3.323-7.854,4.834a66.049,66.049,0,0,0-6.042,4.229c-2.115,1.51-3.625,2.719-4.532,3.323h0c2.417,3.021,4.833,6.042,6.948,9.063a101.891,101.891,0,0,1,5.74,9.667c-2.417-2.719-4.833-5.74-7.552-8.459-2.417-2.719-5.438-5.136-8.157-7.855a98.326,98.326,0,0,0-8.761-6.948c-3.021-2.115-6.042-3.927-9.063-6.042a97.847,97.847,0,0,0-9.667-5.136,33.56,33.56,0,0,0-4.833-2.115c-1.813-.6-3.323-1.51-5.136-2.115a102.164,102.164,0,0,0-10.271-3.323,31.6,31.6,0,0,0-5.136-1.208c-1.812-.3-3.323-.906-5.136-1.208l-5.136-.906c-1.812-.3-3.625-.3-5.438-.6a31.071,31.071,0,0,0-5.136-.3,29.1,29.1,0,0,0-5.136,0h-5.136l-2.719.3-2.417.3c-3.625.3-6.948.906-10.271,1.51a61.153,61.153,0,0,0-9.969,2.719c-1.813.6-3.323,1.208-4.834,1.813l-2.417.906-1.208.6-.6.3h-.3a6.6,6.6,0,0,0-1.51.906l-2.115,1.208a36.651,36.651,0,0,0-4.229,3.021c-3.021,2.115-5.74,4.229-8.761,6.646l-5.136,3.927-5.74-3.625a109.218,109.218,0,0,0-9.969-6.042,19.811,19.811,0,0,0-4.531-2.115.936.936,0,0,0-.6-.3l-1.208-.3-3.021-.906c-7.854-2.417-15.407-4.531-23.262-6.948a277.646,277.646,0,0,0-46.221-9.063,199.634,199.634,0,0,0-23.262-.906,196.512,196.512,0,0,0-22.959,2.115c-3.927.6-7.553,1.51-11.178,2.115h-1.208l-1.51.3-3.021.906a50.42,50.42,0,0,1-5.437,1.51,143.709,143.709,0,0,0-21.449,8.459,166.356,166.356,0,0,0-20.241,11.48,170.3,170.3,0,0,0-19.032,13.9,251.268,251.268,0,0,0-33.835,33.231,228.641,228.641,0,0,0-14.8,19.032c-4.834,6.344-9.365,13.292-13.594,19.939-4.229,6.948-8.459,13.9-12.386,21.147-2.719,4.834-5.136,9.667-7.552,14.8a.3.3,0,0,1,.3.3c9.969,5.74,16.918,12.386,20.845,17.522a44.1,44.1,0,0,1,4.531,6.042,11.954,11.954,0,0,0,1.511,2.115,13.774,13.774,0,0,1-2.417-1.208q-2.266-1.359-6.344-3.625a79.584,79.584,0,0,0-9.969-4.531c-3.927-1.51-8.157-3.021-12.99-4.531a116.622,116.622,0,0,0-15.407-2.719c-1.208,0-2.719-.3-4.229-.3h-4.229a19.945,19.945,0,0,0-4.229.3c-1.51,0-3.021.3-4.531.3-1.208.3-2.417.3-3.927.6s-2.719.6-4.229.906c-2.719.6-5.74,1.813-8.459,2.719a67.14,67.14,0,0,0-15.709,8.761,54.8,54.8,0,0,0-12.386,12.688,47.613,47.613,0,0,0-4.531,7.25,25.331,25.331,0,0,0-2.719,7.552c-.3,1.813-.3,3.021-.6,4.229a21.4,21.4,0,0,1-.3,4.229,82.013,82.013,0,0,0,.3,8.761c.3,5.74.906,11.48,1.51,16.615s1.51,9.969,2.115,14.2c.6,2.719.906,5.438,1.511,7.855a151.931,151.931,0,0,1,16.615-17.522,147.516,147.516,0,0,1,26.585-19.032l7.25-3.625c2.417-1.208,5.136-2.115,7.552-3.323a40.771,40.771,0,0,1,7.25-2.417l1.813-.6h1.208l.906-.3,3.927-.906a102.854,102.854,0,0,1,55.586,2.417,90.7,90.7,0,0,1,10.875,4.229c3.323,1.813,6.344,3.323,9.063,5.136a75.509,75.509,0,0,1,13.292,10.271,62.938,62.938,0,0,1,6.948,8.157c1.511,2.115,2.115,3.021,2.115,3.021s-.906-.6-3.021-2.115a88.921,88.921,0,0,0-8.761-5.74,106.1,106.1,0,0,0-14.2-6.646,100.3,100.3,0,0,0-19.334-4.834,110.839,110.839,0,0,0-48.034,3.625l-3.021.906-1.208.3-1.813.6c-2.115.906-4.833,1.813-6.646,2.719s-3.927,1.813-6.042,3.021a59.913,59.913,0,0,0-6.042,3.323,133.979,133.979,0,0,0-22.657,16.918,179.626,179.626,0,0,0-19.334,20.845,198.883,198.883,0,0,0-16.011,23.262c-4.532,7.855-8.761,15.709-12.386,23.564s-6.948,15.1-9.667,22.355c-5.74,13.9-9.969,25.981-12.99,34.439q-2.266,6.344-3.625,9.969a37.94,37.94,0,0,0-1.208,3.625s0-5.136.906-14.2q.453-6.8,1.813-16.313c.906-6.344,1.813-13.292,3.625-20.845a222.725,222.725,0,0,1,15.709-47.43,43.25,43.25,0,0,0-3.323-4.531c-1.208-1.51-2.719-3.323-4.229-5.136a106.282,106.282,0,0,0-11.782-10.573,108.092,108.092,0,0,0-15.709-9.667,138.621,138.621,0,0,0-19.032-8.157,155.594,155.594,0,0,0-21.147-6.042c-7.25-1.51-14.8-3.021-22.657-3.927a195.312,195.312,0,0,0-22.96-1.51c-7.552,0-14.8.3-22.053.906a129.443,129.443,0,0,0-19.939,3.927l-2.115.6c-.906.3-1.511.6-2.417.906a36.644,36.644,0,0,1-4.229,1.51c-2.719,1.208-5.74,2.417-8.157,3.625a124.857,124.857,0,0,0-14.2,7.855c-4.229,2.417-7.854,4.834-11.178,6.646-3.021,1.813-5.438,3.323-7.25,4.229a27.947,27.947,0,0,0-2.719,1.511s.6-.906,1.813-2.417,3.021-3.927,5.136-6.646a156.672,156.672,0,0,1,21.449-21.449,55.834,55.834,0,0,1,8.157-5.74c1.51-.906,3.323-1.813,4.531-2.719-.906-1.208-2.417-2.719-3.625-4.229-2.719-3.021-6.344-6.646-10.573-10.573-4.229-3.625-9.365-7.855-14.8-11.782a51.246,51.246,0,0,1-4.229-3.021l-4.531-2.719a107,107,0,0,0-9.969-5.74c-3.323-1.813-7.25-3.625-10.876-5.438-3.927-1.511-7.552-3.323-11.782-4.834-7.855-3.323-16.313-5.74-25.074-8.157A197.464,197.464,0,0,0,1064.6,321.1c-9.063-1.208-18.126-2.115-26.887-2.417a188.717,188.717,0,0,0-26.283.6c-4.229.3-8.459.906-12.386,1.51-3.927.906-7.855,1.208-11.782,2.417a32.088,32.088,0,0,1-5.74,1.208,36.532,36.532,0,0,1-5.438,1.51,76.505,76.505,0,0,0-9.969,3.625c-3.323,1.208-6.042,2.719-9.063,3.927a64.9,64.9,0,0,0-7.855,4.229c-4.834,3.021-9.063,5.438-12.386,8.157a6.591,6.591,0,0,0-1.511,1.208c2.115,1.813,4.229,3.927,6.344,6.042l2.719,3.323a37.733,37.733,0,0,1,2.719,3.625c2.115,2.417,3.323,5.136,4.834,7.552a77.778,77.778,0,0,1,6.344,15.709,71.9,71.9,0,0,1,2.719,15.407,104.349,104.349,0,0,1-.3,13.9,35.642,35.642,0,0,1-1.208,6.042c-.6,1.813-.906,3.625-1.51,5.136s-.906,2.719-1.511,3.927c3.021,0,6.042-.3,9.365,0a144.254,144.254,0,0,1,19.032,1.813,122.317,122.317,0,0,1,19.939,5.438,107.525,107.525,0,0,1,19.636,9.667h0l.6.3.3.3.6.3.906.6,2.115,1.51c1.208.906,2.719,2.115,4.229,3.323a100.318,100.318,0,0,1,8.157,7.552c2.417,2.719,4.834,5.438,6.948,8.157.906,1.51,2.115,2.719,3.021,4.229l2.719,4.531a95.821,95.821,0,0,1,8.157,18.126,61.777,61.777,0,0,1,3.323,17.22c0,2.719.3,5.438.3,7.855-.3,2.417-.3,4.834-.6,6.948s-.906,4.229-1.208,6.042-1.208,3.323-1.51,4.834a57.4,57.4,0,0,1-2.719,6.646,6.7,6.7,0,0,1-1.208,2.115v-2.417a66.488,66.488,0,0,0-.3-6.948,27.632,27.632,0,0,0-.3-4.834l-.906-5.438a58.739,58.739,0,0,0-1.51-6.042,52.076,52.076,0,0,0-2.115-6.344,89.217,89.217,0,0,0-6.042-13.594,90.747,90.747,0,0,0-9.063-13.9,117.4,117.4,0,0,0-11.782-12.99c-2.115-1.813-4.531-3.927-6.646-5.438a37.744,37.744,0,0,0-3.625-2.719l-3.927-2.719a164.609,164.609,0,0,0-16.011-8.761c-5.438-2.417-11.178-4.531-16.615-6.344-5.74-1.511-11.178-3.323-16.615-4.229q-8.157-1.813-15.407-2.719c-4.834-.6-9.365-1.208-13.292-1.813-3.927-.3-7.552-.906-10.573-1.208s-5.438-.6-6.948-.6a13.685,13.685,0,0,0-2.417-.3s.906-.3,2.417-.906a69.946,69.946,0,0,1,6.646-2.417c3.021-.906,6.344-1.813,10.573-2.719a89.741,89.741,0,0,1,13.9-2.115H949.5c0-1.51-.3-3.323-.3-5.438-.3-1.51-.3-3.021-.6-4.834-.3-1.511-.6-3.323-.906-5.136-.906-3.625-1.511-7.552-3.021-11.178a94.267,94.267,0,0,0-4.531-11.782c-1.813-3.927-4.229-7.855-6.344-11.782-1.208-1.813-2.719-3.625-3.927-5.438-.6-.906-1.208-1.51-2.115-2.719l-2.417-2.719a98.5,98.5,0,0,0-9.969-9.365c-3.625-2.719-7.25-5.438-10.876-7.855-3.927-2.417-7.552-4.532-11.178-6.344s-7.552-3.323-10.876-4.834c-3.625-1.208-6.646-2.417-9.667-3.323a62.891,62.891,0,0,0-7.855-2.115c-.6-.3-1.208-.3-1.813-.6a51.85,51.85,0,0,0,1.208,7.25c.906,5.438,1.511,10.271,2.115,14.2a78.5,78.5,0,0,0,1.813,9.063c.6,2.115.906,3.323.906,3.323l-1.813-2.719a72.589,72.589,0,0,1-4.834-8.157,116.211,116.211,0,0,1-5.74-13.292c-2.115-5.136-4.229-10.876-6.948-16.918a79.71,79.71,0,0,0-4.531-8.761l-1.208-1.813a10.6,10.6,0,0,1-1.511-2.417c-.906-1.208-2.115-2.719-3.021-3.927a78.5,78.5,0,0,0-16.918-13.9,132.916,132.916,0,0,0-21.751-10.876A127.5,127.5,0,0,0,777,276.387a137.638,137.638,0,0,0-24.772-2.417c-4.229,0-8.157.3-12.084.6l-6.344.906c-1.813.3-3.927.6-5.74.906a138.045,138.045,0,0,0-40.783,15.1c-2.719,1.51-5.438,3.323-8.157,4.834a5.286,5.286,0,0,0-.3,1.51v-1.208c-2.417,1.51-4.531,3.021-6.646,4.531-4.229,3.323-8.157,6.344-11.178,8.761-2.719,2.719-5.136,4.834-6.646,6.344l-2.417,2.417a20.866,20.866,0,0,0,1.511-3.021,87.85,87.85,0,0,1,4.531-8.157,97.055,97.055,0,0,1,8.761-12.084c3.021-3.625,6.646-7.25,10.573-11.178-.6-3.927-1.813-8.157-3.021-13.292a138.585,138.585,0,0,0-6.646-16.918c-1.51-3.021-3.021-6.042-4.834-9.063l-2.719-4.531c-.906-1.51-2.115-3.021-3.021-4.531-2.115-3.021-4.531-6.042-6.948-9.365-2.719-3.021-5.136-6.344-8.157-9.063a171.1,171.1,0,0,0-18.73-17.22,181.886,181.886,0,0,0-21.449-15.1,169.8,169.8,0,0,0-23.262-12.084,139.135,139.135,0,0,0-23.866-8.157c-3.927-1.208-7.855-1.813-11.782-2.719a37.017,37.017,0,0,0-5.74-.6c-.906,0-1.813-.3-2.719-.3a8.363,8.363,0,0,1-2.719-.3c-1.813,0-3.625-.3-5.438-.3H520.82c-3.625,0-6.948.6-10.271.906a85.716,85.716,0,0,0-9.365,1.813c-3.021.906-5.74,1.511-8.157,2.417s-4.834,2.115-7.25,3.021c-2.115.906-3.927,2.115-5.74,3.021a72.58,72.58,0,0,0-8.157,4.834,31.389,31.389,0,0,1-3.021,1.813s.6-.906,2.115-2.719c.6-.906,1.51-1.813,2.417-3.021a16.047,16.047,0,0,1,3.927-3.927c1.51-1.51,3.323-3.021,5.136-4.834,2.115-1.51,4.229-3.021,6.646-4.834,2.719-1.51,5.438-3.021,8.459-4.834,3.021-1.208,6.344-2.719,9.969-3.927,3.625-.906,7.25-2.417,11.178-3.021.906-.3,1.813-.3,2.719-.6-.3-.906-.3-2.115-.6-3.323a92.762,92.762,0,0,0-13.594-29.908,74.666,74.666,0,0,0-6.344-8.157l-1.813-1.813-2.115-2.115a48.127,48.127,0,0,0-3.927-3.927,138.164,138.164,0,0,0-19.032-14.8c-3.625-2.417-7.25-4.531-10.876-6.646a52.5,52.5,0,0,0-5.74-3.021l-3.021-1.511-1.51-.906h-.6l-.906-.3c-4.229-1.813-8.761-4.229-12.688-5.74L432.607,62.2l-6.344-2.115a255.792,255.792,0,0,0-25.981-7.552A195.97,195.97,0,0,0,374.6,48.6c-2.115-.3-4.229-.3-6.344-.6-2.115,0-4.229-.3-6.042-.3-4.229-.3-8.157,0-12.084,0-7.855.3-15.1.906-22.053,1.813a91.491,91.491,0,0,0-9.667,1.813,74.313,74.313,0,0,0-8.761,2.115c-5.438,1.208-10.271,3.021-14.2,4.229-1.813.6-3.625,1.51-5.136,2.115.906.6,1.51.906,2.417,1.511,1.511,1.208,3.323,2.115,4.531,3.021a40.618,40.618,0,0,0,4.229,3.323c1.208,1.208,2.719,2.115,3.927,3.323a34.464,34.464,0,0,0,3.323,3.323c.906,1.208,2.115,2.115,3.021,3.323l1.511,1.51a6.589,6.589,0,0,0,1.208,1.511c1.51,2.115,3.021,4.229,4.229,6.042s2.115,3.323,3.021,4.834c.6,1.511,1.51,2.719,1.813,3.625a20.872,20.872,0,0,0,1.511,3.021l-2.417-2.417a77.848,77.848,0,0,0-6.948-6.646,108.628,108.628,0,0,0-11.782-8.761c-1.208-.906-2.417-1.51-3.625-2.417-1.208-.6-2.719-1.51-4.229-2.115s-2.719-1.51-4.229-2.115L287.3,71.866c-1.511-.6-3.021-1.208-4.834-1.813-1.51-.6-3.323-.906-5.136-1.51a33.006,33.006,0,0,0-5.136-1.511,35.126,35.126,0,0,1-5.438-1.208,120.985,120.985,0,0,0-23.866-2.115c-8.157.3-16.615.906-25.074,3.021-2.417-1.208-6.344.6-10.574,1.813A50.371,50.371,0,0,0,201.2,70.96a33.488,33.488,0,0,0-5.74,2.719l-5.74,3.021-5.438,3.625-2.719,1.813h-.6l-.6.3-1.208,1.208c-1.813,1.511-3.927,3.021-5.438,4.229a54.011,54.011,0,0,0-4.229,3.927c-1.511,1.511-2.719,3.021-4.229,4.531a55.157,55.157,0,0,0-3.927,4.834l-1.813,2.417L157.7,106a132.938,132.938,0,0,0-12.084,20.845c-3.323,6.948-6.042,14.2-8.459,20.543-1.208,3.323-2.417,6.344-3.323,9.667-1.208,3.021-2.115,6.042-3.021,8.761-1.813,5.438-3.323,10.271-4.834,14.5a57.035,57.035,0,0,1-1.813,5.438,35.963,35.963,0,0,1,4.531,2.719,87.141,87.141,0,0,1,10.271,6.948,96.327,96.327,0,0,1,16.918,16.313,111.369,111.369,0,0,1,12.386,17.824,128.594,128.594,0,0,1,7.855,17.824c.906,3.021,1.511,5.74,2.417,8.157.6,2.719,1.208,5.136,1.51,7.552a54.257,54.257,0,0,1,.6,6.646,34.689,34.689,0,0,0,.3,5.74c.3,3.323-.3,6.042-.3,7.855a18.649,18.649,0,0,0-.3,2.719l-.906-2.719c-.6-1.813-1.208-4.229-2.417-7.25-.6-1.51-1.208-3.323-2.115-5.136s-1.51-3.625-2.417-5.74a63.929,63.929,0,0,0-3.323-6.344,76.419,76.419,0,0,0-3.927-6.646,132.468,132.468,0,0,0-9.969-13.9,135.341,135.341,0,0,0-12.688-13.9,153.5,153.5,0,0,0-15.407-12.386c-2.719-1.813-5.74-3.625-8.459-5.136-1.51-.906-2.719-1.51-4.532-2.417l-4.834-2.115a108.256,108.256,0,0,0-19.032-6.344,147.044,147.044,0,0,0-19.636-3.021,129.182,129.182,0,0,0-18.73,0,136.049,136.049,0,0,0-16.918,2.115c-2.719.6-5.136,1.208-7.552,1.813s-4.531,1.208-6.646,1.813-3.927,1.51-6.042,2.115c-1.813.6-3.323,1.208-4.834,1.813-3.021,1.208-5.438,2.417-6.948,3.021C.906,206.3,0,206.6,0,206.6Z" transform="translate(0 -0.465)"/>
        <path id="Tracé_480" data-name="Tracé 480" class="cls-3" d="M240.72,104.532c3.323.3,6.646.3,10.271.906,1.813.3,3.625.6,5.136.906l4.834,1.208a78.46,78.46,0,0,1,18.73,7.553A83.05,83.05,0,0,1,295.7,125.982a81.265,81.265,0,0,1,12.386,12.688,100.217,100.217,0,0,1,8.761,13.292,60.384,60.384,0,0,1,3.021,6.344c.906,2.115,1.51,3.927,2.115,5.74a46.61,46.61,0,0,1,1.51,5.136c.3,1.511.6,3.323.906,4.532.6,2.719.6,4.834.906,6.344a5.228,5.228,0,0,0,.3,2.115,13.819,13.819,0,0,0-1.208-1.813c-.906-1.208-2.115-3.021-3.625-5.136s-3.625-4.531-5.74-7.552c-1.208-1.51-2.417-2.719-3.625-4.229a58.008,58.008,0,0,0-4.229-4.531,105.447,105.447,0,0,0-10.271-9.365,99.708,99.708,0,0,0-12.386-8.761c-4.531-2.719-9.063-5.136-13.9-7.552a128.19,128.19,0,0,0-15.1-5.438l-4.229-.906c-1.511-.3-2.719-.6-3.927-.906a61.137,61.137,0,0,0-7.855-1.208c-5.438-.3-10.574-.6-16.011-.6a121.789,121.789,0,0,0-15.1,1.511A89.757,89.757,0,0,0,194.8,128.7c-2.115.6-4.229,1.208-6.042,1.813l-5.438,1.813a86.164,86.164,0,0,0-8.761,3.625c-2.417,1.208-4.229,2.115-5.74,2.719a17.97,17.97,0,0,1-2.115.906,13.816,13.816,0,0,1,1.208-1.813c.906-1.208,2.115-3.021,3.927-5.136.906-.906,1.813-2.115,3.021-3.323l3.927-3.927c1.51-1.208,3.021-2.417,4.834-3.927,1.813-1.208,3.625-2.719,5.74-3.927,4.229-2.417,8.761-5.136,14.2-6.948a95.557,95.557,0,0,1,17.22-4.834h.3l-.906-1.813c-.6-1.208-1.208-2.719-2.417-4.834a54.113,54.113,0,0,0-3.927-6.646,44.172,44.172,0,0,1-2.719-3.927c-.906-1.208-2.115-2.719-3.021-3.927-2.417-2.719-4.834-5.438-7.552-8.157a80.452,80.452,0,0,0-9.365-7.855A95.813,95.813,0,0,0,180.3,61.634a49.291,49.291,0,0,0-5.74-2.719,31.344,31.344,0,0,0-3.021-1.208L168.217,56.5c-4.229-1.51-8.459-2.417-12.688-3.625a95.939,95.939,0,0,0-12.99-1.813,85.839,85.839,0,0,0-12.386-.3c-3.927,0-7.855.3-11.48.6s-6.948.906-9.969,1.208c-3.021.6-5.74.906-7.855,1.511s-3.927.906-5.136,1.208a8.453,8.453,0,0,1-1.813.3,6.706,6.706,0,0,1,1.208-1.51,23.957,23.957,0,0,1,3.927-3.625,74.2,74.2,0,0,1,6.646-5.136,92.115,92.115,0,0,1,9.667-5.438,66.056,66.056,0,0,1,12.386-4.531,99.6,99.6,0,0,1,14.8-2.719,99.244,99.244,0,0,1,16.313.3,82.833,82.833,0,0,1,16.615,3.927l3.927,1.51a42.046,42.046,0,0,1,3.927,1.813,60.81,60.81,0,0,1,7.552,4.229,62.124,62.124,0,0,1,12.688,10.573,68.5,68.5,0,0,1,9.365,12.084,62.077,62.077,0,0,1,5.74,12.084c.6,2.115,1.208,3.927,1.813,5.74.3,1.813.6,3.625.906,5.136a42.194,42.194,0,0,1,.3,8.459,22.505,22.505,0,0,1-.6,5.438,8.453,8.453,0,0,0-.3,1.813A112.159,112.159,0,0,1,240.72,104.532Z" transform="translate(189.772 64.144)"/>
        <path id="Tracé_481" data-name="Tracé 481" class="cls-3" d="M154.131,60.538a26.6,26.6,0,0,1,5.136.6l5.438.906a90.788,90.788,0,0,1,9.667,3.323c1.511.6,3.021,1.51,4.531,2.115l2.115,1.208.906.6.906.6c2.719,1.813,5.438,3.323,7.553,5.438a75.857,75.857,0,0,1,20.845,25.376,88.611,88.611,0,0,1,4.834,11.782,47,47,0,0,1,2.115,9.667c.3,2.719.6,4.834.6,6.344v2.115a13.812,13.812,0,0,0-1.208-1.813,45.4,45.4,0,0,0-3.323-5.136q-2.266-3.172-5.438-7.25a91,91,0,0,0-7.552-8.761A94.85,94.85,0,0,0,179.81,90.748,107.191,107.191,0,0,0,166.517,84.4a60.887,60.887,0,0,0-6.948-2.115,15.588,15.588,0,0,0-3.323-.6,15.964,15.964,0,0,0-3.625-.3,62.519,62.519,0,0,0-14.8,1.208c-5.136.906-10.573,2.115-15.407,3.323-9.969,2.417-18.73,5.438-25.376,9.667a49.778,49.778,0,0,0-14.8,12.99,47.908,47.908,0,0,0-3.323,4.834,7.477,7.477,0,0,1-1.208,1.813V113.1a27.287,27.287,0,0,1,.6-6.344,35.124,35.124,0,0,1,3.323-9.365A47.224,47.224,0,0,1,89.18,86.519a67.643,67.643,0,0,1,12.084-10.271,92.349,92.349,0,0,1,15.407-7.855,143.483,143.483,0,0,1,17.22-5.438A63.13,63.13,0,0,1,154.131,60.538Z" transform="translate(157.031 120.827)"/>
        <path id="Tracé_482" data-name="Tracé 482" class="cls-3" d="M246.7,118.494a73.051,73.051,0,0,0-10.876-3.021,66.645,66.645,0,0,0-11.178-1.208,46.574,46.574,0,0,0-11.178.906c-3.927.6-7.855,1.51-11.782,2.417L189.6,120.911a140.278,140.278,0,0,0-23.262,7.855,55.7,55.7,0,0,0-20.241,14.5c3.323-7.855,9.667-14.5,16.918-19.939a144.176,144.176,0,0,1,22.96-12.99c3.927-1.813,7.855-3.625,11.782-5.136a78.475,78.475,0,0,1,12.688-4.532,102.79,102.79,0,0,1,13.9-2.719,111.311,111.311,0,0,1,14.2,0,102.787,102.787,0,0,1,13.9,2.719,42.784,42.784,0,0,1,6.646,2.115,54.468,54.468,0,0,1,6.344,2.417l6.344,2.719c2.115.906,4.229,2.115,6.042,3.021,3.927,2.115,7.855,4.532,11.48,6.948s7.25,5.136,10.876,7.855,6.948,5.438,10.271,8.157a53.983,53.983,0,0,1,10.574,11.178,16.28,16.28,0,0,1,2.115,3.927,52.047,52.047,0,0,1,6.344-2.115c3.021-.906,6.344-2.115,9.667-3.021s6.646-1.51,9.969-2.115,6.948-.906,10.271-1.208a61.794,61.794,0,0,1,10.574,0,33.289,33.289,0,0,1,5.438.6c2.115.3,3.323.6,4.834.906a59.127,59.127,0,0,1,10.271,3.625,24.086,24.086,0,0,1,4.834,2.417l4.531,2.719a60.009,60.009,0,0,1,8.157,6.646c2.417,2.417,4.834,5.136,6.948,7.553l3.021,4.229,2.719,4.229c1.51,3.021,3.323,5.74,4.532,9.063l1.813,4.531a22.641,22.641,0,0,1,1.51,4.834,52.238,52.238,0,0,1,2.115,9.365,52.35,52.35,0,0,1,.906,9.667,76,76,0,0,0-3.625-8.761c-1.208-2.719-2.719-5.74-4.229-8.459s-3.323-5.136-4.834-7.855l-5.438-7.25-3.021-3.323-3.323-3.021a61.272,61.272,0,0,0-6.948-5.438c-2.417-1.51-4.834-3.021-7.25-4.229-1.208-.6-2.417-1.208-3.927-1.813a15.178,15.178,0,0,0-3.927-1.51,36.9,36.9,0,0,0-7.855-1.813,26.807,26.807,0,0,0-4.531-.6h-3.927a74.069,74.069,0,0,0-8.157.6c-2.719.3-5.438.906-8.459,1.51-11.178,2.719-22.355,7.552-33.835,12.688L307.119,176.5l-2.417-17.22-.3-.6a5.948,5.948,0,0,0-1.208-2.417,37.468,37.468,0,0,0-6.948-6.948c-3.323-2.719-6.344-5.438-9.667-7.855s-6.344-4.834-9.667-7.25-6.646-4.532-9.969-6.646-6.948-3.927-10.271-5.74c-1.813-.906-3.625-1.813-5.136-2.417C250.324,119.7,248.512,119.1,246.7,118.494Z" transform="translate(295.268 196.097)"/>
        <path id="Tracé_483" data-name="Tracé 483" class="cls-3" d="M351.415,150.778H349.3a6.708,6.708,0,0,0,1.511-1.208c1.208-.6,2.719-1.813,4.834-2.719a35.033,35.033,0,0,1,8.157-3.323c1.511-.6,3.323-.906,5.136-1.51a38.847,38.847,0,0,1,5.74-1.208,94.789,94.789,0,0,1,13.595-1.208,93.041,93.041,0,0,1,15.407,1.208,104.484,104.484,0,0,1,16.011,4.229,92.352,92.352,0,0,1,15.407,7.855l3.625,2.417c.906.6,2.417,1.813,3.625,2.719,2.417,1.813,4.532,3.927,6.646,5.74a86.45,86.45,0,0,1,10.573,12.99,57.947,57.947,0,0,1,6.948,13.594A86.364,86.364,0,0,1,478.9,183.4a114.348,114.348,0,0,1,22.355-7.25,64,64,0,0,1,13.292-1.511,112.564,112.564,0,0,1,14.2.3l3.323.6a18.088,18.088,0,0,1,3.625.6,46.673,46.673,0,0,1,6.948,1.813,95.46,95.46,0,0,1,12.99,4.834,74.187,74.187,0,0,1,10.876,6.646A113.038,113.038,0,0,1,575.271,197a38.29,38.29,0,0,1,3.323,3.927l2.719,3.625q2.266,3.625,3.625,6.344c.906,1.813,1.208,3.323,1.813,4.531a12.668,12.668,0,0,0,.6,1.51,15.688,15.688,0,0,1-1.511-.906c-.906-.6-2.115-1.208-3.927-2.417-1.511-.906-3.625-2.115-6.042-3.323s-4.834-2.417-7.552-3.625a131.078,131.078,0,0,0-19.334-6.646c-3.625-.906-7.25-1.813-10.876-2.417l-5.438-.906c-.906,0-1.813-.3-2.719-.3l-3.021-.3c-3.927-.6-7.855-.6-11.782-.906-3.927,0-7.855-.3-11.48-.3-7.552,0-14.8.3-21.147.6-5.136.3-9.969.3-13.594.6a81.024,81.024,0,0,1,2.115,8.157c.3,2.115.6,4.229.906,6.042,0,1.813.3,3.625.3,5.438a70.331,70.331,0,0,1-.6,8.761,38.508,38.508,0,0,1-1.208,5.438,9.734,9.734,0,0,1-.6,1.813,9.744,9.744,0,0,1-.6-1.813,36.135,36.135,0,0,0-1.813-5.136c-.6-2.115-1.813-4.531-3.021-7.552-.6-1.51-1.511-2.719-2.115-4.532-.906-1.511-1.51-3.021-2.417-4.834a91.342,91.342,0,0,0-6.344-9.969c-2.417-3.323-5.136-6.646-7.855-9.969-3.021-3.323-6.344-6.344-9.667-9.365-1.813-1.51-3.625-3.021-5.136-4.229-.906-.6-1.51-1.208-2.719-2.115l-3.021-2.115c-3.927-2.417-7.855-4.531-12.084-6.646-4.229-1.813-8.459-3.625-12.688-5.136-4.229-1.208-8.459-2.719-12.386-3.625s-7.855-1.511-11.782-2.115c-3.625-.6-7.25-.906-10.271-1.208s-5.74-.6-8.157-.6A41.7,41.7,0,0,1,351.415,150.778Z" transform="translate(705.934 280.726)"/>
      </g>
    </g>
  </g>
</svg>
