<svg xmlns="http://www.w3.org/2000/svg" xmlns:xlink="http://www.w3.org/1999/xlink" viewBox="-2223 6722 1920 1606">
  <defs>
    <style>
      .cls-1 {
        clip-path: url(#clip-Screen_2-4);
      }

      .cls-2 {
        fill: #7ea4b3;
      }

      .cls-3 {
        fill: #a1dbe2;
      }
    </style>
    <clipPath id="clip-Screen_2-4">
      <rect x="-2223" y="6722" width="1920" height="1606"/>
    </clipPath>
  </defs>
  <g id="Screen_2-4" data-name="Screen 2-4" class="cls-1">
    <rect id="Rectangle_86" data-name="Rectangle 86" class="cls-2" width="1972" height="254" transform="translate(-2244 7845)"/>
    <g id="Groupe_294" data-name="Groupe 294" transform="translate(-2326.742 7279.505)">
      <path id="Tracé_456" data-name="Tracé 456" class="cls-2" d="M2173.6,186.846c-1.451-.58-3.772-1.741-6.673-2.9-1.451-.58-2.9-1.16-4.642-1.741s-3.771-1.16-5.8-2.031c-2.031-.58-4.352-1.16-6.383-1.741-2.321-.58-4.642-1.16-7.253-1.741a138.009,138.009,0,0,0-16.247-2.031,124.063,124.063,0,0,0-17.988,0,148.8,148.8,0,0,0-18.858,2.9,122.777,122.777,0,0,0-18.278,6.093l-4.642,2.031c-1.74.87-2.9,1.451-4.352,2.321-2.611,1.451-5.512,3.191-8.124,4.932a147.41,147.41,0,0,0-14.8,11.9,130,130,0,0,0-12.185,13.346,127.2,127.2,0,0,0-9.574,13.346c-1.161,2.321-2.611,4.352-3.772,6.383s-2.031,4.062-3.191,6.093c-.87,2.031-1.741,3.772-2.321,5.512-.87,1.741-1.451,3.481-2.031,4.932-1.16,2.9-1.741,5.222-2.321,6.963l-.87,2.611a17.922,17.922,0,0,0-.29-2.611c0-1.741-.58-4.352-.29-7.543a36.987,36.987,0,0,1,.29-5.512c.29-2.031.29-4.062.58-6.383s.87-4.642,1.451-7.253a80.052,80.052,0,0,1,2.321-7.833c2.031-5.512,4.062-11.315,7.543-17.117a106.978,106.978,0,0,1,11.895-17.117,119.4,119.4,0,0,1,16.247-15.667,83.664,83.664,0,0,1,9.864-6.673c1.45-.87,3.191-1.741,4.352-2.611a54.842,54.842,0,0,1-1.741-5.222c-1.16-3.772-2.9-8.414-4.642-13.926-.87-2.611-1.74-5.512-2.9-8.414-.87-2.9-2.031-6.093-3.191-9.284-2.321-6.383-4.932-13.056-8.123-19.728a115.7,115.7,0,0,0-11.6-20.018l-1.74-2.321-1.741-2.321a52.894,52.894,0,0,0-3.772-4.642c-1.451-1.451-2.611-2.9-4.062-4.352a51.926,51.926,0,0,1-4.062-3.772,35.908,35.908,0,0,0-5.222-4.062l-1.45-1.16-.58-.29h-.29l-.29-.29-2.611-1.741-5.222-3.481-5.512-2.9a47.336,47.336,0,0,0-5.512-2.611,48.379,48.379,0,0,0-5.8-2.321c-4.062-1.16-7.833-2.611-11.9-3.481a116.075,116.075,0,0,0-24.08-2.9,118.21,118.21,0,0,0-22.92,2.031,33.735,33.735,0,0,0-5.222,1.16,44.74,44.74,0,0,1-4.932,1.451c-1.741.58-3.191.87-4.932,1.451-1.451.58-3.191,1.16-4.642,1.741l-4.352,1.741a26.521,26.521,0,0,1-4.062,2.031c-1.45.58-2.611,1.451-4.062,2.031-1.161.87-2.321,1.451-3.482,2.321a104.348,104.348,0,0,0-11.315,8.414,75.843,75.843,0,0,0-6.673,6.383l-2.321,2.321,1.451-2.9a19.27,19.27,0,0,0,1.74-3.481c.87-1.451,1.451-3.191,2.9-4.642,1.161-1.741,2.611-3.481,4.062-5.8a6.319,6.319,0,0,1,1.161-1.451l1.451-1.451a31.778,31.778,0,0,0,2.9-3.191l3.191-3.191c1.16-.87,2.321-2.031,3.771-3.191a49.63,49.63,0,0,1,4.062-3.191,37.841,37.841,0,0,1,4.352-2.9c.87-.58,1.451-.87,2.321-1.451-1.451-.58-3.191-1.16-4.932-2.031-3.772-1.16-8.414-2.9-13.636-4.062-2.611-.58-5.513-1.451-8.414-2.031a87.864,87.864,0,0,0-9.284-1.741,160.4,160.4,0,0,0-21.179-1.741c-3.771,0-7.543-.29-11.6,0-2.031,0-4.062.29-5.8.29-2.031.29-4.062.29-6.093.58-8.123.58-16.537,2.321-24.66,3.772-8.414,2.031-16.827,4.062-24.95,7.253l-6.093,2.031-5.8,2.321c-3.771,1.451-8.123,3.481-12.185,5.512l-.87.29h-.58l-1.451.87-2.9,1.451c-2.031.87-3.772,2.031-5.512,2.9a90.819,90.819,0,0,0-10.444,6.383,113.54,113.54,0,0,0-18.278,14.216,23.194,23.194,0,0,0-3.772,3.772l-2.031,2.031-1.741,1.741a71.7,71.7,0,0,0-6.093,7.833A78.756,78.756,0,0,0,1674.3,125.05a12.337,12.337,0,0,0-.58,3.191c.87.29,1.741.29,2.611.58a58.021,58.021,0,0,1,10.735,2.9c3.481,1.16,6.673,2.611,9.574,3.772,2.9,1.451,5.512,3.191,8.123,4.642,2.321,1.741,4.642,3.191,6.383,4.642a38.419,38.419,0,0,1,4.932,4.642,45.911,45.911,0,0,1,3.772,3.772,33.383,33.383,0,0,0,2.321,2.9c1.451,1.741,2.031,2.611,2.031,2.611s-.87-.58-2.9-1.741a69.715,69.715,0,0,0-7.833-4.642c-1.741-.87-3.481-2.031-5.512-2.9s-4.352-1.741-6.963-2.9c-2.611-.87-5.222-1.451-7.833-2.321-2.9-.58-5.8-1.161-8.994-1.741-3.191-.29-6.383-.87-9.864-.87h-5.222c-1.741,0-3.481.29-5.222.29a8.033,8.033,0,0,0-2.611.29c-.87,0-1.741.29-2.611.29a35.543,35.543,0,0,1-5.512.58c-3.772.87-7.543,1.451-11.315,2.611-7.543,1.741-15.086,4.642-22.92,7.833a181.756,181.756,0,0,0-22.339,11.6,202.5,202.5,0,0,0-20.6,14.506,196.013,196.013,0,0,0-17.988,16.537c-2.9,2.9-5.222,5.8-7.833,8.7a103.117,103.117,0,0,0-6.673,8.994,37.773,37.773,0,0,0-2.9,4.352l-2.611,4.352c-1.741,2.9-3.191,5.8-4.642,8.7a98.314,98.314,0,0,0-6.383,16.247c-1.16,4.642-2.321,8.994-2.9,12.765a69.093,69.093,0,0,1,10.154,10.734,63.9,63.9,0,0,1,8.414,11.6q3.046,5.222,4.352,7.833l1.45,2.9L1546.063,291c-1.451-1.451-3.772-3.481-6.383-6.093a92.642,92.642,0,0,0-10.735-8.414c-2.031-1.451-4.062-2.9-6.383-4.352V273.3a3.522,3.522,0,0,1-.29-1.451c-2.321-1.451-4.932-3.191-7.833-4.642a135.7,135.7,0,0,0-39.167-14.506c-1.741-.29-3.482-.58-5.512-.87l-6.093-.87c-3.772-.29-7.543-.58-11.6-.58a110.248,110.248,0,0,0-23.79,2.321,122.439,122.439,0,0,0-22.92,6.673,140.383,140.383,0,0,0-20.889,10.444,75.393,75.393,0,0,0-16.247,13.346,16.444,16.444,0,0,0-2.9,3.772,10.174,10.174,0,0,0-1.451,2.321l-1.16,1.741a46.25,46.25,0,0,0-4.352,8.414c-2.611,5.512-4.642,11.315-6.673,16.247a108.8,108.8,0,0,1-5.8,12.765,69.692,69.692,0,0,1-4.642,7.833l-1.741,2.611s.29-1.16.87-3.191a75.414,75.414,0,0,0,1.741-8.7c.58-3.772,1.16-8.414,2.031-13.636a58.061,58.061,0,0,1,1.16-6.963,4.125,4.125,0,0,0-1.741.58c-2.031.58-4.642,1.451-7.543,2.031-2.9.87-6.093,2.031-9.284,3.191-3.191,1.451-6.963,2.9-10.444,4.642a100.713,100.713,0,0,0-10.734,6.093c-3.482,2.321-6.963,4.932-10.444,7.543-3.192,2.9-6.673,5.8-9.574,8.994l-2.321,2.611a15.942,15.942,0,0,0-2.031,2.611c-1.16,1.451-2.321,3.481-3.772,5.222a85.006,85.006,0,0,0-6.092,11.315,60.425,60.425,0,0,0-4.352,11.315c-1.161,3.772-2.031,7.253-2.9,10.735-.29,1.741-.58,3.481-.87,4.932-.29,1.741-.29,3.191-.58,4.642,0,1.741-.29,3.481-.29,5.222h1.451c4.932.58,9.574,1.451,13.346,2.031,4.062.87,7.253,1.741,10.154,2.611a67.2,67.2,0,0,1,6.383,2.321c1.451.58,2.321.87,2.321.87a13.144,13.144,0,0,0-2.321.29c-1.451,0-3.771.29-6.673.58s-6.093.58-10.154,1.16c-3.771.58-8.124.87-12.765,1.741s-9.574,1.451-14.8,2.611-10.444,2.611-15.957,4.062c-5.222,1.741-10.734,3.772-15.957,6.093a113.607,113.607,0,0,0-15.376,8.414l-3.772,2.611a36.247,36.247,0,0,0-3.482,2.611c-2.031,1.451-4.352,3.482-6.383,5.222a151.438,151.438,0,0,0-11.315,12.475,95.489,95.489,0,0,0-8.7,13.346,72.236,72.236,0,0,0-5.8,13.056,49.991,49.991,0,0,1-2.031,6.093c-.58,2.031-.87,4.062-1.451,5.8l-.87,5.222a26.546,26.546,0,0,0-.29,4.642,61.066,61.066,0,0,0-.29,6.673v2.321a8.031,8.031,0,0,0-1.16-2.031,55.08,55.08,0,0,1-2.611-6.383c-.29-1.451-1.161-2.9-1.451-4.642s-.87-3.772-1.16-5.8-.29-4.352-.58-6.673a68.153,68.153,0,0,1,.29-7.543,91.918,91.918,0,0,1,3.191-16.537,76.748,76.748,0,0,1,7.833-17.407l2.611-4.352c.87-1.451,2.031-2.611,2.9-4.062a86.412,86.412,0,0,1,6.673-7.833c2.611-2.321,4.932-4.932,7.833-7.253,1.451-1.16,2.9-2.321,4.062-3.191l2.031-1.451.87-.58.58-.29.29-.29.58-.29h0a94.83,94.83,0,0,1,18.858-9.284,126,126,0,0,1,19.148-5.222,102.262,102.262,0,0,1,18.278-1.741h8.994c-.58-1.16-.87-2.321-1.451-3.772s-.87-3.191-1.45-4.932a51.274,51.274,0,0,0-1.161-5.8,50.808,50.808,0,0,1-.29-13.346,69.045,69.045,0,0,1,2.611-14.8A82.152,82.152,0,0,1,1260,340.321c1.45-2.321,2.611-4.932,4.642-7.253a36.235,36.235,0,0,1,2.611-3.481l2.611-3.191c2.031-2.031,4.062-4.062,6.093-5.8-.58-.29-.87-.87-1.451-1.16-3.191-2.321-7.253-4.932-11.9-7.833-2.321-1.16-4.932-2.611-7.543-4.062-2.9-1.16-5.512-2.611-8.7-3.772s-6.093-2.321-9.574-3.481a35.077,35.077,0,0,0-5.222-1.451c-1.741-.29-3.482-.87-5.512-1.161-3.482-.87-7.543-1.451-11.315-2.321-4.062-.29-7.833-1.16-11.895-1.451a181.228,181.228,0,0,0-25.241-.58,251.077,251.077,0,0,0-25.821,2.321c-8.7,1.451-17.117,3.191-25.531,5.222a195.012,195.012,0,0,0-24.08,7.833c-3.771,1.451-7.543,3.191-11.315,4.642-3.482,1.741-6.963,3.191-10.445,5.222a102.767,102.767,0,0,0-9.574,5.512c-1.451.87-3.191,1.741-4.352,2.611a49.224,49.224,0,0,0-4.062,2.9,121.736,121.736,0,0,0-14.216,11.315,111.2,111.2,0,0,0-10.154,10.154,37.7,37.7,0,0,0-3.482,4.062c1.451.87,3.191,1.741,4.352,2.611a91.56,91.56,0,0,1,7.833,5.512,123.609,123.609,0,0,1,20.6,20.6c2.321,2.611,3.771,4.932,4.932,6.383s1.741,2.321,1.741,2.321a26.816,26.816,0,0,0-2.611-1.451c-1.451-.87-4.062-2.321-6.963-4.062s-6.383-3.772-10.735-6.383c-4.062-2.321-8.7-4.932-13.636-7.543l-7.833-3.481a22.744,22.744,0,0,0-4.062-1.451c-.87-.29-1.451-.58-2.321-.87l-2.031-.58a117.787,117.787,0,0,0-19.148-3.772,126.744,126.744,0,0,0-21.179-.87,191.735,191.735,0,0,0-22.049,1.451,189.719,189.719,0,0,0-21.759,3.772,207.412,207.412,0,0,0-20.309,5.8,173.125,173.125,0,0,0-18.278,7.833,148.8,148.8,0,0,0-15.086,9.284,77.85,77.85,0,0,0-11.315,10.154,60.772,60.772,0,0,0-4.062,4.932,41.52,41.52,0,0,0-3.191,4.352,213.9,213.9,0,0,1,15.086,45.549c1.451,7.253,2.611,14.216,3.482,20.018q1.305,9.139,1.741,15.667c.58,8.7.87,13.636.87,13.636a36.428,36.428,0,0,0-1.161-3.482q-1.305-3.482-3.481-9.574c-2.9-8.123-6.963-19.728-12.475-33.074-2.611-6.673-5.8-13.926-9.284-21.469s-7.543-15.086-11.9-22.63a191.051,191.051,0,0,0-15.376-22.339,202.268,202.268,0,0,0-18.568-20.018A146.359,146.359,0,0,0,794.646,355.7a57.54,57.54,0,0,0-5.8-3.191,54.1,54.1,0,0,0-5.8-2.9c-1.741-.87-4.062-1.741-6.383-2.611l-1.741-.58-1.161-.29-2.9-.87a98.263,98.263,0,0,0-46.129-3.481,82.755,82.755,0,0,0-18.568,4.642,101.889,101.889,0,0,0-13.636,6.383c-3.482,2.321-6.383,3.772-8.414,5.512-2.031,1.451-2.9,2.031-2.9,2.031a14.855,14.855,0,0,0,2.031-2.9,60.423,60.423,0,0,1,6.673-7.833,72.513,72.513,0,0,1,12.765-9.864c2.611-1.741,5.512-3.191,8.7-4.932a87.1,87.1,0,0,1,10.444-4.062,101.679,101.679,0,0,1,53.383-2.321l3.771.87.87.29h1.161l1.741.58c2.321.87,4.352,1.451,6.963,2.321a54.793,54.793,0,0,1,7.253,3.191l6.963,3.481a120.812,120.812,0,0,1,25.531,18.278,174.091,174.091,0,0,1,15.957,16.827c.58-2.321.87-4.642,1.451-7.543.58-4.062,1.451-8.7,2.031-13.636s1.16-10.444,1.451-15.957c.29-2.9.29-5.8.29-8.414a17.839,17.839,0,0,0-.29-4.062,27.057,27.057,0,0,0-.58-4.062,24.326,24.326,0,0,0-2.611-7.253,45.734,45.734,0,0,0-4.352-6.963,52.627,52.627,0,0,0-11.9-12.185,59.139,59.139,0,0,0-15.086-8.414,66.541,66.541,0,0,0-8.123-2.611c-1.451-.29-2.611-.58-4.062-.87a19.966,19.966,0,0,0-3.772-.58c-1.451,0-2.9-.29-4.352-.29s-2.611-.29-4.062-.29h-4.062a19.153,19.153,0,0,0-4.062.29,112,112,0,0,0-14.8,2.611,69.794,69.794,0,0,0-12.475,4.352,76.413,76.413,0,0,0-9.574,4.352q-3.917,2.176-6.093,3.481a13.224,13.224,0,0,1-2.321,1.16,5.956,5.956,0,0,1,1.451-2.031,42.367,42.367,0,0,1,4.352-5.8,68.62,68.62,0,0,1,20.018-16.827.284.284,0,0,0,.29-.29c-2.321-4.642-4.932-9.574-7.253-14.216-3.772-6.963-7.833-13.636-11.9-20.308A222.184,222.184,0,0,0,731.98,218.76c-4.642-6.383-9.284-12.185-14.216-18.278-10.154-11.6-20.889-22.63-32.494-31.913-5.8-4.932-12.185-8.994-18.278-13.346A185.078,185.078,0,0,0,647.554,144.2a178.567,178.567,0,0,0-20.6-8.123,27.459,27.459,0,0,0-5.222-1.451l-2.9-.87-1.451-.29h-1.16a69.889,69.889,0,0,0-10.735-2.031,183.11,183.11,0,0,0-22.049-2.031,194.213,194.213,0,0,0-22.339.87,260.989,260.989,0,0,0-44.389,8.7c-7.543,2.031-14.8,4.062-22.339,6.673l-2.9.87-1.16.29c-.29,0-.29,0-.58.29-1.16.58-2.9,1.451-4.352,2.031-3.191,1.741-6.383,3.772-9.574,5.8l-5.512,3.481-4.932-3.772c-2.611-2.031-5.512-4.352-8.414-6.383a49.227,49.227,0,0,1-4.062-2.9l-2.031-1.161a6.343,6.343,0,0,0-1.451-.87h-.29c.58.29.29,0,.29,0h-.29l-.58-.29-1.16-.58-2.321-.87c-1.451-.58-3.191-1.16-4.642-1.741-3.191-.87-6.383-1.741-9.864-2.611-3.191-.58-6.673-1.161-9.864-1.451l-2.321-.29-2.611-.29h-9.864a26.545,26.545,0,0,0-4.932.29c-1.741.29-3.482.29-5.222.58l-4.932.87a24.569,24.569,0,0,0-4.932,1.16c-1.741.29-3.481.87-4.932,1.16-3.191.87-6.673,2.031-9.864,3.191a35.39,35.39,0,0,0-4.932,2.031c-1.741.58-3.191,1.451-4.642,2.031-3.191,1.451-6.093,3.191-9.284,4.932-2.9,2.031-6.093,3.772-8.7,5.8-2.9,2.031-5.512,4.352-8.414,6.673a94.318,94.318,0,0,0-7.833,7.543c-2.611,2.611-4.642,5.512-7.253,8.123a92.063,92.063,0,0,1,12.185-17.988h0c-.87-.58-2.321-1.741-4.352-3.191a63.46,63.46,0,0,0-5.8-4.062,85.9,85.9,0,0,0-7.543-4.642,106.029,106.029,0,0,0-19.148-8.7c-1.741-.58-3.481-1.16-5.512-1.741s-3.772-.87-5.8-1.451a70.928,70.928,0,0,0-11.315-1.451c-3.772-.29-7.833-.29-11.6-.29-3.772.29-7.833.58-11.315,1.161-3.772.58-7.253,1.451-10.734,2.321-1.741.58-3.191.87-4.932,1.451l-.871,1.161c-.29,0-.58.29-1.16.29-.87.29-1.451.58-2.321.87a87.89,87.89,0,0,0-13.926,6.963c-1.741,1.16-2.9,2.031-3.772,2.611a10.471,10.471,0,0,0-1.451,1.16,8.118,8.118,0,0,1,.29-1.741,33.693,33.693,0,0,1,1.741-4.642,24.2,24.2,0,0,1,4.062-6.673,73.376,73.376,0,0,1,6.673-7.543c.58-.58,1.451-1.16,2.031-1.741a4,4,0,0,1,1.16-.87l1.16-.87a40.72,40.72,0,0,1,5.222-3.481,70.706,70.706,0,0,1,8.123-4.062c-.87-1.451-2.031-3.481-3.481-5.512-2.321-3.772-4.932-8.123-7.833-13.346-3.191-5.222-6.673-10.735-10.444-16.827-4.062-6.093-8.123-12.475-13.055-19.148A237.9,237.9,0,0,0,190.32,47.878a140.816,140.816,0,0,0-19.438-17.7c-1.741-1.16-3.481-2.611-5.512-3.772-1.741-1.16-3.481-2.321-5.512-3.481a25.515,25.515,0,0,0-2.9-1.741l-3.191-1.741L150.574,17.7h.29l-.58-.29h0l-1.451-.58A112.25,112.25,0,0,0,123.3,9.291a163.344,163.344,0,0,0-26.4-2.9c-4.352-.29-8.7-.29-13.056-.29s-8.414.29-12.765.29c-8.123.29-15.957.87-23.21,1.741-14.216,1.451-26.4,3.191-34.815,4.642C4.932,14.223,0,15.094,0,15.094V626.058H2175.917V187.717S2175.047,187.426,2173.6,186.846Z" transform="translate(0 11.664)"/>
      <g id="Groupe_147" data-name="Groupe 147" transform="translate(0 -0.035)">
        <g id="Groupe_146" data-name="Groupe 146">
          <path id="Tracé_457" data-name="Tracé 457" class="cls-3" d="M108.993,70.44a51,51,0,0,1,12.185,4.932,63.923,63.923,0,0,1,5.512,3.481,15.944,15.944,0,0,1,2.611,2.031c.87.87,1.741,1.451,2.321,2.031a68.237,68.237,0,0,1,8.7,9.574c2.611,3.191,4.932,6.673,7.253,9.864,2.031,3.191,4.062,6.383,5.8,9.284s3.191,5.222,4.352,7.253,2.321,3.772,2.9,4.932a7.18,7.18,0,0,0,1.161,1.741v-2.031a43.318,43.318,0,0,0-.29-5.512A111.017,111.017,0,0,0,158.314,98a77.561,77.561,0,0,0-13.346-26.981,15.207,15.207,0,0,0-2.9-3.191l-3.191-3.191a53.359,53.359,0,0,0-7.253-5.512,49.9,49.9,0,0,0-17.117-7.543,96.647,96.647,0,0,0-17.7-2.611,80.827,80.827,0,0,0-16.827.87,94.389,94.389,0,0,0-28.142,8.7,73.293,73.293,0,0,0-9.864,6.093,52.983,52.983,0,0,0-6.963,5.512,26.2,26.2,0,0,0-4.062,4.062L29.5,75.663a9.067,9.067,0,0,1,2.031-.58c1.16-.29,3.191-.87,5.512-1.451s4.932-1.16,8.123-2.031c3.191-.58,6.673-1.451,10.444-2.031a172.739,172.739,0,0,1,25.821-2.031,116.856,116.856,0,0,1,14.216.87A53.156,53.156,0,0,1,108.993,70.44Z" transform="translate(56.086 93)"/>
          <path id="Tracé_458" data-name="Tracé 458" class="cls-3" d="M559.26,119.215l2.611,1.161a49.878,49.878,0,0,1,9.284,6.673c3.191,2.611,6.093,5.512,8.994,8.414,2.9,3.191,5.8,6.093,8.7,9.284s5.512,6.383,8.414,9.574c2.611,3.191,5.222,6.673,7.833,10.154,5.222,6.673,10.154,13.926,15.086,21.179a190.894,190.894,0,0,0-9.864-24.08c-2.031-4.062-4.062-7.833-6.093-11.6-2.321-3.772-4.352-7.543-6.963-11.315-4.932-7.253-9.864-14.506-16.247-21.469a54.92,54.92,0,0,0-10.734-9.284l-1.741-1.16-1.451-.87-3.481-1.741a66.377,66.377,0,0,0-6.673-2.9,82.744,82.744,0,0,0-13.926-3.772l-3.481-.58-3.482-.29c-1.16,0-2.031-.29-3.191-.29L529.088,96a76.7,76.7,0,0,0-14.216.58,116.175,116.175,0,0,0-13.926,2.321,111.777,111.777,0,0,0-41.2,20.309c-2.9-3.191-6.093-6.673-9.284-9.864a94.581,94.581,0,0,0-19.728-15.377,84.96,84.96,0,0,0-11.6-5.512,63.264,63.264,0,0,0-12.765-3.191A94.374,94.374,0,0,0,393.6,84.4a86.052,86.052,0,0,0-12.185.87c-2.031.29-3.772.58-5.8.87a45.044,45.044,0,0,0-6.093,1.16c-4.062.87-7.833,1.741-11.6,2.9s-7.543,2.321-11.315,3.772-7.253,2.9-10.735,4.642-6.963,3.481-10.444,5.512l-4.932,3.191-4.932,3.481a109.145,109.145,0,0,0-8.994,7.253,48.192,48.192,0,0,0-4.062,3.772c-.29-.29-.58-.29-1.16-.58l-1.741-1.161a103.061,103.061,0,0,0-15.957-8.123c-5.512-2.321-11.6-4.352-17.407-6.383a168.02,168.02,0,0,0-18.278-5.222c-12.475-3.191-25.821-6.093-39.747-7.253a162.04,162.04,0,0,0-42.648.87,142.848,142.848,0,0,0-40.907,12.765,177.324,177.324,0,0,0-34.815,22.049A116.105,116.105,0,0,0,64.021,157.8,105.993,105.993,0,0,0,50.966,190a152.1,152.1,0,0,0-3.191,28.432,162.309,162.309,0,0,0,.58,21.469c.29,6.093.87,10.734,1.16,13.636.29,3.191.58,4.932.58,4.932s.87-6.673,2.321-18.568c.58-5.8,1.741-13.056,3.191-20.889a172.973,172.973,0,0,1,6.673-26.111,113.172,113.172,0,0,1,5.8-13.636c1.16-2.321,2.611-4.352,3.772-6.673.58-.87,1.451-2.321,2.321-3.481s1.451-2.031,2.321-3.191c6.383-8.7,14.8-16.537,24.37-23.5a191.348,191.348,0,0,1,31.913-18.568,142.047,142.047,0,0,1,35.975-10.444c12.185-2.031,25.241-2.031,37.716-1.16a314.056,314.056,0,0,1,37.426,5.222c6.093,1.16,11.9,2.611,17.988,4.062,5.8,1.451,11.315,2.9,16.537,4.642a112.081,112.081,0,0,1,14.8,5.8l1.741.87a9.537,9.537,0,0,1,1.741.87,21.637,21.637,0,0,1,3.481,2.031c2.031,1.161,4.062,2.611,6.093,3.772a154.74,154.74,0,0,1,20.309,17.407c5.512,5.8,10.444,11.025,14.216,15.667,7.833,8.994,12.185,14.216,12.185,14.216s-.87-1.451-2.321-4.352-3.481-6.963-6.673-12.185A198.533,198.533,0,0,0,332.385,152a124.961,124.961,0,0,0-18.858-21.469c-2.031-1.741-4.062-3.481-6.383-5.222a15.943,15.943,0,0,0-2.611-2.031l4.062-2.321,4.932-2.611,5.222-2.321,10.444-4.352a73.483,73.483,0,0,1,10.444-3.481c3.481-.87,7.253-2.031,10.735-2.9s7.253-1.451,10.734-2.031,7.253-.87,10.735-1.161a31.533,31.533,0,0,1,5.222-.29,40.861,40.861,0,0,0,5.8-.29c3.481,0,7.253,0,10.444.29,3.481.29,6.963.87,10.154,1.451a35.186,35.186,0,0,1,9.284,3.191,63.418,63.418,0,0,1,8.7,4.642c11.025,7.253,20.6,18.568,30.173,29.883L458.3,149.1l7.833-7.543a108.1,108.1,0,0,1,8.7-7.543,109.742,109.742,0,0,1,9.574-6.383c3.481-2.031,6.963-3.481,10.444-5.222a70.509,70.509,0,0,1,11.025-3.772c3.772-1.16,7.543-1.741,11.315-2.611a78.133,78.133,0,0,1,11.6-.87h8.994l2.9.29c3.772.58,7.543,1.161,11.315,2.031l5.222,1.741Z" transform="translate(90.614 160.564)"/>
          <path id="Tracé_459" data-name="Tracé 459" class="cls-3" d="M2174.177,197.64a43.176,43.176,0,0,0-5.222-5.222,50.478,50.478,0,0,0-4.062-3.481c-1.45-1.16-3.191-2.321-5.222-3.772-2.031-1.16-4.062-2.611-6.383-3.772s-4.642-2.321-7.253-3.772a121.778,121.778,0,0,0-17.407-6.093,92.833,92.833,0,0,0-20.6-2.9,101.793,101.793,0,0,0-22.629,1.741,112.6,112.6,0,0,0-22.63,6.963l-3.481,1.741a31.636,31.636,0,0,0-.29-4.932c-.29-4.062-.29-8.994-.87-14.506s-1.161-12.185-2.321-19.148c-.58-3.481-1.451-6.963-2.321-10.735s-2.031-7.543-3.191-11.6a123.553,123.553,0,0,0-10.444-24.08,69.46,69.46,0,0,0-3.772-6.093,43.233,43.233,0,0,0-4.352-5.8c-1.451-1.741-2.9-3.772-4.642-5.8l-5.512-5.512c-1.74-1.741-3.481-2.9-5.222-4.642l-1.161-1.16-.58-.58-.29-.29h-.29l-.29-.29-3.191-2.031a47.688,47.688,0,0,0-6.383-4.062l-6.673-3.481c-2.321-1.16-4.642-2.031-6.963-3.191a67.872,67.872,0,0,0-6.963-2.611,133.443,133.443,0,0,0-14.506-3.772c-2.321-.29-4.932-.87-7.253-1.16s-4.932-.29-7.253-.58l-3.481-.29h-3.481c-2.321,0-4.642.29-6.963.29a122.473,122.473,0,0,0-26.111,5.222c-2.031.58-4.062,1.451-5.8,2.031-2.031.87-3.771,1.741-5.512,2.611l-5.222,2.611a.284.284,0,0,0-.29.29c-1.451-1.16-3.191-2.611-5.222-4.062a112.114,112.114,0,0,0-12.766-7.833,101.026,101.026,0,0,0-17.7-7.833,117.5,117.5,0,0,0-22.629-5.512c-4.062-.58-8.413-1.16-12.475-1.451-2.031,0-4.352-.29-6.673-.29h-6.673a150.089,150.089,0,0,0-27.562,2.611,196.924,196.924,0,0,0-27.852,7.253l-6.673,2.611-6.673,2.9-3.481,1.451a15.555,15.555,0,0,1-3.191,1.451c-2.031,1.16-4.062,2.031-6.092,3.191l-.87.29-.87.58-1.451.87c-1.161.58-2.031,1.16-3.191,1.741a39.852,39.852,0,0,0-5.8,3.772c-3.772,2.611-7.833,5.222-11.315,8.123a113.09,113.09,0,0,0-18.858,18.278,55.721,55.721,0,0,0-3.771,4.932c-.58.87-1.161,1.451-1.741,2.321l-1.741,2.611a87.3,87.3,0,0,0-5.512,10.154,78.706,78.706,0,0,0-6.093,18.858,74.134,74.134,0,0,0-1.161,15.086,9.868,9.868,0,0,0,.29,2.9h0c-2.031-.29-4.062-.29-6.093-.58-1.161,0-2.031-.29-3.191-.29h-9.574a99.838,99.838,0,0,0-13.055,1.451,142.672,142.672,0,0,0-26.4,7.253c-8.7,3.191-17.117,7.833-25.241,12.475a190.827,190.827,0,0,0-22.63,16.827c-3.481,3.191-6.963,6.383-9.864,9.574-1.451,1.741-3.191,3.481-4.642,4.932l-4.352,5.222a89.556,89.556,0,0,0-7.543,10.735,53.838,53.838,0,0,0-3.191,5.512,33.06,33.06,0,0,0-2.9,5.512c-1.741,3.772-3.482,7.253-4.932,10.734a73.512,73.512,0,0,0-3.482,10.444,39.551,39.551,0,0,0-1.16,4.932c-.29,1.741-.581,3.191-.87,4.932-.58,3.191-.58,6.383-.87,8.994-.29,3.772,0,6.963,0,9.864a111.073,111.073,0,0,0-40.037-20.889l-3.191-.87-1.741-.29-.87-.29h-.87c-2.031-.29-4.062-.87-6.093-1.16a57.06,57.06,0,0,0-6.963-.87,56.344,56.344,0,0,0-6.963-.58,115.065,115.065,0,0,0-28.142,2.031A119.7,119.7,0,0,0,1374.6,268.72a80.413,80.413,0,0,0-18.278,18.858,34.214,34.214,0,0,0-3.191,5.512,17.212,17.212,0,0,1-1.161,2.321c-.29.87-.87,2.031-1.16,2.9a109.9,109.9,0,0,0-3.482,10.444c-.58,2.9-1.16,5.512-1.741,8.123-.58-.29-1.451-.29-2.321-.58a49.928,49.928,0,0,0-8.413-1.451,29.833,29.833,0,0,0-5.222-.29h-5.8a73.6,73.6,0,0,0-13.056,1.741,98.653,98.653,0,0,0-14.216,4.352,86.532,86.532,0,0,0-14.216,7.833c-1.451.87-2.611,2.031-4.062,2.9a7.693,7.693,0,0,0-1.451-1.741,68.948,68.948,0,0,0-10.154-11.025c-2.321-1.741-4.642-4.062-7.253-6.093-2.611-1.741-5.512-4.062-8.414-5.8-3.191-1.741-6.383-3.772-9.864-5.512-1.741-.87-3.482-1.741-5.512-2.611-1.741-.87-3.772-1.451-5.8-2.321a50,50,0,0,0-6.093-2.031,50,50,0,0,1-6.093-2.031c-4.352-.87-8.7-2.321-13.056-2.9a174.332,174.332,0,0,0-27.852-2.611c-9.574-.29-19.148.87-28.722,2.031a176.605,176.605,0,0,0-27.852,6.383,183.721,183.721,0,0,0-25.821,10.154c-4.062,2.031-7.833,4.062-11.6,6.383s-7.253,4.352-10.734,6.963a118.408,118.408,0,0,0-9.574,7.253,103.984,103.984,0,0,0-8.413,7.543,81.72,81.72,0,0,0-12.475,15.086A90.571,90.571,0,0,0,1034,361.269a36.64,36.64,0,0,0-2.321,5.222h0c-.87-.29-1.741-.87-2.611-1.161a100.885,100.885,0,0,0-21.759-7.253,127.042,127.042,0,0,0-23.79-2.9,141.79,141.79,0,0,0-24.66,1.16,168.742,168.742,0,0,0-24.08,4.932,114.431,114.431,0,0,0-22.339,8.414A126.426,126.426,0,0,0,893,381a96.982,96.982,0,0,0-14.8,13.636,67.961,67.961,0,0,0-9.574,14.216c-1.16,2.321-2.031,4.352-2.9,6.383-.29.58-.29,1.16-.58,1.741a155.878,155.878,0,0,0-14.506-23.5c-.58-.87-1.451-1.741-2.031-2.611a131.379,131.379,0,0,0,9.864-22.339c1.741-4.932,3.482-10.444,4.932-16.247a87.838,87.838,0,0,0,1.741-9.284c.29-1.741.29-3.191.58-5.222a34.759,34.759,0,0,0,0-5.512c-.29-8.123-2.9-15.377-6.673-22.339a64.436,64.436,0,0,0-35.4-29.3,47.488,47.488,0,0,0-11.025-2.9,48.321,48.321,0,0,0-11.315-1.16h-4.932c-1.741.29-3.481.29-5.222.58a54.039,54.039,0,0,0-9.864,2.031,71.219,71.219,0,0,0-15.086,6.092c-1.451-4.932-3.191-10.154-4.932-15.086-2.9-7.543-5.8-14.8-9.284-22.049s-6.963-14.216-11.025-21.179-8.414-13.636-13.055-20.309A219.043,219.043,0,0,0,696.3,170.078,189.724,189.724,0,0,0,677.437,154.7q-10.009-6.963-20.889-13.056a182.6,182.6,0,0,0-22.92-10.154c-2.031-.58-4.062-1.451-5.8-2.031l-2.9-.87-1.451-.29-.87-.29-.87-.29c-4.062-.87-8.123-2.031-12.185-2.611A142.7,142.7,0,0,0,584.6,122.5a173.432,173.432,0,0,0-24.66,1.16,288.959,288.959,0,0,0-47.58,10.154c-7.543,2.321-15.376,4.932-22.92,7.543l-2.9.87-1.451.58c-.58.29-1.451.58-2.031.87-2.321,1.16-4.352,2.321-6.093,3.191l-5.222,3.481c-1.16-.87-2.611-1.741-4.062-2.611-1.451-1.161-3.191-2.031-4.932-3.191-.87-.58-1.741-.87-2.611-1.451a15.545,15.545,0,0,0-3.191-1.451h-.29l-.58-.29h-.29l-.58-.29-1.451-.58-2.9-.87a38.647,38.647,0,0,0-5.512-1.451,77.234,77.234,0,0,0-11.315-2.031c-3.772-.58-7.543-.87-11.6-1.16h-5.8l-5.8.29a39.319,39.319,0,0,0-5.8.58c-2.031.29-3.772.58-5.8.87a37.3,37.3,0,0,0-5.512,1.16l-5.512,1.451c-1.741.29-3.481,1.16-5.512,1.741a38.748,38.748,0,0,0-5.222,2.031c-1.741.58-3.481,1.451-5.222,2.031l-4.932,2.611c-1.741.87-3.191,1.741-4.932,2.611a25.055,25.055,0,0,0-4.642,2.9,117.46,117.46,0,0,0-17.407,13.636c-2.611,2.321-4.642,4.932-6.963,7.253v-.58a26.21,26.21,0,0,0-1.451-4.642,68.1,68.1,0,0,0-3.191-6.963,57.566,57.566,0,0,0-5.512-8.123,68.866,68.866,0,0,0-19.438-16.247c-2.031-1.16-4.352-2.031-6.383-3.191-1.16-.58-2.321-.87-3.772-1.451l-3.191-.87a92.2,92.2,0,0,0-15.086-2.9,65.737,65.737,0,0,0-15.086.58,59.918,59.918,0,0,0-14.216,3.481c-.58.29-1.451.58-2.031.87a63.182,63.182,0,0,1-1.741-6.383c-1.16-4.062-2.611-9.284-4.642-14.8-.87-2.9-2.031-5.8-3.191-8.994s-2.611-6.383-4.062-9.864q-4.352-10.444-10.444-21.759a172.76,172.76,0,0,0-15.086-22.92c-1.451-1.741-3.191-3.772-4.642-5.8s-3.481-3.772-4.932-5.512l-2.611-2.611-2.9-2.611c-2.031-1.741-3.772-3.481-5.8-5.222-2.031-1.451-4.062-3.191-6.093-4.642s-4.642-2.9-6.963-4.352c-1.16-.58-2.321-1.451-3.481-2.031l-3.191-1.741-3.191-1.741-.87-.29-.29-.29-.87-.29L156.666,9.93a126.6,126.6,0,0,0-30.173-8.414A172.742,172.742,0,0,0,96.9.066c-4.642.29-9.284.58-13.926,1.16s-9.284,1.16-13.346,2.031A242.382,242.382,0,0,0,45.839,8.48,249.515,249.515,0,0,0,11.9,20.665q-5.657,2.611-8.7,4.352C1.16,26.177,0,26.758,0,26.758s4.932-.87,13.346-2.321,20.309-3.191,34.815-4.642c7.253-.58,14.8-1.16,23.21-1.741,4.062-.29,8.123-.29,12.765-.29,4.062,0,8.414,0,13.056.29a163.344,163.344,0,0,1,26.4,2.9A129.169,129.169,0,0,1,149.123,28.5l1.451.58h0l.29.29.87.29,3.191,1.741,3.191,1.741c1.16.58,1.741,1.16,2.9,1.741,1.741,1.16,3.481,2.031,5.512,3.481,1.741,1.16,3.481,2.611,5.512,3.772a161.922,161.922,0,0,1,19.438,17.7A198,198,0,0,1,207.437,79.56c4.932,6.673,8.994,13.056,13.056,19.148,3.772,6.093,7.253,11.9,10.444,16.827,2.9,5.222,5.8,9.574,7.833,13.346a45.645,45.645,0,0,0,3.481,5.512,70.711,70.711,0,0,0-8.123,4.062,40.724,40.724,0,0,0-5.222,3.481l-1.161.87a4.006,4.006,0,0,0-1.16.87,12.618,12.618,0,0,0-2.031,1.741,51.892,51.892,0,0,0-6.673,7.543,58.9,58.9,0,0,0-4.062,6.673,33.7,33.7,0,0,0-1.741,4.642,8.119,8.119,0,0,0-.29,1.741,6.44,6.44,0,0,0,1.451-1.16c.87-.58,2.321-1.451,3.772-2.611a87.893,87.893,0,0,1,13.926-6.963c.87-.29,1.451-.58,2.321-.87.29,0,.87-.29,1.16-.29l1.16-.58a44.747,44.747,0,0,1,4.932-1.451c3.481-.87,6.963-1.741,10.734-2.321a74.815,74.815,0,0,1,11.315-1.16,51.79,51.79,0,0,1,11.6.29c3.772.29,7.833.87,11.315,1.451,2.031.58,3.772.87,5.8,1.451,1.741.58,3.772,1.16,5.512,1.741a97.586,97.586,0,0,1,19.148,8.7c2.611,1.451,5.222,3.191,7.543,4.642a63.453,63.453,0,0,1,5.8,4.062c2.031,1.451,3.481,2.611,4.352,3.191h0c-2.321,2.9-4.642,5.8-6.673,8.7a97.8,97.8,0,0,0-5.512,9.284c2.321-2.611,4.642-5.512,7.253-8.123,2.321-2.611,5.222-4.932,7.833-7.543a94.383,94.383,0,0,1,8.414-6.673c2.9-2.031,5.8-3.772,8.7-5.8a93.966,93.966,0,0,1,9.284-4.932,32.233,32.233,0,0,1,4.642-2.031c1.741-.58,3.191-1.451,4.932-2.031a98.12,98.12,0,0,1,9.864-3.191,30.355,30.355,0,0,1,4.932-1.16c1.741-.29,3.191-.87,4.932-1.161l4.932-.87c1.741-.29,3.481-.29,5.222-.58a29.838,29.838,0,0,1,4.932-.29,27.95,27.95,0,0,1,4.932,0H417.2l2.611.29,2.321.29c3.481.29,6.673.87,9.864,1.451a71.33,71.33,0,0,1,9.864,2.611c1.741.58,3.191,1.16,4.642,1.741l2.321.87,1.16.58.58.29h.29a6.342,6.342,0,0,1,1.451.87l2.031,1.16a35.2,35.2,0,0,1,4.062,2.9c2.9,2.031,5.512,4.062,8.414,6.383l4.932,3.772,5.512-3.481a104.91,104.91,0,0,1,9.574-5.8,19.029,19.029,0,0,1,4.352-2.031.9.9,0,0,1,.58-.29l1.16-.29,2.9-.87c7.543-2.321,14.8-4.352,22.339-6.673a266.643,266.643,0,0,1,44.389-8.7,191.721,191.721,0,0,1,22.339-.87,188.725,188.725,0,0,1,22.049,2.031c3.772.58,7.253,1.451,10.734,2.031h1.161l1.451.29,2.9.87a48.418,48.418,0,0,0,5.222,1.451,138.016,138.016,0,0,1,20.6,8.123,159.741,159.741,0,0,1,19.438,11.025A163.561,163.561,0,0,1,686.719,181.1a241.287,241.287,0,0,1,32.494,31.913,219.656,219.656,0,0,1,14.216,18.278c4.642,6.093,8.994,12.765,13.055,19.148,4.062,6.673,8.123,13.346,11.9,20.309,2.611,4.642,4.932,9.284,7.253,14.216a.284.284,0,0,0-.29.29,68.62,68.62,0,0,0-20.018,16.827,42.348,42.348,0,0,0-4.352,5.8,11.483,11.483,0,0,1-1.451,2.031,13.227,13.227,0,0,0,2.321-1.16q2.176-1.306,6.093-3.481a76.428,76.428,0,0,1,9.574-4.352c3.772-1.451,7.833-2.9,12.475-4.352a112,112,0,0,1,14.8-2.611c1.161,0,2.611-.29,4.062-.29H792.9a19.154,19.154,0,0,1,4.062.29c1.451,0,2.9.29,4.352.29,1.161.29,2.321.29,3.772.58s2.611.58,4.062.87c2.611.58,5.512,1.741,8.123,2.611a64.476,64.476,0,0,1,15.086,8.414,52.627,52.627,0,0,1,11.9,12.185,45.73,45.73,0,0,1,4.352,6.963,24.325,24.325,0,0,1,2.611,7.253c.29,1.741.29,2.9.58,4.062a20.555,20.555,0,0,0,.29,4.062,78.773,78.773,0,0,1-.29,8.414c-.29,5.512-.87,11.025-1.451,15.957s-1.451,9.574-2.031,13.636c-.58,2.611-.87,5.222-1.451,7.543a145.926,145.926,0,0,0-15.957-16.827,141.673,141.673,0,0,0-25.531-18.278l-6.963-3.481c-2.321-1.161-4.932-2.031-7.253-3.191A39.142,39.142,0,0,0,784.2,342.7l-1.741-.58H781.3l-.87-.29-3.772-.87a98.776,98.776,0,0,0-53.383,2.321,87.116,87.116,0,0,0-10.444,4.062c-3.191,1.741-6.092,3.191-8.7,4.932a72.509,72.509,0,0,0-12.765,9.864,60.418,60.418,0,0,0-6.673,7.833c-1.451,2.031-2.031,2.9-2.031,2.9s.87-.58,2.9-2.031a85.389,85.389,0,0,1,8.414-5.512,101.9,101.9,0,0,1,13.636-6.383,96.32,96.32,0,0,1,18.568-4.642,106.445,106.445,0,0,1,46.13,3.481l2.9.87,1.161.29,1.741.58c2.031.87,4.642,1.741,6.383,2.611s3.772,1.741,5.8,2.9a57.54,57.54,0,0,1,5.8,3.191,128.672,128.672,0,0,1,21.759,16.247A172.522,172.522,0,0,1,836.422,404.5,191.024,191.024,0,0,1,851.8,426.836c4.352,7.543,8.414,15.086,11.9,22.63s6.673,14.506,9.284,21.469c5.512,13.346,9.574,24.951,12.475,33.074q2.176,6.093,3.481,9.574a36.421,36.421,0,0,1,1.161,3.482s0-4.932-.87-13.636q-.435-6.528-1.741-15.667c-.87-6.093-1.741-12.765-3.482-20.018a213.9,213.9,0,0,0-15.086-45.549,41.479,41.479,0,0,1,3.191-4.352c1.161-1.451,2.611-3.191,4.062-4.932a102.058,102.058,0,0,1,11.315-10.154,103.807,103.807,0,0,1,15.086-9.284,133.143,133.143,0,0,1,18.278-7.833,149.431,149.431,0,0,1,20.309-5.8c6.963-1.451,14.216-2.9,21.759-3.772a187.562,187.562,0,0,1,22.049-1.451c7.253,0,14.216.29,21.179.87a124.32,124.32,0,0,1,19.148,3.772l2.031.58c.87.29,1.451.58,2.321.87a35.224,35.224,0,0,0,4.062,1.451c2.611,1.16,5.512,2.321,7.833,3.481a119.894,119.894,0,0,1,13.636,7.543c4.062,2.321,7.543,4.642,10.735,6.383,2.9,1.741,5.222,3.191,6.963,4.062a26.808,26.808,0,0,1,2.611,1.451s-.58-.87-1.741-2.321-2.9-3.772-4.932-6.383a150.44,150.44,0,0,0-20.6-20.6,53.61,53.61,0,0,0-7.833-5.512c-1.451-.87-3.191-1.741-4.352-2.611.87-1.16,2.321-2.611,3.481-4.062,2.611-2.9,6.093-6.383,10.154-10.154,4.062-3.481,8.994-7.543,14.216-11.315a49.227,49.227,0,0,0,4.062-2.9l4.352-2.611a102.733,102.733,0,0,1,9.574-5.512c3.191-1.741,6.963-3.482,10.444-5.222,3.771-1.451,7.253-3.191,11.315-4.642a195.035,195.035,0,0,1,24.08-7.833,189.634,189.634,0,0,1,25.531-5.222c8.7-1.16,17.407-2.031,25.821-2.321a181.232,181.232,0,0,1,25.241.58c4.062.29,8.123.87,11.9,1.451,3.771.87,7.543,1.161,11.315,2.321a30.816,30.816,0,0,0,5.512,1.16,35.077,35.077,0,0,0,5.222,1.451,73.486,73.486,0,0,1,9.574,3.481c3.191,1.161,5.8,2.611,8.7,3.772a62.335,62.335,0,0,1,7.543,4.062c4.642,2.9,8.7,5.222,11.9,7.833a6.328,6.328,0,0,1,1.451,1.16c-2.031,1.741-4.062,3.772-6.093,5.8l-2.611,3.191a36.25,36.25,0,0,0-2.611,3.481c-2.031,2.321-3.191,4.932-4.642,7.253a74.7,74.7,0,0,0-6.093,15.086,69.067,69.067,0,0,0-2.611,14.8,100.186,100.186,0,0,0,.29,13.346,34.223,34.223,0,0,0,1.16,5.8c.58,1.741.87,3.481,1.451,4.932s.87,2.611,1.451,3.772c-2.9,0-5.8-.29-8.994,0a138.53,138.53,0,0,0-18.278,1.741,117.471,117.471,0,0,0-19.148,5.222,103.267,103.267,0,0,0-18.858,9.284h0l-.58.29-.29.29-.58.29-.87.58-2.031,1.451c-1.16.87-2.611,2.031-4.062,3.191a96.376,96.376,0,0,0-7.833,7.253c-2.321,2.611-4.642,5.222-6.673,7.833-.87,1.451-2.031,2.611-2.9,4.062l-2.611,4.352a92.02,92.02,0,0,0-7.833,17.407,59.329,59.329,0,0,0-3.191,16.537c0,2.611-.29,5.222-.29,7.543.29,2.321.29,4.642.58,6.673s.87,4.062,1.161,5.8,1.161,3.191,1.451,4.642a55.077,55.077,0,0,0,2.611,6.383,6.437,6.437,0,0,0,1.16,2.031v-2.321a63.824,63.824,0,0,1,.29-6.673,26.545,26.545,0,0,1,.29-4.642q.435-2.611.87-5.222a56.413,56.413,0,0,1,1.451-5.8,49.945,49.945,0,0,1,2.031-6.093,85.653,85.653,0,0,1,5.8-13.056,87.167,87.167,0,0,1,8.7-13.346,112.734,112.734,0,0,1,11.315-12.475c2.031-1.741,4.352-3.772,6.383-5.222a36.245,36.245,0,0,1,3.481-2.611l3.772-2.611a158.081,158.081,0,0,1,15.376-8.414c5.222-2.321,10.735-4.352,15.957-6.093,5.512-1.451,10.735-3.191,15.957-4.062q7.833-1.741,14.8-2.611c4.642-.58,8.994-1.16,12.765-1.741,3.771-.29,7.253-.87,10.154-1.161s5.222-.58,6.673-.58a13.144,13.144,0,0,1,2.321-.29s-.87-.29-2.321-.87a67.158,67.158,0,0,0-6.383-2.321c-2.9-.87-6.093-1.741-10.154-2.611a86.177,86.177,0,0,0-13.346-2.031h-1.451c0-1.451.29-3.191.29-5.222.29-1.451.29-2.9.58-4.642.29-1.451.58-3.191.87-4.932.87-3.481,1.45-7.253,2.9-10.734a90.568,90.568,0,0,1,4.352-11.315c1.741-3.772,4.062-7.543,6.093-11.315,1.161-1.741,2.611-3.481,3.772-5.222.58-.87,1.161-1.451,2.031-2.611l2.321-2.611a94.591,94.591,0,0,1,9.574-8.994c3.481-2.611,6.963-5.222,10.444-7.543,3.771-2.321,7.253-4.352,10.734-6.093s7.253-3.191,10.444-4.642c3.482-1.161,6.383-2.321,9.284-3.191a60.417,60.417,0,0,1,7.543-2.031c.58-.29,1.161-.29,1.741-.58a49.793,49.793,0,0,1-1.16,6.963c-.87,5.222-1.451,9.864-2.031,13.636a75.386,75.386,0,0,1-1.741,8.7c-.58,2.031-.87,3.191-.87,3.191l1.741-2.611a69.716,69.716,0,0,0,4.642-7.833c1.741-3.481,3.772-7.833,5.8-12.765s4.062-10.444,6.673-16.247a76.622,76.622,0,0,1,4.352-8.414l1.16-1.741a10.173,10.173,0,0,0,1.451-2.321c.87-1.161,2.031-2.611,2.9-3.772a75.391,75.391,0,0,1,16.247-13.346,127.648,127.648,0,0,1,20.889-10.444,122.437,122.437,0,0,1,22.92-6.673,132.18,132.18,0,0,1,23.79-2.321c4.062,0,7.833.29,11.6.58l6.093.87c1.741.29,3.772.58,5.512.87a132.571,132.571,0,0,1,39.167,14.506c2.611,1.451,5.222,3.191,7.833,4.642a5.079,5.079,0,0,1,.29,1.451v-1.16c2.321,1.451,4.352,2.9,6.383,4.352,4.062,3.191,7.833,6.093,10.734,8.414,2.611,2.611,4.932,4.642,6.383,6.093l2.321,2.321a20.03,20.03,0,0,1-1.451-2.9,84.378,84.378,0,0,0-4.352-7.833,93.208,93.208,0,0,0-8.414-11.6c-2.9-3.481-6.383-6.963-10.154-10.735.58-3.772,1.741-7.833,2.9-12.765a133.075,133.075,0,0,1,6.383-16.247c1.451-2.9,2.9-5.8,4.642-8.7l2.611-4.352c.87-1.451,2.031-2.9,2.9-4.352,2.031-2.9,4.352-5.8,6.673-8.994,2.611-2.9,4.932-6.093,7.833-8.7a164.324,164.324,0,0,1,17.988-16.537,174.681,174.681,0,0,1,20.6-14.506,163.057,163.057,0,0,1,22.339-11.6,133.612,133.612,0,0,1,22.92-7.833c3.771-1.16,7.543-1.741,11.315-2.611a35.544,35.544,0,0,1,5.512-.58c.87,0,1.741-.29,2.611-.29a8.034,8.034,0,0,0,2.611-.29c1.74,0,3.482-.29,5.222-.29h5.222c3.482,0,6.673.58,9.864.87a82.312,82.312,0,0,1,8.994,1.741c2.9.87,5.512,1.451,7.833,2.321s4.642,2.031,6.963,2.9c2.031.87,3.772,2.031,5.512,2.9a69.7,69.7,0,0,1,7.833,4.642,30.139,30.139,0,0,0,2.9,1.741s-.58-.87-2.031-2.611c-.58-.87-1.451-1.741-2.321-2.9a15.411,15.411,0,0,0-3.772-3.772c-1.451-1.451-3.191-2.9-4.932-4.642-2.031-1.451-4.062-2.9-6.383-4.642-2.611-1.451-5.222-2.9-8.123-4.642-2.9-1.16-6.093-2.611-9.574-3.772-3.481-.87-6.963-2.321-10.735-2.9-.87-.29-1.741-.29-2.611-.58.29-.87.29-2.031.58-3.191a89.085,89.085,0,0,1,13.056-28.722,71.737,71.737,0,0,1,6.092-7.833l1.741-1.741,2.031-2.031a46.22,46.22,0,0,1,3.772-3.772,132.671,132.671,0,0,1,18.278-14.216c3.481-2.321,6.963-4.352,10.444-6.383a50.418,50.418,0,0,1,5.512-2.9l2.9-1.451,1.451-.87h.58l.87-.29c4.062-1.741,8.413-4.062,12.185-5.512l5.8-2.321,6.093-2.031a245.659,245.659,0,0,1,24.951-7.253,188.2,188.2,0,0,1,24.66-3.772c2.031-.29,4.062-.29,6.093-.58,2.031,0,4.062-.29,5.8-.29,4.062-.29,7.833,0,11.6,0,7.543.29,14.506.87,21.179,1.741a87.848,87.848,0,0,1,9.284,1.741,71.355,71.355,0,0,1,8.414,2.031c5.222,1.16,9.864,2.9,13.636,4.062,1.741.58,3.482,1.451,4.932,2.031-.87.58-1.45.87-2.321,1.451-1.45,1.16-3.191,2.031-4.352,2.9a39,39,0,0,1-4.062,3.191c-1.161,1.16-2.611,2.031-3.772,3.191a33.1,33.1,0,0,1-3.191,3.191c-.87,1.16-2.031,2.031-2.9,3.191l-1.451,1.451a6.329,6.329,0,0,1-1.161,1.451c-1.451,2.031-2.9,4.062-4.062,5.8s-2.031,3.191-2.9,4.642c-.58,1.451-1.45,2.611-1.741,3.481a20.029,20.029,0,0,1-1.451,2.9l2.321-2.321a74.747,74.747,0,0,1,6.673-6.383,104.286,104.286,0,0,1,11.315-8.414c1.161-.87,2.321-1.451,3.481-2.321,1.161-.58,2.611-1.451,4.062-2.031s2.611-1.451,4.062-2.031l4.352-1.741c1.45-.58,2.9-1.16,4.642-1.741,1.451-.58,3.191-.87,4.932-1.451a31.7,31.7,0,0,1,4.932-1.451,33.734,33.734,0,0,0,5.222-1.16,113.667,113.667,0,0,1,47,.87c4.062.58,7.833,2.321,11.9,3.481a48.365,48.365,0,0,1,5.8,2.321,32.167,32.167,0,0,1,5.512,2.611l5.512,2.9,5.222,3.481,2.611,1.741.29.29h.29l.58.29,1.451,1.16c1.741,1.451,3.772,2.9,5.222,4.062,1.45,1.451,2.9,2.611,4.062,3.772,1.45,1.451,2.611,2.9,4.062,4.352A52.9,52.9,0,0,1,2023.023,99l1.741,2.321,1.741,2.321a127.671,127.671,0,0,1,11.6,20.018c3.191,6.673,5.8,13.636,8.123,19.728,1.161,3.191,2.321,6.093,3.191,9.284,1.161,2.9,2.031,5.8,2.9,8.414,1.741,5.222,3.191,9.864,4.642,13.926a54.848,54.848,0,0,0,1.74,5.222,34.558,34.558,0,0,0-4.352,2.611,83.7,83.7,0,0,0-9.864,6.673,92.5,92.5,0,0,0-16.247,15.667,106.94,106.94,0,0,0-11.9,17.117,123.521,123.521,0,0,0-7.543,17.117c-.87,2.9-1.451,5.512-2.321,7.833-.58,2.611-1.161,4.932-1.451,7.253a52.169,52.169,0,0,0-.58,6.383,33.325,33.325,0,0,1-.29,5.512c-.29,3.191.29,5.8.29,7.543a17.9,17.9,0,0,1,.29,2.611s.29-.87.87-2.611,1.161-4.062,2.321-6.963c.58-1.451,1.161-3.191,2.031-4.932s1.451-3.481,2.321-5.512a61.432,61.432,0,0,1,3.191-6.093,73.466,73.466,0,0,1,3.772-6.383,127.166,127.166,0,0,1,9.574-13.346,129.933,129.933,0,0,1,12.185-13.346,147.422,147.422,0,0,1,14.8-11.9c2.611-1.741,5.512-3.481,8.124-4.932,1.45-.87,2.611-1.451,4.352-2.321l4.642-2.031A103.959,103.959,0,0,1,2091.2,190.1a141.222,141.222,0,0,1,18.858-2.9,124.061,124.061,0,0,1,17.988,0,130.654,130.654,0,0,1,16.247,2.031c2.611.58,4.932,1.161,7.253,1.741s4.352,1.161,6.383,1.741,3.771,1.451,5.8,2.031c1.741.58,3.191,1.161,4.642,1.741,2.9,1.161,5.222,2.321,6.673,2.9a13.846,13.846,0,0,1,2.321,1.16S2175.337,198.8,2174.177,197.64Z" transform="translate(0 0.035)"/>
          <path id="Tracé_460" data-name="Tracé 460" class="cls-3" d="M660.924,101.674c-3.191.29-6.383.29-9.864.87-1.741.29-3.481.58-4.932.87l-4.642,1.16a75.352,75.352,0,0,0-17.988,7.253,79.751,79.751,0,0,0-15.376,10.444,78.042,78.042,0,0,0-11.895,12.185,96.231,96.231,0,0,0-8.414,12.765,58,58,0,0,0-2.9,6.093c-.87,2.031-1.451,3.772-2.031,5.512a44.718,44.718,0,0,0-1.451,4.932c-.29,1.451-.58,3.191-.87,4.352-.58,2.611-.58,4.642-.87,6.093a5.02,5.02,0,0,1-.29,2.031,13.274,13.274,0,0,1,1.161-1.741c.87-1.16,2.031-2.9,3.482-4.932s3.482-4.352,5.512-7.253c1.16-1.451,2.321-2.611,3.482-4.062A55.7,55.7,0,0,1,597.1,153.9a101.23,101.23,0,0,1,9.864-8.994,95.736,95.736,0,0,1,11.895-8.414c4.352-2.611,8.7-4.932,13.345-7.253a123.1,123.1,0,0,1,14.506-5.222l4.062-.87c1.451-.29,2.611-.58,3.771-.87a58.709,58.709,0,0,1,7.543-1.161c5.222-.29,10.154-.58,15.376-.58a116.951,116.951,0,0,1,14.506,1.451,86.2,86.2,0,0,1,13.056,2.9c2.031.58,4.062,1.161,5.8,1.741l5.222,1.741a82.766,82.766,0,0,1,8.414,3.481c2.321,1.161,4.062,2.031,5.512,2.611a17.263,17.263,0,0,0,2.031.87,13.241,13.241,0,0,0-1.161-1.741c-.87-1.16-2.031-2.9-3.772-4.932-.87-.87-1.741-2.031-2.9-3.191l-3.772-3.772c-1.451-1.16-2.9-2.321-4.642-3.772-1.741-1.16-3.482-2.611-5.512-3.772-4.062-2.321-8.414-4.932-13.636-6.673a91.771,91.771,0,0,0-16.537-4.642h-.29l.87-1.741c.58-1.16,1.161-2.611,2.321-4.642a51.941,51.941,0,0,1,3.772-6.383,42.516,42.516,0,0,0,2.611-3.772c.87-1.16,2.031-2.611,2.9-3.772,2.321-2.611,4.642-5.222,7.253-7.833a77.255,77.255,0,0,1,8.994-7.543,92,92,0,0,1,10.444-6.673,47.327,47.327,0,0,1,5.512-2.611,30.1,30.1,0,0,1,2.9-1.16l3.191-1.16c4.062-1.451,8.123-2.321,12.185-3.481a92.139,92.139,0,0,1,12.475-1.741,82.435,82.435,0,0,1,11.895-.29c3.772,0,7.543.29,11.025.58s6.673.87,9.574,1.16c2.9.58,5.512.87,7.543,1.451s3.772.87,4.932,1.161a8.118,8.118,0,0,0,1.741.29,6.441,6.441,0,0,0-1.161-1.451,23,23,0,0,0-3.772-3.481,71.26,71.26,0,0,0-6.383-4.932,88.491,88.491,0,0,0-9.284-5.222,63.444,63.444,0,0,0-11.9-4.352,75.373,75.373,0,0,0-29.883-2.321,79.553,79.553,0,0,0-15.957,3.772l-3.771,1.451a40.353,40.353,0,0,0-3.771,1.741,58.4,58.4,0,0,0-7.253,4.062,59.666,59.666,0,0,0-12.185,10.154,65.772,65.772,0,0,0-8.994,11.6A59.616,59.616,0,0,0,682.1,77.3c-.58,2.031-1.161,3.772-1.741,5.512-.29,1.741-.58,3.481-.87,4.932a40.507,40.507,0,0,0-.29,8.123,21.609,21.609,0,0,0,.58,5.222,8.12,8.12,0,0,1,.29,1.741A107.716,107.716,0,0,0,660.924,101.674Z" transform="translate(1101.569 61.766)"/>
          <path id="Tracé_461" data-name="Tracé 461" class="cls-3" d="M687.686,60.536a25.551,25.551,0,0,0-4.932.58l-5.222.87a87.2,87.2,0,0,0-9.284,3.191c-1.451.58-2.9,1.451-4.352,2.031l-2.031,1.16-.87.58-.87.58c-2.611,1.741-5.222,3.191-7.253,5.222a72.851,72.851,0,0,0-20.018,24.37,85.079,85.079,0,0,0-4.642,11.315,45.14,45.14,0,0,0-2.031,9.284c-.29,2.611-.58,4.642-.58,6.093v2.031a13.248,13.248,0,0,1,1.161-1.741,43.621,43.621,0,0,1,3.191-4.932q2.176-3.046,5.222-6.963a87.383,87.383,0,0,1,7.253-8.414,91.09,91.09,0,0,1,20.6-16.247,102.949,102.949,0,0,1,12.765-6.093,58.474,58.474,0,0,1,6.673-2.031,14.966,14.966,0,0,1,3.191-.58,15.331,15.331,0,0,1,3.482-.29,60.039,60.039,0,0,1,14.216,1.16c4.932.87,10.154,2.031,14.8,3.191,9.574,2.321,17.988,5.222,24.37,9.284a47.808,47.808,0,0,1,14.216,12.475,46.011,46.011,0,0,1,3.191,4.642,7.183,7.183,0,0,0,1.161,1.741v-2.031a26.207,26.207,0,0,0-.58-6.093,33.738,33.738,0,0,0-3.191-8.994,45.355,45.355,0,0,0-7.253-10.444,64.971,64.971,0,0,0-11.605-9.864,88.679,88.679,0,0,0-14.8-7.543,137.8,137.8,0,0,0-16.537-5.222A60.626,60.626,0,0,0,687.686,60.536Z" transform="translate(1189.405 115.089)"/>
          <path id="Tracé_462" data-name="Tracé 462" class="cls-3" d="M686.955,117.671a70.156,70.156,0,0,1,10.444-2.9,64.006,64.006,0,0,1,10.735-1.161,44.727,44.727,0,0,1,10.734.87c3.772.58,7.543,1.451,11.315,2.321l11.6,3.191a134.716,134.716,0,0,1,22.339,7.543,53.491,53.491,0,0,1,19.438,13.926c-3.191-7.543-9.284-13.926-16.247-19.148a138.475,138.475,0,0,0-22.049-12.475c-3.772-1.741-7.543-3.481-11.315-4.932a75.36,75.36,0,0,0-12.185-4.352,98.711,98.711,0,0,0-13.345-2.611,106.9,106.9,0,0,0-13.636,0,98.7,98.7,0,0,0-13.346,2.611,41.082,41.082,0,0,0-6.383,2.031,52.289,52.289,0,0,0-6.093,2.321l-6.092,2.611c-2.031.87-4.062,2.031-5.8,2.9-3.772,2.031-7.543,4.352-11.025,6.673s-6.963,4.932-10.444,7.543-6.673,5.222-9.864,7.833A51.838,51.838,0,0,0,615.585,143.2a15.632,15.632,0,0,0-2.031,3.772,50.007,50.007,0,0,0-6.092-2.031c-2.9-.87-6.093-2.031-9.284-2.9s-6.383-1.451-9.574-2.031-6.673-.87-9.864-1.16a59.344,59.344,0,0,0-10.154,0,31.971,31.971,0,0,0-5.222.58c-2.031.29-3.191.58-4.642.87a56.786,56.786,0,0,0-9.864,3.481,23.133,23.133,0,0,0-4.642,2.321l-4.352,2.611a57.634,57.634,0,0,0-7.833,6.383c-2.321,2.321-4.642,4.932-6.673,7.253l-2.9,4.062-2.611,4.062c-1.451,2.9-3.191,5.512-4.352,8.7l-1.741,4.352a21.737,21.737,0,0,0-1.451,4.642,50.173,50.173,0,0,0-2.031,8.994,50.27,50.27,0,0,0-.87,9.284,72.957,72.957,0,0,1,3.482-8.414c1.16-2.611,2.611-5.512,4.062-8.123s3.191-4.932,4.642-7.543l5.222-6.963,2.9-3.191,3.191-2.9a58.849,58.849,0,0,1,6.673-5.222c2.321-1.451,4.642-2.9,6.963-4.062,1.161-.58,2.321-1.16,3.771-1.741a14.578,14.578,0,0,1,3.772-1.451,35.433,35.433,0,0,1,7.543-1.741,25.744,25.744,0,0,1,4.352-.58h3.772a71.132,71.132,0,0,1,7.833.58c2.611.29,5.222.87,8.123,1.451,10.735,2.611,21.469,7.253,32.494,12.185l10.735,4.642,2.321-16.537.29-.58a5.713,5.713,0,0,1,1.161-2.321,35.985,35.985,0,0,1,6.673-6.673c3.191-2.611,6.092-5.222,9.284-7.543s6.092-4.642,9.284-6.963,6.383-4.352,9.574-6.383,6.673-3.772,9.864-5.512c1.741-.87,3.481-1.741,4.932-2.321C683.473,118.831,685.214,118.251,686.955,117.671Z" transform="translate(968.483 185.898)"/>
          <path id="Tracé_463" data-name="Tracé 463" class="cls-3" d="M548.486,150.334h2.031a6.438,6.438,0,0,1-1.451-1.16c-1.161-.58-2.611-1.741-4.642-2.611a33.647,33.647,0,0,0-7.833-3.191c-1.451-.58-3.191-.87-4.932-1.451a37.3,37.3,0,0,0-5.512-1.16,91.022,91.022,0,0,0-13.055-1.161,89.347,89.347,0,0,0-14.8,1.161,100.343,100.343,0,0,0-15.376,4.062,88.689,88.689,0,0,0-14.8,7.543l-3.481,2.321c-.87.58-2.321,1.741-3.482,2.611-2.321,1.741-4.352,3.772-6.383,5.512a83.027,83.027,0,0,0-10.154,12.475,55.66,55.66,0,0,0-6.673,13.056,82.934,82.934,0,0,0-11.9-6.673,109.813,109.813,0,0,0-21.469-6.963,61.46,61.46,0,0,0-12.765-1.451,108.108,108.108,0,0,0-13.636.29l-3.191.58a17.37,17.37,0,0,0-3.481.58,44.828,44.828,0,0,0-6.673,1.741,91.687,91.687,0,0,0-12.475,4.642,71.24,71.24,0,0,0-10.445,6.383,108.557,108.557,0,0,0-8.413,7.253,36.741,36.741,0,0,0-3.191,3.772l-2.611,3.481q-2.176,3.481-3.482,6.093c-.87,1.741-1.16,3.191-1.741,4.352a12.191,12.191,0,0,1-.58,1.451,15.077,15.077,0,0,0,1.451-.87c.87-.58,2.031-1.16,3.772-2.321,1.451-.87,3.482-2.031,5.8-3.191s4.642-2.321,7.253-3.481a125.87,125.87,0,0,1,18.568-6.383c3.482-.87,6.963-1.741,10.444-2.321l5.222-.87c.87,0,1.741-.29,2.611-.29l2.9-.29c3.772-.58,7.543-.58,11.315-.87,3.772,0,7.543-.29,11.025-.29,7.253,0,14.216.29,20.309.58,4.932.29,9.574.29,13.055.58a77.751,77.751,0,0,0-2.031,7.833c-.29,2.031-.58,4.062-.87,5.8,0,1.741-.29,3.482-.29,5.222a67.542,67.542,0,0,0,.58,8.414,37,37,0,0,0,1.16,5.222,9.356,9.356,0,0,0,.58,1.741,9.363,9.363,0,0,0,.58-1.741,34.7,34.7,0,0,1,1.741-4.932c.58-2.031,1.741-4.352,2.9-7.253.58-1.451,1.451-2.611,2.031-4.352.87-1.451,1.451-2.9,2.321-4.642a87.723,87.723,0,0,1,6.093-9.574c2.321-3.191,4.932-6.383,7.543-9.574,2.9-3.191,6.093-6.093,9.284-8.994,1.741-1.451,3.482-2.9,4.932-4.062.87-.58,1.451-1.16,2.611-2.031l2.9-2.031c3.771-2.321,7.543-4.352,11.6-6.383,4.062-1.741,8.123-3.481,12.185-4.932,4.062-1.16,8.123-2.611,11.9-3.481s7.543-1.451,11.315-2.031c3.481-.58,6.963-.87,9.864-1.16s5.512-.58,7.833-.58A40.049,40.049,0,0,0,548.486,150.334Z" transform="translate(612.004 265.512)"/>
        </g>
        <path id="Tracé_464" data-name="Tracé 464" class="cls-3" d="M1020.017,209.157c-.87-4.932-2.031-10.735-3.771-17.407a105.74,105.74,0,0,0-8.414-22.049,83.572,83.572,0,0,0-17.117-23.5,97.454,97.454,0,0,0-26.981-17.988,133.071,133.071,0,0,0-32.494-10.444,113.181,113.181,0,0,0-35.685-1.451,146.628,146.628,0,0,0-34.524,8.414,193.3,193.3,0,0,0-30.173,14.506c-4.642,2.611-9.284,5.512-13.345,8.123a137.23,137.23,0,0,0-12.475,8.994,73.842,73.842,0,0,0-11.025,10.154l-1.161,1.451-.87.87c-.87-.58-2.031-1.16-2.9-1.741-2.9-1.451-5.8-2.9-8.7-4.062l-4.642-1.741-4.642-1.451c-3.191-.87-6.383-1.741-9.574-2.321l-9.574-1.741c-3.191-.29-6.673-.58-9.864-.87h-9.864c-1.741,0-3.482.29-5.222.29l-4.642.58c-3.482.58-6.673,1.16-10.154,2.031a70.077,70.077,0,0,0-10.154,3.481,39.171,39.171,0,0,0-9.574,5.512,67.091,67.091,0,0,0-8.414,6.963A85.873,85.873,0,0,0,671.29,190.59c-1.741,2.611-3.191,5.512-4.642,8.123a86.007,86.007,0,0,0-36.265-6.963,82.553,82.553,0,0,0-11.895,1.16,75,75,0,0,0-11.6,2.611l-2.9.87-2.611.87-2.9.87-2.611,1.16a75.4,75.4,0,0,0-10.444,6.093c-1.741,1.161-3.191,2.611-4.932,3.772a17.516,17.516,0,0,0-2.321,2.321l-2.031,2.321a55.649,55.649,0,0,0-6.673,10.154,153.777,153.777,0,0,0-8.414,20.6c-1.161,3.481-2.031,6.963-2.9,10.444s-1.741,6.963-2.321,10.734A179.8,179.8,0,0,0,553.5,287.2c2.611-6.673,5.222-13.346,7.833-19.728l4.352-9.574c1.451-3.191,3.191-6.383,4.642-9.284a145.413,145.413,0,0,1,10.444-17.407,35,35,0,0,1,6.093-6.963l1.741-1.451,1.741-1.16a16.449,16.449,0,0,1,3.772-2.321,73.968,73.968,0,0,1,8.414-3.772l2.321-.87,2.321-.58a8.47,8.47,0,0,1,2.611-.58l2.031-.58a88.822,88.822,0,0,1,9.284-1.451c3.191-.29,6.383-.29,9.284-.29a48.02,48.02,0,0,1,9.284.87c3.191.58,6.092,1.16,9.284,2.031a76.509,76.509,0,0,1,8.7,2.9c2.9,1.16,5.512,2.611,8.414,4.062l9.574,5.222,4.352-9.574c5.222-11.315,10.154-21.759,17.407-29.883a49.432,49.432,0,0,1,5.512-5.512,31.062,31.062,0,0,1,6.383-4.352c2.321-1.16,4.932-2.321,7.543-3.481,2.611-.87,5.512-1.741,8.123-2.611,1.451-.29,3.191-.87,4.642-1.16l4.352-.87c2.9-.58,5.8-1.16,8.7-1.451s6.093-.58,8.994-.87,6.093-.29,8.994-.29,6.093.29,8.994.29c2.9.29,6.093.58,9.284,1.16s6.093,1.16,9.284,1.741l2.611.58c-.29.58-.87.87-1.161,1.451a70.415,70.415,0,0,0-4.062,5.8,96.6,96.6,0,0,0-10.444,21.469c-2.321,6.673-4.062,12.475-5.222,17.117s-2.031,8.7-2.611,11.025c-.58,2.611-.87,4.062-.87,4.062s2.611-4.932,6.963-13.636c2.321-4.352,4.932-9.574,8.414-15.376a112.545,112.545,0,0,1,12.765-17.7,53.572,53.572,0,0,1,4.062-4.062l2.321-2.321c.29-.29.87-.87,1.161-.87l1.16-.87a96.334,96.334,0,0,1,10.444-7.543q5.657-3.481,12.185-6.963c4.352-2.321,8.7-4.642,13.345-6.673a278.193,278.193,0,0,1,28.432-11.9,159.014,159.014,0,0,1,29.882-6.963,118.769,118.769,0,0,1,30.463.58,142.931,142.931,0,0,1,29.012,7.833,100.505,100.505,0,0,1,24.08,13.056A83.251,83.251,0,0,1,998.258,175.5a131.4,131.4,0,0,1,11.025,18.858c2.9,6.093,5.222,11.315,7.253,15.957,3.772,8.994,6.093,14.216,6.093,14.216s-.29-1.451-.58-4.062C1021.467,217.861,1021.177,214.089,1020.017,209.157Z" transform="translate(1052.327 219.744)"/>
        <path id="Tracé_465" data-name="Tracé 465" class="cls-3" d="M429.054,247.969a30.744,30.744,0,0,0-2.9-3.482,18.219,18.219,0,0,0-3.482-3.191,32.841,32.841,0,0,0-3.772-2.9,31.709,31.709,0,0,0-4.352-2.321l-1.16-.58h-.58l-.58-.29a20,20,0,0,0-2.321-.87,30.351,30.351,0,0,0-4.932-1.16,49.628,49.628,0,0,0-11.315-.87,179.89,179.89,0,0,0-6.093-20.309,101.192,101.192,0,0,0-5.8-12.765,119.046,119.046,0,0,0-7.543-11.9,86.979,86.979,0,0,0-9.574-11.025,68.791,68.791,0,0,0-11.315-9.284,71.5,71.5,0,0,0-13.056-7.253,66.587,66.587,0,0,0-14.216-4.352,87.019,87.019,0,0,0-14.8-1.16,112.752,112.752,0,0,0-14.216,1.16,153.238,153.238,0,0,0-26.4,6.963c-4.062,1.451-8.414,2.9-12.475,4.642a119.28,119.28,0,0,0-12.185,6.093,75.172,75.172,0,0,0-15.377,11.315c-.29-.87-.58-1.741-.87-2.9a20,20,0,0,1-.87-2.321,8.686,8.686,0,0,0-1.16-2.321c-.58-1.451-1.451-3.191-2.031-4.642A83.351,83.351,0,0,0,213.2,153.68a79.933,79.933,0,0,0-8.7-8.414,34.223,34.223,0,0,0-5.222-3.772,15.367,15.367,0,0,0-2.9-1.741l-1.16-.58-.58-.29-.29-.29-.58-.29c-7.543-4.062-15.957-6.383-24.08-8.123-4.062-.87-8.123-1.161-11.9-1.741-4.062-.58-7.833-.58-11.895-.87a123.287,123.287,0,0,0-23.21,1.16,97.058,97.058,0,0,0-21.469,5.8,72.294,72.294,0,0,0-17.407,10.154,56.649,56.649,0,0,0-11.6,12.185A47.739,47.739,0,0,0,66.111,167.9c-1.16,3.191-1.741,6.093-2.321,7.833a17.909,17.909,0,0,0-.29,2.611s.58-.87,1.451-2.321,2.611-3.481,4.642-6.093a61.291,61.291,0,0,1,20.6-15.376,66.686,66.686,0,0,1,15.667-5.512,92.832,92.832,0,0,1,18.568-2.321,159.814,159.814,0,0,1,20.309.58c3.481.29,7.253.87,10.735,1.161,3.772.58,6.963.87,10.444,1.741a71.817,71.817,0,0,1,18.858,5.8h-.29l.29.29.58.29,1.16.58a7.272,7.272,0,0,0,2.031,1.16,26.491,26.491,0,0,1,3.772,2.321,70.6,70.6,0,0,1,7.253,5.8,91.133,91.133,0,0,1,12.185,13.926,42.445,42.445,0,0,1,2.611,3.772l1.161,1.741,1.161,2.031c1.451,2.611,2.9,4.932,4.352,7.253,2.611,4.932,4.932,9.574,6.963,13.636s3.772,7.833,5.222,10.735c2.9,6.093,4.642,9.574,4.642,9.574v-2.9c-.29-1.741-.29-4.352-.58-7.833a153.1,153.1,0,0,0-4.932-27.852,26.944,26.944,0,0,0-1.16-3.772,100.575,100.575,0,0,1,17.7-6.673c4.062-1.16,8.123-2.031,12.475-2.9,4.062-.87,8.123-1.451,12.475-2.321a189.573,189.573,0,0,1,24.66-2.9,53.948,53.948,0,0,1,11.9.29,62.632,62.632,0,0,1,11.025,1.741,40.648,40.648,0,0,1,10.444,3.772,102.765,102.765,0,0,1,9.574,5.512,72.078,72.078,0,0,1,8.7,7.253,103.975,103.975,0,0,1,7.543,8.414,73.624,73.624,0,0,1,6.673,9.864c2.031,3.481,4.062,6.963,5.8,10.444a184.272,184.272,0,0,1,9.284,23.21l2.321,6.963,6.093-1.161a72.12,72.12,0,0,1,15.086-2.031,14.124,14.124,0,0,1,3.481.29,4.312,4.312,0,0,1,1.741.29h.87l.87.29a31.76,31.76,0,0,1,6.673,2.611,47.963,47.963,0,0,1,12.185,9.864c3.772,4.062,7.253,8.414,11.025,12.765a109.158,109.158,0,0,0-6.673-15.957A19.033,19.033,0,0,0,429.054,247.969Z" transform="translate(120.728 242.438)"/>
        <path id="Tracé_466" data-name="Tracé 466" class="cls-3" d="M435.393,250.984l3.771-3.772c2.611-2.9,5.8-5.8,9.284-8.994a118.5,118.5,0,0,1,11.315-8.994c1.161-.58,2.031-1.451,3.191-2.031l1.741-.87.87-.58.29-.29h.29s-.58.29-.29,0h0c1.16-.58,2.611-1.161,4.062-2.031,1.16-.29,2.321-.87,3.191-1.16a88.3,88.3,0,0,1,15.667-3.772,90.316,90.316,0,0,1,33.654,2.611c2.611.87,5.512,1.741,7.833,2.321l4.352,1.741a20.147,20.147,0,0,0,3.772,1.451A171.846,171.846,0,0,1,565.658,241.7c4.932,3.191,9.284,6.383,13.055,8.994h7.833c-1.451-2.031-2.9-4.642-4.932-7.253-2.321-3.191-5.222-6.963-8.414-10.734a113.653,113.653,0,0,0-26.4-21.759c1.741-2.031,4.062-4.352,6.673-6.963,1.451-1.451,3.191-2.9,4.642-4.352,1.741-1.451,3.482-2.9,5.512-4.642,3.771-2.9,8.123-6.093,12.765-9.284a107.006,107.006,0,0,1,15.086-8.414,145.961,145.961,0,0,1,16.827-6.963,81.356,81.356,0,0,1,8.994-2.611c1.451-.29,2.9-.87,4.642-1.16l4.352-.87a154.419,154.419,0,0,1,18.858-2.611c6.093-.29,12.475-.58,18.278-.29,6.092.29,11.895.87,17.407,1.451s10.735,1.741,15.667,2.611c4.932,1.16,9.284,2.321,13.346,3.191,4.062,1.16,7.543,2.031,10.154,2.9,2.9.87,5.222,1.741,6.673,2.031,1.451.58,2.321.87,2.321.87l-1.741-1.741a34.532,34.532,0,0,0-5.512-4.642c-2.321-2.031-5.512-4.062-8.994-6.673-1.741-1.16-3.772-2.321-5.8-3.481s-4.352-2.321-6.673-3.481a114.3,114.3,0,0,0-15.957-6.383A119.5,119.5,0,0,0,665.46,144.8a98.515,98.515,0,0,0-20.889-1.451,128.306,128.306,0,0,0-21.469,2.031l-5.512,1.16a35.079,35.079,0,0,0-5.222,1.451c-3.482.87-6.963,2.321-10.444,3.481a128.735,128.735,0,0,0-18.858,9.864A112.341,112.341,0,0,0,567.4,173.521a121.247,121.247,0,0,0-11.9,13.056c-1.451,2.321-3.191,4.352-4.352,6.383a65.191,65.191,0,0,0-3.481,6.093c-.87,2.031-1.741,3.772-2.611,5.512-.58,1.451-1.16,2.9-1.741,4.062-.58-.29-.87-.58-1.16-.58-1.451-.58-2.9-1.451-4.352-2.031a35.407,35.407,0,0,0-4.932-2.031c-1.741-.58-3.191-1.16-4.932-1.741a98.924,98.924,0,0,0-20.889-4.352,75.782,75.782,0,0,0-21.469,1.16,67.818,67.818,0,0,0-20.018,6.673c-1.451.87-3.191,1.741-4.642,2.611l-3.482,2.611-.58.29-.29.29-.58.29-.87.87c-.58.58-1.16.87-1.741,1.451-1.16,1.161-2.321,2.031-3.482,3.191a68.645,68.645,0,0,0-10.444,13.055A118.949,118.949,0,0,0,429.3,250.694h6.093Z" transform="translate(816.195 272.498)"/>
        <path id="Tracé_467" data-name="Tracé 467" class="cls-3" d="M224.337,171.145a34.221,34.221,0,0,1,5.8-1.161,41.566,41.566,0,0,1,21.759,2.321,17.231,17.231,0,0,1,2.321,1.161,12.624,12.624,0,0,1,2.031,1.16,42.654,42.654,0,0,1,3.772,2.9,24.135,24.135,0,0,1,5.222,7.253l.29.87.29,1.16c.29.58.29.58.29.87l.29,1.16c.29,1.741.58,3.481.87,5.512.58,4.062,1.16,8.994,3.482,14.216l4.062,9.574,9.864-5.512c2.611-1.451,5.222-2.9,8.123-4.352,2.9-1.161,5.512-2.321,8.414-3.481,2.9-.87,5.8-1.741,8.7-2.321s6.093-1.16,8.994-1.451,6.093-.29,8.994-.29a21.959,21.959,0,0,1,4.352.29h1.16l1.16.29,2.031.29a62.9,62.9,0,0,1,16.827,4.932,14.144,14.144,0,0,0,2.031.87h-.29l.29.29.58.29,1.16.58,1.741,1.16,1.741,1.16a63.762,63.762,0,0,1,6.673,5.8,44.643,44.643,0,0,1,3.481,3.772h15.957a87.163,87.163,0,0,0-7.543-13.346,73.876,73.876,0,0,0-7.543-8.7l-2.321-2.031-2.611-2.031-1.16-.87-.58-.29-.29-.29-.58-.29-2.611-1.741a73.349,73.349,0,0,0-10.735-5.222,55.145,55.145,0,0,0-11.315-3.191c-.87-.29-2.031-.29-2.9-.58l-.58.58-1.451-.29a39.314,39.314,0,0,0-5.8-.58,51.786,51.786,0,0,0-11.6.29,85.225,85.225,0,0,0-22.63,4.932,100.212,100.212,0,0,0-9.864,4.062,48.021,48.021,0,0,0-1.741-6.093l-.58-1.741c-.29-.58-.58-1.451-.87-2.031l-.87-1.741-.87-1.741a34.324,34.324,0,0,0-10.735-11.6,49.6,49.6,0,0,0-6.673-3.772c-1.16-.58-2.321-.87-3.481-1.451a22.9,22.9,0,0,0-3.772-.87,39.373,39.373,0,0,0-14.216-.58,53.235,53.235,0,0,0-13.346,3.481,58.008,58.008,0,0,0-6.093,2.9,36.945,36.945,0,0,0-5.512,3.772,27.432,27.432,0,0,0-8.123,10.154c2.9-2.9,6.673-4.932,10.154-6.673C220.565,172.305,222.306,171.725,224.337,171.145Z" transform="translate(395.074 302.146)"/>
      </g>
    </g>
  </g>
</svg>
