<svg xmlns="http://www.w3.org/2000/svg" xmlns:xlink="http://www.w3.org/1999/xlink" viewBox="-6183 9686 1920 1200">
  <defs>
    <style>
      .cls-1 {
        clip-path: url(#clip-Screen-3_1);
      }

      .cls-2 {
        fill: #26292b;
      }

      .cls-10, .cls-3 {
        fill: #fff;
      }

      .cls-4 {
        fill: #f4e6ce;
      }

      .cls-5 {
        fill: #a3d165;
      }

      .cls-6 {
        fill: #8cc63f;
      }

      .cls-7 {
        fill: #76a52d;
      }

      .cls-8 {
        fill: #231f20;
        stroke: #f0afcf;
        stroke-linecap: round;
        stroke-linejoin: round;
        stroke-width: 4.896px;
      }

      .cls-9 {
        fill: #384912;
      }

      .cls-10 {
        stroke: #1b75bb;
        stroke-width: 1.472px;
      }

      .cls-11 {
        fill: none;
        stroke: #76a52d;
        stroke-miterlimit: 10;
      }
    </style>
    <clipPath id="clip-Screen-3_1">
      <rect x="-6183" y="9686" width="1920" height="1200"/>
    </clipPath>
  </defs>
  <g id="Screen-3_1" data-name="Screen-3–1" class="cls-1">
    <ellipse id="Ellipse_141" data-name="Ellipse 141" class="cls-2" cx="204.138" cy="29.724" rx="204.138" ry="29.724" transform="translate(-5207.746 10324.666)"/>
    <g id="Groupe_330" data-name="Groupe 330" transform="translate(-5212.435 9920.64)">
      <path id="Tracé_1090" data-name="Tracé 1090" class="cls-3" d="M65.428,43.2s-30.77-19.557-27.9-30.77S5.974,35.64,45.871,70.06" transform="translate(42.587 16.535)"/>
      <path id="Tracé_1091" data-name="Tracé 1091" class="cls-4" d="M29.848,15.7S20.2,33.953,40.017,52.728c13.3,12.777,14.342-8.605,6.519-14.6C38.453,32.128,29.848,15.7,29.848,15.7Z" transform="translate(44.268 25.262)"/>
      <path id="Tracé_1092" data-name="Tracé 1092" class="cls-3" d="M107.9,43.2s30.77-19.557,27.9-30.77,31.552,23.208-8.344,57.629" transform="translate(173.523 16.535)"/>
      <path id="Tracé_1093" data-name="Tracé 1093" class="cls-4" d="M134.221,15.7s9.648,18.253-10.17,37.028c-13.3,12.777-14.342-8.605-6.519-14.6C125.615,32.128,134.221,15.7,134.221,15.7Z" transform="translate(181.101 25.262)"/>
      <path id="Tracé_1094" data-name="Tracé 1094" class="cls-5" d="M333.558,242.816h0C329.386,119.475,268.107,17.256,189.617,5H160.933C79.575,14.387,14.645,119.475,13.341,246.728,12.3,257.941,8.908,329.129,74.1,358.856c-9.387,18.775-7.3,38.332-6.258,47.459-3.129,1.3-11.474,7.562-11.474,8.866,0,4.954,20.6,9.127,45.894,9.127s45.894-4.172,45.894-9.127c0-1.043.522-2.086-1.043-3.129l-18.775-26.337,6-13.82c3.39,0,6.519.261,10.17.261l60.236-.522h2.086l6.258,14.342-18.514,26.337c-1.825,1.043-1.043,2.086-1.043,3.129,0,4.954,20.6,9.127,45.894,9.127s45.894-4.172,45.894-9.127c0-1.565-8.344-7.823-11.474-8.866,1.043-8.605,3.129-27.641-5.737-45.894C346.075,329.129,333.558,242.816,333.558,242.816Z" transform="translate(20.878 8.06)"/>
      <path id="Tracé_1095" data-name="Tracé 1095" class="cls-6" d="M331.549,118.3a320.713,320.713,0,0,0-2.608-33.9c-22.947,77.708-94.657,134.293-179.666,134.293A185.55,185.55,0,0,1,14.2,160.8c5.476,25.294,20.34,56.064,57.89,73.014-9.387,18.775-7.3,38.332-6.258,47.2-3.129,1.3-11.474,7.562-11.474,8.866,0,4.954,20.6,9.127,45.894,9.127s45.894-4.172,45.894-9.127c0-1.043.522-2.086-1.043-3.129l-18.775-26.076,6-13.82c3.39,0,6.519.261,10.17.261l60.236-.522h2.086l6.258,14.342-18.514,26.337c-1.825,1.043-1.043,2.086-1.043,3.129,0,4.954,20.6,9.127,45.894,9.127s45.894-4.172,45.894-9.127c0-1.565-8.344-7.823-11.474-8.866,1.043-8.605,3.129-27.38-5.737-45.634,77.968-31.552,65.452-117.6,65.452-117.6Z" transform="translate(22.887 135.706)"/>
      <g id="Groupe_314" data-name="Groupe 314" transform="translate(60.556 116.844)">
        <path id="Tracé_1096" data-name="Tracé 1096" class="cls-7" d="M120.738,101.431a13.155,13.155,0,0,1-12.777-10.17,7.22,7.22,0,0,0-.261,2.347,12.908,12.908,0,0,0,25.816-.261A7.22,7.22,0,0,0,133.255,91,13.051,13.051,0,0,1,120.738,101.431Z" transform="translate(112.645 29.473)"/>
        <path id="Tracé_1097" data-name="Tracé 1097" class="cls-7" d="M131.938,101.331a13.155,13.155,0,0,1-12.777-10.17,7.22,7.22,0,0,0-.261,2.347,12.908,12.908,0,1,0,25.816-.261,7.22,7.22,0,0,0-.261-2.347A12.833,12.833,0,0,1,131.938,101.331Z" transform="translate(130.651 29.312)"/>
        <path id="Tracé_1098" data-name="Tracé 1098" class="cls-7" d="M126.238,95.831a13.155,13.155,0,0,1-12.777-10.17,7.22,7.22,0,0,0-.261,2.347,12.908,12.908,0,1,0,25.816-.261,7.219,7.219,0,0,0-.261-2.347A12.874,12.874,0,0,1,126.238,95.831Z" transform="translate(121.487 20.47)"/>
        <path id="Tracé_1099" data-name="Tracé 1099" class="cls-7" d="M56.938,119.531a13.155,13.155,0,0,1-12.777-10.17,7.219,7.219,0,0,0-.261,2.347,12.908,12.908,0,1,0,25.816-.261,7.22,7.22,0,0,0-.261-2.347A12.874,12.874,0,0,1,56.938,119.531Z" transform="translate(10.078 58.571)"/>
        <path id="Tracé_1100" data-name="Tracé 1100" class="cls-7" d="M36.238,132.731a13.155,13.155,0,0,1-12.777-10.17,7.219,7.219,0,0,0-.261,2.347,12.908,12.908,0,0,0,25.816-.261,7.219,7.219,0,0,0-.261-2.347A13.137,13.137,0,0,1,36.238,132.731Z" transform="translate(-23.2 79.792)"/>
        <path id="Tracé_1101" data-name="Tracé 1101" class="cls-7" d="M112.838,124.231a13.155,13.155,0,0,1-12.777-10.17,7.22,7.22,0,0,0-.261,2.347,12.908,12.908,0,0,0,25.816-.261,7.22,7.22,0,0,0-.261-2.347A12.625,12.625,0,0,1,112.838,124.231Z" transform="translate(99.945 66.127)"/>
        <path id="Tracé_1102" data-name="Tracé 1102" class="cls-7" d="M122.738,127.631a13.155,13.155,0,0,1-12.777-10.17,7.219,7.219,0,0,0-.261,2.347,12.908,12.908,0,0,0,25.816-.261,7.219,7.219,0,0,0-.261-2.347A12.625,12.625,0,0,1,122.738,127.631Z" transform="translate(115.86 71.593)"/>
        <path id="Tracé_1103" data-name="Tracé 1103" class="cls-7" d="M103.088,155.723a9.231,9.231,0,0,1-9.127-7.562c0,.522-.261,1.043-.261,1.825a8.974,8.974,0,0,0,9.387,9.127,9.348,9.348,0,0,0,9.387-9.388,4.438,4.438,0,0,0-.261-1.825A9.465,9.465,0,0,1,103.088,155.723Z" transform="translate(90.138 120.947)"/>
        <path id="Tracé_1104" data-name="Tracé 1104" class="cls-7" d="M98.487,161.723a9.231,9.231,0,0,1-9.127-7.562c0,.522-.261,1.3-.261,1.825a8.974,8.974,0,0,0,9.387,9.127,9.348,9.348,0,0,0,9.387-9.388,4.438,4.438,0,0,0-.261-1.825A9.465,9.465,0,0,1,98.487,161.723Z" transform="translate(82.743 130.593)"/>
        <path id="Tracé_1105" data-name="Tracé 1105" class="cls-7" d="M107.688,159.923a9.231,9.231,0,0,1-9.127-7.562c0,.522-.261,1.3-.261,1.825a8.974,8.974,0,0,0,9.387,9.127,9.348,9.348,0,0,0,9.387-9.388,4.437,4.437,0,0,0-.261-1.825A9.728,9.728,0,0,1,107.688,159.923Z" transform="translate(97.533 127.699)"/>
        <path id="Tracé_1106" data-name="Tracé 1106" class="cls-7" d="M55.987,155.723a9.231,9.231,0,0,0,9.127-7.562c0,.522.261,1.043.261,1.825a8.974,8.974,0,0,1-9.387,9.127,9.348,9.348,0,0,1-9.387-9.388,4.438,4.438,0,0,1,.261-1.825A9.465,9.465,0,0,0,55.987,155.723Z" transform="translate(14.419 120.947)"/>
        <path id="Tracé_1107" data-name="Tracé 1107" class="cls-7" d="M60.587,161.723a9.231,9.231,0,0,0,9.127-7.562c0,.522.261,1.3.261,1.825a8.974,8.974,0,0,1-9.387,9.127,9.348,9.348,0,0,1-9.387-9.388,4.438,4.438,0,0,1,.261-1.825A9.465,9.465,0,0,0,60.587,161.723Z" transform="translate(21.814 130.593)"/>
        <path id="Tracé_1108" data-name="Tracé 1108" class="cls-7" d="M51.387,159.923a9.231,9.231,0,0,0,9.127-7.562c0,.522.261,1.3.261,1.825a8.974,8.974,0,0,1-9.387,9.127A9.348,9.348,0,0,1,42,153.925a4.438,4.438,0,0,1,.261-1.825A9.728,9.728,0,0,0,51.387,159.923Z" transform="translate(7.024 127.699)"/>
        <path id="Tracé_1109" data-name="Tracé 1109" class="cls-7" d="M125.738,138.931a13.155,13.155,0,0,1-12.777-10.17,7.22,7.22,0,0,0-.261,2.347,12.908,12.908,0,0,0,25.816-.261,7.219,7.219,0,0,0-.261-2.347A13.374,13.374,0,0,1,125.738,138.931Z" transform="translate(120.683 89.759)"/>
        <path id="Tracé_1110" data-name="Tracé 1110" class="cls-7" d="M42.238,137.531a13.155,13.155,0,0,1-12.777-10.17,7.219,7.219,0,0,0-.261,2.347,12.908,12.908,0,0,0,25.816-.261,7.22,7.22,0,0,0-.261-2.347A12.833,12.833,0,0,1,42.238,137.531Z" transform="translate(-13.554 87.508)"/>
        <path id="Tracé_1111" data-name="Tracé 1111" class="cls-7" d="M83.238,108.431a13.155,13.155,0,0,1-12.777-10.17,7.22,7.22,0,0,0-.261,2.347,12.908,12.908,0,0,0,25.816-.261A7.22,7.22,0,0,0,95.755,98,13.137,13.137,0,0,1,83.238,108.431Z" transform="translate(52.359 40.726)"/>
        <path id="Tracé_1112" data-name="Tracé 1112" class="cls-7" d="M36.938,90.331a13.155,13.155,0,0,1-12.777-10.17,7.219,7.219,0,0,0-.261,2.347,12.908,12.908,0,1,0,25.816-.261,7.22,7.22,0,0,0-.261-2.347A12.833,12.833,0,0,1,36.938,90.331Z" transform="translate(-22.075 11.628)"/>
        <path id="Tracé_1113" data-name="Tracé 1113" class="cls-7" d="M47.638,100.431a13.155,13.155,0,0,1-12.777-10.17,7.22,7.22,0,0,0-.261,2.347,12.908,12.908,0,0,0,25.816-.261A7.22,7.22,0,0,0,60.155,90,12.833,12.833,0,0,1,47.638,100.431Z" transform="translate(-4.873 27.865)"/>
        <path id="Tracé_1114" data-name="Tracé 1114" class="cls-7" d="M46.938,55.231a13.155,13.155,0,0,1-12.777-10.17,7.219,7.219,0,0,0-.261,2.347,12.908,12.908,0,0,0,25.816-.261,7.219,7.219,0,0,0-.261-2.347A12.625,12.625,0,0,1,46.938,55.231Z" transform="translate(-5.998 -44.8)"/>
      </g>
      <path id="Tracé_1115" data-name="Tracé 1115" class="cls-7" d="M119.538,53.731a13.155,13.155,0,0,1-12.777-10.17,7.22,7.22,0,0,0-.261,2.347,12.908,12.908,0,1,0,25.816-.261,7.219,7.219,0,0,0-.261-2.347A12.874,12.874,0,0,1,119.538,53.731Z" transform="translate(171.272 69.633)"/>
      <path id="Tracé_1116" data-name="Tracé 1116" class="cls-7" d="M181.669,78.113A66.236,66.236,0,1,1,114.913,12.4C151.42,12.14,181.147,41.607,181.669,78.113Z" transform="translate(79.153 19.956)"/>
      <path id="Tracé_1117" data-name="Tracé 1117" class="cls-8" d="M34.8,63.2" transform="translate(56.005 101.625)"/>
      <path id="Tracé_1118" data-name="Tracé 1118" class="cls-7" d="M93.965,15.146A26.008,26.008,0,0,0,75.19,23.752c-6.258,7.3-17.732-2.608-11.474-9.909A40.122,40.122,0,0,1,95.53.022h3.39a40.122,40.122,0,0,1,31.813,13.82c6.258,7.3-4.954,17.471-11.474,9.909a25.49,25.49,0,0,0-18.775-8.605" transform="translate(99.58 0)"/>
      <g id="Groupe_316" data-name="Groupe 316" transform="translate(75.582 146.832)">
        <g id="Groupe_315" data-name="Groupe 315">
          <path id="Tracé_1119" data-name="Tracé 1119" class="cls-9" d="M266.094,56.3a25.608,25.608,0,0,1-.782,8.866,39.291,39.291,0,0,1-3.39,8.605,47.039,47.039,0,0,1-11.734,14.081c-9.127,8.084-20.079,13.82-31.292,18.253a177.767,177.767,0,0,1-34.942,9.648,209.654,209.654,0,0,1-35.985,3.129c-6,0-12,0-17.993-.522s-12-1.043-17.993-1.825a183.244,183.244,0,0,1-35.2-8.866,136.588,136.588,0,0,1-16.689-7.562A82.405,82.405,0,0,1,44.967,89.678c-4.433-4.172-8.605-8.605-11.734-14.081a31.191,31.191,0,0,1-3.39-8.605,25.608,25.608,0,0,1-.782-8.866,32.436,32.436,0,0,0,6.258,16.167,53.513,53.513,0,0,0,12.256,12,84.69,84.69,0,0,0,14.864,8.605,172.687,172.687,0,0,0,16.167,6.258,189.14,189.14,0,0,0,34.16,7.041c5.737.782,11.474,1.3,17.471,1.565,5.737.261,11.734.522,17.471.261a262.6,262.6,0,0,0,34.942-2.608,188.06,188.06,0,0,0,33.9-7.823,123.229,123.229,0,0,0,16.167-6.519A86.069,86.069,0,0,0,247.58,84.2a53.514,53.514,0,0,0,12.256-12A26.826,26.826,0,0,0,266.094,56.3Z" transform="translate(-28.962 -56.3)"/>
          <path id="Tracé_1120" data-name="Tracé 1120" class="cls-9" d="M145.622,119.4c-4.954,0-10.17-.261-15.646-.522-6.519-.521-12.256-1.043-17.993-1.825a177.86,177.86,0,0,1-35.2-8.866,144.137,144.137,0,0,1-16.689-7.562A102,102,0,0,1,44.967,90.2,52.658,52.658,0,0,1,33.232,75.857a39.29,39.29,0,0,1-3.39-8.605,27.671,27.671,0,0,1-.782-9.127h.782a33.1,33.1,0,0,0,6,15.907,53.684,53.684,0,0,0,12.256,12A101.06,101.06,0,0,0,62.96,94.632a172.686,172.686,0,0,0,16.167,6.258,177.617,177.617,0,0,0,33.9,7.041c5.737.782,11.734,1.3,17.471,1.565,5.476.261,11.474.522,17.471.261a252.4,252.4,0,0,0,34.682-2.608,215.237,215.237,0,0,0,33.9-7.823c5.215-1.825,10.431-3.911,16.167-6.519A101.058,101.058,0,0,0,247.58,84.2a53.684,53.684,0,0,0,12.256-12,34.109,34.109,0,0,0,6-15.907h.782a27.671,27.671,0,0,1-.782,9.127,39.289,39.289,0,0,1-3.39,8.605c-2.608,4.954-6.519,9.387-11.734,14.342-8.344,7.3-18.775,13.3-31.552,18.253a189.474,189.474,0,0,1-34.942,9.648,203.027,203.027,0,0,1-35.985,3.129ZM30.1,62.819a14.464,14.464,0,0,0,.782,4.433,33.013,33.013,0,0,0,3.39,8.344c2.608,4.955,6.519,9.387,11.474,14.081a98.815,98.815,0,0,0,14.864,10.431,122.152,122.152,0,0,0,16.428,7.562,177.855,177.855,0,0,0,35.2,8.866c5.737.782,11.474,1.565,17.993,1.825,6.258.261,12.256.522,17.993.522a263.956,263.956,0,0,0,35.985-3.129,189.479,189.479,0,0,0,34.942-9.648c12.777-4.954,22.947-10.952,31.292-18.253a54.532,54.532,0,0,0,11.474-14.081,43.185,43.185,0,0,0,3.39-8.344c.261-1.3.522-2.868.782-4.172a34.419,34.419,0,0,1-5.476,11.734,60.558,60.558,0,0,1-12.256,12.256A101.756,101.756,0,0,1,233.5,94.111c-5.737,2.608-10.952,4.694-16.167,6.519a215.237,215.237,0,0,1-33.9,7.823,253.12,253.12,0,0,1-34.942,2.608c-6,0-12,0-17.471-.261-5.737-.261-11.734-.782-17.471-1.565a240.192,240.192,0,0,1-34.16-7.041c-5.737-2.347-11.213-4.433-16.428-6.78a104.249,104.249,0,0,1-15.124-8.605,53.685,53.685,0,0,1-12.256-12A29.232,29.232,0,0,1,30.1,62.819Z" transform="translate(-28.962 -56.3)"/>
        </g>
      </g>
      <path id="Tracé_1121" data-name="Tracé 1121" class="cls-3" d="M83.928,97.055c2.868-13.038-3.39-26.076-13.56-28.162S49.508,75.411,46.9,88.189a72.682,72.682,0,0,0,17.21,7.041A58.6,58.6,0,0,0,83.928,97.055Z" transform="translate(75.457 110.274)"/>
      <path id="Tracé_1122" data-name="Tracé 1122" class="cls-4" d="M50.683,86.918s-3.911-11.734,4.172-15.907,7.3,6,3.129,8.605A28.493,28.493,0,0,0,50.683,86.918Z" transform="translate(80.018 112.588)"/>
      <path id="Tracé_1123" data-name="Tracé 1123" class="cls-10" d="M34.7,138.3" transform="translate(55.844 222.358)"/>
      <g id="Groupe_317" data-name="Groupe 317" transform="translate(271.253 413.071)">
        <path id="Tracé_1124" data-name="Tracé 1124" class="cls-7" d="M104,163.876a15.927,15.927,0,0,0,3.39-.782c.782-.261,2.868-1.043,4.694-1.565,2.086-.521,3.911-.782,3.911-.782a31.1,31.1,0,0,1,3.911-.261h4.954a8.029,8.029,0,0,0,3.39-.782,6.627,6.627,0,0,0-3.39-1.3h-5.215a38.549,38.549,0,0,0-4.172.261s-1.825.261-4.172.782a38.4,38.4,0,0,0-4.955,1.565A6.375,6.375,0,0,0,104,163.876Z" transform="translate(-104 -158.4)"/>
      </g>
      <path id="Tracé_1125" data-name="Tracé 1125" class="cls-3" d="M116.8,169.418l16.689,7.041s7.041-2.868-6-12.517C114.2,154.294,112.111,169.939,116.8,169.418Z" transform="translate(184.175 258.517)"/>
      <path id="Tracé_1126" data-name="Tracé 1126" class="cls-3" d="M109.876,171.084l16.689,7.041s7.041-2.868-6-12.517C107.269,155.7,104.922,171.606,109.876,171.084Z" transform="translate(172.85 261.023)"/>
      <g id="Groupe_318" data-name="Groupe 318" transform="translate(87.154 413.332)">
        <path id="Tracé_1127" data-name="Tracé 1127" class="cls-7" d="M57.912,163.715a5.083,5.083,0,0,0-2.608-2.608c-.782-.261-2.868-1.043-4.955-1.565a40.17,40.17,0,0,0-4.172-.782,32.8,32.8,0,0,0-4.172-.261H36.79a5.492,5.492,0,0,0-3.39,1.3,8.03,8.03,0,0,0,3.39.782h4.955a31.1,31.1,0,0,1,3.911.261s1.825.261,3.911.782a31.166,31.166,0,0,1,4.694,1.565C55.826,163.454,56.608,163.454,57.912,163.715Z" transform="translate(-33.4 -158.5)"/>
      </g>
      <path id="Tracé_1128" data-name="Tracé 1128" class="cls-3" d="M44.959,169.418,28.27,176.458s-7.041-2.868,6-12.517C47.827,154.294,49.914,169.939,44.959,169.418Z" transform="translate(42.455 258.517)"/>
      <path id="Tracé_1129" data-name="Tracé 1129" class="cls-3" d="M52.059,171.084,35.37,178.125s-7.041-2.868,6-12.517C54.667,155.7,56.753,171.606,52.059,171.084Z" transform="translate(53.87 261.023)"/>
      <g id="Groupe_320" data-name="Groupe 320" transform="translate(136.699 370.828)">
        <path id="Tracé_1130" data-name="Tracé 1130" class="cls-11" d="M52.4,142.3s44.851,22.426,118.908,0" transform="translate(-52.4 -142.039)"/>
        <g id="Groupe_319" data-name="Groupe 319">
          <path id="Tracé_1131" data-name="Tracé 1131" class="cls-11" d="M52.4,142.461a57.334,57.334,0,0,0,15.124,6.258c1.825.522,5.476,1.3,9.909,2.086A121.893,121.893,0,0,0,92.3,152.631c10.17.782,19.557.522,19.557.522s9.387-.261,19.3-1.3a164.746,164.746,0,0,0,24.512-4.433,78.594,78.594,0,0,0,15.646-5.215c-5.737,1.043-9.387,1.825-15.907,3.129A237.047,237.047,0,0,1,130.89,149.5a167.706,167.706,0,0,1-19.3,1.3s-9.127.261-19.3-.521c-4.955-.522-10.17-1.043-14.6-1.825a88.17,88.17,0,0,1-9.648-2.086C61.787,144.808,57.876,144.025,52.4,142.461Z" transform="translate(-52.4 -142.2)"/>
        </g>
      </g>
      <g id="Groupe_325" data-name="Groupe 325" transform="translate(182.593 323.63)">
        <g id="Groupe_322" data-name="Groupe 322">
          <line id="Ligne_19" data-name="Ligne 19" class="cls-7" y1="23.729" x2="23.99"/>
          <g id="Groupe_321" data-name="Groupe 321" transform="translate(0 0.261)">
            <path id="Tracé_1132" data-name="Tracé 1132" class="cls-7" d="M70,147.669c1.825-.521,2.868-.782,4.172-2.086l8.866-8.605,8.866-8.605a8.322,8.322,0,0,0,2.347-4.172c-1.825.522-2.868.782-4.172,2.086l-8.866,8.605L72.347,143.5A5.744,5.744,0,0,0,70,147.669Z" transform="translate(-70 -124.2)"/>
          </g>
        </g>
        <g id="Groupe_324" data-name="Groupe 324">
          <line id="Ligne_20" data-name="Ligne 20" class="cls-7" x2="23.729" y2="23.99"/>
          <g id="Groupe_323" data-name="Groupe 323">
            <path id="Tracé_1133" data-name="Tracé 1133" class="cls-7" d="M70,124.1c.522,1.825.782,2.868,2.086,4.172l8.605,8.866L89.3,146a8.322,8.322,0,0,0,4.172,2.347c-.522-1.825-.782-2.868-2.086-4.172l-8.605-8.866-8.605-8.866A5.744,5.744,0,0,0,70,124.1Z" transform="translate(-70 -124.1)"/>
          </g>
        </g>
      </g>
      <g id="Groupe_326" data-name="Groupe 326" transform="translate(182.593 220.106)">
        <path id="Tracé_1134" data-name="Tracé 1134" class="cls-7" d="M70,84.4a49.463,49.463,0,0,0,32.074,0" transform="translate(-70 -84.4)"/>
        <path id="Tracé_1135" data-name="Tracé 1135" class="cls-7" d="M70,84.4c2.868.261,5.476.522,8.084.522,2.608.261,5.215.261,7.823.261s5.215,0,7.823-.261a78.973,78.973,0,0,1,8.084-.522,28.89,28.89,0,0,1-7.562,3.651,29.3,29.3,0,0,1-8.344,1.043,29.3,29.3,0,0,1-8.344-1.043A40.423,40.423,0,0,1,70,84.4Z" transform="translate(-70 -84.4)"/>
      </g>
      <path id="Tracé_1136" data-name="Tracé 1136" class="cls-5" d="M31.76,84A157.88,157.88,0,0,0,13.01,114.666C4.678,132.676.974,151.9.048,171.617c-.463,15.82.926,32.613,5.324,47.7,4.166,14.846,12.962,29.206,26.851,35.534,5.555,2.677,11.342,3.651,17.592,3.894,5.324.243,9.722-5.354,9.49-10.709-.231-6.085-4.861-9.735-10.185-9.979a18.63,18.63,0,0,0-1.852-.243c-.694,0-1.389-.243-1.852-.243a9.412,9.412,0,0,0-2.546-.487c-.231,0-1.389-.487-1.62-.487-1.157-.487-2.315-1.217-3.472-1.7a3.218,3.218,0,0,1-.926-.73c.463.243-.926-.73-1.157-.973a22.036,22.036,0,0,1-3.241-3.407,3.349,3.349,0,0,1-.694-.974,5.268,5.268,0,0,0-.926-1.217c-.926-1.217-1.62-2.677-2.546-4.137-.463-.73-.694-1.46-1.157-2.19-.231-.243-.231-.487-.463-.974,0-.243-.231-.243-.231-.487a78.324,78.324,0,0,1-3.009-9.735c-.463-1.7-.694-3.407-1.157-5.111-.231-.974-.231-1.7-.463-2.677,0-.487-.231-.973-.231-1.46v-.243a186.47,186.47,0,0,1-1.852-22.634,116.137,116.137,0,0,1,2.315-27.015,105.7,105.7,0,0,1,7.407-24.338c1.62-3.894,3.7-7.788,5.787-11.682,1.157-1.947,2.083-3.894,3.241-5.6a10.8,10.8,0,0,1,1.852-2.677c.463-.73.694-1.217.463-.73.231-.487.694-.974.926-1.46" transform="translate(79.418 67.88) rotate(33)"/>
      <path id="Tracé_1137" data-name="Tracé 1137" class="cls-6" d="M163.947,345.066a238.265,238.265,0,0,0,26.823-45.858c11.59-26.569,17.22-55.321,18.213-84.8.662-23.657-1.325-48.77-7.616-71.335-5.961-22.2-18.545-43.674-38.414-53.137-7.948-4-16.226-5.459-25.168-5.823-7.616-.364-13.908,8.007-13.577,16.014.331,9.1,6.954,14.558,14.571,14.922a25.567,25.567,0,0,0,2.649.364c.993,0,1.987.364,2.98.364,1.325.364,2.318.728,3.643,1.092.331,0,1.987.728,2.318.728,1.656.728,3.312,1.82,4.967,2.548a4.645,4.645,0,0,1,1.325,1.092c-.662-.364,1.325,1.092,1.656,1.456a61.841,61.841,0,0,1,4.636,4.731,5.005,5.005,0,0,1,.993,1.456,7.851,7.851,0,0,0,1.325,1.82c1.325,1.82,2.318,4,3.643,6.187.662,1.092.993,2.184,1.656,3.276.331.364.331.728.662,1.456,0,.364.331.364.331.728a121.069,121.069,0,0,1,4.3,14.558c.662,2.548.993,5.1,1.656,7.643.331,1.456.331,2.548.662,4,0,.728.331,1.456.331,2.184v.364a291.2,291.2,0,0,1,2.649,33.848,181.31,181.31,0,0,1-3.312,40.4c-2.649,14.194-5.63,24.749-10.6,36.4-2.318,5.823-5.3,11.646-8.279,17.47-1.656,2.912-2.98,5.823-4.636,8.371a16.188,16.188,0,0,1-2.649,4c-.662,1.092-.993,1.82-.662,1.092-.331.728-.993,1.456-1.325,2.184" transform="matrix(0.985, 0.174, -0.174, 0.985, 241.054, -197.17)"/>
      <path id="Tracé_1138" data-name="Tracé 1138" class="cls-3" d="M181.669,75.413A66.236,66.236,0,1,1,114.913,9.7C151.42,9.44,181.147,38.907,181.669,75.413Z" transform="translate(79.153 15.615)"/>
      <g id="Groupe_327" data-name="Groupe 327" transform="translate(162.25 25.834)">
        <path id="Tracé_1139" data-name="Tracé 1139" class="cls-9" d="M128.436,42.758A33.118,33.118,0,1,1,95.058,9.9,32.675,32.675,0,0,1,128.436,42.758Z" transform="translate(-62.199 -9.899)"/>
        <path id="Tracé_1140" data-name="Tracé 1140" class="cls-3" d="M104.76,28.55A17.081,17.081,0,1,1,87.55,11.6,17.14,17.14,0,0,1,104.76,28.55Z" transform="translate(-48.692 -7.164)"/>
        <path id="Tracé_1141" data-name="Tracé 1141" class="cls-3" d="M84.693,32.866A9,9,0,1,1,75.566,24,8.854,8.854,0,0,1,84.693,32.866Z" transform="translate(-54.962 12.771)"/>
      </g>
    </g>
  </g>
</svg>
