<svg xmlns="http://www.w3.org/2000/svg" xmlns:xlink="http://www.w3.org/1999/xlink" viewBox="-1999 9686 1920 1558.974">
  <defs>
    <style>
      .cls-1 {
        clip-path: url(#clip-Screen_1-1_8);
      }

      .cls-2 {
        fill: #2e3234;
      }
    </style>
    <clipPath id="clip-Screen_1-1_8">
      <rect x="-1999" y="9686" width="1920" height="1558.974"/>
    </clipPath>
  </defs>
  <g id="Screen_1-1_8" data-name="Screen 1-1 – 8" class="cls-1">
    <g id="Groupe_333" data-name="Groupe 333" transform="translate(-7121 -1305)">
      <rect id="Rectangle_238" data-name="Rectangle 238" class="cls-2" width="1972" height="420" transform="translate(5094 11941)"/>
      <rect id="Rectangle_239" data-name="Rectangle 239" width="1972" height="363" transform="translate(5094 12310)"/>
      <rect id="Rectangle_240" data-name="Rectangle 240" width="626" height="83" rx="41.5" transform="translate(4961 12231)"/>
      <rect id="Rectangle_241" data-name="Rectangle 241" width="273" height="83" rx="41.5" transform="translate(4961 12148)"/>
      <rect id="Rectangle_242" data-name="Rectangle 242" width="182.4" height="55.117" rx="27.558" transform="translate(6854.189 12175.883)"/>
      <rect id="Rectangle_243" data-name="Rectangle 243" width="273" height="83" rx="41.5" transform="translate(4966 12065)"/>
      <rect id="Rectangle_244" data-name="Rectangle 244" width="182.4" height="55.117" rx="27.558" transform="translate(6850.849 12120.767)"/>
      <rect id="Rectangle_245" data-name="Rectangle 245" class="cls-2" width="273" height="83" rx="41.5" transform="translate(5152 12148)"/>
      <rect id="Rectangle_246" data-name="Rectangle 246" class="cls-2" width="182.4" height="55.117" rx="27.558" transform="translate(6726.576 12175.883)"/>
      <rect id="Rectangle_247" data-name="Rectangle 247" width="626" height="84" rx="42" transform="translate(5777 12231)"/>
      <rect id="Rectangle_248" data-name="Rectangle 248" width="626" height="83" rx="41.5" transform="translate(6577 12231)"/>
      <rect id="Rectangle_249" data-name="Rectangle 249" class="cls-2" width="626" height="83" rx="41.5" transform="translate(5345 12310)"/>
      <rect id="Rectangle_250" data-name="Rectangle 250" class="cls-2" width="626" height="83" rx="41.5" transform="translate(6189 12310)"/>
      <rect id="Rectangle_251" data-name="Rectangle 251" class="cls-2" width="269" height="36" rx="18" transform="translate(5735 12421)"/>
      <rect id="Rectangle_252" data-name="Rectangle 252" class="cls-2" width="246" height="33" rx="16.5" transform="translate(5294 12257)"/>
      <rect id="Rectangle_253" data-name="Rectangle 253" class="cls-2" width="188" height="33" rx="16.5" transform="translate(6033 12257)"/>
      <rect id="Rectangle_254" data-name="Rectangle 254" class="cls-2" width="188" height="33" rx="16.5" transform="translate(6840 12257)"/>
      <rect id="Rectangle_255" data-name="Rectangle 255" class="cls-2" width="35" height="33" rx="16.5" transform="translate(5974 12256)"/>
      <rect id="Rectangle_256" data-name="Rectangle 256" class="cls-2" width="27.733" height="26.148" rx="13.074" transform="translate(6264 12423)"/>
      <rect id="Rectangle_257" data-name="Rectangle 257" class="cls-2" width="46.75" height="26.148" rx="13.074" transform="translate(6302.826 12423)"/>
      <rect id="Rectangle_258" data-name="Rectangle 258" class="cls-2" width="35" height="33" rx="16.5" transform="translate(6607 12256)"/>
      <rect id="Rectangle_259" data-name="Rectangle 259" class="cls-2" width="162" height="22" rx="11" transform="translate(5132 12352)"/>
      <rect id="Rectangle_260" data-name="Rectangle 260" class="cls-2" width="112" height="16" rx="8" transform="translate(5395 12423)"/>
      <rect id="Rectangle_261" data-name="Rectangle 261" class="cls-2" width="112" height="16" rx="8" transform="translate(5698 12473)"/>
      <rect id="Rectangle_262" data-name="Rectangle 262" class="cls-2" width="182" height="16" rx="8" transform="translate(5274 12459)"/>
      <rect id="Rectangle_263" data-name="Rectangle 263" class="cls-2" width="182" height="16" rx="8" transform="translate(6616 12481)"/>
      <rect id="Rectangle_264" data-name="Rectangle 264" class="cls-2" width="194" height="16" rx="8" transform="translate(6688 12423)"/>
      <rect id="Rectangle_265" data-name="Rectangle 265" class="cls-2" width="24" height="16" rx="8" transform="translate(6893 12423)"/>
    </g>
  </g>
</svg>
