<svg width="1000" height="1000" xmlns="http://www.w3.org/2000/svg">
 <!-- Created with Method Draw - http://github.com/duopixel/Method-Draw/ -->
 <g>
  <title>background</title>
  <rect fill="none" id="canvas_background" height="1002" width="1002" y="-1" x="-1"/>
  <g display="none" overflow="visible" y="0" x="0" height="100%" width="100%" id="canvasGrid">
   <rect fill="url(#gridpattern)" stroke-width="0" y="0" x="0" height="100%" width="100%"/>
  </g>
 </g>
 <g>
  <title>Layer 1</title>
  <rect id="svg_22" height="29" width="24" y="196" x="177.5" stroke-opacity="null" stroke-width="0" stroke="#000" fill="#56ffaa"/>
  <rect id="svg_23" height="31" width="22" y="273" x="713.5" stroke-opacity="null" stroke-width="0" stroke="#000" fill="#56ffaa"/>
  <rect id="svg_24" height="20" width="21" y="498" x="251.5" stroke-opacity="null" stroke-width="0" stroke="#000" fill="#56ffaa"/>
  <rect id="svg_25" height="31" width="36" y="256" x="417.5" stroke-opacity="null" stroke-width="0" stroke="#000" fill="#56ffaa"/>
  <rect id="svg_26" height="29" width="29" y="719" x="662.5" stroke-opacity="null" stroke-width="0" stroke="#000" fill="#56ffaa"/>
  <rect id="svg_27" height="36" width="39" y="820" x="296.5" stroke-opacity="null" stroke-width="0" stroke="#000" fill="#56ffaa"/>
  <rect id="svg_28" height="30" width="34" y="474" x="537.5" stroke-opacity="null" stroke-width="0" stroke="#000" fill="#56ffaa"/>
  <rect id="svg_29" height="52" width="22" y="502" x="834.5" stroke-opacity="null" stroke-width="0" stroke="#000" fill="#56ffaa"/>
  <rect id="svg_30" height="29" width="29" y="128" x="546.5" stroke-opacity="null" stroke-width="0" stroke="#000" fill="#56ffaa"/>
  <rect id="svg_31" height="43" width="32" y="192" x="794.5" stroke-opacity="null" stroke-width="0" stroke="#000" fill="#56ffaa"/>
  <rect id="svg_32" height="25" width="32" y="345" x="114.5" stroke-opacity="null" stroke-width="0" stroke="#000" fill="#56ffaa"/>
  <rect id="svg_33" height="60" width="42" y="632" x="147.5" stroke-opacity="null" stroke-width="0" stroke="#000" fill="#56ffaa"/>
  <rect id="svg_34" height="21" width="29" y="882" x="570.5" stroke-opacity="null" stroke-width="0" stroke="#000" fill="#56ffaa"/>
  <rect id="svg_35" height="36" width="32" y="855" x="872.5" stroke-opacity="null" stroke-width="0" stroke="#000" fill="#56ffaa"/>
 </g>
</svg>
