<svg width="1000" height="1000" xmlns="http://www.w3.org/2000/svg">
 <!-- Created with Method Draw - http://github.com/duopixel/Method-Draw/ -->
 <g>
  <title>background</title>
  <rect fill="none" id="canvas_background" height="1002" width="1002" y="-1" x="-1"/>
  <g display="none" overflow="visible" y="0" x="0" height="100%" width="100%" id="canvasGrid">
   <rect fill="url(#gridpattern)" stroke-width="0" y="0" x="0" height="100%" width="100%"/>
  </g>
 </g>
 <g>
  <title>Layer 1</title>
  <path id="svg_36" d="m114.425007,167.194876l13.750876,0l4.249127,-16.042616l4.249129,16.042616l13.750874,0l-11.124672,9.914769l4.249346,16.042616l-11.124677,-9.915039l-11.124675,9.915039l4.249348,-16.042616l-11.124676,-9.914769z" stroke-opacity="null" stroke-width="0" stroke="#000" fill="#ffff56"/>
  <path id="svg_37" d="m750.305065,235.651676l16.04269,0l4.957315,-18.334422l4.957317,18.334422l16.042687,0l-12.978785,11.331166l4.957571,18.334422l-12.978791,-11.331475l-12.978788,11.331475l4.957573,-18.334422l-12.978789,-11.331166z" stroke-opacity="null" stroke-width="0" stroke="#000" fill="#ffff56"/>
  <path id="svg_38" d="m168.305007,519.530724l10.695124,0l3.304876,-17.188516l3.304877,17.188516l10.695122,0l-8.652521,10.622965l3.305047,17.188516l-8.652525,-10.623255l-8.652523,10.623255l3.305048,-17.188516l-8.652524,-10.622965z" stroke-opacity="null" stroke-width="0" stroke="#000" fill="#ffff56"/>
  <path id="svg_39" d="m759.035064,584.128711l11.459086,0l3.540946,-16.806538l3.540948,16.806538l11.459084,0l-9.270578,10.386893l3.541129,16.806538l-9.270582,-10.387175l-9.27058,10.387175l3.54113,-16.806538l-9.270581,-10.386893z" stroke-opacity="null" stroke-width="0" stroke="#000" fill="#ffff56"/>
  <path id="svg_40" d="m579.230012,137.203964l11.077072,0l3.422901,-14.89672l3.422903,14.89672l11.07707,0l-8.961523,9.206574l3.423078,14.89672l-8.961527,-9.206824l-8.961525,9.206824l3.423079,-14.89672l-8.961526,-9.206574z" stroke-opacity="null" stroke-width="0" stroke="#000" fill="#ffff56"/>
  <path id="svg_41" d="m141.060005,801.855058l16.042687,0l4.957314,-14.132799l4.957317,14.132799l16.042684,0l-12.978783,8.73445l4.95757,14.132799l-12.978788,-8.734688l-12.978785,8.734688l4.957572,-14.132799l-12.978787,-8.73445z" stroke-opacity="null" stroke-width="0" stroke="#000" fill="#ffff56"/>
  <path id="svg_42" d="m515.004973,409.070397l10.695148,0l3.304883,-21.008187l3.304885,21.008187l10.695146,0l-8.652541,12.983625l3.305054,21.008187l-8.652544,-12.983978l-8.652543,12.983978l3.305055,-21.008187l-8.652543,-12.983625z" stroke-opacity="null" stroke-width="0" stroke="#000" fill="#ffff56"/>
  <path id="svg_43" d="m485.889999,790.754392l14.89678,0l4.60322,-21.772123l4.603222,21.772123l14.896777,0l-12.051726,13.455758l4.603458,21.772123l-12.051731,-13.456124l-12.051728,13.456124l4.603459,-21.772123l-12.05173,-13.455758z" stroke-opacity="null" stroke-width="0" stroke="#000" fill="#ffff56"/>
 </g>
</svg>