<svg xmlns="http://www.w3.org/2000/svg" xmlns:xlink="http://www.w3.org/1999/xlink" viewBox="-2267 15363 1920 1622.605">
  <defs>
    <style>
      .cls-1 {
        clip-path: url(#clip-Screen_2-1_4);
      }

      .cls-2 {
        fill: #2e3234;
      }

      .cls-11, .cls-3, .cls-7 {
        fill: #e0e8d5;
      }

      .cls-10, .cls-4, .cls-6 {
        fill: none;
      }

      .cls-10, .cls-11, .cls-4, .cls-6, .cls-7 {
        stroke: #aab0a2;
        stroke-miterlimit: 10;
      }

      .cls-4, .cls-6, .cls-7 {
        stroke-width: 4px;
      }

      .cls-5 {
        fill: #c3c9b9;
      }

      .cls-10, .cls-11, .cls-6, .cls-7 {
        stroke-linecap: round;
        stroke-linejoin: round;
      }

      .cls-8 {
        fill: #aab0a2;
      }

      .cls-9 {
        fill: #91968a;
      }

      .cls-10, .cls-11 {
        stroke-width: 4.664px;
      }

      .cls-12 {
        fill: #1d2122;
      }

      .cls-13 {
        fill: #3d4245;
      }

      .cls-14 {
        fill: #a1004e;
      }

      .cls-15 {
        fill: #cf2661;
      }

      .cls-16 {
        fill: #530d3d;
      }

      .cls-17 {
        fill: #a03e72;
      }

      .cls-18 {
        fill: #e3e8eb;
      }

      .cls-19 {
        fill: #f1f1f1;
      }

      .cls-20 {
        fill: #212121;
      }

      .cls-21 {
        fill: #f5406d;
      }

      .cls-22, .cls-23 {
        fill: #fafafa;
      }

      .cls-23, .cls-24 {
        opacity: 0.67;
      }

      .cls-24 {
        fill: #fff;
      }

      .cls-25 {
        fill: #eee;
      }

      .cls-26 {
        fill: #e0e0e0;
      }

      .cls-27 {
        fill: #ff497a;
      }
    </style>
    <clipPath id="clip-Screen_2-1_4">
      <rect x="-2267" y="15363" width="1920" height="1622.605"/>
    </clipPath>
  </defs>
  <g id="Screen_2-1_4" data-name="Screen 2-1 – 4" class="cls-1">
    <rect id="Rectangle_84" data-name="Rectangle 84" class="cls-2" width="1980" height="481.121" transform="translate(-2292 16510)"/>
    <path id="Tracé_1142" data-name="Tracé 1142" class="cls-3" d="M1161.875,0C1803.561,0,2323.75,201.024,2323.75,449s-542.31,238.531-1184,238.531S0,696.976,0,449,520.189,0,1161.875,0Z" transform="translate(-2434.375 16085)"/>
    <path id="Tracé_1150" data-name="Tracé 1150" class="cls-3" d="M36.227,85.115s8.87-5.068-2.534-24.075c0,0-8.87-2.534,2.534-15.205,0,0,73.491-41.814,114.038-36.746,0,0,11.4,3.8,8.87,11.4s1.267,13.938,10.137,20.273-17.739,40.547-17.739,40.547" transform="translate(-1919.08 16085.818)"/>
    <path id="Tracé_1143" data-name="Tracé 1143" class="cls-3" d="M667.4,56.929s9.883,2.534,14.952-19.006c0,0-4.562-7.983,12.417-9.123,0,0,81.854,21.16,107.449,53.091,0,0,5.575,10.644-1.52,14.318s-8.743,10.9-6.842,21.667S752.928,134.6,752.928,134.6" transform="translate(-1318.947 16099.197)"/>
    <ellipse id="Ellipse_146" data-name="Ellipse 146" class="cls-4" cx="25.342" cy="40.547" rx="25.342" ry="40.547" transform="translate(-1038.742 16341.48) rotate(-76.732)"/>
    <path id="Tracé_1151" data-name="Tracé 1151" class="cls-4" d="M182.214,226.519C185,240.2,169.417,254.9,147.5,259.337s-41.941-3.168-44.728-16.852,12.8-28.383,34.718-32.818S179.427,212.834,182.214,226.519Z" transform="translate(-1652.84 16113.166)"/>
    <ellipse id="Ellipse_147" data-name="Ellipse 147" class="cls-4" cx="19.64" cy="14.572" rx="19.64" ry="14.572" transform="translate(-930.086 16357.805)"/>
    <ellipse id="Ellipse_151" data-name="Ellipse 151" class="cls-4" cx="12.037" cy="6.335" rx="12.037" ry="6.335" transform="translate(-2081.738 16436.139)"/>
    <ellipse id="Ellipse_148" data-name="Ellipse 148" class="cls-4" cx="23.441" cy="13.938" rx="23.441" ry="13.938" transform="translate(-1654.859 16354.004)"/>
    <ellipse id="Ellipse_149" data-name="Ellipse 149" class="cls-4" cx="15.205" cy="8.236" rx="15.205" ry="8.236" transform="translate(-788.172 16354.004)"/>
    <ellipse id="Ellipse_144" data-name="Ellipse 144" class="cls-4" cx="13.304" cy="5.702" rx="13.304" ry="5.702" transform="translate(-824.918 16144.934)"/>
    <ellipse id="Ellipse_152" data-name="Ellipse 152" class="cls-4" cx="23.441" cy="12.671" rx="23.441" ry="12.671" transform="translate(-1905.217 16510.475)"/>
    <ellipse id="Ellipse_150" data-name="Ellipse 150" class="cls-4" cx="19.006" cy="10.137" rx="19.006" ry="10.137" transform="translate(-1648.523 16180.412)"/>
    <ellipse id="Ellipse_153" data-name="Ellipse 153" class="cls-4" cx="10.137" cy="3.801" rx="10.137" ry="3.801" transform="translate(-1884.385 16472.461)"/>
    <ellipse id="Ellipse_145" data-name="Ellipse 145" class="cls-5" cx="99.466" cy="18.373" rx="99.466" ry="18.373" transform="translate(-1061.863 16122.127)"/>
    <path id="Tracé_1163" data-name="Tracé 1163" class="cls-6" d="M60.2,135.3c-10.644,12.544-.634,18.246,3.041,29.523,3.421,10.01-2.281,27.369-7.349,32.691,1.774.634,1.394-.38,2.154-1.014" transform="translate(-1894.393 16092.643)"/>
    <path id="Tracé_1168" data-name="Tracé 1168" class="cls-6" d="M60.03,135.3c-10.257,12.088-.611,17.583,2.93,28.45,3.3,9.646-2.2,26.374-7.082,31.5,1.709.611,1.343-.366,2.076-.977" transform="translate(-2267.777 16125.901)"/>
    <path id="Tracé_1152" data-name="Tracé 1152" class="cls-6" d="M180.5,104.8c18.119,4.055,11.277,23.441,15.458,35.352,3.8,10.644,17.232,16.092,25.215,22.554" transform="translate(-1860.992 16084.496)"/>
    <path id="Tracé_1164" data-name="Tracé 1164" class="cls-6" d="M180.5,104.8c17.461,3.907,10.867,22.589,14.9,34.067C199.06,149.124,212,154.374,219.7,160.6" transform="translate(-2240.137 16119.16)"/>
    <path id="Tracé_1153" data-name="Tracé 1153" class="cls-7" d="M231.427,122.889C237.256,146.2,202.791,174.84,154.261,187c-48.4,12.164-92.5,3.168-98.326-20.147s28.636-51.951,77.166-64.115S225.6,99.575,231.427,122.889Z" transform="translate(-1894.434 16082.499)"/>
    <path id="Tracé_1165" data-name="Tracé 1165" class="cls-7" d="M225.025,121.96c5.617,22.467-27.6,50.063-74.361,61.785-46.643,11.722-89.135,3.053-94.752-19.415s27.6-50.063,74.361-61.785S219.408,99.493,225.025,121.96Z" transform="translate(-2267.813 16117.508)"/>
    <path id="Tracé_1154" data-name="Tracé 1154" class="cls-8" d="M216.815,123.862c4.435,17.739-25.468,40.547-66.9,50.937s-78.559,4.435-83.121-13.178c-4.435-17.739,25.468-40.547,66.9-50.937S212.38,106.123,216.815,123.862Z" transform="translate(-1891.479 16084.693)"/>
    <path id="Tracé_1166" data-name="Tracé 1166" class="cls-8" d="M211.346,123.2c4.274,17.095-24.543,39.073-64.471,49.086s-75.7,4.274-80.1-12.7C62.5,142.489,91.319,120.51,131.247,110.5S207.073,106.1,211.346,123.2Z" transform="translate(-2265.367 16119.324)"/>
    <path id="Tracé_1155" data-name="Tracé 1155" class="cls-9" d="M140.128,133.186c-30.03,7.476-53.978,21.54-63.228,35.478,15.205,6.842,41.687,7.349,70.2.253,30.03-7.476,53.978-21.54,63.228-35.478C195.119,126.6,168.51,125.964,140.128,133.186Z" transform="translate(-1888.662 16090.701)"/>
    <path id="Tracé_1167" data-name="Tracé 1167" class="cls-9" d="M137.83,133c-28.938,7.2-52.016,20.758-60.93,34.189,14.652,6.594,40.172,7.082,67.645.244,28.938-7.2,52.016-20.758,60.93-34.189C190.822,126.649,165.181,126.039,137.83,133Z" transform="translate(-2263.035 16124.295)"/>
    <path id="Tracé_1144" data-name="Tracé 1144" class="cls-6" d="M608.284,118.6c-17.993,9.883-8.87,20.907-9.377,35.732-.507,13.051-14.7,30.917-22.807,34.845,1.9,1.52,1.774.127,2.914-.253" transform="translate(-1441.332 16096.182)"/>
    <path id="Tracé_1156" data-name="Tracé 1156" class="cls-6" d="M626.389,118.6c-28.115,15.443-13.859,32.668-14.651,55.833-.792,20.393-22.967,48.31-35.638,54.447,2.97,2.376,2.772.2,4.554-.4" transform="translate(-1266.438 16307.182)"/>
    <path id="Tracé_1157" data-name="Tracé 1157" class="cls-6" d="M756.1,136.3c19.26,12.671,2.914,32.184,2.534,48.023-.254,14.065,13.051,26.355,19.386,37.379" transform="translate(-1390.256 16094.908)"/>
    <path id="Tracé_1145" data-name="Tracé 1145" class="cls-7" d="M813.8,171.545c-3.421,29.65-56.259,47.9-118.092,40.8s-109.1-36.872-105.675-66.522,56.259-47.9,118.092-40.8S817.226,141.895,813.8,171.545Z" transform="translate(-1434.656 16086.146)"/>
    <path id="Tracé_1158" data-name="Tracé 1158" class="cls-7" d="M933.635,207.959c-5.252,45.515-86.362,73.525-181.283,62.632s-167.473-56.6-162.221-102.118,86.363-73.525,181.283-62.632S938.887,162.444,933.635,207.959Z" transform="translate(-1247.877 16283.176)"/>
    <path id="Tracé_1146" data-name="Tracé 1146" class="cls-8" d="M795.154,167.359c-2.661,22.554-47.516,35.985-100.353,29.9s-93.511-29.27-90.977-51.951c2.661-22.554,47.516-35.985,100.353-29.9S797.688,144.8,795.154,167.359Z" transform="translate(-1430.957 16088.938)"/>
    <path id="Tracé_1159" data-name="Tracé 1159" class="cls-8" d="M897.594,195.941c-4.085,34.623-72.941,55.241-154.052,45.9S599.994,196.913,603.884,162.1c4.085-34.623,72.941-55.241,154.052-45.9S901.484,161.318,897.594,195.941Z" transform="translate(-1234.789 16293.055)"/>
    <path id="Tracé_1160" data-name="Tracé 1160" class="cls-9" d="M698.11,143.576c-38.013-6.082-72.351-1.647-89.71,9.63,14.065,15.205,44.095,28.89,80.207,34.592,38.013,6.082,72.351,1.647,89.71-9.63C764.378,162.963,734.222,149.4,698.11,143.576Z" transform="translate(-1429.705 16096.122)"/>
    <path id="Tracé_1161" data-name="Tracé 1161" class="cls-9" d="M746.113,145.039C687.76,135.7,635.048,142.511,608.4,159.822c21.591,23.341,67.689,44.348,123.125,53.1,58.353,9.336,111.065,2.529,137.713-14.783C847.842,174.8,801.549,153.987,746.113,145.039Z" transform="translate(-1230.357 16318.475)"/>
    <g id="Groupe_341" data-name="Groupe 341" transform="translate(-2391 11106)">
      <path id="Tracé_245" data-name="Tracé 245" class="cls-10" d="M301.64,154.6c-14.952,11.277-5.2,20.02-3.675,33.451,1.394,11.911-9.123,29.9-15.965,34.465,1.9,1.14,1.647-.127,2.661-.634" transform="translate(716.118 5155.797)"/>
      <path id="Tracé_246" data-name="Tracé 246" class="cls-10" d="M439.6,149.9c19.133,8.87,6.842,28.763,8.743,43.081,1.647,12.8,15.332,22.047,22.554,31.17" transform="translate(758.211 5154.542)"/>
      <path id="Tracé_247" data-name="Tracé 247" class="cls-11" d="M495.251,177.121c.887,27.242-44.475,50.81-101.24,52.711-56.765,1.774-103.521-18.753-104.408-46s44.475-50.81,101.24-52.711S494.364,149.878,495.251,177.121Z" transform="translate(718.145 5149.495)"/>
      <path id="Tracé_248" data-name="Tracé 248" class="cls-8" d="M478.173,175.343c.634,20.78-38.139,38.9-86.669,40.42s-88.443-13.938-89.2-34.718c-.634-20.78,38.139-38.9,86.669-40.42C437.5,138.978,477.413,154.563,478.173,175.343Z" transform="translate(721.538 5152.033)"/>
      <path id="Tracé_249" data-name="Tracé 249" class="cls-9" d="M385.6,172.816c-30.157-.887-56.385,5.955-68.8,16.6,12.544,10.39,37.252,17.993,65.889,18.753,30.157.887,56.385-5.955,68.8-16.6C438.947,181.179,414.239,173.7,385.6,172.816Z" transform="translate(725.412 5160.642)"/>
    </g>
    <rect id="Rectangle_278" data-name="Rectangle 278" class="cls-2" width="626" height="83" rx="41.5" transform="translate(-2404 16689)"/>
    <rect id="Rectangle_279" data-name="Rectangle 279" class="cls-2" width="273" height="83" rx="41.5" transform="translate(-2404 16606)"/>
    <rect id="Rectangle_280" data-name="Rectangle 280" class="cls-2" width="182.4" height="55.117" rx="27.558" transform="translate(-510.811 16633.883)"/>
    <rect id="Rectangle_281" data-name="Rectangle 281" class="cls-2" width="273" height="83" rx="41.5" transform="translate(-2399 16523)"/>
    <rect id="Rectangle_282" data-name="Rectangle 282" class="cls-2" width="182.4" height="55.117" rx="27.558" transform="translate(-514.152 16578.766)"/>
    <rect id="Rectangle_283" data-name="Rectangle 283" class="cls-3" width="273" height="83" rx="41.5" transform="translate(-2213 16606)"/>
    <rect id="Rectangle_284" data-name="Rectangle 284" class="cls-3" width="182.4" height="55.117" rx="27.558" transform="translate(-638.424 16633.883)"/>
    <rect id="Rectangle_285" data-name="Rectangle 285" class="cls-2" width="626" height="84" rx="42" transform="translate(-1588 16689)"/>
    <rect id="Rectangle_286" data-name="Rectangle 286" class="cls-2" width="626" height="83" rx="41.5" transform="translate(-788 16689)"/>
    <rect id="Rectangle_292" data-name="Rectangle 292" class="cls-3" width="626" height="83" rx="41.5" transform="translate(-2020 16768)"/>
    <rect id="Rectangle_293" data-name="Rectangle 293" class="cls-3" width="626" height="83" rx="41.5" transform="translate(-1176 16768)"/>
    <rect id="Rectangle_294" data-name="Rectangle 294" class="cls-3" width="269" height="36" rx="18" transform="translate(-1630 16879)"/>
    <rect id="Rectangle_287" data-name="Rectangle 287" class="cls-3" width="246" height="33" rx="16.5" transform="translate(-2071 16715)"/>
    <rect id="Rectangle_288" data-name="Rectangle 288" class="cls-3" width="188" height="33" rx="16.5" transform="translate(-1332 16715)"/>
    <rect id="Rectangle_289" data-name="Rectangle 289" class="cls-3" width="188" height="33" rx="16.5" transform="translate(-525 16715)"/>
    <rect id="Rectangle_290" data-name="Rectangle 290" class="cls-3" width="35" height="33" rx="16.5" transform="translate(-1391 16714)"/>
    <rect id="Rectangle_295" data-name="Rectangle 295" class="cls-3" width="27.733" height="26.148" rx="13.074" transform="translate(-1101 16881)"/>
    <rect id="Rectangle_296" data-name="Rectangle 296" class="cls-3" width="46.75" height="26.148" rx="13.074" transform="translate(-1062.174 16881)"/>
    <rect id="Rectangle_291" data-name="Rectangle 291" class="cls-3" width="35" height="33" rx="16.5" transform="translate(-758 16714)"/>
    <rect id="Rectangle_297" data-name="Rectangle 297" class="cls-3" width="162" height="22" rx="11" transform="translate(-2233 16810)"/>
    <rect id="Rectangle_298" data-name="Rectangle 298" class="cls-3" width="112" height="16" rx="8" transform="translate(-1970 16881)"/>
    <rect id="Rectangle_299" data-name="Rectangle 299" class="cls-3" width="112" height="16" rx="8" transform="translate(-1667 16931)"/>
    <rect id="Rectangle_300" data-name="Rectangle 300" class="cls-3" width="182" height="16" rx="8" transform="translate(-2091 16917)"/>
    <rect id="Rectangle_301" data-name="Rectangle 301" class="cls-3" width="182" height="16" rx="8" transform="translate(-749 16939)"/>
    <rect id="Rectangle_302" data-name="Rectangle 302" class="cls-3" width="194" height="16" rx="8" transform="translate(-677 16881)"/>
    <rect id="Rectangle_303" data-name="Rectangle 303" class="cls-3" width="24" height="16" rx="8" transform="translate(-472 16881)"/>
    <path id="Tracé_1147" data-name="Tracé 1147" class="cls-2" d="M14493.859,9372.727l-87.273,29.25,72.8,18.273-21.6,29.941,55.211,21.43,19.336,74.551s49.59,11.879,55.449,11.395,50.621,0,50.621,0l26.91,29.637h106.609l95.125-45.953,90.055-23.77,26.238-34.945,56.789-18.844,39.949-7.336,28.93-36.105s-176.785-61.652-181.355-61.453S14493.859,9372.727,14493.859,9372.727Z" transform="translate(-15948 6696)"/>
    <path id="Intersection_2" data-name="Intersection 2" class="cls-12" d="M-13368.273-4018.595l-26.911-29.637s-44.76-.482-50.622,0-55.447-11.392-55.447-11.392l-19.336-74.551-55.211-21.433,21.031-29.155.452-.038,60.666,36.915s79.336-22.667,81.894-22.7,115.272,6.676,118.1,7.606,33.98,30.379,38.046,30.482,47.254,2.828,54.507,3.139c3.181.133,13.584-.817,24.545-1.771,14.049-1.221,29.012-2.442,30.841-1.368,3.253,1.9,56.262,15.868,56.262,15.868s62.633-25.889,65.07-26.33,28.5-7.859,32.09-7.8c2.056.031,20.759.973,36.349,1.771l-37.512,6.888-56.791,18.844-26.238,34.945-90.053,23.768-95.126,45.954Z" transform="translate(12085.586 20301.797)"/>
    <rect id="Rectangle_267" data-name="Rectangle 267" class="cls-13" width="182" height="16" rx="8" transform="translate(-1153 16021)"/>
    <rect id="Rectangle_268" data-name="Rectangle 268" class="cls-13" width="117" height="16" rx="8" transform="translate(-1340 16047)"/>
    <rect id="Rectangle_269" data-name="Rectangle 269" class="cls-13" width="117" height="16" rx="8" transform="translate(-1341 15944)"/>
    <rect id="Rectangle_276" data-name="Rectangle 276" class="cls-13" width="117" height="16" rx="8" transform="translate(-1554 15976)"/>
    <rect id="Rectangle_270" data-name="Rectangle 270" class="cls-13" width="117" height="16" rx="8" transform="translate(-942 15977)"/>
    <rect id="Rectangle_271" data-name="Rectangle 271" class="cls-13" width="102" height="16" rx="8" transform="translate(-1282 15969)"/>
    <rect id="Rectangle_272" data-name="Rectangle 272" class="cls-13" width="17" height="16" rx="8" transform="translate(-1173 15969)"/>
    <rect id="Rectangle_277" data-name="Rectangle 277" class="cls-13" width="56" height="16" rx="8" transform="translate(-1488 16020)"/>
    <rect id="Rectangle_273" data-name="Rectangle 273" class="cls-13" width="33" height="16" rx="8" transform="translate(-1422 16020)"/>
    <rect id="Rectangle_274" data-name="Rectangle 274" class="cls-13" width="130" height="36" rx="18" transform="translate(-1059 16055)"/>
    <rect id="Rectangle_275" data-name="Rectangle 275" class="cls-13" width="37" height="36" rx="18" transform="translate(-920 16055)"/>
    <g id="Groupe_339" data-name="Groupe 339" transform="translate(-1385.996 16009.051)">
      <g id="Groupe_283" data-name="Groupe 283" transform="translate(-0.003 -0.062)">
        <g id="Groupe_276" data-name="Groupe 276" transform="translate(0 1.35)">
          <g id="Groupe_274" data-name="Groupe 274" transform="translate(0 15.712)">
            <path id="Tracé_1000" data-name="Tracé 1000" class="cls-14" d="M42.788,71.188A86.953,86.953,0,0,1,20.311,46.2,69.366,69.366,0,0,0,9.4,63.736,112.92,112.92,0,0,0,33.186,87.847C43.006,95.3,52.608,78.422,42.788,71.188Z" transform="translate(11.118 38.144)"/>
            <path id="Tracé_1001" data-name="Tracé 1001" class="cls-15" d="M23.134,19.511C26.844,7.674,8.3,2.633,4.8,14.469A107.161,107.161,0,0,0,20.734,109.6,69.366,69.366,0,0,1,31.645,92.065C18.77,70.584,15.715,44.28,23.134,19.511Z" transform="translate(0.003 -7.722)"/>
          </g>
          <g id="Groupe_275" data-name="Groupe 275" transform="translate(223.262)">
            <path id="Tracé_1002" data-name="Tracé 1002" class="cls-14" d="M105.128,73.61c-8.729,8.768,4.8,22.358,13.53,13.59a112.235,112.235,0,0,0,25.314-39.017A79.911,79.911,0,0,0,127.386,38.1,95.508,95.508,0,0,1,105.128,73.61Z" transform="translate(-102.308 44.201)"/>
            <path id="Tracé_1003" data-name="Tracé 1003" class="cls-15" d="M128.932,5.478C123.694-5.7,107.11,4.163,112.347,15.122a90.355,90.355,0,0,1,4.146,67.732,74.587,74.587,0,0,1,16.585,10.083A111.1,111.1,0,0,0,128.932,5.478Z" transform="translate(-91.633 -0.554)"/>
          </g>
        </g>
        <path id="Tracé_1004" data-name="Tracé 1004" class="cls-15" d="M253.242,115.81c-3.273-19.728-15.275-38.579-32.951-47.785-8.292-4.384-17.676-6.8-24.223-13.371-5.456-5.7-7.856-13.371-11.566-20.385a65.113,65.113,0,0,0-43.644-33.1A64.7,64.7,0,0,0,87.612,14.322c-4.583,3.726-8.947,8.329-11.347,13.809-4.583,10.3-3.273,23.235-11.129,31.345-2.619,2.85-6.328,4.822-9.6,6.8C27.165,84.465,15.817,125.016,30.22,155.485c1.746,3.726,3.928,7.672,2.4,11.4-.873,2.411-3.273,3.946-5.237,5.7-20.949,16.659-26.4,48-16.8,72.993C30,295.99,93.94,310.677,142.385,312.43a320.128,320.128,0,0,0,59.792-3.946c19.858-3.288,39.716-5.918,58.483-13.59,16.367-6.576,31.642-17.1,41.68-31.784,9.384-13.809,21.167-34.414,9.82-50.854-4.146-6.138-11.566-8.987-18.112-12.056-13.311-6.138-26.186-14.905-32.951-28.276C252.805,154.827,256.3,134.661,253.242,115.81Z" transform="translate(7.101 0.062)"/>
        <path id="Tracé_1005" data-name="Tracé 1005" class="cls-14" d="M304.7,145.69c-4.146-6.138-11.566-8.987-18.112-12.056-13.311-6.138-26.186-14.905-32.951-28.276-7.638-15.125-5.456-32.88-7.2-49.758-2.619,33.976-25.532,66.636-55.646,80.226,17.239-1.973,42.117,1.973,30.551,24.988-22.913,46.031-85.979,63.348-135.733,57.649-25.968-2.411-51.064-9.206-73.1-21.481,25.968,36.387,80.087,47.785,122.2,49.1a320.128,320.128,0,0,0,59.792-3.946c19.858-3.288,39.716-5.918,58.483-13.59,16.367-6.576,31.642-17.1,41.68-31.784C304.043,182.734,315.827,162.13,304.7,145.69Z" transform="translate(14.783 66.41)"/>
        <g id="Groupe_278" data-name="Groupe 278" transform="translate(91.004 10.219)">
          <ellipse id="Ellipse_133" data-name="Ellipse 133" class="cls-16" cx="39.062" cy="40.771" rx="39.062" ry="40.771" transform="translate(0.218)"/>
          <ellipse id="Ellipse_134" data-name="Ellipse 134" class="cls-17" cx="39.062" cy="40.771" rx="39.062" ry="40.771" transform="translate(0.218 3.507)"/>
          <g id="Groupe_277" data-name="Groupe 277" transform="translate(0 3.069)">
            <path id="Tracé_1006" data-name="Tracé 1006" class="cls-18" d="M49.9,67.927A39.414,39.414,0,0,0,105.328,15.1C78.487,23.429,54.7,41.4,49.9,67.927Z" transform="translate(-32.006 4.847)"/>
            <path id="Tracé_1007" data-name="Tracé 1007" class="cls-19" d="M80.98,6A39.343,39.343,0,0,0,41.7,45.455,39.758,39.758,0,0,0,59.812,78.773c4.583-26.523,28.369-44.5,55.21-53.046A39.041,39.041,0,0,0,80.98,6Z" transform="translate(-41.7 -6)"/>
            <path id="Tracé_1037" data-name="Tracé 1037" class="cls-20" d="M24.267-.053A24.148,24.148,0,0,1,48.48,24.18,24.406,24.406,0,0,1,24.16,48.52,24.148,24.148,0,0,1-.053,24.287,24.406,24.406,0,0,1,24.267-.053Z" transform="matrix(0.769, -0.639, 0.639, 0.769, 5.125, 36.288)"/>
            <path id="Tracé_1008" data-name="Tracé 1008" class="cls-15" d="M52.8,47.153a21.616,21.616,0,0,0,15.057,5.918,21.935,21.935,0,0,0,21.822-21.92A21.639,21.639,0,0,0,85.315,18C71.567,25.014,60,34.659,52.8,47.153Z" transform="translate(-28.577 8.304)"/>
            <path id="Tracé_1009" data-name="Tracé 1009" class="cls-21" d="M71.522,14A22.036,22.036,0,0,0,56.465,51.921c7.2-12.494,18.767-22.139,32.515-29.153A21.766,21.766,0,0,0,71.522,14Z" transform="translate(-32.242 3.536)"/>
            <path id="Tracé_1010" data-name="Tracé 1010" class="cls-16" d="M77.268,23.361A12.7,12.7,0,0,0,66.793,18.1,13.161,13.161,0,0,0,53.7,31.252a12.624,12.624,0,0,0,4.146,9.425,13.114,13.114,0,0,0,22.04-9.645A13.52,13.52,0,0,0,77.268,23.361Z" transform="translate(-27.514 8.423)"/>
            <path id="Tracé_1011" data-name="Tracé 1011" class="cls-22" d="M70.377,23.494A12.439,12.439,0,1,1,57.939,11,12.46,12.46,0,0,1,70.377,23.494Z" transform="translate(-37.208 -0.04)"/>
            <path id="Tracé_1012" data-name="Tracé 1012" class="cls-23" d="M74.911,35.08a5.456,5.456,0,1,1-5.456-5.48A5.415,5.415,0,0,1,74.911,35.08Z" transform="translate(-15.337 22.131)"/>
            <path id="Tracé_1013" data-name="Tracé 1013" class="cls-24" d="M53.581,13.9c-8.074,0-8.074,11.179,0,11.179C59.691,25.079,59.691,13.9,53.581,13.9Z" transform="translate(-34.814 3.417)"/>
            <path id="Tracé_1014" data-name="Tracé 1014" class="cls-24" d="M69.191,32.017c-.218-.219-.436-.438-.655-.438a1.975,1.975,0,0,0-2.182,0c-.218.219-.436.219-.655.438a2.481,2.481,0,0,0-.655,2.411,2.366,2.366,0,0,0,2.4,1.754,2.4,2.4,0,0,0,2.182-1.315,3.125,3.125,0,0,0,.436-1.315A2.787,2.787,0,0,0,69.191,32.017Z" transform="translate(-14.199 24.097)"/>
          </g>
        </g>
        <path id="Tracé_1015" data-name="Tracé 1015" class="cls-20" d="M163.646,93.906A62.139,62.139,0,0,1,149.9,109.25c-24,19.07-59.574,16.44-87.725,5.7-11.784-4.384-24.223-10.3-30.333-21.262a37.829,37.829,0,0,1-4.146-12.713,62.836,62.836,0,0,1-.218-22.139c.873-5.48,2.4-10.96,6.11-15.125s9.6-6.576,14.621-4.6c4.146,1.534,6.765,5.48,9.6,8.768l1.964,1.973A43.646,43.646,0,0,0,73.3,59.054a35.363,35.363,0,0,0,8.511,2.85c2.182.438,4.364.877,6.547,1.1a49.652,49.652,0,0,0,8.074,0,51.635,51.635,0,0,0,8.074-1.315A54.937,54.937,0,0,0,117.82,56.2a30.536,30.536,0,0,0,3.492-2.192c.218,0,.218-.219.436-.219,4.146-3.069,8.074-6.576,12.22-9.645a14.671,14.671,0,0,1,2.4-1.534c5.456-3.288,12-5.48,18.112-3.507,4.8,1.534,8.511,5.7,10.693,10.083a42.54,42.54,0,0,1,3.492,14.686C169.756,73.959,169.32,85.138,163.646,93.906Z" transform="translate(31.449 45.859)"/>
        <g id="Groupe_279" data-name="Groupe 279" transform="translate(89.258 95.925)">
          <path id="Tracé_1016" data-name="Tracé 1016" class="cls-25" d="M41.773,45.8c-.436,2.411-.655,5.042-.873,7.453a8.556,8.556,0,0,0,.436,3.288c1.091,2.192,3.928,2.411,6.11,2.411a49.656,49.656,0,0,0,5.456-.438,4.1,4.1,0,0,0,1.746-.438,2.013,2.013,0,0,0,.873-1.315C50.283,54.129,45.483,50.842,41.773,45.8Z" transform="translate(-40.9 -41.197)"/>
          <path id="Tracé_1017" data-name="Tracé 1017" class="cls-26" d="M55.8,52.906A43.646,43.646,0,0,1,42.273,43.7a34.168,34.168,0,0,0-.873,4.6c3.71,5.042,8.511,8.329,13.748,10.96a3.263,3.263,0,0,0,.218-1.534A36,36,0,0,1,55.8,52.906Z" transform="translate(-40.309 -43.7)"/>
          <path id="Tracé_1018" data-name="Tracé 1018" class="cls-22" d="M44.455,46.779c-.436-.438-.873-.438-1.528,0-1.746,1.315-.655,4.6-.436,6.576a1.223,1.223,0,0,0,2.4,0C45.328,51.6,46.2,48.094,44.455,46.779Z" transform="translate(-39.654 -40.422)"/>
        </g>
        <g id="Groupe_280" data-name="Groupe 280" transform="translate(112.389 107.762)">
          <path id="Tracé_1019" data-name="Tracé 1019" class="cls-25" d="M52.809,53.158,51.5,52.5v.438a8.555,8.555,0,0,0,.436,3.288c1.091,2.192,3.928,2.411,6.11,2.411A49.656,49.656,0,0,0,63.5,58.2a4.1,4.1,0,0,0,1.746-.438,3.2,3.2,0,0,0,1.091-2.63v-.877A57.329,57.329,0,0,1,52.809,53.158Z" transform="translate(-51.5 -45.047)"/>
          <path id="Tracé_1020" data-name="Tracé 1020" class="cls-26" d="M58.919,50.2a34.045,34.045,0,0,1-6.547-1.1c-.436,2.411-.655,4.822-.873,7.453l1.309.658a56.426,56.426,0,0,0,13.53,1.1,50.81,50.81,0,0,0,.655-8.11A49.65,49.65,0,0,1,58.919,50.2Z" transform="translate(-51.5 -49.1)"/>
          <path id="Tracé_1021" data-name="Tracé 1021" class="cls-22" d="M54.955,50.279c-.436-.438-.873-.438-1.528,0-1.746,1.315-.655,4.6-.436,6.576a1.223,1.223,0,0,0,2.4,0C55.828,55.1,56.7,51.594,54.955,50.279Z" transform="translate(-50.372 -48.087)"/>
        </g>
        <g id="Groupe_281" data-name="Groupe 281" transform="translate(135.957 101.844)">
          <path id="Tracé_1022" data-name="Tracé 1022" class="cls-25" d="M62.518,56.876a7.159,7.159,0,0,0,.873,3.069c1.309,1.973,4.146,1.754,6.547,1.315a22.933,22.933,0,0,0,5.237-1.315c.655-.219,1.309-.438,1.528-.877a3.99,3.99,0,0,0,.655-2.85,53.984,53.984,0,0,0-.436-5.918A58.358,58.358,0,0,1,62.3,55.561,3.271,3.271,0,0,1,62.518,56.876Z" transform="translate(-62.3 -41.751)"/>
          <path id="Tracé_1023" data-name="Tracé 1023" class="cls-26" d="M75.611,46.4A50.229,50.229,0,0,1,62.3,51.88a56.116,56.116,0,0,0,.436,8.549,58.357,58.357,0,0,0,14.621-5.261c-.436-2.85-1.091-5.918-1.746-8.768Z" transform="translate(-62.3 -46.4)"/>
          <path id="Tracé_1024" data-name="Tracé 1024" class="cls-22" d="M65.165,50.378c-.436-.219-1.091-.219-1.309.219-1.528,1.534,0,4.822.655,6.576a1.269,1.269,0,0,0,2.4-.438C66.693,54.981,67.129,51.474,65.165,50.378Z" transform="translate(-61.237 -41.83)"/>
        </g>
        <g id="Groupe_282" data-name="Groupe 282" transform="translate(152.978 89.569)">
          <path id="Tracé_1025" data-name="Tracé 1025" class="cls-26" d="M84.939,48.91c-.436-2.411-.873-5.042-1.528-7.453-.436-.219-.655-.438-1.091-.658-4.146,3.069-8.074,6.576-12.22,9.645a29.343,29.343,0,0,0,.655,6.138,10.888,10.888,0,0,0,.873,2.85A55.314,55.314,0,0,0,84.939,48.91Z" transform="translate(-70.1 -40.8)"/>
          <path id="Tracé_1026" data-name="Tracé 1026" class="cls-25" d="M84.111,44.5A62.341,62.341,0,0,1,70.8,55.241a.214.214,0,0,0,.218.219c1.309,1.754,4.146,1.754,6.547,1.315L82.8,55.46c.655-.219,1.309-.438,1.528-.877a3.99,3.99,0,0,0,.655-2.85C84.766,49.322,84.548,46.911,84.111,44.5Z" transform="translate(-69.272 -36.39)"/>
          <path id="Tracé_1027" data-name="Tracé 1027" class="cls-22" d="M73.042,45.178c-.436-.219-1.091-.219-1.309.219-1.528,1.754.218,4.822.655,6.576a1.307,1.307,0,0,0,2.4-.438C74.788,49.781,75.006,46.274,73.042,45.178Z" transform="translate(-68.896 -35.753)"/>
        </g>
        <path id="Tracé_1028" data-name="Tracé 1028" class="cls-14" d="M101.331,82.483c-8.947,2.411-17.676,4.165-27.059,3.726-10.256-.438-19.2-4.384-29.023-6.576a2.333,2.333,0,0,0-2.619,3.507c12.22,19.728,44.953,20.385,62.411,8.33C109.623,88.4,106.787,80.949,101.331,82.483Z" transform="translate(49.902 94.984)"/>
        <path id="Tracé_1029" data-name="Tracé 1029" class="cls-27" d="M76.264,46.78c-9.165.658-20.731,4.165-27.932-3.507a1.106,1.106,0,0,0-1.746,1.315c6.328,11.179,19.64,10.96,30.333,6.576C78.883,50.507,78.883,46.78,76.264,46.78Z" transform="translate(54.892 51.337)"/>
        <path id="Tracé_1030" data-name="Tracé 1030" class="cls-27" d="M95.479,19.515c-5.674-7.014-13.53-14.029-22.695-16a1.175,1.175,0,0,0-1.091,1.973c6.11,6.357,12.657,11.4,17.676,18.632a54.1,54.1,0,0,1,5.456,9.864c1.964,3.726,2.182,7.672,5.237,10.741a3.232,3.232,0,0,0,5.237-1.315C107.481,35.516,100.28,24.995,95.479,19.515Z" transform="translate(84.34 4.295)"/>
        <path id="Tracé_1031" data-name="Tracé 1031" class="cls-27" d="M97.984,31.306c-2.182-.219-3.055,3.069-1.091,4.165,8.729,4.6,16.367,8.987,22.259,17.1,5.237,7.014,6.328,15.563,9.82,23.235,1.309,2.63,5.674,1.973,6.11-.877C139.664,54.541,116.751,33.059,97.984,31.306Z" transform="translate(113.259 37.439)"/>
        <path id="Tracé_1032" data-name="Tracé 1032" class="cls-27" d="M117.319,55.1a2.859,2.859,0,0,0-2.619-.658c-1.091.219-1.528,1.1-1.964,1.973a6.386,6.386,0,0,0,0,3.507,3.771,3.771,0,0,0,2.182,2.63,2.013,2.013,0,0,0,2.619-.438,3.377,3.377,0,0,0,1.309-3.069A6.845,6.845,0,0,0,117.319,55.1Z" transform="translate(132.986 64.935)"/>
        <path id="Tracé_1033" data-name="Tracé 1033" class="cls-27" d="M44.185,31.108c-15.494,5.918-27.5,23.673-24.659,40.551,0,.438.655.438.873,0,5.237-15.344,12.22-26.742,25.532-36.606C47.895,33.739,46.8,30.012,44.185,31.108Z" transform="translate(22.596 36.979)"/>
        <path id="Tracé_1034" data-name="Tracé 1034" class="cls-27" d="M38.918,18.233a33.141,33.141,0,0,0-1.309,7.891c-.218,1.315,1.746,1.315,2.182.219a33.621,33.621,0,0,0,1.528-7.891C41.319,17.137,39.355,17.137,38.918,18.233Z" transform="translate(44.447 20.92)"/>
        <path id="Tracé_1035" data-name="Tracé 1035" class="cls-27" d="M22.956,82.585c0-.438-.218-.658-.655-.438C8.335,88.723,7.026,110.423,9.863,123.356c.655,3.069,5.892,2.411,5.674-.658a77.171,77.171,0,0,1,1.746-21.262C18.81,95.079,22.083,88.942,22.956,82.585Z" transform="translate(10.219 97.95)"/>
        <path id="Tracé_1036" data-name="Tracé 1036" class="cls-15" d="M169,118.689c-9.383-18.413-38.407-15.125-46.045-35.51-.218-.438-.655-.438-.655,0,.436,22.577,27.5,29.372,43.644,38.579A2.255,2.255,0,0,0,169,118.689Z" transform="translate(144.59 98.891)"/>
      </g>
    </g>
    <path id="Tracé_1162" data-name="Tracé 1162" class="cls-3" d="M14533.3,9548.83l87.879,13.736,80.566,15.09,49.3-15.09,46.9,8.855s48.4-14.418,52.176-16.937,37.359-19.148,37.359-19.148l50.941,13.494-122.457,85.494s-166.234,17.969-170.406,16.262-115.355-41.293-119.219-48.074S14533.3,9548.83,14533.3,9548.83Z" transform="translate(-15948 6696)"/>
  </g>
</svg>
