<svg xmlns="http://www.w3.org/2000/svg" xmlns:xlink="http://www.w3.org/1999/xlink" viewBox="-2267 15363 1920 1200">
  <defs>
    <style>
      .cls-1 {
        clip-path: url(#clip-Screen-5_2);
      }

      .cls-2 {
        fill: #2e3234;
      }

      .cls-11, .cls-3, .cls-7 {
        fill: #e0e8d5;
      }

      .cls-10, .cls-4, .cls-6 {
        fill: none;
      }

      .cls-10, .cls-11, .cls-4, .cls-6, .cls-7 {
        stroke: #aab0a2;
        stroke-miterlimit: 10;
      }

      .cls-4, .cls-6, .cls-7 {
        stroke-width: 4px;
      }

      .cls-5 {
        fill: #c3c9b9;
      }

      .cls-10, .cls-11, .cls-6, .cls-7 {
        stroke-linecap: round;
        stroke-linejoin: round;
      }

      .cls-8 {
        fill: #aab0a2;
      }

      .cls-9 {
        fill: #91968a;
      }

      .cls-10, .cls-11 {
        stroke-width: 4.664px;
      }

      .cls-12 {
        fill: #1d2122;
      }

      .cls-13 {
        fill: #3d4245;
      }

      .cls-14 {
        fill: #a1004e;
      }

      .cls-15 {
        fill: #cf2661;
      }

      .cls-16 {
        fill: #530d3d;
      }

      .cls-17 {
        fill: #a03e72;
      }

      .cls-18 {
        fill: #e3e8eb;
      }

      .cls-19 {
        fill: #f1f1f1;
      }

      .cls-20 {
        fill: #212121;
      }

      .cls-21 {
        fill: #f5406d;
      }

      .cls-22, .cls-23 {
        fill: #fafafa;
      }

      .cls-23, .cls-24 {
        opacity: 0.67;
      }

      .cls-24 {
        fill: #fff;
      }

      .cls-25 {
        fill: #eee;
      }

      .cls-26 {
        fill: #e0e0e0;
      }

      .cls-27 {
        fill: #ff497a;
      }
    </style>
    <clipPath id="clip-Screen-5_2">
      <rect x="-2267" y="15363" width="1920" height="1200"/>
    </clipPath>
  </defs>
  <g id="Screen-5_2" data-name="Screen-5–2" class="cls-1">
    <rect id="Rectangle_84" data-name="Rectangle 84" class="cls-2" width="1980" height="481.121" transform="translate(-2292 16111)"/>
    <path id="Tracé_1142" data-name="Tracé 1142" class="cls-3" d="M1110.5,0C1723.812,0,2221,154.351,2221,344.753S1702.67,527.9,1089.357,527.9,0,535.155,0,344.753,497.188,0,1110.5,0Z" transform="translate(-2383 15863.451)"/>
    <path id="Tracé_1150" data-name="Tracé 1150" class="cls-3" d="M34.876,67.365s6.81-3.892-1.946-18.485c0,0-6.81-1.946,1.946-11.675,0,0,56.428-32.106,87.561-28.214,0,0,8.756,2.919,6.81,8.756s.973,10.7,7.783,15.566S123.41,64.446,123.41,64.446" transform="translate(-1776.02 15862.068)"/>
    <path id="Tracé_1143" data-name="Tracé 1143" class="cls-3" d="M667.4,50.4s7.589,1.946,11.48-14.594c0,0-3.5-6.129,9.534-7,0,0,62.849,16.247,82.5,40.765,0,0,4.281,8.172-1.167,10.994s-6.713,8.367-5.254,16.637-31.425,12.842-31.425,12.842" transform="translate(-1463.117 15867.665)"/>
    <ellipse id="Ellipse_146" data-name="Ellipse 146" class="cls-4" cx="19.458" cy="31.133" rx="19.458" ry="31.133" transform="translate(-1093.015 16060.383) rotate(-76.732)"/>
    <path id="Tracé_1151" data-name="Tracé 1151" class="cls-4" d="M163.694,222.313c2.14,10.507-9.826,21.793-26.657,25.2s-32.2-2.432-34.343-12.94,9.826-21.793,26.657-25.2S161.554,211.805,163.694,222.313Z" transform="translate(-1588.32 15836.692)"/>
    <ellipse id="Ellipse_147" data-name="Ellipse 147" class="cls-4" cx="15.08" cy="11.188" rx="15.08" ry="11.188" transform="translate(-1009.586 16072.917)"/>
    <ellipse id="Ellipse_151" data-name="Ellipse 151" class="cls-4" cx="9.243" cy="4.865" rx="9.243" ry="4.865" transform="translate(-1893.854 16133.064)"/>
    <ellipse id="Ellipse_148" data-name="Ellipse 148" class="cls-4" cx="17.999" cy="10.702" rx="17.999" ry="10.702" transform="translate(-1566.085 16069.999)"/>
    <ellipse id="Ellipse_149" data-name="Ellipse 149" class="cls-4" cx="11.675" cy="6.324" rx="11.675" ry="6.324" transform="translate(-900.621 16069.999)"/>
    <ellipse id="Ellipse_144" data-name="Ellipse 144" class="cls-4" cx="10.215" cy="4.378" rx="10.215" ry="4.378" transform="translate(-928.835 15909.469)"/>
    <ellipse id="Ellipse_152" data-name="Ellipse 152" class="cls-4" cx="17.999" cy="9.729" rx="17.999" ry="9.729" transform="translate(-1758.316 16190.141)"/>
    <ellipse id="Ellipse_150" data-name="Ellipse 150" class="cls-4" cx="14.594" cy="7.783" rx="14.594" ry="7.783" transform="translate(-1561.22 15936.711)"/>
    <ellipse id="Ellipse_153" data-name="Ellipse 153" class="cls-4" cx="7.783" cy="2.919" rx="7.783" ry="2.919" transform="translate(-1742.32 16160.953)"/>
    <ellipse id="Ellipse_145" data-name="Ellipse 145" class="cls-5" cx="76.373" cy="14.107" rx="76.373" ry="14.107" transform="translate(-1110.768 15891.958)"/>
    <path id="Tracé_1163" data-name="Tracé 1163" class="cls-6" d="M59.1,135.3c-8.172,9.632-.486,14.01,2.335,22.669,2.627,7.686-1.751,21.015-5.643,25.1,1.362.486,1.07-.292,1.654-.778" transform="translate(-1762.877 15837.906)"/>
    <path id="Tracé_1168" data-name="Tracé 1168" class="cls-6" d="M58.965,135.3c-7.875,9.282-.469,13.5,2.25,21.845,2.531,7.407-1.688,20.251-5.438,24.189,1.313.469,1.031-.281,1.594-.75" transform="translate(-2049.572 15863.443)"/>
    <path id="Tracé_1152" data-name="Tracé 1152" class="cls-6" d="M180.5,104.8c13.912,3.113,8.659,18,11.869,27.144,2.919,8.172,13.231,12.356,19.361,17.318" transform="translate(-1766.267 15838.732)"/>
    <path id="Tracé_1164" data-name="Tracé 1164" class="cls-6" d="M180.5,104.8c13.407,3,8.344,17.345,11.438,26.158,2.813,7.875,12.751,11.907,18.657,16.688" transform="translate(-2057.383 15865.348)"/>
    <path id="Tracé_1153" data-name="Tracé 1153" class="cls-7" d="M190.533,116.953c4.475,17.9-21.988,39.889-59.25,49.229-37.165,9.34-71.022,2.432-75.5-15.469s21.988-39.889,59.25-49.229S186.058,99.052,190.533,116.953Z" transform="translate(-1762.874 15838.934)"/>
    <path id="Tracé_1165" data-name="Tracé 1165" class="cls-7" d="M185.618,116.24c4.313,17.251-21.188,38.439-57.1,47.44-35.814,9-68.44,2.344-72.753-14.907s21.188-38.439,57.1-47.44S181.3,98.989,185.618,116.24Z" transform="translate(-2049.564 15865.815)"/>
    <path id="Tracé_1154" data-name="Tracé 1154" class="cls-8" d="M181.882,119.608c3.405,13.621-19.555,31.133-51.369,39.111s-60.32,3.405-63.822-10.118c-3.405-13.621,19.555-31.133,51.369-39.111S178.477,105.988,181.882,119.608Z" transform="translate(-1763.173 15838.711)"/>
    <path id="Tracé_1166" data-name="Tracé 1166" class="cls-8" d="M177.683,119.1c3.281,13.126-18.845,30-49.5,37.689s-58.127,3.281-61.5-9.75c-3.281-13.126,18.845-30,49.5-37.689S174.4,105.971,177.683,119.1Z" transform="translate(-2050.255 15865.302)"/>
    <path id="Tracé_1155" data-name="Tracé 1155" class="cls-9" d="M125.448,131.99C102.39,137.73,84,148.529,76.9,159.231c11.675,5.254,32.008,5.643,53.9.195,23.058-5.74,41.446-16.539,48.548-27.241C167.672,126.931,147.241,126.444,125.448,131.99Z" transform="translate(-1763.459 15838.102)"/>
    <path id="Tracé_1167" data-name="Tracé 1167" class="cls-9" d="M123.683,131.846c-22.22,5.532-39.939,15.938-46.783,26.251,11.25,5.063,30.845,5.438,51.94.188,22.22-5.531,39.939-15.938,46.783-26.251C164.372,126.971,144.684,126.5,123.683,131.846Z" transform="translate(-2050.912 15863.896)"/>
    <path id="Tracé_1144" data-name="Tracé 1144" class="cls-6" d="M600.812,118.6c-13.815,7.589-6.81,16.053-7.2,27.436-.389,10.021-11.286,23.739-17.512,26.755,1.459,1.167,1.362.1,2.238-.195" transform="translate(-1535.889 15844.5)"/>
    <path id="Tracé_1156" data-name="Tracé 1156" class="cls-6" d="M614.714,118.6c-21.587,11.858-10.642,25.084-11.25,42.87-.608,15.658-17.634,37.093-27.364,41.806,2.28,1.824,2.128.152,3.5-.3" transform="translate(-1401.601 16006.511)"/>
    <path id="Tracé_1157" data-name="Tracé 1157" class="cls-6" d="M756.1,136.3c14.788,9.729,2.238,24.712,1.946,36.873-.195,10.8,10.021,20.236,14.885,28.7" transform="translate(-1538.463 15839.413)"/>
    <path id="Tracé_1145" data-name="Tracé 1145" class="cls-7" d="M761.811,155.745c-2.627,22.766-43.2,36.776-90.674,31.327S587.369,158.761,590,135.995s43.2-36.776,90.674-31.327S764.438,132.979,761.811,155.745Z" transform="translate(-1533.959 15840.303)"/>
    <path id="Tracé_1158" data-name="Tracé 1158" class="cls-7" d="M853.82,183.7c-4.032,34.948-66.311,56.454-139.194,48.091s-128.59-43.461-124.558-78.409S656.379,96.933,729.262,105.3,857.852,148.757,853.82,183.7Z" transform="translate(-1390.545 15991.587)"/>
    <path id="Tracé_1146" data-name="Tracé 1146" class="cls-8" d="M750.706,154.958c-2.043,17.318-36.484,27.63-77.054,22.96s-71.8-22.474-69.854-39.889c2.043-17.318,36.484-27.63,77.054-22.96S752.652,137.64,750.706,154.958Z" transform="translate(-1534.334 15840.019)"/>
    <path id="Tracé_1159" data-name="Tracé 1159" class="cls-8" d="M829.362,176.9c-3.136,26.584-56.006,42.415-118.285,35.247s-110.22-34.5-107.233-61.233c3.136-26.584,56.006-42.415,118.285-35.246S832.349,150.319,829.362,176.9Z" transform="translate(-1383.711 15996.745)"/>
    <path id="Tracé_1160" data-name="Tracé 1160" class="cls-9" d="M677.281,142.942c-29.187-4.67-55.553-1.265-68.881,7.394,10.8,11.675,33.857,22.182,61.585,26.56,29.187,4.67,55.553,1.265,68.881-7.394C728.164,157.827,705.009,147.417,677.281,142.942Z" transform="translate(-1534.461 15839.291)"/>
    <path id="Tracé_1161" data-name="Tracé 1161" class="cls-9" d="M714.14,144.065c-44.805-7.169-85.279-1.942-105.74,11.351,16.578,17.922,51.974,34.052,94.538,40.772,44.8,7.169,85.279,1.942,105.74-11.351C792.25,166.915,756.7,150.935,714.14,144.065Z" transform="translate(-1381.397 16010.018)"/>
    <g id="Groupe_341" data-name="Groupe 341" transform="translate(-1364.933 16094.949)">
      <path id="Tracé_245" data-name="Tracé 245" class="cls-10" d="M297.08,154.6c-11.48,8.659-3.989,15.372-2.821,25.685,1.07,9.145-7,22.96-12.259,26.463,1.459.876,1.265-.1,2.043-.486" transform="translate(-282 -131.644)"/>
      <path id="Tracé_246" data-name="Tracé 246" class="cls-10" d="M439.6,149.9c14.691,6.81,5.254,22.085,6.713,33.079,1.265,9.826,11.772,16.928,17.318,23.933" transform="translate(-286.271 -131.516)"/>
      <path id="Tracé_247" data-name="Tracé 247" class="cls-11" d="M447.5,166.414c.681,20.917-34.149,39.013-77.735,40.473-43.586,1.362-79.486-14.4-80.167-35.316s34.149-39.013,77.735-40.473S446.821,145.5,447.5,166.414Z" transform="translate(-282.206 -131.004)"/>
      <path id="Tracé_248" data-name="Tracé 248" class="cls-8" d="M437.339,167.255c.486,15.956-29.284,29.868-66.546,31.036s-67.909-10.7-68.492-26.657c-.486-15.956,29.284-29.868,66.546-31.036C406.108,139.333,436.755,151.3,437.339,167.255Z" transform="translate(-282.55 -131.262)"/>
      <path id="Tracé_249" data-name="Tracé 249" class="cls-9" d="M369.629,172.8c-23.155-.681-43.294,4.573-52.829,12.745,9.632,7.978,28.6,13.815,50.591,14.4,23.155.681,43.294-4.573,52.829-12.745C410.588,179.219,391.616,173.479,369.629,172.8Z" transform="translate(-282.943 -132.135)"/>
    </g>
    <rect id="Rectangle_278" data-name="Rectangle 278" class="cls-2" width="626" height="83" rx="41.5" transform="translate(-2404 16290)"/>
    <rect id="Rectangle_279" data-name="Rectangle 279" class="cls-2" width="273" height="83" rx="41.5" transform="translate(-2404 16207)"/>
    <rect id="Rectangle_280" data-name="Rectangle 280" class="cls-2" width="182.4" height="55.117" rx="27.558" transform="translate(-510.811 16234.883)"/>
    <rect id="Rectangle_281" data-name="Rectangle 281" class="cls-2" width="273" height="83" rx="41.5" transform="translate(-2399 16124)"/>
    <rect id="Rectangle_282" data-name="Rectangle 282" class="cls-2" width="182.4" height="55.117" rx="27.558" transform="translate(-514.152 16179.766)"/>
    <rect id="Rectangle_283" data-name="Rectangle 283" class="cls-3" width="273" height="83" rx="41.5" transform="translate(-2213 16207)"/>
    <rect id="Rectangle_284" data-name="Rectangle 284" class="cls-3" width="182.4" height="55.117" rx="27.558" transform="translate(-638.424 16234.883)"/>
    <rect id="Rectangle_285" data-name="Rectangle 285" class="cls-2" width="626" height="84" rx="42" transform="translate(-1588 16290)"/>
    <rect id="Rectangle_286" data-name="Rectangle 286" class="cls-2" width="626" height="83" rx="41.5" transform="translate(-788 16290)"/>
    <rect id="Rectangle_292" data-name="Rectangle 292" class="cls-3" width="626" height="83" rx="41.5" transform="translate(-2020 16369)"/>
    <rect id="Rectangle_293" data-name="Rectangle 293" class="cls-3" width="626" height="83" rx="41.5" transform="translate(-1176 16369)"/>
    <rect id="Rectangle_294" data-name="Rectangle 294" class="cls-3" width="269" height="36" rx="18" transform="translate(-1630 16480)"/>
    <rect id="Rectangle_287" data-name="Rectangle 287" class="cls-3" width="246" height="33" rx="16.5" transform="translate(-2071 16316)"/>
    <rect id="Rectangle_288" data-name="Rectangle 288" class="cls-3" width="188" height="33" rx="16.5" transform="translate(-1332 16316)"/>
    <rect id="Rectangle_289" data-name="Rectangle 289" class="cls-3" width="188" height="33" rx="16.5" transform="translate(-525 16316)"/>
    <rect id="Rectangle_290" data-name="Rectangle 290" class="cls-3" width="35" height="33" rx="16.5" transform="translate(-1391 16315)"/>
    <rect id="Rectangle_295" data-name="Rectangle 295" class="cls-3" width="27.733" height="26.148" rx="13.074" transform="translate(-1101 16482)"/>
    <rect id="Rectangle_296" data-name="Rectangle 296" class="cls-3" width="46.75" height="26.148" rx="13.074" transform="translate(-1062.174 16482)"/>
    <rect id="Rectangle_291" data-name="Rectangle 291" class="cls-3" width="35" height="33" rx="16.5" transform="translate(-758 16315)"/>
    <rect id="Rectangle_297" data-name="Rectangle 297" class="cls-3" width="162" height="22" rx="11" transform="translate(-2233 16411)"/>
    <rect id="Rectangle_298" data-name="Rectangle 298" class="cls-3" width="112" height="16" rx="8" transform="translate(-1970 16482)"/>
    <rect id="Rectangle_299" data-name="Rectangle 299" class="cls-3" width="112" height="16" rx="8" transform="translate(-1667 16532)"/>
    <rect id="Rectangle_300" data-name="Rectangle 300" class="cls-3" width="182" height="16" rx="8" transform="translate(-2091 16518)"/>
    <rect id="Rectangle_301" data-name="Rectangle 301" class="cls-3" width="182" height="16" rx="8" transform="translate(-749 16540)"/>
    <rect id="Rectangle_302" data-name="Rectangle 302" class="cls-3" width="194" height="16" rx="8" transform="translate(-677 16482)"/>
    <rect id="Rectangle_303" data-name="Rectangle 303" class="cls-3" width="24" height="16" rx="8" transform="translate(-472 16482)"/>
    <path id="Tracé_1147" data-name="Tracé 1147" class="cls-2" d="M14473.6,9369.492l-67.011,22.459,55.9,14.031-16.583,22.989,42.393,16.455,14.847,57.241s38.076,9.121,42.575,8.749,38.868,0,38.868,0l20.662,22.756h81.857l73.039-35.284,69.146-18.25,20.146-26.832,43.6-14.469,30.675-5.633,22.213-27.723s-135.74-47.338-139.25-47.186S14473.6,9369.492,14473.6,9369.492Z" transform="translate(-15885.564 6481.463)"/>
    <path id="Intersection_2" data-name="Intersection 2" class="cls-12" d="M159.345,127.616,138.682,104.86s-34.368-.37-38.869,0-42.573-8.747-42.573-8.747L42.393,38.871,0,22.415,16.148.029,16.5,0,63.076,28.344s60.916-17.4,62.88-17.431,88.509,5.126,90.684,5.84,26.091,23.326,29.213,23.4,36.282,2.171,41.852,2.41c2.442.1,10.43-.627,18.847-1.36,10.786-.937,22.275-1.875,23.68-1.05,2.5,1.462,43.2,12.184,43.2,12.184s48.091-19.878,49.963-20.217,21.882-6.034,24.64-5.992c1.578.024,15.938.747,27.909,1.36l-28.8,5.289L403.533,47.25,383.387,74.082l-69.145,18.25L241.2,127.616Z" transform="translate(-1439.667 15888.019)"/>
    <rect id="Rectangle_267" data-name="Rectangle 267" class="cls-13" width="139.744" height="12.285" rx="6.143" transform="translate(-1180.745 15814.31)"/>
    <rect id="Rectangle_268" data-name="Rectangle 268" class="cls-13" width="89.836" height="12.285" rx="6.143" transform="translate(-1324.328 15834.273)"/>
    <rect id="Rectangle_269" data-name="Rectangle 269" class="cls-13" width="89.836" height="12.285" rx="6.143" transform="translate(-1325.096 15755.188)"/>
    <rect id="Rectangle_276" data-name="Rectangle 276" class="cls-13" width="89.836" height="12.285" rx="6.143" transform="translate(-1488.643 15779.758)"/>
    <rect id="Rectangle_270" data-name="Rectangle 270" class="cls-13" width="89.836" height="12.285" rx="6.143" transform="translate(-1018.734 15780.526)"/>
    <rect id="Rectangle_271" data-name="Rectangle 271" class="cls-13" width="78.318" height="12.285" rx="6.143" transform="translate(-1279.794 15774.383)"/>
    <rect id="Rectangle_272" data-name="Rectangle 272" class="cls-13" width="13.053" height="12.285" rx="6.143" transform="translate(-1196.101 15774.383)"/>
    <rect id="Rectangle_277" data-name="Rectangle 277" class="cls-13" width="42.998" height="12.285" rx="6.143" transform="translate(-1437.966 15813.542)"/>
    <rect id="Rectangle_273" data-name="Rectangle 273" class="cls-13" width="25.338" height="12.285" rx="6.143" transform="translate(-1387.29 15813.542)"/>
    <rect id="Rectangle_274" data-name="Rectangle 274" class="cls-13" width="99.817" height="27.642" rx="13.821" transform="translate(-1108.569 15840.416)"/>
    <rect id="Rectangle_275" data-name="Rectangle 275" class="cls-13" width="28.41" height="27.642" rx="13.821" transform="translate(-1001.842 15840.416)"/>
    <g id="Groupe_339" data-name="Groupe 339" transform="translate(-1359.647 15805.087)">
      <g id="Groupe_283" data-name="Groupe 283" transform="translate(0 0)">
        <g id="Groupe_276" data-name="Groupe 276" transform="translate(0 1.036)">
          <g id="Groupe_274" data-name="Groupe 274" transform="translate(0 12.064)">
            <path id="Tracé_1000" data-name="Tracé 1000" class="cls-14" d="M35.036,65.387A66.764,66.764,0,0,1,17.778,46.2,53.261,53.261,0,0,0,9.4,59.664,86.7,86.7,0,0,0,27.664,78.178C35.2,83.9,42.576,70.941,35.036,65.387Z" transform="translate(6.355 18.561)"/>
            <path id="Tracé_1001" data-name="Tracé 1001" class="cls-15" d="M17.763,16.774C20.611,7.685,6.369,3.814,3.688,12.9A82.281,82.281,0,0,0,15.919,85.947,53.261,53.261,0,0,1,24.3,72.483,69.451,69.451,0,0,1,17.763,16.774Z" transform="translate(0.003 -7.722)"/>
          </g>
          <g id="Groupe_275" data-name="Groupe 275" transform="translate(171.426)">
            <path id="Tracé_1002" data-name="Tracé 1002" class="cls-14" d="M104.473,65.365c-6.7,6.732,3.686,17.167,10.388,10.435A86.177,86.177,0,0,0,134.3,45.842,61.358,61.358,0,0,0,121.564,38.1,73.333,73.333,0,0,1,104.473,65.365Z" transform="translate(-102.308 25.093)"/>
            <path id="Tracé_1003" data-name="Tracé 1003" class="cls-15" d="M124.847,4.334c-4.021-8.584-16.756-1.01-12.734,7.405A69.377,69.377,0,0,1,115.3,63.746a57.271,57.271,0,0,1,12.734,7.742A85.309,85.309,0,0,0,124.847,4.334Z" transform="translate(-96.208 -0.554)"/>
          </g>
        </g>
        <path id="Tracé_1004" data-name="Tracé 1004" class="cls-15" d="M195.839,88.908c-2.513-15.147-11.729-29.622-25.3-36.69-6.367-3.366-13.572-5.217-18.6-10.267-4.189-4.376-6.032-10.267-8.88-15.652A50,50,0,0,0,109.548.884a49.68,49.68,0,0,0-40.884,10.1c-3.519,2.861-6.87,6.4-8.713,10.6-3.519,7.91-2.513,17.84-8.545,24.068-2.011,2.188-4.859,3.7-7.372,5.217-21.782,13.969-30.5,45.106-19.436,68.5,1.34,2.861,3.016,5.891,1.843,8.752-.67,1.851-2.513,3.029-4.021,4.376C6.334,145.29,2.145,169.357,9.517,188.544c14.912,38.71,64.006,49.987,101.2,51.333a245.8,245.8,0,0,0,45.91-3.029c15.248-2.525,30.5-4.544,44.9-10.435,12.567-5.049,24.3-13.128,32-24.4,7.2-10.6,16.253-26.424,7.54-39.047-3.184-4.713-8.88-6.9-13.907-9.257-10.221-4.713-20.107-11.445-25.3-21.711C195.5,118.866,198.185,103.382,195.839,88.908Z" transform="translate(4.059 0.062)"/>
        <path id="Tracé_1005" data-name="Tracé 1005" class="cls-14" d="M236.857,124.773c-3.184-4.713-8.88-6.9-13.907-9.257-10.221-4.713-20.107-11.445-25.3-21.711-5.864-11.613-4.189-25.246-5.529-38.205-2.011,26.087-19.6,51.165-42.727,61.6,13.237-1.515,32.338,1.515,23.458,19.187-17.593,35.344-66.017,48.64-104.219,44.264C48.692,178.8,29.423,173.582,12.5,164.157c19.939,27.939,61.493,36.691,93.831,37.7a245.8,245.8,0,0,0,45.91-3.029c15.248-2.525,30.5-4.544,44.9-10.435,12.567-5.049,24.3-13.128,32-24.4C236.354,153.217,245.4,137.4,236.857,124.773Z" transform="translate(8.449 38.082)"/>
        <g id="Groupe_278" data-name="Groupe 278" transform="translate(69.875 7.847)">
          <ellipse id="Ellipse_133" data-name="Ellipse 133" class="cls-16" cx="29.992" cy="31.305" rx="29.992" ry="31.305" transform="translate(0.168)"/>
          <ellipse id="Ellipse_134" data-name="Ellipse 134" class="cls-17" cx="29.992" cy="31.305" rx="29.992" ry="31.305" transform="translate(0.168 2.693)"/>
          <g id="Groupe_277" data-name="Groupe 277" transform="translate(0 2.356)">
            <path id="Tracé_1006" data-name="Tracé 1006" class="cls-18" d="M49.9,55.662A30.263,30.263,0,0,0,92.459,15.1C71.85,21.5,53.586,35.3,49.9,55.662Z" transform="translate(-36.16 0.216)"/>
            <path id="Tracé_1007" data-name="Tracé 1007" class="cls-19" d="M71.86,6A30.209,30.209,0,0,0,41.7,36.295,30.527,30.527,0,0,0,55.607,61.877C59.126,41.512,77.389,27.711,98,21.147A29.976,29.976,0,0,0,71.86,6Z" transform="translate(-41.7 -6)"/>
            <path id="Tracé_1037" data-name="Tracé 1037" class="cls-20" d="M18.674,0A18.542,18.542,0,0,1,37.265,18.607,18.739,18.739,0,0,1,18.592,37.3,18.542,18.542,0,0,1,0,18.689,18.739,18.739,0,0,1,18.674,0Z" transform="matrix(0.769, -0.639, 0.639, 0.769, 3.878, 27.857)"/>
            <path id="Tracé_1008" data-name="Tracé 1008" class="cls-15" d="M52.8,40.385a16.6,16.6,0,0,0,11.561,4.544A16.843,16.843,0,0,0,81.117,28.1,16.615,16.615,0,0,0,77.766,18C67.21,23.386,58.329,30.791,52.8,40.385Z" transform="translate(-34.201 2.197)"/>
            <path id="Tracé_1009" data-name="Tracé 1009" class="cls-21" d="M66.456,14A16.92,16.92,0,0,0,54.894,43.117c5.529-9.593,14.41-17,24.966-22.385A16.712,16.712,0,0,0,66.456,14Z" transform="translate(-36.296 -0.536)"/>
            <path id="Tracé_1010" data-name="Tracé 1010" class="cls-16" d="M71.8,22.139A9.753,9.753,0,0,0,63.753,18.1,10.106,10.106,0,0,0,53.7,28.2a9.693,9.693,0,0,0,3.184,7.237A10.069,10.069,0,0,0,73.807,28.03,10.381,10.381,0,0,0,71.8,22.139Z" transform="translate(-33.593 2.265)"/>
            <path id="Tracé_1011" data-name="Tracé 1011" class="cls-22" d="M64.6,20.593A9.551,9.551,0,1,1,55.051,11,9.567,9.567,0,0,1,64.6,20.593Z" transform="translate(-39.133 -2.585)"/>
            <path id="Tracé_1012" data-name="Tracé 1012" class="cls-23" d="M72.378,33.808A4.189,4.189,0,1,1,68.189,29.6,4.157,4.157,0,0,1,72.378,33.808Z" transform="translate(-26.635 10.12)"/>
            <path id="Tracé_1013" data-name="Tracé 1013" class="cls-24" d="M52.175,13.9a4.306,4.306,0,1,0,0,8.584C56.866,22.484,56.866,13.9,52.175,13.9Z" transform="translate(-37.765 -0.604)"/>
            <path id="Tracé_1014" data-name="Tracé 1014" class="cls-24" d="M68.209,31.839c-.168-.168-.335-.337-.5-.337a1.516,1.516,0,0,0-1.676,0c-.168.168-.335.168-.5.337a1.905,1.905,0,0,0-.5,1.851,1.817,1.817,0,0,0,1.843,1.346,1.842,1.842,0,0,0,1.676-1.01,2.4,2.4,0,0,0,.335-1.01A2.14,2.14,0,0,0,68.209,31.839Z" transform="translate(-25.985 11.247)"/>
          </g>
        </g>
        <path id="Tracé_1015" data-name="Tracé 1015" class="cls-20" d="M131.827,81.009a47.712,47.712,0,0,1-10.556,11.781c-18.431,14.643-45.743,12.623-67.357,4.376-9.048-3.366-18.6-7.91-23.29-16.326a29.046,29.046,0,0,1-3.184-9.762,48.247,48.247,0,0,1-.168-17c.67-4.208,1.843-8.415,4.692-11.613s7.372-5.049,11.226-3.534c3.184,1.178,5.194,4.208,7.372,6.732l1.508,1.515a33.512,33.512,0,0,0,10.388,7.069,27.152,27.152,0,0,0,6.535,2.188c1.676.337,3.351.673,5.027.842a38.124,38.124,0,0,0,6.2,0,39.646,39.646,0,0,0,6.2-1.01A42.182,42.182,0,0,0,96.64,52.061a23.446,23.446,0,0,0,2.681-1.683c.168,0,.168-.168.335-.168,3.184-2.356,6.2-5.049,9.383-7.405a11.265,11.265,0,0,1,1.843-1.178c4.189-2.525,9.216-4.208,13.907-2.693,3.686,1.178,6.535,4.376,8.21,7.742a32.664,32.664,0,0,1,2.681,11.276C136.518,65.694,136.183,74.277,131.827,81.009Z" transform="translate(17.972 26.306)"/>
        <g id="Groupe_279" data-name="Groupe 279" transform="translate(68.534 73.654)">
          <path id="Tracé_1016" data-name="Tracé 1016" class="cls-25" d="M41.57,45.8c-.335,1.851-.5,3.871-.67,5.722a6.569,6.569,0,0,0,.335,2.525c.838,1.683,3.016,1.851,4.692,1.851a38.127,38.127,0,0,0,4.189-.337,3.145,3.145,0,0,0,1.34-.337,1.546,1.546,0,0,0,.67-1.01A28.286,28.286,0,0,1,41.57,45.8Z" transform="translate(-40.9 -42.266)"/>
          <path id="Tracé_1017" data-name="Tracé 1017" class="cls-26" d="M52.459,50.769A33.512,33.512,0,0,1,42.07,43.7a26.236,26.236,0,0,0-.67,3.534A28.286,28.286,0,0,0,51.956,55.65a2.506,2.506,0,0,0,.168-1.178A27.644,27.644,0,0,1,52.459,50.769Z" transform="translate(-40.562 -43.7)"/>
          <path id="Tracé_1018" data-name="Tracé 1018" class="cls-22" d="M43.874,46.7c-.335-.337-.67-.337-1.173,0-1.34,1.01-.5,3.534-.335,5.049a.939.939,0,0,0,1.843,0C44.544,50.405,45.215,47.712,43.874,46.7Z" transform="translate(-40.188 -41.822)"/>
        </g>
        <g id="Groupe_280" data-name="Groupe 280" transform="translate(86.295 82.742)">
          <path id="Tracé_1019" data-name="Tracé 1019" class="cls-25" d="M52.505,53,51.5,52.5v.337a6.569,6.569,0,0,0,.335,2.525c.838,1.683,3.016,1.851,4.692,1.851a38.126,38.126,0,0,0,4.189-.337,3.145,3.145,0,0,0,1.34-.337,2.457,2.457,0,0,0,.838-2.02v-.673A44.019,44.019,0,0,1,52.505,53Z" transform="translate(-51.5 -46.778)"/>
          <path id="Tracé_1020" data-name="Tracé 1020" class="cls-26" d="M57.2,49.942A26.141,26.141,0,0,1,52.17,49.1c-.335,1.851-.5,3.7-.67,5.722l1.005.5a43.325,43.325,0,0,0,10.388.842,39.013,39.013,0,0,0,.5-6.227A38.122,38.122,0,0,1,57.2,49.942Z" transform="translate(-51.5 -49.1)"/>
          <path id="Tracé_1021" data-name="Tracé 1021" class="cls-22" d="M54.374,50.2c-.335-.337-.67-.337-1.173,0-1.34,1.01-.5,3.534-.335,5.049a.939.939,0,0,0,1.843,0C55.044,53.905,55.715,51.212,54.374,50.2Z" transform="translate(-50.856 -48.519)"/>
        </g>
        <g id="Groupe_281" data-name="Groupe 281" transform="translate(104.391 78.198)">
          <path id="Tracé_1022" data-name="Tracé 1022" class="cls-25" d="M62.468,55.349a5.5,5.5,0,0,0,.67,2.356c1.005,1.515,3.184,1.346,5.027,1.01a17.609,17.609,0,0,0,4.021-1.01c.5-.168,1.005-.337,1.173-.673a3.064,3.064,0,0,0,.5-2.188,41.449,41.449,0,0,0-.335-4.544A44.808,44.808,0,0,1,62.3,54.339,2.512,2.512,0,0,1,62.468,55.349Z" transform="translate(-62.3 -43.736)"/>
          <path id="Tracé_1023" data-name="Tracé 1023" class="cls-26" d="M72.521,46.4A38.567,38.567,0,0,1,62.3,50.608a43.087,43.087,0,0,0,.335,6.564,44.808,44.808,0,0,0,11.226-4.039c-.335-2.188-.838-4.544-1.34-6.732Z" transform="translate(-62.3 -46.4)"/>
          <path id="Tracé_1024" data-name="Tracé 1024" class="cls-22" d="M64.709,50.345c-.335-.168-.838-.168-1.005.168-1.173,1.178,0,3.7.5,5.049a.975.975,0,0,0,1.843-.337C65.882,53.879,66.217,51.186,64.709,50.345Z" transform="translate(-61.693 -43.781)"/>
        </g>
        <g id="Groupe_282" data-name="Groupe 282" transform="translate(117.461 68.773)">
          <path id="Tracé_1025" data-name="Tracé 1025" class="cls-26" d="M81.494,47.027c-.335-1.851-.67-3.871-1.173-5.722-.335-.168-.5-.337-.838-.5-3.184,2.356-6.2,5.049-9.383,7.405a22.53,22.53,0,0,0,.5,4.713,8.36,8.36,0,0,0,.67,2.188A42.471,42.471,0,0,0,81.494,47.027Z" transform="translate(-70.1 -40.8)"/>
          <path id="Tracé_1026" data-name="Tracé 1026" class="cls-25" d="M81.021,44.5A47.867,47.867,0,0,1,70.8,52.747a.165.165,0,0,0,.168.168c1.005,1.346,3.184,1.346,5.027,1.01l4.021-1.01c.5-.168,1.005-.337,1.173-.673a3.064,3.064,0,0,0,.5-2.188C81.524,48.2,81.356,46.351,81.021,44.5Z" transform="translate(-69.627 -38.273)"/>
          <path id="Tracé_1027" data-name="Tracé 1027" class="cls-22" d="M72.6,45.145c-.335-.168-.838-.168-1.005.168-1.173,1.346.168,3.7.5,5.049a1,1,0,0,0,1.843-.337C73.936,48.679,74.1,45.986,72.6,45.145Z" transform="translate(-69.412 -37.908)"/>
        </g>
        <path id="Tracé_1028" data-name="Tracé 1028" class="cls-14" d="M87.6,81.807c-6.87,1.851-13.572,3.2-20.777,2.861-7.875-.337-14.745-3.366-22.285-5.049a1.791,1.791,0,0,0-2.011,2.693c9.383,15.147,34.516,15.652,47.921,6.4C93.971,86.351,91.793,80.629,87.6,81.807Z" transform="translate(28.517 54.456)"/>
        <path id="Tracé_1029" data-name="Tracé 1029" class="cls-27" d="M69.337,45.892c-7.037.5-15.918,3.2-21.447-2.693a.849.849,0,0,0-1.34,1.01c4.859,8.584,15.08,8.415,23.29,5.049C71.347,48.753,71.347,45.892,69.337,45.892Z" transform="translate(31.368 29.445)"/>
        <path id="Tracé_1030" data-name="Tracé 1030" class="cls-27" d="M89.874,15.794C85.517,10.408,79.485,5.022,72.448,3.508a.9.9,0,0,0-.838,1.515C76.3,9.9,81.329,13.774,85.182,19.328A41.535,41.535,0,0,1,89.371,26.9c1.508,2.861,1.676,5.891,4.021,8.247a2.482,2.482,0,0,0,4.021-1.01C99.089,28.08,93.56,20,89.874,15.794Z" transform="translate(48.196 2.488)"/>
        <path id="Tracé_1031" data-name="Tracé 1031" class="cls-27" d="M97.476,31.3c-1.676-.168-2.346,2.356-.838,3.2,6.7,3.534,12.567,6.9,17.091,13.128,4.021,5.386,4.859,11.95,7.54,17.84,1.005,2.02,4.356,1.515,4.692-.673C129.48,49.144,111.886,32.65,97.476,31.3Z" transform="translate(64.721 21.481)"/>
        <path id="Tracé_1032" data-name="Tracé 1032" class="cls-27" d="M116.2,54.931a2.2,2.2,0,0,0-2.011-.5c-.838.168-1.173.842-1.508,1.515a4.9,4.9,0,0,0,0,2.693,2.9,2.9,0,0,0,1.676,2.02,1.545,1.545,0,0,0,2.011-.337,2.593,2.593,0,0,0,1.005-2.356A5.256,5.256,0,0,0,116.2,54.931Z" transform="translate(75.994 37.237)"/>
        <path id="Tracé_1033" data-name="Tracé 1033" class="cls-27" d="M38.363,31.062C26.466,35.606,17.251,49.239,19.429,62.2c0,.337.5.337.67,0,4.021-11.781,9.383-20.533,19.6-28.107C41.211,33.082,40.374,30.221,38.363,31.062Z" transform="translate(12.913 21.217)"/>
        <path id="Tracé_1034" data-name="Tracé 1034" class="cls-27" d="M38.611,18.048a25.447,25.447,0,0,0-1.005,6.059c-.168,1.01,1.34,1.01,1.676.168a25.815,25.815,0,0,0,1.173-6.059C40.454,17.207,38.946,17.207,38.611,18.048Z" transform="translate(25.4 12.015)"/>
        <path id="Tracé_1035" data-name="Tracé 1035" class="cls-27" d="M19.632,82.463c0-.337-.168-.5-.5-.337C8.406,87.176,7.4,103.838,9.579,113.768c.5,2.356,4.524,1.851,4.356-.5a59.254,59.254,0,0,1,1.34-16.326C16.449,92.057,18.962,87.344,19.632,82.463Z" transform="translate(5.841 56.156)"/>
        <path id="Tracé_1036" data-name="Tracé 1036" class="cls-15" d="M158.157,110.368c-7.2-14.138-29.49-11.613-35.354-27.265-.168-.337-.5-.337-.5,0,.335,17.335,21.112,22.553,33.511,29.622A1.732,1.732,0,0,0,158.157,110.368Z" transform="translate(82.625 56.695)"/>
      </g>
    </g>
    <path id="Tracé_1162" data-name="Tracé 1162" class="cls-3" d="M14531.49,9545.7l67.476,10.547,61.861,11.586,37.852-11.586,36.013,6.8s37.164-11.071,40.062-13.006,28.686-14.7,28.686-14.7l39.114,10.361-94.025,65.645s-127.639,13.8-130.843,12.486-88.572-31.706-91.539-36.913S14531.49,9545.7,14531.49,9545.7Z" transform="translate(-15913.175 6440.476)"/>
  </g>
</svg>
