<svg xmlns="http://www.w3.org/2000/svg" xmlns:xlink="http://www.w3.org/1999/xlink" viewBox="-4300 15363 1920 1200">
  <defs>
    <style>
      .cls-1 {
        clip-path: url(#clip-Screen-5_3);
      }

      .cls-2 {
        fill: #ffcd50;
      }

      .cls-3 {
        fill: #fcf09d;
      }

      .cls-4 {
        fill: #c9a84e;
      }

      .cls-5 {
        fill: #ffdf4d;
      }

      .cls-6 {
        fill: #fff;
      }

      .cls-7 {
        fill: none;
        stroke: #707070;
      }

      .cls-8 {
        fill: #f2d9a2;
      }

      .cls-9 {
        fill: #f47a58;
      }

      .cls-10 {
        fill: #cc9e87;
      }

      .cls-11 {
        fill: #ba5d54;
        opacity: 0.42;
      }

      .cls-12 {
        fill: #ffc;
      }

      .cls-13 {
        fill: #e5ddae;
      }

      .cls-14 {
        fill: #aa951b;
        opacity: 0.35;
      }
    </style>
    <clipPath id="clip-Screen-5_3">
      <rect x="-4300" y="15363" width="1920" height="1200"/>
    </clipPath>
  </defs>
  <g id="Screen-5_3" data-name="Screen-5–3" class="cls-1">
    <g id="Groupe_337" data-name="Groupe 337" transform="translate(-2930.955 15460.981)">
      <path id="Tracé_278" data-name="Tracé 278" class="cls-2" d="M79.99,68.805C93.372,62.553,105.767,47.964,99.4,24.6A182.077,182.077,0,0,1,68.033,43.138,184.923,184.923,0,0,1,33.7,55.313C48.179,73.193,66.607,75.058,79.99,68.805Z" transform="translate(3.265 2.382)"/>
      <path id="Tracé_279" data-name="Tracé 279" class="cls-3" d="M91.19,14.255c.329.329.548.768.878,1.1,10.969-2.742,18.647-2.742,20.183.548,1.645,3.51-4.059,9.982-14.26,17.112A175.772,175.772,0,0,1,71.774,47.82a179.969,179.969,0,0,1-28.191,10.53c-11.956,3.181-20.622,3.4-22.267-.11-1.536-3.291,3.4-9.214,12.5-15.905l-.329-1.316c-13.931,9.433-22.048,18.1-19.964,22.6,2.3,4.936,15.905,3.729,34.114-2.194A210.029,210.029,0,0,0,73.42,51.111,248.853,248.853,0,0,0,97.881,37.948c16.125-10.092,25.777-19.854,23.584-24.68C119.271,8.77,107.424,9.429,91.19,14.255Z" transform="translate(1.279 0.99)"/>
      <path id="Tracé_280" data-name="Tracé 280" class="cls-4" d="M93.566,12.382a18.609,18.609,0,0,1,1.1,1.536c14.589-3.62,34.991-8.775,37.076-4.278,2.194,4.717-5.375,13.273-18.867,22.816A255.5,255.5,0,0,1,77.88,52.09a235.768,235.768,0,0,1-37.514,14.04c-15.905,4.278-27.423,4.607-29.617-.11-1.974-4.388,10.311-14.7,22.377-23.584-.11-.548-.329-1.207-.439-1.755C14.04,53.077-2.524,67.008.328,73.041c3.071,6.472,21.17,4.936,45.3-2.852A289.917,289.917,0,0,0,79.964,56.478a284.658,284.658,0,0,0,32.468-17.551c21.5-13.492,34.333-26.436,31.372-32.907C140.952-.013,115.065,6.02,93.566,12.382Z" transform="translate(0 0.34)"/>
      <path id="Tracé_281" data-name="Tracé 281" class="cls-4" d="M91.533,15.792c.329.439.548.878.878,1.316,3.839-.219,6.362.329,7.02,1.865.768,1.645-.548,4.059-3.4,7.02C90.985,31.039,81,37.511,68.827,43.214s-23.474,9.214-30.713,9.762c-4.059.329-6.8-.219-7.569-1.865-.768-1.536.439-3.839,3.071-6.581A8.08,8.08,0,0,1,33.178,43c-6.472,5.155-9.762,9.653-8.556,12.285,1.316,2.742,7.459,2.962,16.234.987,8.117-1.755,18.318-5.375,29.178-10.421A147.538,147.538,0,0,0,96.8,30.161c7.13-5.485,10.969-10.311,9.653-13.053C105.245,14.366,99.65,14.146,91.533,15.792Z" transform="translate(2.362 1.428)"/>
      <path id="Tracé_282" data-name="Tracé 282" class="cls-5" d="M98.187,21.169a29.548,29.548,0,0,0-1.755-3.181c-.329-.548-.658-.987-.987-1.536l-.658-.987L93.8,14.148A36.535,36.535,0,0,0,49.375,3.508a.107.107,0,0,0-.11.11h0A36.645,36.645,0,0,0,28.972,44.533c.11.548.219.987.329,1.536.11.439.219.768.329,1.207.219.548.329,1.1.548,1.645.439,1.1.878,2.3,1.426,3.4A33.624,33.624,0,0,0,33.8,56.27c7.788-.878,19.2-4.388,31.481-9.872h0c1.1-.548,2.3-.987,3.4-1.536,4.278-1.974,8.337-4.059,12.066-6.143a108.426,108.426,0,0,0,17.88-12.176,12.009,12.009,0,0,0,1.207-1.1A34.232,34.232,0,0,0,98.187,21.169Z" transform="translate(2.728 0)"/>
      <path id="Tracé_283" data-name="Tracé 283" class="cls-5" d="M47.949,18A33.465,33.465,0,0,1,52.007,2.2a26.793,26.793,0,0,0-2.633,1.1.107.107,0,0,0-.11.11h0A36.645,36.645,0,0,0,28.972,44.321c.11.548.219.987.329,1.536.11.439.219.768.329,1.207.219.548.329,1.1.548,1.645.439,1.1.878,2.3,1.426,3.4A33.624,33.624,0,0,0,33.8,56.058c7.678-.878,18.867-4.278,31.043-9.653A32.244,32.244,0,0,1,47.949,18Z" transform="translate(2.728 0.211)"/>
      <path id="Tracé_284" data-name="Tracé 284" class="cls-6" d="M119.788,58.2l1.426,2.742,2.962.439-2.194,2.194.548,2.962-2.742-1.426-2.633,1.426.439-2.962L115.4,61.381l3.071-.439Z" transform="translate(11.183 5.638)"/>
    </g>
    <line id="Ligne_21" data-name="Ligne 21" class="cls-7" y1="110" transform="translate(-2866.5 15363.5)"/>
    <g id="Groupe_340" data-name="Groupe 340" transform="translate(-3640.074 15425.598)">
      <path id="Tracé_285" data-name="Tracé 285" class="cls-8" d="M120.782,44.741A342.27,342.27,0,0,0,22.47,27,69.082,69.082,0,0,0,17,46.071c44.795,5.47,89.59,11.975,134.089,19.663a65.093,65.093,0,0,0,.887-10.792c0-2.07-.148-3.992-.3-5.914C141.628,52.133,130.835,48.141,120.782,44.741Z" transform="translate(8.132 12.916)"/>
      <path id="Tracé_286" data-name="Tracé 286" class="cls-9" d="M17,53.8a69.843,69.843,0,0,0,3.7,14.784C40.063,65.92,56.325,71.242,75.84,71.39c10.2,0,20.7.148,30.307,3.252,5.322,1.774,10.2,4.287,15.375,6.5,5.322,2.218,14.192-1.331,19.81,0a71.37,71.37,0,0,0,4.731-8.722c-10.5-4.287-24.541-14.488-56.77-20.845C53.812,44.483,27.644,50.4,17,53.8Z" transform="translate(8.132 23.079)"/>
      <path id="Tracé_287" data-name="Tracé 287" class="cls-10" d="M17.191,40.088a57.055,57.055,0,0,0-.591,8.87,60.281,60.281,0,0,0,.591,9.018C27.836,54.724,54,48.811,89.484,55.759c32.377,6.209,46.273,16.558,56.77,20.845A70.5,70.5,0,0,0,151.281,59.9C126.887,55.759,102.2,44.08,77.657,40.532,57.4,37.427,37.445,42.6,17.191,40.088Z" transform="translate(7.941 18.899)"/>
      <path id="Tracé_288" data-name="Tracé 288" class="cls-9" d="M140.449,25.84c-27.941-4.287-56.622,6.061-84.563,1.478A108.133,108.133,0,0,1,28.24,18.3,62.39,62.39,0,0,0,20.7,31.162,342.448,342.448,0,0,1,119.012,49.05c10.053,3.4,20.845,7.244,30.9,4.139a67.281,67.281,0,0,0-8.279-27.054A2.785,2.785,0,0,0,140.449,25.84Z" transform="translate(9.903 8.754)"/>
      <path id="Tracé_289" data-name="Tracé 289" class="cls-8" d="M102.528,18.088C85.97,15.575,69.264,11.731,54.333,3.9c-.148-.148-.444-.148-.591-.3A69.679,69.679,0,0,0,25.8,25.332,108.133,108.133,0,0,0,53.446,34.35c27.941,4.583,56.622-5.766,84.563-1.478.444,0,.739.148,1.183.148a61.27,61.27,0,0,0-8.427-11.827C121.3,20.6,111.842,19.567,102.528,18.088Z" transform="translate(12.342 1.722)"/>
      <path id="Tracé_290" data-name="Tracé 290" class="cls-10" d="M71.015,0A68.012,68.012,0,0,0,44.7,5.322c.148.148.444.148.591.3,14.932,7.835,31.49,11.679,48.2,14.192,9.462,1.478,18.775,2.513,28.385,3.1A68.189,68.189,0,0,0,71.015,0Z" transform="translate(21.384)"/>
      <path id="Tracé_291" data-name="Tracé 291" class="cls-9" d="M28.5,81.8A66.616,66.616,0,0,0,46.388,95.847a97.913,97.913,0,0,1,51.3,5.47,66.31,66.31,0,0,0,20.993-10.349C114.394,65.835,50.084,54.6,28.5,81.8Z" transform="translate(13.634 31.59)"/>
      <path id="Tracé_292" data-name="Tracé 292" class="cls-10" d="M40.6,86.506c9.757,6.209,18.923,7.983,32.377,8.279A62.313,62.313,0,0,0,91.9,92.124,96.649,96.649,0,0,0,40.6,86.506Z" transform="translate(19.422 40.783)"/>
      <path id="Tracé_293" data-name="Tracé 293" class="cls-8" d="M43.935,64.064A31.656,31.656,0,0,1,36.1,67.021c4.583,2.07,4.287,3.252,9.609,3.252A24.011,24.011,0,0,0,56.8,67.612S48.075,61.847,43.935,64.064Z" transform="translate(17.27 30.404)"/>
      <path id="Tracé_294" data-name="Tracé 294" class="cls-8" d="M51.094,72.287c-9.462,0-11.088-1.478-16.114-4.287L23.3,70.513a67.111,67.111,0,0,0,7.688,10.349c9.609-3.252,21.584.148,40.951-4.435,15.967-3.844,39.621,5.322,49.23,13.6a88.03,88.03,0,0,0,7.983-6.8c-7.244-3.1-24.245-11.827-56.918-14.932A59.876,59.876,0,0,1,51.094,72.287Z" transform="translate(11.146 32.53)"/>
      <path id="Tracé_295" data-name="Tracé 295" class="cls-8" d="M48.772,64.43c6.061-3.4,16.854,1.183,23.506,4.583h0c34.89,3.548,56.918,12.566,62.979,15.375a75.218,75.218,0,0,0,5.027-6.948,106.278,106.278,0,0,1-16.41-5.322c-5.174-2.218-10.053-4.731-15.375-6.5-9.757-3.1-20.106-3.252-30.307-3.252-11.088,0-16.706-12.271-35.186-4.287a93.13,93.13,0,0,1-23.506,6.8,73.866,73.866,0,0,0,3.1,7.1l9.166-1.183A54.9,54.9,0,0,0,48.772,64.43Z" transform="translate(9.328 26.49)"/>
      <path id="Tracé_296" data-name="Tracé 296" class="cls-8" d="M43.935,64.064A31.656,31.656,0,0,1,36.1,67.021c4.583,2.07,4.287,3.252,9.609,3.252A24.011,24.011,0,0,0,56.8,67.612S48.075,61.847,43.935,64.064Z" transform="translate(17.27 30.404)"/>
      <path id="Tracé_297" data-name="Tracé 297" class="cls-10" d="M71.226,66.577h0c-6.653-3.548-17.3-7.983-23.506-4.583a68.652,68.652,0,0,1-16.854,6.5L21.7,69.682c.739,1.478,1.626,2.957,2.365,4.287l11.679-2.513c5.027,2.809,6.8,4.287,16.114,4.287A56.221,56.221,0,0,0,73,71.6c32.82,3.1,49.821,11.827,56.918,14.932,1.478-1.478,2.957-3.1,4.287-4.731C128.144,79.143,106.116,70.125,71.226,66.577ZM52.746,71.6c-5.47,0-5.027-1.183-9.609-3.252a31.656,31.656,0,0,0,7.835-2.957c4.139-2.218,12.862,3.548,12.862,3.548A24.011,24.011,0,0,1,52.746,71.6Z" transform="translate(10.381 29.074)"/>
      <path id="Tracé_298" data-name="Tracé 298" class="cls-11" d="M62.034,43.664A67.865,67.865,0,0,1,77.557.2,72.685,72.685,0,0,0,58.043,5.079,69.679,69.679,0,0,0,30.1,26.811a62.39,62.39,0,0,0-7.54,12.862,69.082,69.082,0,0,0-5.47,19.071,57.055,57.055,0,0,0-.591,8.87,67.272,67.272,0,0,0,4.287,23.8A69.005,69.005,0,0,0,34.093,113.3a66.617,66.617,0,0,0,17.888,14.045c9.757,6.209,19.219,7.983,32.377,8.279a57.4,57.4,0,0,0,18.923-2.661,66.31,66.31,0,0,0,20.993-10.349,62.736,62.736,0,0,0,11.236-10.5c-1.478,0-3.252.148-4.879.148A68.646,68.646,0,0,1,62.034,43.664Z" transform="translate(7.893 0.096)"/>
      <path id="Tracé_299" data-name="Tracé 299" class="cls-6" d="M5.914,18.1l1.774,3.7,4.139.591L8.87,25.2l.591,4.139L5.914,27.414l-3.7,1.922L2.957,25.2,0,22.387,3.992,21.8Z" transform="translate(0 8.659)"/>
      <path id="Tracé_300" data-name="Tracé 300" class="cls-12" d="M114.5,11.366l8.575.887L128.692,5.6l1.774,8.575,7.983,3.252-7.392,4.287-.739,8.575-6.357-5.766-8.427,2.07,3.548-7.835Z" transform="translate(54.775 2.679)"/>
    </g>
    <line id="Ligne_22" data-name="Ligne 22" class="cls-7" y1="62.441" transform="translate(-3546.79 15363.5)"/>
    <g id="Groupe_338" data-name="Groupe 338" transform="translate(-3165.002 15607.34)">
      <path id="Tracé_265" data-name="Tracé 265" class="cls-13" d="M97.647,0C43.581,0,0,45.219,0,100.923S43.581,201.847,97.647,201.847s97.647-45.219,97.647-100.923S151.385,0,97.647,0Z" transform="translate(0 0)"/>
      <path id="Tracé_266" data-name="Tracé 266" class="cls-14" d="M42.224,36.4C35.67,36.4,30.1,40.987,30.1,46.558s5.57,10.158,12.124,10.158,12.124-4.587,12.124-10.158S48.777,36.4,42.224,36.4Z" transform="translate(68.53 82.873)"/>
      <path id="Tracé_267" data-name="Tracé 267" class="cls-14" d="M28.855,53.781c-1.311-2.621-3.6-3.6-5.57-2.621s-2.621,3.932-1.311,6.226c1.311,2.621,3.6,3.6,5.57,2.621C29.183,59.024,29.838,56.4,28.855,53.781Z" transform="translate(48.476 115.626)"/>
      <path id="Tracé_268" data-name="Tracé 268" class="cls-14" d="M24.024,35.6C17.47,35.6,11.9,40.187,11.9,45.758s5.57,10.158,12.124,10.158,12.124-4.587,12.124-10.158S30.905,35.6,24.024,35.6Z" transform="translate(27.093 81.052)"/>
      <path id="Tracé_269" data-name="Tracé 269" class="cls-14" d="M42.224,7.3C35.67,7.3,30.1,11.887,30.1,17.458s5.57,10.158,12.124,10.158,12.124-4.587,12.124-10.158S48.777,7.3,42.224,7.3Z" transform="translate(68.53 16.62)"/>
      <path id="Tracé_270" data-name="Tracé 270" class="cls-14" d="M15.657,12.872c-3.932,4.26-4.915,10.158-1.966,13.107s8.52,1.966,12.779-2.294c3.932-4.26,4.915-10.158,1.966-13.107C25.16,7.629,19.59,8.612,15.657,12.872Z" transform="translate(27.268 20.223)"/>
      <path id="Tracé_271" data-name="Tracé 271" class="cls-14" d="M41.443,53.421c-3.6,1.966-5.57,5.57-4.26,8.192s5.243,3.277,8.847,1.638c3.6-1.966,5.57-5.57,4.26-8.192S45.047,51.782,41.443,53.421Z" transform="translate(83.728 119.591)"/>
      <path id="Tracé_272" data-name="Tracé 272" class="cls-14" d="M47.843,27.721c-3.6,1.966-5.57,5.57-4.26,8.192s5.243,3.277,8.847,1.638c3.6-1.966,5.57-5.57,4.26-8.192S51.447,25.755,47.843,27.721Z" transform="translate(98.299 60.751)"/>
      <path id="Tracé_273" data-name="Tracé 273" class="cls-14" d="M51.343,42.681c-3.6,1.966-5.57,5.57-4.26,8.192s5.243,3.277,8.847,1.638c3.6-1.966,5.57-5.57,4.26-8.192C59.207,41.37,54.947,40.715,51.343,42.681Z" transform="translate(106.268 94.614)"/>
      <path id="Tracé_274" data-name="Tracé 274" class="cls-14" d="M35.406,22.121c-3.6-1.638-7.536-.983-8.847,1.638s.983,6.226,4.587,7.864,7.536.983,8.847-1.638S39.338,23.759,35.406,22.121Z" transform="translate(59.619 48.329)"/>
      <path id="Tracé_275" data-name="Tracé 275" class="cls-14" d="M52.706,13.721c-3.6-1.638-7.536-.983-8.847,1.638s.983,6.226,4.587,7.864,7.536.983,8.847-1.638C58.277,19.291,56.31,15.687,52.706,13.721Z" transform="translate(99.007 29.205)"/>
      <path id="Tracé_276" data-name="Tracé 276" class="cls-14" d="M14.706,25.821c-3.6-1.638-7.536-.983-8.847,1.638s.983,6.226,4.587,7.864,7.536.983,8.847-1.638C20.277,31.063,18.31,27.459,14.706,25.821Z" transform="translate(12.491 56.753)"/>
      <path id="Tracé_277" data-name="Tracé 277" class="cls-14" d="M75.037,70.45A103.882,103.882,0,0,1,102.234.328C100.6.328,98.957,0,97.319,0,43.581,0,0,45.219,0,100.923S43.581,201.847,97.647,201.847a96.272,96.272,0,0,0,69.467-29.818C115.669,168.1,75.037,124.188,75.037,70.45Z" transform="translate(0 0)"/>
    </g>
  </g>
</svg>
