<svg xmlns="http://www.w3.org/2000/svg" xmlns:xlink="http://www.w3.org/1999/xlink" viewBox="-4350 15363 1920 1622.605">
  <defs>
    <style>
      .cls-1 {
        clip-path: url(#clip-Screen_2-1_3);
      }

      .cls-2 {
        fill: #ffcd50;
      }

      .cls-3 {
        fill: #fcf09d;
      }

      .cls-4 {
        fill: #c9a84e;
      }

      .cls-5 {
        fill: #ffdf4d;
      }

      .cls-6 {
        fill: #fff;
      }

      .cls-7 {
        fill: none;
        stroke: #707070;
      }

      .cls-8 {
        fill: #f2d9a2;
      }

      .cls-9 {
        fill: #f47a58;
      }

      .cls-10 {
        fill: #cc9e87;
      }

      .cls-11 {
        fill: #ba5d54;
        opacity: 0.42;
      }

      .cls-12 {
        fill: #ffc;
      }

      .cls-13 {
        fill: #a1e4ff;
      }

      .cls-14 {
        fill: #60ba25;
      }

      .cls-15 {
        fill: #e5ddae;
      }

      .cls-16 {
        fill: #aa951b;
        opacity: 0.35;
      }
    </style>
    <clipPath id="clip-Screen_2-1_3">
      <rect x="-4350" y="15363" width="1920" height="1622.605"/>
    </clipPath>
  </defs>
  <g id="Screen_2-1_3" data-name="Screen 2-1 – 3" class="cls-1">
    <g id="Groupe_337" data-name="Groupe 337" transform="translate(-2980.955 15460.981)">
      <path id="Tracé_278" data-name="Tracé 278" class="cls-2" d="M79.99,68.805C93.372,62.553,105.767,47.964,99.4,24.6A182.077,182.077,0,0,1,68.033,43.138,184.923,184.923,0,0,1,33.7,55.313C48.179,73.193,66.607,75.058,79.99,68.805Z" transform="translate(3.265 2.382)"/>
      <path id="Tracé_279" data-name="Tracé 279" class="cls-3" d="M91.19,14.255c.329.329.548.768.878,1.1,10.969-2.742,18.647-2.742,20.183.548,1.645,3.51-4.059,9.982-14.26,17.112A175.772,175.772,0,0,1,71.774,47.82a179.969,179.969,0,0,1-28.191,10.53c-11.956,3.181-20.622,3.4-22.267-.11-1.536-3.291,3.4-9.214,12.5-15.905l-.329-1.316c-13.931,9.433-22.048,18.1-19.964,22.6,2.3,4.936,15.905,3.729,34.114-2.194A210.029,210.029,0,0,0,73.42,51.111,248.853,248.853,0,0,0,97.881,37.948c16.125-10.092,25.777-19.854,23.584-24.68C119.271,8.77,107.424,9.429,91.19,14.255Z" transform="translate(1.279 0.99)"/>
      <path id="Tracé_280" data-name="Tracé 280" class="cls-4" d="M93.566,12.382a18.609,18.609,0,0,1,1.1,1.536c14.589-3.62,34.991-8.775,37.076-4.278,2.194,4.717-5.375,13.273-18.867,22.816A255.5,255.5,0,0,1,77.88,52.09a235.768,235.768,0,0,1-37.514,14.04c-15.905,4.278-27.423,4.607-29.617-.11-1.974-4.388,10.311-14.7,22.377-23.584-.11-.548-.329-1.207-.439-1.755C14.04,53.077-2.524,67.008.328,73.041c3.071,6.472,21.17,4.936,45.3-2.852A289.917,289.917,0,0,0,79.964,56.478a284.658,284.658,0,0,0,32.468-17.551c21.5-13.492,34.333-26.436,31.372-32.907C140.952-.013,115.065,6.02,93.566,12.382Z" transform="translate(0 0.34)"/>
      <path id="Tracé_281" data-name="Tracé 281" class="cls-4" d="M91.533,15.792c.329.439.548.878.878,1.316,3.839-.219,6.362.329,7.02,1.865.768,1.645-.548,4.059-3.4,7.02C90.985,31.039,81,37.511,68.827,43.214s-23.474,9.214-30.713,9.762c-4.059.329-6.8-.219-7.569-1.865-.768-1.536.439-3.839,3.071-6.581A8.08,8.08,0,0,1,33.178,43c-6.472,5.155-9.762,9.653-8.556,12.285,1.316,2.742,7.459,2.962,16.234.987,8.117-1.755,18.318-5.375,29.178-10.421A147.538,147.538,0,0,0,96.8,30.161c7.13-5.485,10.969-10.311,9.653-13.053C105.245,14.366,99.65,14.146,91.533,15.792Z" transform="translate(2.362 1.428)"/>
      <path id="Tracé_282" data-name="Tracé 282" class="cls-5" d="M98.187,21.169a29.548,29.548,0,0,0-1.755-3.181c-.329-.548-.658-.987-.987-1.536l-.658-.987L93.8,14.148A36.535,36.535,0,0,0,49.375,3.508a.107.107,0,0,0-.11.11h0A36.645,36.645,0,0,0,28.972,44.533c.11.548.219.987.329,1.536.11.439.219.768.329,1.207.219.548.329,1.1.548,1.645.439,1.1.878,2.3,1.426,3.4A33.624,33.624,0,0,0,33.8,56.27c7.788-.878,19.2-4.388,31.481-9.872h0c1.1-.548,2.3-.987,3.4-1.536,4.278-1.974,8.337-4.059,12.066-6.143a108.426,108.426,0,0,0,17.88-12.176,12.009,12.009,0,0,0,1.207-1.1A34.232,34.232,0,0,0,98.187,21.169Z" transform="translate(2.728 0)"/>
      <path id="Tracé_283" data-name="Tracé 283" class="cls-5" d="M47.949,18A33.465,33.465,0,0,1,52.007,2.2a26.793,26.793,0,0,0-2.633,1.1.107.107,0,0,0-.11.11h0A36.645,36.645,0,0,0,28.972,44.321c.11.548.219.987.329,1.536.11.439.219.768.329,1.207.219.548.329,1.1.548,1.645.439,1.1.878,2.3,1.426,3.4A33.624,33.624,0,0,0,33.8,56.058c7.678-.878,18.867-4.278,31.043-9.653A32.244,32.244,0,0,1,47.949,18Z" transform="translate(2.728 0.211)"/>
      <path id="Tracé_284" data-name="Tracé 284" class="cls-6" d="M119.788,58.2l1.426,2.742,2.962.439-2.194,2.194.548,2.962-2.742-1.426-2.633,1.426.439-2.962L115.4,61.381l3.071-.439Z" transform="translate(11.183 5.638)"/>
    </g>
    <line id="Ligne_21" data-name="Ligne 21" class="cls-7" y1="110" transform="translate(-2916.5 15363.5)"/>
    <g id="Groupe_340" data-name="Groupe 340" transform="translate(-3802.451 15454)">
      <path id="Tracé_285" data-name="Tracé 285" class="cls-8" d="M168.25,52.855A498.817,498.817,0,0,0,24.972,27,100.679,100.679,0,0,0,17,54.794C82.283,62.766,147.567,72.246,212.419,83.45a94.865,94.865,0,0,0,1.293-15.728c0-3.016-.215-5.817-.431-8.618C198.63,63.628,182.9,57.81,168.25,52.855Z" transform="translate(19.628 31.173)"/>
      <path id="Tracé_286" data-name="Tracé 286" class="cls-9" d="M17,56.338a101.787,101.787,0,0,0,5.386,21.546c28.225-3.878,51.925,3.878,80.365,4.094,14.867,0,30.164.215,44.169,4.74,7.756,2.585,14.867,6.248,22.407,9.48,7.756,3.232,20.684-1.939,28.871,0a104.019,104.019,0,0,0,6.895-12.712c-15.3-6.248-35.766-21.115-82.735-30.379C70.649,42.764,32.513,51.382,17,56.338Z" transform="translate(19.628 55.7)"/>
      <path id="Tracé_287" data-name="Tracé 287" class="cls-10" d="M17.462,40.355A83.151,83.151,0,0,0,16.6,53.282a87.852,87.852,0,0,0,.862,13.143c15.513-4.74,53.649-13.358,105.358-3.232,47.185,9.049,67.438,24.131,82.735,30.379a102.742,102.742,0,0,0,7.326-24.347c-35.55-6.033-71.532-23.054-107.3-28.225C76.066,36.477,46.979,44.018,17.462,40.355Z" transform="translate(19.166 45.612)"/>
      <path id="Tracé_288" data-name="Tracé 288" class="cls-9" d="M195.22,29.288C154.5,23.04,112.7,38.122,71.979,31.443c-14-2.37-27.363-7.11-40.29-13.143A90.926,90.926,0,0,0,20.7,37.045a499.077,499.077,0,0,1,143.279,26.07c14.651,4.955,30.379,10.557,45.03,6.033a98.054,98.054,0,0,0-12.066-39.429A4.059,4.059,0,0,0,195.22,29.288Z" transform="translate(23.899 21.129)"/>
      <path id="Tracé_289" data-name="Tracé 289" class="cls-8" d="M137.622,24.715C113.491,21.052,89.144,15.45,67.383,4.031c-.215-.215-.646-.215-.862-.431A101.548,101.548,0,0,0,25.8,35.272C38.727,41.3,52.086,46.045,66.09,48.415c40.721,6.679,82.52-8.4,123.241-2.155.646,0,1.077.215,1.724.215a89.293,89.293,0,0,0-12.281-17.237C164.985,28.378,151.2,26.869,137.622,24.715Z" transform="translate(29.788 4.156)"/>
      <path id="Tracé_290" data-name="Tracé 290" class="cls-10" d="M83.051,0A99.119,99.119,0,0,0,44.7,7.756c.215.215.646.215.862.431C67.323,19.607,91.454,25.208,115.8,28.871c13.789,2.155,27.363,3.663,41.368,4.525A99.378,99.378,0,0,0,83.051,0Z" transform="translate(51.609)"/>
      <path id="Tracé_291" data-name="Tracé 291" class="cls-9" d="M28.5,89.013a97.085,97.085,0,0,0,26.07,20.468,142.7,142.7,0,0,1,74.763,7.972,96.639,96.639,0,0,0,30.595-15.082C153.68,65.744,59.957,49.369,28.5,89.013Z" transform="translate(32.905 76.242)"/>
      <path id="Tracé_292" data-name="Tracé 292" class="cls-10" d="M40.6,87.08c14.22,9.049,27.578,11.635,47.185,12.066a90.815,90.815,0,0,0,27.578-3.878A140.854,140.854,0,0,0,40.6,87.08Z" transform="translate(46.875 98.428)"/>
      <path id="Tracé_293" data-name="Tracé 293" class="cls-8" d="M47.519,64.3A46.135,46.135,0,0,1,36.1,68.606c6.679,3.016,6.248,4.74,14,4.74a34.992,34.992,0,0,0,16.159-3.878S53.552,61.065,47.519,64.3Z" transform="translate(41.68 73.38)"/>
      <path id="Tracé_294" data-name="Tracé 294" class="cls-8" d="M63.806,74.248c-13.789,0-16.159-2.155-23.485-6.248L23.3,71.663A97.806,97.806,0,0,0,34.5,86.745c14-4.74,31.457.215,59.681-6.464,23.269-5.6,57.742,7.756,71.747,19.822a128.3,128.3,0,0,0,11.635-9.911c-10.557-4.525-35.335-17.237-82.951-21.761A87.263,87.263,0,0,1,63.806,74.248Z" transform="translate(26.901 78.51)"/>
      <path id="Tracé_295" data-name="Tracé 295" class="cls-8" d="M62.16,68.572c8.834-4.955,24.562,1.724,34.258,6.679h0c50.848,5.171,82.951,18.314,91.784,22.407a109.618,109.618,0,0,0,7.326-10.126,154.888,154.888,0,0,1-23.916-7.756c-7.541-3.232-14.651-6.895-22.408-9.48-14.22-4.525-29.3-4.74-44.169-4.74-16.159,0-24.347-17.883-51.279-6.248C42.338,64.048,31.781,67.5,19.5,69.219a107.651,107.651,0,0,0,4.525,10.342l13.358-1.724C40.83,77.406,50.957,74.821,62.16,68.572Z" transform="translate(22.514 63.933)"/>
      <path id="Tracé_296" data-name="Tracé 296" class="cls-8" d="M47.519,64.3A46.135,46.135,0,0,1,36.1,68.606c6.679,3.016,6.248,4.74,14,4.74a34.992,34.992,0,0,0,16.159-3.878S53.552,61.065,47.519,64.3Z" transform="translate(41.68 73.38)"/>
      <path id="Tracé_297" data-name="Tracé 297" class="cls-10" d="M93.878,69.23h0C84.182,64.059,68.67,57.6,59.62,62.551a100.051,100.051,0,0,1-24.562,9.48L21.7,73.755c1.077,2.155,2.37,4.309,3.447,6.248L42.168,76.34c7.326,4.094,9.911,6.248,23.485,6.248a81.935,81.935,0,0,0,30.81-6.033c47.831,4.525,72.609,17.237,82.951,21.761,2.155-2.155,4.309-4.525,6.248-6.895C176.829,87.544,144.726,74.4,93.878,69.23ZM66.946,76.555c-7.972,0-7.326-1.724-14-4.74A46.135,46.135,0,0,0,64.36,67.506c6.033-3.232,18.745,5.171,18.745,5.171A34.993,34.993,0,0,1,66.946,76.555Z" transform="translate(25.054 70.17)"/>
      <path id="Tracé_298" data-name="Tracé 298" class="cls-11" d="M82.861,63.544A98.905,98.905,0,0,1,105.484.2a105.93,105.93,0,0,0-28.44,7.11A101.548,101.548,0,0,0,36.322,38.982,90.926,90.926,0,0,0,25.334,57.727a100.679,100.679,0,0,0-7.972,27.794A83.151,83.151,0,0,0,16.5,98.448a98.04,98.04,0,0,0,6.248,34.688,100.567,100.567,0,0,0,19.391,31.888,97.086,97.086,0,0,0,26.07,20.468c14.22,9.049,28.009,11.635,47.185,12.066a83.653,83.653,0,0,0,27.578-3.878A96.639,96.639,0,0,0,173.568,178.6a91.43,91.43,0,0,0,16.375-15.3c-2.155,0-4.74.215-7.11.215A100.044,100.044,0,0,1,82.861,63.544Z" transform="translate(19.05 0.231)"/>
      <path id="Tracé_299" data-name="Tracé 299" class="cls-6" d="M8.618,18.1,11.2,23.486l6.033.862-4.309,4.094.862,6.033-5.171-2.8-5.386,2.8,1.077-6.033L0,24.348l5.817-.862Z" transform="translate(0 20.898)"/>
      <path id="Tracé_300" data-name="Tracé 300" class="cls-12" d="M114.5,14,127,15.3l8.187-9.7,2.585,12.5,11.635,4.74-10.773,6.248-1.077,12.5-9.265-8.4-12.281,3.016,5.171-11.419Z" transform="translate(132.198 6.466)"/>
    </g>
    <g id="Groupe_342" data-name="Groupe 342" transform="translate(-3987.982 15432.959)">
      <circle id="Ellipse_67" data-name="Ellipse 67" class="cls-13" cx="49.5" cy="49.5" r="49.5" transform="translate(-20.018 50.044) rotate(-45)"/>
      <path id="Tracé_301" data-name="Tracé 301" class="cls-14" d="M50,0a50,50,0,1,0,50,50A50.018,50.018,0,0,0,50,0Zm0,97.4a47.338,47.338,0,0,1-24.2-88,3.173,3.173,0,0,0,2,.6s.9,0-4.9,4.5-5.3,10.8-3.4,6.9c1.8-4,3.4-2.5.5,3.1s1.5,3.8,3,7.3c1.5,3.4,2.1-.7,2.8,5.8a4.644,4.644,0,0,0,5.1,1.1c3.3-1.1-.5,2.9-4,6.2-3.4,3.3-2.4,4.3-.5,6.3,1.8,2,2.5,3.6.9,5.8s2.5,2.9,3.6,4.2.9,5.4-1.6,7.3c-2.5,1.8,1.3,5.8.7,11.4-.5,5.6-.4,8,2.2,8.3,2.6.4-.3-4.9.7-7.3,1.1-2.4,2.4,1.6,4.9-4.7,0,0,4.5,1.1,6.5-5.8,0,0,4-.5,4.7-2.7s-.2-3.6,5.6-8.3-4-8.3-9.2-8.5c0,0-1.9.8,1.5-5.3,1.5-2.6-2.9-2-4-4.3-1.1-2.4-3.6-5.1-8.7-4.5-5.1.5-6.5,2.4-6.7-.7s2.2-4.5-.4-4.9c-2.5-.4-1.3-.5,1.5-3.1a2.626,2.626,0,0,0-3.3.5c-1.6,1.6-4.5-.9-1.1-4.5,3.5-3.6,8.9-6.4,8.5.5s2.2-3.1,2.2-3.1,3.8-4.9,8.5-5.2c4.7-.4,1.8-.5,1.8-2.2,0-1.6,2.2,2.7,4.8,1.6s-2.8-1.5-2.3-3.3,3.6-1.3,4.9,1.1,2.7-1.3-.5-5.1c-3.3-3.8-2.7-1.4-5.8.2s-1.8,2.5-2.4-.2c-.5-2.7-.7.2-2.2-1.3s2.6-.8,4.7-.5c2.2.2,1.6-1.3,1.6-1.3l2-.9s1.4,2,3,1.6-1.1-2.9.5-2.5,3.8-1.1,4,1.1-1.3,5.1,4.7,1.8a15.176,15.176,0,0,1,2.6-1.3c.4.1.8.3,1.2.4A1.9,1.9,0,0,0,66.9,7c2.4,1.4,1.6.2,4.7,2s1.1,3.8,3.4,4.2c2.4.4,4.5,3.6,2.7,3.8s-2-2-4.7-2.4,1.1.9,2.9,2.5,1.8,3.6,0,4.3c-1.8.8-.5,4.9,2.5,4.4s1.9-3.6,3.5-2.9,1.1,2.5,3.8,3.6-.4,2.5,2.9,2.7,4.9,1.5,2,2.7c-2.9,1.3-1.4,2.4-4-.7-2.5-3.1-2.3-.1-2.5-3.1s-4.3-.2-6.5.2-.4,2.5-2.4,2.9-2.9-.2-2.4,4.5-.7,5.8-2.9,5.8,1.8,2.5,2.9,5.8,1.3,5.3,6,4,3.3-1.3,3.8,1.3c.5,2.5,2.5-1.5,2.9,1.1.4,2.5-4.5,3.1-1.8,4.7s.7,5.4-.5,6.3c-1.3.9-.4,4.2-3.1,5.6-2.7,1.5,1.3,4-.4,5.6-1.6,1.6-6,3.6-4.4,7.6s1.6,1.6,5.1-1.3c3.4-2.9,6.3-7.8,8-7.6a1.863,1.863,0,0,1,1.2.9A46.628,46.628,0,0,1,50,97.4Z"/>
      <path id="Tracé_302" data-name="Tracé 302" class="cls-13" d="M75.4,74.2A49.538,49.538,0,0,1,30.1,4.7,49.486,49.486,0,1,0,95.3,69.9,47.076,47.076,0,0,1,75.4,74.2Z"/>
    </g>
    <line id="Ligne_23" data-name="Ligne 23" class="cls-7" y1="87" transform="translate(-3933.5 15363.5)"/>
    <line id="Ligne_22" data-name="Ligne 22" class="cls-7" y1="91" transform="translate(-3666.5 15363.5)"/>
    <g id="Groupe_338" data-name="Groupe 338" transform="translate(-3215.002 15607.34)">
      <path id="Tracé_265" data-name="Tracé 265" class="cls-15" d="M97.647,0C43.581,0,0,45.219,0,100.923S43.581,201.847,97.647,201.847s97.647-45.219,97.647-100.923S151.385,0,97.647,0Z" transform="translate(0 0)"/>
      <path id="Tracé_266" data-name="Tracé 266" class="cls-16" d="M42.224,36.4C35.67,36.4,30.1,40.987,30.1,46.558s5.57,10.158,12.124,10.158,12.124-4.587,12.124-10.158S48.777,36.4,42.224,36.4Z" transform="translate(68.53 82.873)"/>
      <path id="Tracé_267" data-name="Tracé 267" class="cls-16" d="M28.855,53.781c-1.311-2.621-3.6-3.6-5.57-2.621s-2.621,3.932-1.311,6.226c1.311,2.621,3.6,3.6,5.57,2.621C29.183,59.024,29.838,56.4,28.855,53.781Z" transform="translate(48.476 115.626)"/>
      <path id="Tracé_268" data-name="Tracé 268" class="cls-16" d="M24.024,35.6C17.47,35.6,11.9,40.187,11.9,45.758s5.57,10.158,12.124,10.158,12.124-4.587,12.124-10.158S30.905,35.6,24.024,35.6Z" transform="translate(27.093 81.052)"/>
      <path id="Tracé_269" data-name="Tracé 269" class="cls-16" d="M42.224,7.3C35.67,7.3,30.1,11.887,30.1,17.458s5.57,10.158,12.124,10.158,12.124-4.587,12.124-10.158S48.777,7.3,42.224,7.3Z" transform="translate(68.53 16.62)"/>
      <path id="Tracé_270" data-name="Tracé 270" class="cls-16" d="M15.657,12.872c-3.932,4.26-4.915,10.158-1.966,13.107s8.52,1.966,12.779-2.294c3.932-4.26,4.915-10.158,1.966-13.107C25.16,7.629,19.59,8.612,15.657,12.872Z" transform="translate(27.268 20.223)"/>
      <path id="Tracé_271" data-name="Tracé 271" class="cls-16" d="M41.443,53.421c-3.6,1.966-5.57,5.57-4.26,8.192s5.243,3.277,8.847,1.638c3.6-1.966,5.57-5.57,4.26-8.192S45.047,51.782,41.443,53.421Z" transform="translate(83.728 119.591)"/>
      <path id="Tracé_272" data-name="Tracé 272" class="cls-16" d="M47.843,27.721c-3.6,1.966-5.57,5.57-4.26,8.192s5.243,3.277,8.847,1.638c3.6-1.966,5.57-5.57,4.26-8.192S51.447,25.755,47.843,27.721Z" transform="translate(98.299 60.751)"/>
      <path id="Tracé_273" data-name="Tracé 273" class="cls-16" d="M51.343,42.681c-3.6,1.966-5.57,5.57-4.26,8.192s5.243,3.277,8.847,1.638c3.6-1.966,5.57-5.57,4.26-8.192C59.207,41.37,54.947,40.715,51.343,42.681Z" transform="translate(106.268 94.614)"/>
      <path id="Tracé_274" data-name="Tracé 274" class="cls-16" d="M35.406,22.121c-3.6-1.638-7.536-.983-8.847,1.638s.983,6.226,4.587,7.864,7.536.983,8.847-1.638S39.338,23.759,35.406,22.121Z" transform="translate(59.619 48.329)"/>
      <path id="Tracé_275" data-name="Tracé 275" class="cls-16" d="M52.706,13.721c-3.6-1.638-7.536-.983-8.847,1.638s.983,6.226,4.587,7.864,7.536.983,8.847-1.638C58.277,19.291,56.31,15.687,52.706,13.721Z" transform="translate(99.007 29.205)"/>
      <path id="Tracé_276" data-name="Tracé 276" class="cls-16" d="M14.706,25.821c-3.6-1.638-7.536-.983-8.847,1.638s.983,6.226,4.587,7.864,7.536.983,8.847-1.638C20.277,31.063,18.31,27.459,14.706,25.821Z" transform="translate(12.491 56.753)"/>
      <path id="Tracé_277" data-name="Tracé 277" class="cls-16" d="M75.037,70.45A103.882,103.882,0,0,1,102.234.328C100.6.328,98.957,0,97.319,0,43.581,0,0,45.219,0,100.923S43.581,201.847,97.647,201.847a96.272,96.272,0,0,0,69.467-29.818C115.669,168.1,75.037,124.188,75.037,70.45Z" transform="translate(0 0)"/>
    </g>
  </g>
</svg>
