<svg xmlns="http://www.w3.org/2000/svg" xmlns:xlink="http://www.w3.org/1999/xlink" viewBox="-4169 4302 1920 1200">
  <defs>
    <style>
      .cls-1 {
        clip-path: url(#clip-Screen_1-3);
      }

      .cls-2 {
        fill: #26292b;
      }

      .cls-3 {
        fill: #a51c56;
      }

      .cls-4 {
        fill: #ffd451;
      }

      .cls-5 {
        fill: #ffca28;
      }

      .cls-6 {
        fill: #de337c;
      }

      .cls-7 {
        fill: #3949ab;
      }

      .cls-8 {
        fill: #283593;
      }

      .cls-9 {
        fill: #7d89cd;
      }

      .cls-10 {
        fill: #e3e8eb;
      }

      .cls-11 {
        fill: #f1f1f1;
      }

      .cls-12 {
        fill: #212121;
      }

      .cls-13 {
        fill: #ffb74d;
      }

      .cls-14 {
        fill: #ffe0b2;
      }

      .cls-15 {
        fill: #263238;
      }

      .cls-16, .cls-17 {
        fill: #fafafa;
      }

      .cls-17, .cls-18 {
        opacity: 0.67;
      }

      .cls-18, .cls-21 {
        fill: #fff;
      }

      .cls-19 {
        fill: none;
        stroke: #fff;
        stroke-width: 13px;
      }

      .cls-20 {
        fill: #d7df23;
        fill-rule: evenodd;
      }
    </style>
    <clipPath id="clip-Screen_1-3">
      <rect x="-4169" y="4302" width="1920" height="1200"/>
    </clipPath>
  </defs>
  <g id="Screen_1-3" data-name="Screen 1-3" class="cls-1">
    <g id="Groupe_290" data-name="Groupe 290" transform="translate(-3138.821 4855.393)">
      <ellipse id="Ellipse_16" data-name="Ellipse 16" class="cls-2" cx="146.138" cy="24.724" rx="146.138" ry="24.724" transform="translate(37.075 395.274)"/>
      <g id="Groupe_18" data-name="Groupe 18" transform="translate(0 0)">
        <g id="Groupe_10" data-name="Groupe 10" transform="translate(0)">
          <path id="Tracé_1" data-name="Tracé 1" class="cls-3" d="M42.817,161.438c-15.393-5.3-16.4-22.459-11.86-35.581,5.552-15.646,21.7-26.5,34.824-35.329,10.346-7.066.757-23.973-9.842-16.907C36,87.248,17.078,102.389,10.265,126.614c-6.056,22.207,5.552,46.18,27.254,53.5,12.113,4.038,17.16-14.636,5.3-18.674Z" transform="translate(13.174 109.583)"/>
          <path id="Tracé_2" data-name="Tracé 2" class="cls-3" d="M152.091,180.112c20.693-7.066,32.3-29.02,28.011-50.47-5.3-25.739-25.487-42.142-46.18-56.021-10.6-7.066-20.188,9.842-9.842,16.907,12.87,8.58,25.235,17.917,33.058,31.8,7.318,12.87,6.056,33.562-10.094,39.114-12.113,4.038-7.066,22.711,5.047,18.674Z" transform="translate(182.24 109.583)"/>
          <g id="Groupe_5" data-name="Groupe 5">
            <g id="Groupe_3" data-name="Groupe 3">
              <path id="Tracé_3" data-name="Tracé 3" class="cls-4" d="M13.422,85.8c32.048,9.842,65.106,15.393,98.416,18.169A71.315,71.315,0,0,1,129.5,64.853c-5.047-6.309-97.154,7.823-102.453-6.813-3.785-10.6-5.8-51.731-2.776-58.04a360.375,360.375,0,0,0-21.7,59.806Q1.436,64.349.3,69.648C1.814,77.218,5.347,83.275,13.422,85.8Z" transform="translate(0.427)"/>
              <path id="Tracé_4" data-name="Tracé 4" class="cls-5" d="M13.861,43.75C5.786,41.227,2.253,35.17.991,27.6-.27,34.666-.523,41.984,1.5,48.293,4.777,58.386,13.609,59.9,23.7,60.91A796.33,796.33,0,0,1,112.025,75.8a85,85,0,0,1,.252-13.879C78.967,59.143,45.909,53.592,13.861,43.75Z" transform="translate(-0.012 42.048)"/>
            </g>
            <g id="Groupe_4" data-name="Groupe 4" transform="translate(253.075)">
              <path id="Tracé_5" data-name="Tracé 5" class="cls-4" d="M216.38,85.8c-32.048,9.842-65.106,15.393-98.416,18.169A71.315,71.315,0,0,0,100.3,64.853c5.047-6.309,97.154,7.823,102.453-6.813,3.785-10.6,5.8-51.731,2.776-58.04a360.378,360.378,0,0,1,21.7,59.806q1.136,4.542,2.271,9.842C227.988,77.218,224.455,83.275,216.38,85.8Z" transform="translate(-100.3)"/>
              <path id="Tracé_6" data-name="Tracé 6" class="cls-5" d="M205.716,43.75c8.075-2.523,11.608-8.58,12.87-16.15,1.262,7.066,1.514,14.384-.5,20.693C214.8,58.386,205.968,59.9,195.874,60.91A796.329,796.329,0,0,0,107.552,75.8a85,85,0,0,0-.252-13.879C140.862,59.143,173.92,53.592,205.716,43.75Z" transform="translate(-89.636 42.048)"/>
            </g>
          </g>
          <path id="Tracé_7" data-name="Tracé 7" class="cls-6" d="M311.05,147.494A105.513,105.513,0,0,0,282.535,94a14.617,14.617,0,0,1,9.842.5A65.637,65.637,0,0,0,268.4,70.023c6.056-.252,12.113-.5,17.917-.5a151.672,151.672,0,0,0-61.825-26.244c3.533-2.523,7.318-5.047,10.851-7.57-16.15-3.028-32.553-10.346-48.7-6.561,6.309-6.309,8.327-10.6,22.459-12.617-14.888-11.1-45.927,7.57-45.927,7.57C153.332,20.31,139.958,8.45,129.359,8.7a12.881,12.881,0,0,1,5.552,8.832c-19.178.5-38.357.757-57.535,1.262,17.412.757,19.936,4.542,27,19.683-15.646.5-32.3,7.57-47.189,13.374,2.019,1.514,19.683,7.066,21.954,5.552a190.922,190.922,0,0,0-49.208,44.161,1.314,1.314,0,0,0,1.514,2.019L42.3,98.538c1.262-.5,2.271.757,1.514,2.019a179.6,179.6,0,0,0-26.5,57.788,1.353,1.353,0,0,0,2.271,1.262,109.967,109.967,0,0,1,17.16-15.141,1.314,1.314,0,0,1,2.019,1.514A162.573,162.573,0,0,0,28.42,202.758a1.247,1.247,0,0,0,2.271.757,27.547,27.547,0,0,0,3.281-4.29,1.34,1.34,0,0,1,2.523.5A196.8,196.8,0,0,0,48.1,260.293c.5,1.262,2.523,1.009,2.523-.252.252-1.514,2.271-1.766,2.523-.252A182.684,182.684,0,0,0,74.6,315.557a1.344,1.344,0,0,0,2.523-.757v-3.028a1.311,1.311,0,0,1,2.523-.5c5.552,15.9,12.113,31.543,18.926,46.684,2.271-4.795,3.785-9.842,5.8-14.889a63.744,63.744,0,0,1,7.066,13.627,241.1,241.1,0,0,1,10.851-28.263,1.43,1.43,0,0,1,2.523,0c1.009,3.28,75.2-.5,76.209,2.776,3.281,9.589,7.823,18.674,11.608,27.758,1.262-5.8.252-12.365,5.3-16.15a39.828,39.828,0,0,1,7.318,14.131c4.542-12.617,9.337-25.487,14.636-37.852.5,5.3,1.009,10.6,1.514,15.646a155.981,155.981,0,0,0,31.8-66.367,22.666,22.666,0,0,1,7.066,10.851,264.549,264.549,0,0,0,9.589-67.124c3.785,2.019,7.823,4.038,11.608,5.8a251.362,251.362,0,0,0-6.561-78.985A123.312,123.312,0,0,0,311.05,147.494Z" transform="translate(26.31 13.252)"/>
          <path id="Tracé_8" data-name="Tracé 8" class="cls-7" d="M135.681,67.813,134.166,61c-.5,1.766-1.262,3.281-1.766,5.047A20.859,20.859,0,0,0,135.681,67.813Z" transform="translate(201.679 92.932)"/>
          <path id="Tracé_9" data-name="Tracé 9" class="cls-3" d="M253.355,149.875c3.785-7.823,3.785-17.664,3.785-27.254-9.842,13.627-13.627,31.291-25.487,44.918,0-7.823,3.785-15.646,2.019-23.468-15.646,9.842-17.664,27.254-27.254,41.133-3.785-5.8,0-11.608-2.019-17.664-11.608,17.664-17.664,39.114-37.1,48.7-2.019-13.627,3.785-27.254-3.785-41.133-5.8,13.627-11.608,27.254-21.45,37.1,0-9.842-3.785-17.664-7.823-25.487,2.019,3.785-3.785,9.842-2.019,13.627-9.842-13.627-21.45-23.468-31.291-37.1,0,7.823,0,13.627,2.019,21.45-17.664-17.664-42.9-37.1-46.937-64.349-3.785,5.8,0,15.646-3.785,21.45-9.842-15.646-13.627-35.076-11.608-54.759-2.019,3.785-5.8,7.823-5.8,13.627-5.3-10.6-5.8-22.964-5.8-34.067A160.4,160.4,0,0,0,21.7,114.041a1.247,1.247,0,0,0,2.271.757,27.547,27.547,0,0,0,3.281-4.29,1.34,1.34,0,0,1,2.523.5,196.8,196.8,0,0,0,11.608,60.563c.5,1.262,2.523,1.009,2.523-.252.252-1.514,2.271-1.766,2.523-.252a182.685,182.685,0,0,0,21.45,55.769,1.344,1.344,0,0,0,2.523-.757v-3.028a1.311,1.311,0,0,1,2.523-.5c5.552,15.9,12.113,31.543,18.926,46.684,2.271-4.795,3.785-9.842,5.8-14.888a63.741,63.741,0,0,1,7.066,13.627,241.1,241.1,0,0,1,10.851-28.263,1.43,1.43,0,0,1,2.523,0c1.009,3.28,75.2-.5,76.209,2.776,3.281,9.589,7.823,18.674,11.608,27.758,1.262-5.8.252-12.365,5.3-16.15a39.828,39.828,0,0,1,7.318,14.131c4.542-12.617,9.337-25.487,14.636-37.852.5,5.3,1.009,10.6,1.514,15.646a155.981,155.981,0,0,0,31.8-66.367,22.666,22.666,0,0,1,7.066,10.851,264.543,264.543,0,0,0,9.589-67.125c3.785,2.019,7.823,4.038,11.608,5.8A250.5,250.5,0,0,0,293.226,77.7C282.88,103.947,270.01,128.93,253.355,149.875Z" transform="translate(33.03 101.464)"/>
          <g id="Groupe_7" data-name="Groupe 7" transform="translate(113.527 87.312)">
            <ellipse id="Ellipse_1" data-name="Ellipse 1" class="cls-8" cx="76.714" cy="79.742" rx="76.714" ry="79.742" transform="translate(0.505)"/>
            <ellipse id="Ellipse_2" data-name="Ellipse 2" class="cls-9" cx="76.714" cy="79.742" rx="76.714" ry="79.742" transform="translate(0.505 6.813)"/>
            <g id="Groupe_6" data-name="Groupe 6" transform="translate(0 5.804)">
              <path id="Tracé_10" data-name="Tracé 10" class="cls-10" d="M59,155.663A77.21,77.21,0,0,0,167.762,52.2C115.274,69.107,68.589,103.931,59,155.663Z" transform="translate(-23.671 -13.591)"/>
              <path id="Tracé_11" data-name="Tracé 11" class="cls-11" d="M122.218,36.9a77.209,77.209,0,0,0-41.89,142.072c9.337-51.984,56.021-86.555,108.51-103.463A76.793,76.793,0,0,0,122.218,36.9Z" transform="translate(-45 -36.9)"/>
              <ellipse id="Ellipse_3" data-name="Ellipse 3" class="cls-12" cx="47.441" cy="47.441" rx="47.441" ry="47.441" transform="matrix(0.083, -0.997, 0.997, 0.083, 26.004, 120.692)"/>
              <path id="Tracé_12" data-name="Tracé 12" class="cls-13" d="M63.9,114.026a42.836,42.836,0,0,0,72.424-31.039A42.243,42.243,0,0,0,128,57.5C101,70.874,78.031,89.8,63.9,114.026Z" transform="translate(-16.206 -5.516)"/>
              <path id="Tracé_13" data-name="Tracé 13" class="cls-14" d="M101.5,50.5A42.863,42.863,0,0,0,58.6,93.4a42.07,42.07,0,0,0,13.374,31.039c13.879-24.225,37.1-43.151,63.844-56.778A42.529,42.529,0,0,0,101.5,50.5Z" transform="translate(-24.281 -16.181)"/>
              <path id="Tracé_14" data-name="Tracé 14" class="cls-15" d="M111.527,67.746A25.446,25.446,0,0,0,65.6,82.887a25.543,25.543,0,0,0,8.075,18.674,25.893,25.893,0,0,0,17.664,7.066A25.417,25.417,0,0,0,116.827,83.14,28.907,28.907,0,0,0,111.527,67.746Z" transform="translate(-13.616 -5.669)"/>
              <ellipse id="Ellipse_4" data-name="Ellipse 4" class="cls-16" cx="24.478" cy="24.478" rx="24.478" ry="24.478" transform="translate(12.8 66.043) rotate(-80.811)"/>
              <path id="Tracé_15" data-name="Tracé 15" class="cls-17" d="M104.2,87.5A10.6,10.6,0,1,1,93.6,76.9,10.831,10.831,0,0,1,104.2,87.5Z" transform="translate(12.892 24.039)"/>
              <path id="Tracé_16" data-name="Tracé 16" class="cls-18" d="M55.9,50.3V72.254C69.779,72.254,69.779,50.3,55.9,50.3Z" transform="translate(-28.394 -16.485)"/>
              <path id="Tracé_17" data-name="Tracé 17" class="cls-18" d="M92.872,81.252a2.519,2.519,0,0,0-1.262-1.009,4.335,4.335,0,0,0-4.29,0,2.519,2.519,0,0,0-1.262,1.009c-1.009,1.514-1.766,3.028-1.262,4.795a4.921,4.921,0,0,0,4.795,3.533,5.2,5.2,0,0,0,4.29-2.523,4.263,4.263,0,0,0,.757-2.523C94.134,83.523,93.629,82.514,92.872,81.252Z" transform="translate(15.385 28.267)"/>
            </g>
          </g>
          <path id="Tracé_18" data-name="Tracé 18" class="cls-3" d="M47.556,219.646c10.094-1.009,20.188-1.766,30.534-2.776,6.813-.5,10.346-5.8,9.337-12.365a333.848,333.848,0,0,1-3.533-63.592c.5-12.617-19.178-12.617-19.431,0a367.675,367.675,0,0,0,4.29,68.639c3.028-4.038,6.309-8.328,9.337-12.365C68,198.2,57.9,198.953,47.556,199.962c-12.365,1.262-12.617,20.693,0,19.683Z" transform="translate(58.148 200.261)"/>
          <path id="Tracé_19" data-name="Tracé 19" class="cls-3" d="M130.774,199.962c-10.094-1.009-20.188-1.766-30.534-2.776,3.028,4.038,6.309,8.327,9.337,12.365a367.675,367.675,0,0,0,4.29-68.639c-.5-12.617-19.935-12.617-19.431,0A336.156,336.156,0,0,1,90.9,204.5c-1.009,6.561,2.523,11.86,9.337,12.365,10.094,1.009,20.188,1.766,30.534,2.776,12.617,1.009,12.365-18.421,0-19.683Z" transform="translate(138.2 200.261)"/>
        </g>
        <path id="Tracé_20" data-name="Tracé 20" class="cls-6" d="M8.157,18.5c-4.542,0-4.542,9.085,0,9.085C15.222,27.585,15.222,18.5,8.157,18.5Z" transform="translate(7.207 28.184)"/>
        <path id="Tracé_21" data-name="Tracé 21" class="cls-6" d="M14.284,27.9c-13.879,0-13.879,22.711,0,22.711S28.163,27.9,14.284,27.9Z" transform="translate(5.874 42.505)"/>
        <path id="Tracé_22" data-name="Tracé 22" class="cls-6" d="M28.7,26.9c-7.066,0-7.066,12.113,0,12.113C38.036,39.265,38.036,26.9,28.7,26.9Z" transform="translate(35.62 40.982)"/>
        <path id="Tracé_23" data-name="Tracé 23" class="cls-6" d="M26.028,34.5c-9.337,0-9.337,11.86,0,11.86C33.093,46.36,33.093,34.5,26.028,34.5Z" transform="translate(28.954 52.56)"/>
        <ellipse id="Ellipse_5" data-name="Ellipse 5" class="cls-6" cx="7.318" cy="7.318" rx="7.318" ry="7.318" transform="translate(320.2 66.367)"/>
        <path id="Tracé_24" data-name="Tracé 24" class="cls-6" d="M149.328,32c-9.337,0-9.337,13.627,0,13.627C156.393,45.627,156.393,32,149.328,32Z" transform="translate(216.799 48.751)"/>
        <path id="Tracé_25" data-name="Tracé 25" class="cls-6" d="M149.252,22.8a5.552,5.552,0,1,0,5.552,5.552A5.6,5.6,0,0,0,149.252,22.8Z" transform="translate(218.894 34.735)"/>
      </g>
    </g>
    <path id="Tracé_1054" data-name="Tracé 1054" class="cls-19" d="M-398.154,7293.412H610.371s101.5-7.967,153.142-71.512,119.961-50.11,119.961-50.11" transform="translate(-3872.534 -2036.805)"/>
    <g id="Groupe_291" data-name="Groupe 291" transform="translate(-3023.748 5088.107)">
      <path id="Tracé_1047" data-name="Tracé 1047" class="cls-20" d="M11.2,99.062,21.284,87.538l-5.4-1.17,8.373-6.393-4.412-.27L34.159,68l-8.553,9.814H31.1L22,85.287l5.762.63Z" transform="translate(-1.116 -6.776)"/>
      <path id="Tracé_1048" data-name="Tracé 1048" class="cls-20" d="M181.824,95.621l-14.766-9.814,5.762-2.971-11.344-4.592,4.862-1.711L146.8,67.8l12.515,8.463-6.122,1.531,12.335,5.672L159.315,85.9Z" transform="translate(-14.628 -6.756)"/>
      <path id="Tracé_1049" data-name="Tracé 1049" class="cls-20" d="M6,4.5l15.486,8.643-5.492,3.421,11.615,3.691-4.682,2.071,20.168,7.2L29.949,22.057l6.032-1.981L23.2,15.394l6.032-2.881Z" transform="translate(-0.598 -0.448)"/>
      <path id="Tracé_1050" data-name="Tracé 1050" class="cls-20" d="M83.264,4.1,94.721,42.6,80.4,39.5l13.061,24.4L82.577,59.782l21.539,43.537L94.378,70.437l12.947,6.187L94.034,48.9l14.321,4.7Z" transform="translate(-11.005 -11.033)"/>
      <path id="Tracé_1051" data-name="Tracé 1051" class="cls-20" d="M131.9,26.56,146.486,17.2,140.9,14.226,152.068,9.9,147.3,8.193,166.564,0,154.229,8.013l5.942,1.621-12.155,5.312,6.032,2.431Z" transform="translate(-13.144)"/>
      <path id="Tracé_1052" data-name="Tracé 1052" class="cls-21" d="M138.511,41.424,116,35.752V33.771a2.833,2.833,0,0,0-2.7-2.971h0a2.833,2.833,0,0,0-2.7,2.971V63.933a2.833,2.833,0,0,0,2.7,2.971h0a2.833,2.833,0,0,0,2.7-2.971V61.952l22.509-5.672h15.756a2.384,2.384,0,0,0,2.341-2.341V51.868h5.312V45.746h-5.312V43.765a2.384,2.384,0,0,0-2.341-2.341H138.511Z" transform="translate(-11.021 -3.069)"/>
      <path id="Tracé_1053" data-name="Tracé 1053" class="cls-21" d="M27.011,41.424l22.509-5.672V33.771a2.833,2.833,0,0,1,2.7-2.971h0a2.894,2.894,0,0,1,2.7,2.971v6.392H68.247A2.384,2.384,0,0,1,70.588,42.5h0a2.384,2.384,0,0,1-2.341,2.341H54.922v8.283H68.247a2.384,2.384,0,0,1,2.341,2.341h0a2.384,2.384,0,0,1-2.341,2.341H54.922v6.3a2.894,2.894,0,0,1-2.7,2.971h0a2.833,2.833,0,0,1-2.7-2.971V62.132L27.011,56.46H11.254a2.384,2.384,0,0,1-2.341-2.341V52.048H0V45.926H8.913V43.945A2.384,2.384,0,0,1,11.254,41.6H27.011Z" transform="translate(0 -3.069)"/>
    </g>
    <path id="Tracé_1055" data-name="Tracé 1055" class="cls-19" d="M870.274,7293.412H220.186s-100.061-7.967-150.975-71.512-118.263-50.11-118.263-50.11" transform="translate(-2837.82 -2036.805)"/>
  </g>
</svg>
