<?xml version="1.0" encoding="utf-8"?>
<!-- Generator: Adobe Illustrator 22.0.1, SVG Export Plug-In . SVG Version: 6.00 Build 0)  -->
<svg version="1.1" id="Calque_1" xmlns="http://www.w3.org/2000/svg" xmlns:xlink="http://www.w3.org/1999/xlink" x="0px" y="0px"
	 viewBox="0 0 1920 1200" style="enable-background:new 0 0 1920 1200;" xml:space="preserve">
<style type="text/css">
	.st0{clip-path:url(#SVGID_2_);}
	.st1{fill:#A2A2AA;}
	.st2{fill:#F8FBFF;}
	.st3{fill:#FFFFFF;}
	.st4{fill:#9898A8;}
	.st5{fill:#DD5B5B;}
	.st6{fill:#A54D4D;}
	.st7{fill:#FF6D55;}
	.st8{opacity:0.6;fill:#A86C6C;enable-background:new    ;}
	.st9{opacity:0.5;}
	.st10{fill:#DB1814;}
	.st11{opacity:0.7;}
	.st12{fill:#C65252;}
	.st13{opacity:0.3;}
	.st14{fill:#A86C6C;}
	.st15{fill:#A8A8B2;}
	.st16{fill:#D35650;}
	.st17{opacity:0.3;fill:#80978D;enable-background:new    ;}
	.st18{fill:#D6D5DB;}
	.st19{fill:#FF4A4A;}
	.st20{font-family:'Roboto-Medium';}
	.st21{font-size:21px;}
</style>
<g>
	<defs>
		<rect id="SVGID_1_" width="1920" height="1200"/>
	</defs>
	<clipPath id="SVGID_2_">
		<use xlink:href="#SVGID_1_"  style="overflow:visible;"/>
	</clipPath>
	<g id="Screen-4-1" class="st0">
		<g id="Groupe_297" transform="translate(-4812.231 12955.762)">
			<g id="Groupe_69">
				<g id="Groupe_56">
					<g id="Groupe_54">
						<path id="Tracé_213" class="st1" d="M6263-12550.3c0-8.1,6.6-14.6,14.7-14.7h76.6c8.1,0,14.6,6.6,14.7,14.7v122.3
							c0,8.1-6.6,14.6-14.7,14.7h-76.6c-8.1,0-14.6-6.5-14.7-14.6V-12550.3z"/>
					</g>
					<g id="Groupe_55" transform="translate(14.657 5.385)">
						<path id="Tracé_214" class="st2" d="M6342-12563.7c6.5,0,11.8,5.3,11.8,11.8v120c0,6.5-5.3,11.8-11.8,11.8h-65.9
							c-6.5,0-11.8-5.3-11.8-11.8v-120c0-6.5,5.3-11.8,11.8-11.8H6342L6342-12563.7z"/>
						<path id="Tracé_215" class="st3" d="M6276.1-12421.4L6276.1-12421.4c-5.8,0-10.5-4.7-10.5-10.5v-120
							c0-5.8,4.7-10.5,10.5-10.5h65.9c5.8,0,10.5,4.7,10.5,10.5v120c0,5.8-4.7,10.5-10.5,10.5H6276.1z M6276.1-12418.7h65.9
							c7.2,0,13.1-5.9,13.1-13.1v-120.1c0-7.2-5.9-13.1-13.1-13.1h-65.9c-7.2,0-13.1,5.9-13.1,13.1v120
							C6263-12424.6,6268.9-12418.7,6276.1-12418.7L6276.1-12418.7z"/>
					</g>
				</g>
				<g id="Groupe_68" transform="translate(27.482 25.094)">
					<path id="Tracé_216" class="st4" d="M6321-12551v40.3l-4.4,6.1v-43.8L6321-12551z"/>
					<g id="Groupe_66" transform="translate(3.831 3.276)">
						<g id="Groupe_62" transform="translate(0 4.053)">
							<g id="Groupe_61">
								<g id="Groupe_60">
									<g id="Groupe_57" transform="translate(0.056 0.111)">
										<path id="Tracé_217" class="st5" d="M6263-12478.7v-86.3c37.8,21.3,39.4,32.5,23.8,62.7
											C6281.8-12492.5,6273.4-12484.5,6263-12478.7z"/>
									</g>
									<g id="Groupe_59">
										<path id="Tracé_218" class="st6" d="M6273.8-12518.3h44.9c-0.1,2.3-0.2,4.7-0.4,7.1h-44.9
											C6273.6-12513.6,6273.8-12515.9,6273.8-12518.3z"/>
										<g id="Groupe_58">
											<path id="Tracé_219" class="st7" d="M6264.1-12563.3c2.8,4.8,5,10,6.4,15.4c1.5,5.6,2.5,11.4,3,17.2
												c1.1,11.6,0.1,23.4-2.8,34.6c-1.6,6.2-4.1,12.1-7.6,17.5h44.9c0.7-1.1,1.4-2.2,2-3.3c1.3-2.3,2.4-4.7,3.3-7.2
												c2-5.3,3.4-10.7,4.2-16.3c0.9-5.8,1.4-11.6,1.3-17.5c-0.1-5.7-0.6-11.4-1.6-17c-0.9-5.6-2.4-11.1-4.6-16.3
												c-1-2.4-5.3-4.8-6.7-7.1c-0.3-0.6-5.2-1.1-5.6-1.7c-1.6-0.1-3.1-0.2-4.7-0.2H6263
												C6263.4-12564.4,6263.7-12563.9,6264.1-12563.3C6264.3-12563,6264-12563.4,6264.1-12563.3z"/>
										</g>
									</g>
								</g>
							</g>
							<path id="Tracé_220" class="st8" d="M6298.9-12501.9l17-20.2c0,0-3.1-12.4-8.1-12.4h-34.8c0.2,1.2,0.3,2.5,0.4,3.7
								c1.1,11.6,0.1,23.4-2.8,34.6c-0.8,3.1-1.9,6.2-3.2,9.2l3.7,2.7L6298.9-12501.9z"/>
						</g>
						<g id="Groupe_63" transform="translate(1.055 5.718)" class="st9">
							<path id="Tracé_221" class="st10" d="M6263-12565"/>
						</g>
						<g id="Groupe_64" transform="translate(1.055 5.677)" class="st11">
							<path id="Tracé_222" class="st12" d="M6263-12565"/>
						</g>
						<g id="Groupe_65" transform="translate(1.055)" class="st13">
							<path id="Tracé_223" class="st14" d="M6316.2-12535.9c0-0.1-0.1-0.1-0.1-0.2c-1.4-5.7-5.5-12.3-8.8-12.3h-39.4
								c-1.3-4.2-2.9-8.4-4.9-12.4v-4.3h30.3c1.5,0,3,0,4.6,0.2c0.4,0.6,5.2,1.1,5.6,1.7c1.3,2.2,5.7,4.6,6.7,7.1
								c0.6,1.5,1.2,3,1.7,4.6C6313.8-12546.5,6315.3-12541.2,6316.2-12535.9z"/>
						</g>
					</g>
					<rect id="Rectangle_8" x="6263" y="-12475.3" class="st2" width="59.7" height="7.9"/>
					<path id="Tracé_224" class="st15" d="M6321-12472.7h-49.4v-3.4h45L6321-12472.7z"/>
					<path id="Tracé_225" class="st2" d="M6317.4-12565H6263v16.5h53.5L6317.4-12565z"/>
					<g id="Groupe_67" transform="translate(12.048 50.244)">
						<path id="Tracé_226" class="st5" d="M6282-12518.9c-0.3,0-0.5-0.1-0.8-0.2l-14.7-6.3c-1.1-0.5-2.4-1.1-3.5-1.7
							c2.6-5.6,4.4-11.5,5.6-17.5c1.3-6.7,1.9-13.5,1.8-20.4c1.1,1.1,2.3,2.2,3.1,3.2l13.2,14.9c1.7,1.9,12.4,6.4,11.7,10l-3.7,12.8
							C6294-12521,6283.7-12518.9,6282-12518.9z"/>
					</g>
					<path id="Tracé_227" class="st16" d="M6285.5-12511.6c3.2,3.6,6.3,7.2,9.5,10.7c1.2,1.3,2.4,2.7,3.6,4c0.8,1,1.4,2.1,1.7,3.4
						c0.6,2.2,0.7,4.5,0.3,6.8h35.8c0.2,0-4.4-1.9-4.4-2.2c0.1-1.4,6.2-3,5.8-4.4c-0.2-0.8-0.5-1.6-0.9-2.4
						c-0.4-0.6-0.8-1.2-1.3-1.7c-3.7-4.1-7.3-8.3-11-12.4c-0.5-0.6-0.9-1.1-1.4-1.6c-0.4-0.4-0.8-0.9-1.2-1.3l-1.6-1.6
						c-0.1-0.1-0.3-0.4-0.4-0.4h-37.3C6283.5-12513.8,6284.5-12512.7,6285.5-12511.6z"/>
					<path id="Tracé_228" class="st7" d="M6311.6-12468.7h19.8c2.4,0,3.7-3.3,4-5.3l2.5-12.8h-0.1c0.2,0,0.3-2,0.3-2.2
						c0.1-1.5-0.1-3-0.4-4.4h-37.4c0.5,2.2,0.6,4.4,0.2,6.6l-2.5,12.8l0,0c-0.1,0.4-0.2,0.8-0.3,1.2c-0.5,1.6-1.7,4.1-3.7,4.1
						H6311.6z"/>
				</g>
				<rect id="Rectangle_9" x="6286.6" y="-12548.1" class="st2" width="12.5" height="116.5"/>
				<path id="Tracé_229" class="st17" d="M6299.1-12455.2c-0.7-0.7-1.3-1.4-1.9-2l-12.9-14.9c-1.7-1.9-2.4-6.4-1.7-10l2.4-12.8
					c0.6-3.1,2.2-5.3,3.9-5.3c0.3,0,0.5,0.1,0.8,0.2l4.7,2.1c0.6-7.7,2.7-17.2,4.8-24.6L6299.1-12455.2L6299.1-12455.2z"/>
			</g>
			<path id="Tracé_230" class="st18" d="M6348.4-12525.7h-49.4v2.4h45L6348.4-12525.7z"/>
		</g>
		<text transform="matrix(1 0 0 1 1492 536)" class="st19 st20 st21">OFF</text>
		<text transform="matrix(1 0 0 1 1492 422)" class="st19 st20 st21">ON</text>
	</g>
</g>
</svg>
