<svg xmlns="http://www.w3.org/2000/svg" xmlns:xlink="http://www.w3.org/1999/xlink" viewBox="145 12765 1920 1200">
  <defs>
    <style>
      .cls-1 {
        clip-path: url(#clip-Screen-4-5);
      }

      .cls-2 {
        fill: url(#linear-gradient);
      }

      .cls-3 {
        fill: #d8d2b9;
      }

      .cls-4 {
        opacity: 0.078;
      }

      .cls-5 {
        fill: #584626;
      }

      .cls-6 {
        fill: #cce227;
      }

      .cls-7 {
        fill: #231f20;
        opacity: 0.16;
      }

      .cls-8 {
        fill: #fff;
      }

      .cls-9 {
        fill: #8e489a;
      }

      .cls-10 {
        fill: #212120;
        opacity: 0.52;
      }

      .cls-11 {
        fill: #6e7632;
      }

      .cls-12 {
        fill: #b7c434;
      }

      .cls-13 {
        fill: #3b3a3a;
      }

      .cls-14 {
        fill: #8e8e8e;
      }

      .cls-15 {
        fill: url(#linear-gradient-2);
      }

      .cls-16 {
        fill: #a2a2aa;
      }

      .cls-17 {
        fill: #f8fbff;
      }

      .cls-18 {
        fill: #9898a8;
      }

      .cls-19 {
        fill: #dd5b5b;
      }

      .cls-20 {
        fill: #a54d4d;
      }

      .cls-21 {
        fill: #ff6d55;
      }

      .cls-22, .cls-28 {
        fill: #a86c6c;
      }

      .cls-22 {
        opacity: 0.6;
      }

      .cls-23 {
        opacity: 0.5;
      }

      .cls-24 {
        fill: #db1814;
      }

      .cls-25 {
        opacity: 0.7;
      }

      .cls-26 {
        fill: #c65252;
      }

      .cls-27, .cls-31 {
        opacity: 0.3;
      }

      .cls-29 {
        fill: #a8a8b2;
      }

      .cls-30 {
        fill: #d35650;
      }

      .cls-31 {
        fill: #80978d;
      }

      .cls-32 {
        fill: #d6d5db;
      }

      .cls-33 {
        fill: #ff4a4a;
        font-size: 21px;
        font-family: Roboto-Medium, Roboto;
        font-weight: 500;
      }
    </style>
    <linearGradient id="linear-gradient" x1="0.5" x2="0.5" y2="1" gradientUnits="objectBoundingBox">
      <stop offset="0" stop-color="#f0e8cb"/>
      <stop offset="1" stop-color="#b2aea0"/>
    </linearGradient>
    <linearGradient id="linear-gradient-2" x1="0.5" x2="0.5" y2="1" gradientUnits="objectBoundingBox">
      <stop offset="0" stop-color="#8e8e8e"/>
      <stop offset="1" stop-color="#474747" stop-opacity="0"/>
    </linearGradient>
    <clipPath id="clip-Screen-4-5">
      <rect x="145" y="12765" width="1920" height="1200"/>
    </clipPath>
  </defs>
  <g id="Screen-4-5" class="cls-1">
    <path id="Tracé_1177" data-name="Tracé 1177" class="cls-2" d="M2926.681,13258.624l-306.29,643.885H3357.6l-288.356-643.885Z" transform="translate(-1809.916 -314)"/>
    <ellipse id="Ellipse_154" data-name="Ellipse 154" class="cls-3" cx="368.852" cy="54.397" rx="368.852" ry="54.397" transform="translate(810 13534.112)"/>
    <ellipse id="Ellipse_155" data-name="Ellipse 155" class="cls-4" cx="73.852" cy="11.397" rx="73.852" ry="11.397" transform="translate(1105 13563.112)"/>
    <g id="Groupe_350" data-name="Groupe 350" transform="translate(1097.789 13386.171)">
      <path id="Tracé_423" data-name="Tracé 423" class="cls-5" d="M109.759,118.948s33.134-4.12,50.387,17.511c0,0,9.442-1.459,8.756,3.262,0,0-.258,2.919-7.9.429,0,0,6.18,5.494,3.176,6.867s-6.7-5.494-6.7-5.494,1.03,8.412-3.691,6.7c-3.176-1.2,0-7.382,0-7.382s-11.331-20.344-45.495-17.683Z" transform="translate(-15.878 -17.532)"/>
      <path id="Tracé_424" data-name="Tracé 424" class="cls-5" d="M76.437,118.848S43.3,114.728,26.05,136.359c0,0-9.442-1.459-8.756,3.262,0,0,.258,2.919,7.9.429,0,0-6.18,5.494-3.176,6.867s6.7-5.494,6.7-5.494-1.03,8.412,3.691,6.7c3.176-1.2,0-7.382,0-7.382S43.732,120.393,77.9,123.054Z" transform="translate(-2.985 -17.518)"/>
      <path id="Tracé_425" data-name="Tracé 425" class="cls-5" d="M65.291,137.1s-.515,47.469,11.76,66.353c0,0,3.262,3.949-.258,4.807-2.489.6-3.262-1.03-3.176-1.373s-2.575,2.833-4.721,1.459c-1.717-1.116,0-2.232,0-2.232s-2.489,2.146-4.034.944c-1.631-1.116.343-3.176,2.489-3.176,4.292.086,3.348-2.318,3.348-2.318s-10.9-34.336-8.841-62.92Z" transform="translate(-9.265 -20.147)"/>
      <path id="Tracé_426" data-name="Tracé 426" class="cls-5" d="M117.633,137.4s.515,47.469-11.76,66.353c0,0-3.262,3.949.258,4.807,2.489.6,3.262-1.03,3.176-1.373s2.575,2.833,4.721,1.459c1.717-1.116,0-2.232,0-2.232s2.489,2.146,4.034.944c1.631-1.116-.343-3.176-2.489-3.176-4.292.086-3.348-2.318-3.348-2.318s10.9-34.336,8.841-62.92Z" transform="translate(-15.339 -20.19)"/>
      <path id="Tracé_427" data-name="Tracé 427" class="cls-6" d="M164.639,86.01a20.55,20.55,0,0,0-5.58-9.185H160q1.288-.129,2.06-.258a5.657,5.657,0,0,0,.773-.172,32.38,32.38,0,0,0-4.378-5.494A64.387,64.387,0,0,0,96.139,17a18.864,18.864,0,0,0,1.717-1.974A17.859,17.859,0,0,0,100.689,9.7a15.188,15.188,0,0,0,.687-4.378,25.937,25.937,0,0,0-.086-2.833,9.355,9.355,0,0,1-.086-1.03c-1.717,1.8-3.176,3.605-4.721,5.064A23.021,23.021,0,0,1,94.251,8.5a1.876,1.876,0,0,1-.429.258l.258-.773a15.378,15.378,0,0,0,.515-4.12,8.346,8.346,0,0,0-.086-1.545c-.086-.429-.086-.773-.172-1.116-.172-.6-.258-.944-.258-.944a38.149,38.149,0,0,1-4.206,4.721c-.944.944-1.888,1.8-2.833,2.661q-.258-1.03-.515-1.8c-.343-1.116-.687-2.146-.944-3s-.515-1.545-.687-2.06L84.637,0a13.881,13.881,0,0,0-3.262,5.064,22.907,22.907,0,0,0-.944,2.919c-.086-.086-.172-.258-.258-.343-2.06-2.232-4.034-4.034-5.494-5.408Q73.521,1.2,72.877.687A4.868,4.868,0,0,0,72.1.172a25.04,25.04,0,0,0,.687,8.412c-2.06-1.717-4.034-3.262-5.58-4.292-1.631-1.116-2.747-1.717-2.747-1.717a24.389,24.389,0,0,0,3.262,11.674A28.23,28.23,0,0,0,69.7,17.082,64.531,64.531,0,0,0,7.554,71.5a13.72,13.72,0,0,0-4.12,3.863A20.009,20.009,0,0,0,0,83.006a17.563,17.563,0,0,0,5.751-.944,12.594,12.594,0,0,0-2.489,6.524,14.067,14.067,0,0,0,.687,5.751,11.822,11.822,0,0,0,.687,1.717c.172.429.258.6.258.6.773-.6,1.459-1.2,2.146-1.8a12.156,12.156,0,0,0,.6,1.888,13.869,13.869,0,0,0,2.919,4.206,12.633,12.633,0,0,0,1.717,1.459c.258-.343.429-.687.687-1.03a8.035,8.035,0,0,0,2.4,1.8,11.577,11.577,0,0,0,5.15,1.373,9.887,9.887,0,0,0,1.717-.086,1.486,1.486,0,0,0,.6-.086,22.853,22.853,0,0,0-.687-2.833,19.949,19.949,0,0,0,6.009.858H58.027a24.531,24.531,0,0,0-2.747,4.378,28.331,28.331,0,0,0-2.489,9.1,23.516,23.516,0,0,0,3.434-1.288,27.757,27.757,0,0,0-3,3.434,32.03,32.03,0,0,0-2.575,4.12,71.806,71.806,0,0,0-3.176,6.867c-.343.944-.687,1.631-.858,2.146a7.218,7.218,0,0,1-.343.858,16.563,16.563,0,0,0,5.923-2.232,4.792,4.792,0,0,0,.687-.429,16.507,16.507,0,0,0-1.116,1.459,26.335,26.335,0,0,0-4.034,8.5,32.342,32.342,0,0,0-1.2,7.125c-.086.944-.086,1.717-.086,2.232v.858a22.068,22.068,0,0,0,4.721-3.262,23.989,23.989,0,0,0-1.631,7.725,25.29,25.29,0,0,0,1.116,8.069c.343.944.687,1.717.858,2.232a7.934,7.934,0,0,0,.429.773,23.228,23.228,0,0,0,1.8-3.176h0a13.1,13.1,0,0,0,5.15,6.266,14.847,14.847,0,0,0,5.751,2.232,8.425,8.425,0,0,0,1.888.172h.687a9.378,9.378,0,0,0-.429-1.459,12.155,12.155,0,0,0,1.717.343,21.151,21.151,0,0,0,7.125-.172,14.144,14.144,0,0,0,2.06-.515l.773-.258-1.8-1.8h7.3c-.343.687-.6,1.373-.858,1.974s-.429,1.116-.6,1.545c-.086.343-.172.6-.172.6a10.758,10.758,0,0,0,7.725-.687c.515-.258.944-.515,1.373-.773-.515,1.116-.944,2.146-1.288,3-.258.773-.515,1.459-.687,1.888a6.681,6.681,0,0,0-.258.773,16.015,16.015,0,0,0,9.614-3.863,20.374,20.374,0,0,0,5.58-7.725c.086-.258.172-.429.258-.687.515,1.288.944,2.575,1.288,3.605a12.265,12.265,0,0,1,.515,1.8,2.063,2.063,0,0,1,.172.687,9.71,9.71,0,0,0,3.519-3.691,13.723,13.723,0,0,0,1.545-4.807,12.9,12.9,0,0,0-.343-4.807,15.144,15.144,0,0,0-1.545-4.034c-.086-.086-.086-.258-.172-.343.258.086.6.258.858.343.858.343,1.545.6,1.974.773l.773.258a18.732,18.732,0,0,0-1.545-5.408,24.211,24.211,0,0,0-2.661-4.635c-.773-1.03-1.545-2.06-2.318-2.919a13.629,13.629,0,0,0,3.176,1.373,9.812,9.812,0,0,0,2.232.429,5.78,5.78,0,0,0,.858.086c-1.545-3.605-2.919-6.7-4.12-9.528-.6-1.459-1.2-2.833-1.717-4.12-.343-.858-.687-1.717-1.03-2.661a30.5,30.5,0,0,0,7.468,3.519,36.021,36.021,0,0,0-7.125-13.992,3.777,3.777,0,0,0,.858.172,15.556,15.556,0,0,0,2.747.343,24.669,24.669,0,0,0-1.545-4.034h.086a18.983,18.983,0,0,0-2.489-6.781c-.429-.687-.944-1.373-1.373-1.974h30.73c-.086.172-.172.258-.172.429-.343.773-.687,1.373-.858,1.8s-.258.687-.258.687a16.418,16.418,0,0,0,9.528-2.318c.343-.258.773-.429,1.116-.687,0,.258.086.429.086.687a13.477,13.477,0,0,0,.6,2.146,10.957,10.957,0,0,0,3.519-1.545,11.492,11.492,0,0,0,2.661-2.318,10.688,10.688,0,0,0,1.974-3.949c.429.515.773,1.03,1.116,1.373.429.515.858,1.03,1.116,1.288a5.257,5.257,0,0,0,.429.515,12.721,12.721,0,0,0,2.575-8.241,2.92,2.92,0,0,0-.086-.858c.172.086.343.086.515.172a11.676,11.676,0,0,0,1.717.515,6.307,6.307,0,0,1,.687.172A14.88,14.88,0,0,0,160.6,85.5,11.576,11.576,0,0,0,164.639,86.01Z" transform="translate(-0.541 -0.732)"/>
      <circle id="Ellipse_110" data-name="Ellipse 110" class="cls-7" cx="34.25" cy="34.25" r="34.25" transform="translate(-3.824 62.465) rotate(-80.898)"/>
      <circle id="Ellipse_111" data-name="Ellipse 111" class="cls-8" cx="31.159" cy="31.159" r="31.159" transform="translate(4.266 -0.732)"/>
      <circle id="Ellipse_112" data-name="Ellipse 112" class="cls-9" cx="20.172" cy="20.172" r="20.172" transform="translate(7.018 31.632) rotate(-45)"/>
      <circle id="Ellipse_113" data-name="Ellipse 113" class="cls-10" cx="10.386" cy="10.386" r="10.386" transform="translate(23.649 40.197) rotate(-80.747)"/>
      <path id="Tracé_428" data-name="Tracé 428" class="cls-8" d="M47.013,21.55c.687,2.833-2.833,6.266-7.983,7.554s-9.871.086-10.644-2.833c-.687-2.833,2.833-6.266,7.983-7.554S46.24,18.717,47.013,21.55Z" transform="translate(-4.549 -3.312)"/>
      <path id="Tracé_429" data-name="Tracé 429" class="cls-8" d="M54.077,47.521c.773,1.888-1.288,4.464-4.635,5.837s-6.7.944-7.468-.858c-.773-1.888,1.288-4.464,4.635-5.837S53.3,45.632,54.077,47.521Z" transform="translate(-6.462 -7.222)"/>
      <circle id="Ellipse_114" data-name="Ellipse 114" class="cls-7" cx="33.048" cy="33.048" r="33.048" transform="translate(89.756 5.602) rotate(-9.108)"/>
      <circle id="Ellipse_115" data-name="Ellipse 115" class="cls-8" cx="30.044" cy="30.044" r="30.044" transform="translate(97.572 -0.561)"/>
      <circle id="Ellipse_116" data-name="Ellipse 116" class="cls-9" cx="19.485" cy="19.485" r="19.485" transform="matrix(0.962, -0.272, 0.272, 0.962, 103.406, 17.158)"/>
      <circle id="Ellipse_117" data-name="Ellipse 117" class="cls-10" cx="10.043" cy="10.043" r="10.043" transform="translate(114.355 36.021) rotate(-67.33)"/>
      <path id="Tracé_430" data-name="Tracé 430" class="cls-8" d="M141.386,20.97c-.687,2.747,2.747,6.009,7.725,7.3s9.528.086,10.215-2.661-2.747-6.009-7.725-7.3C146.622,16.935,142.072,18.223,141.386,20.97Z" transform="translate(-20.551 -3.247)"/>
      <path id="Tracé_431" data-name="Tracé 431" class="cls-8" d="M135.573,46.025c-.773,1.8,1.288,4.292,4.549,5.665,3.262,1.288,6.438.944,7.21-.858s-1.288-4.292-4.549-5.665S136.346,44.222,135.573,46.025Z" transform="translate(-19.717 -7.014)"/>
      <ellipse id="Ellipse_118" data-name="Ellipse 118" class="cls-11" cx="11.674" cy="12.876" rx="11.674" ry="12.876" transform="translate(71.22 53.174)"/>
      <path id="Tracé_432" data-name="Tracé 432" class="cls-8" d="M101.7,68.175c0,2.661-2.833,2.4-5.837,2.4s-5.064.258-5.064-2.4a5.438,5.438,0,0,1,4.893-5.58C100.586,62.253,101.7,65.6,101.7,68.175Z" transform="translate(-13.4 -9.593)"/>
      <path id="Tracé_433" data-name="Tracé 433" class="cls-12" d="M74.659,135.5v1.03c0,.6,0,1.459-.086,2.318a13.6,13.6,0,0,1-.6,2.919,16.394,16.394,0,0,1-1.888,3.605.664.664,0,0,0-.086-.258,5.917,5.917,0,0,1-.258-.687,7.179,7.179,0,0,1-.343-2.575,8.45,8.45,0,0,1,.687-3.434A7.082,7.082,0,0,1,74.659,135.5Z" transform="translate(-10.65 -19.921)"/>
      <path id="Tracé_434" data-name="Tracé 434" class="cls-12" d="M77.75,118.9a3.894,3.894,0,0,1,.086.858,6.832,6.832,0,0,1-.343,2.06,5.2,5.2,0,0,1-4.893,3.519,13.344,13.344,0,0,1,1.116-2.575A8.828,8.828,0,0,1,77.75,118.9Z" transform="translate(-10.822 -17.57)"/>
      <path id="Tracé_435" data-name="Tracé 435" class="cls-12" d="M97.171,139.1a1.063,1.063,0,0,1,.172.258c.086.172.343.429.515.687.429.6,1.116,1.373,1.888,2.232a20.327,20.327,0,0,1,2.318,3.176,9.642,9.642,0,0,1,1.373,4.893l-.858-.858c-.515-.515-1.288-1.2-2.232-2.146a16.98,16.98,0,0,1-2.575-3.519A7.431,7.431,0,0,1,97.171,139.1Z" transform="translate(-14.277 -20.431)"/>
      <path id="Tracé_436" data-name="Tracé 436" class="cls-12" d="M82.7,147.4a4.867,4.867,0,0,0,.515.773,8.227,8.227,0,0,1,1.03,1.974,3.657,3.657,0,0,1,.086,1.717,4.256,4.256,0,0,1-.687,1.717,5.149,5.149,0,0,1-3.348,2.06s.086-.343.258-.858.343-1.2.6-1.974c.086-.343.258-.773.343-1.116s.172-.687.258-1.116a14.387,14.387,0,0,1,.258-1.545A4.435,4.435,0,0,1,82.7,147.4Z" transform="translate(-11.913 -21.606)"/>
      <path id="Tracé_437" data-name="Tracé 437" class="cls-12" d="M71.841,162.2a3.434,3.434,0,0,1,.258.773,8.349,8.349,0,0,1,.429,1.717,4.762,4.762,0,0,1-.258,2.146,8.044,8.044,0,0,1-1.8,2.661,4.093,4.093,0,0,1-.343-.687,7.737,7.737,0,0,1-.429-1.888,5.16,5.16,0,0,1,.343-2.489A4.141,4.141,0,0,1,71.841,162.2Z" transform="translate(-10.407 -23.702)"/>
      <path id="Tracé_438" data-name="Tracé 438" class="cls-12" d="M84.638,168.7v.258c0,.172.172.343.429.515a.656.656,0,0,0,.429.172l.515.258c.343.172.773.429,1.2.687a9.47,9.47,0,0,1,4.034,6.18,14.734,14.734,0,0,1-3.176-1.717,13.055,13.055,0,0,1-2.489-2.4,10.113,10.113,0,0,1-.944-1.631l-.086-.258a.315.315,0,0,1-.086-.258,1.241,1.241,0,0,1-.172-.6A1.162,1.162,0,0,1,84.638,168.7Z" transform="translate(-12.474 -24.622)"/>
      <path id="Tracé_439" data-name="Tracé 439" class="cls-12" d="M111.446,156.9l.172.172a3.268,3.268,0,0,1,.429.515,4.158,4.158,0,0,1,.858,2.06,4.206,4.206,0,0,1-.515,3,4.474,4.474,0,0,1-1.2,1.373,4.184,4.184,0,0,1-1.888.773v-.258c0-.172.086-.343.086-.6.086-.515.172-1.116.343-1.888s.343-1.545.515-2.4C110.673,158.874,110.931,158.016,111.446,156.9Z" transform="translate(-16.02 -22.951)"/>
      <path id="Tracé_440" data-name="Tracé 440" class="cls-12" d="M120.04,174.2v1.03a7.587,7.587,0,0,1-.687,2.661,7.023,7.023,0,0,1-2.489,2.833,7.431,7.431,0,0,1-2.06.858,5.631,5.631,0,0,1-2.4.086l.172-.172a2.739,2.739,0,0,1,.515-.6c.429-.429,1.03-1.116,1.717-1.888s1.459-1.545,2.318-2.4C117.98,175.917,118.924,175.058,120.04,174.2Z" transform="translate(-16.459 -25.401)"/>
      <path id="Tracé_441" data-name="Tracé 441" class="cls-12" d="M120.079,145.2a.266.266,0,0,1,.172.086,3.576,3.576,0,0,0,.515.172c.429.172.944.343,1.459.6a3.52,3.52,0,0,1,1.545,1.459,5.182,5.182,0,0,1,.429,1.373,2.913,2.913,0,0,1-.429,1.631.266.266,0,0,1-.172-.086,1.185,1.185,0,0,0-.343-.258c-.258-.172-.687-.429-1.2-.773a5.1,5.1,0,0,1-1.459-1.545,2.907,2.907,0,0,1-.515-1.288A1.9,1.9,0,0,1,120.079,145.2Z" transform="translate(-17.528 -21.294)"/>
      <path id="Tracé_442" data-name="Tracé 442" class="cls-12" d="M110.784,125.1s.343.172.773.343c.429.258,1.03.6,1.631.944a7.338,7.338,0,0,1,1.631,1.631,11.913,11.913,0,0,1,1.373,3.09h-.258a1.676,1.676,0,0,1-.6-.086,6.565,6.565,0,0,1-1.974-.773,5.094,5.094,0,0,1-1.974-2.06A3.87,3.87,0,0,1,110.784,125.1Z" transform="translate(-16.216 -18.448)"/>
      <path id="Tracé_443" data-name="Tracé 443" class="cls-12" d="M25.37,97s.172.343.429.773a6.487,6.487,0,0,1,.687,1.717,6.1,6.1,0,0,1,.343,2.232,11.651,11.651,0,0,1-.687,3.262l-.172-.172-.429-.429a8.236,8.236,0,0,1-1.116-1.8A5.983,5.983,0,0,1,24,99.747,4.679,4.679,0,0,1,25.37,97Z" transform="translate(-3.937 -14.469)"/>
      <path id="Tracé_444" data-name="Tracé 444" class="cls-12" d="M30.67,89.3s.172.343.429.773a6.487,6.487,0,0,1,.687,1.717,6.1,6.1,0,0,1,.343,2.232,11.651,11.651,0,0,1-.687,3.262l-.172-.172-.429-.429a8.236,8.236,0,0,1-1.116-1.8,5.983,5.983,0,0,1-.429-2.833A5.23,5.23,0,0,1,30.67,89.3Z" transform="translate(-4.687 -13.378)"/>
      <path id="Tracé_445" data-name="Tracé 445" class="cls-12" d="M18.632,85.8a5.781,5.781,0,0,1-.086.858c-.086.515-.172,1.2-.343,1.888a5.531,5.531,0,0,1-.944,2.06,14.424,14.424,0,0,1-2.318,2.4.266.266,0,0,0-.086-.172,2.184,2.184,0,0,0-.172-.6,5.925,5.925,0,0,1,0-2.146,5.439,5.439,0,0,1,1.2-2.575A5.532,5.532,0,0,1,18.632,85.8Z" transform="translate(-2.607 -12.883)"/>
      <path id="Tracé_446" data-name="Tracé 446" class="cls-12" d="M28.051,79.2a5.3,5.3,0,0,1-.086.773,15.568,15.568,0,0,1-.258,1.631,5.453,5.453,0,0,1-.773,1.8,13.767,13.767,0,0,1-1.974,2.06.266.266,0,0,0-.086-.172,3.035,3.035,0,0,1-.086-.515,6.27,6.27,0,0,1,0-1.8,4.807,4.807,0,0,1,1.03-2.232A3.266,3.266,0,0,1,28.051,79.2Z" transform="translate(-4.043 -11.948)"/>
      <path id="Tracé_447" data-name="Tracé 447" class="cls-12" d="M178.359,92.4s-.172.343-.429.773a6.487,6.487,0,0,0-.687,1.717,6.1,6.1,0,0,0-.343,2.232,11.651,11.651,0,0,0,.687,3.262l.172-.172.429-.429a8.236,8.236,0,0,0,1.116-1.8,5.983,5.983,0,0,0,.429-2.833A5.23,5.23,0,0,0,178.359,92.4Z" transform="translate(-25.593 -13.817)"/>
      <path id="Tracé_448" data-name="Tracé 448" class="cls-12" d="M173.059,84.8s-.172.343-.429.773a6.487,6.487,0,0,0-.687,1.717,6.1,6.1,0,0,0-.343,2.232,11.652,11.652,0,0,0,.687,3.262l.172-.172.429-.429A8.237,8.237,0,0,0,174,90.38a5.983,5.983,0,0,0,.429-2.833A5.23,5.23,0,0,0,173.059,84.8Z" transform="translate(-24.842 -12.741)"/>
      <path id="Tracé_449" data-name="Tracé 449" class="cls-12" d="M184.9,81.3a5.78,5.78,0,0,0,.086.858c.086.515.172,1.2.343,1.888a5.531,5.531,0,0,0,.944,2.06,14.424,14.424,0,0,0,2.318,2.4.266.266,0,0,1,.086-.172,2.184,2.184,0,0,1,.172-.6,5.925,5.925,0,0,0,0-2.146,5.439,5.439,0,0,0-1.2-2.575A5,5,0,0,0,184.9,81.3Z" transform="translate(-26.726 -12.245)"/>
      <path id="Tracé_450" data-name="Tracé 450" class="cls-12" d="M175.6,74.7a5.3,5.3,0,0,0,.086.773,15.57,15.57,0,0,0,.258,1.631,5.453,5.453,0,0,0,.773,1.8,13.766,13.766,0,0,0,1.974,2.06.266.266,0,0,1,.086-.172,3.035,3.035,0,0,0,.086-.515,6.269,6.269,0,0,0,0-1.8,4.807,4.807,0,0,0-1.03-2.232A3.024,3.024,0,0,0,175.6,74.7Z" transform="translate(-25.409 -11.311)"/>
      <path id="Tracé_451" data-name="Tracé 451" class="cls-12" d="M115,115.7a11.893,11.893,0,0,1,3.519,1.459,9.044,9.044,0,0,1,2.661,2.489,6.128,6.128,0,0,1,1.03,1.974,2.925,2.925,0,0,1-.086,2.4l-.172-.172c-.086-.086-.258-.343-.429-.515-.429-.429-1.03-.858-1.888-1.545A14.237,14.237,0,0,1,115,115.7Z" transform="translate(-16.827 -17.117)"/>
      <path id="Tracé_452" data-name="Tracé 452" class="cls-12" d="M106.508,12.5a7.707,7.707,0,0,1-.687,2.833,7.814,7.814,0,0,1-1.545,2.318,4.424,4.424,0,0,1-1.373,1.03,2.679,2.679,0,0,1-1.8.258l.172-.172c.086-.086.172-.258.343-.429.258-.343.515-.944.944-1.631A9.611,9.611,0,0,1,106.508,12.5Z" transform="translate(-14.858 -2.502)"/>
      <path id="Tracé_453" data-name="Tracé 453" class="cls-12" d="M115.963,8.9a4.887,4.887,0,0,1-.515,1.974,6.146,6.146,0,0,1-1.116,1.631,3.811,3.811,0,0,1-.944.687,1.664,1.664,0,0,1-1.288.172l.086-.086.258-.258c.172-.258.343-.6.687-1.116A7.8,7.8,0,0,1,115.963,8.9Z" transform="translate(-16.416 -1.993)"/>
      <path id="Tracé_454" data-name="Tracé 454" class="cls-12" d="M88.9,8.6a9.455,9.455,0,0,0,.944,3.691,9.416,9.416,0,0,0,2.06,3,8.2,8.2,0,0,0,1.8,1.373,3.351,3.351,0,0,0,2.4.343l-.172-.172a3.268,3.268,0,0,1-.429-.515,19.293,19.293,0,0,1-1.2-2.146A15.211,15.211,0,0,0,88.9,8.6Z" transform="translate(-13.131 -1.95)"/>
      <path id="Tracé_455" data-name="Tracé 455" class="cls-12" d="M83.5,14.9a6.536,6.536,0,0,0,.6,2.489,7.183,7.183,0,0,0,1.373,2.06,4.511,4.511,0,0,0,1.2.944,2.221,2.221,0,0,0,1.631.258.084.084,0,0,0-.086-.086,1.185,1.185,0,0,1-.258-.343,9.349,9.349,0,0,1-.858-1.459A9.068,9.068,0,0,0,83.5,14.9Z" transform="translate(-12.366 -2.842)"/>
    </g>
    <path id="Tracé_1178" data-name="Tracé 1178" class="cls-13" d="M2857.01,13230.795h142.806s-20.484-29.113-72.581-28.672S2857.01,13230.795,2857.01,13230.795Z" transform="translate(-1740.242 -286.168)"/>
    <rect id="Rectangle_306" data-name="Rectangle 306" class="cls-14" width="15" height="11" transform="translate(1182 12905)"/>
    <rect id="Rectangle_307" data-name="Rectangle 307" class="cls-15" width="3" height="92" transform="translate(1191 12905) rotate(180)"/>
    <g id="Groupe_351" data-name="Groupe 351" transform="translate(1595.77 12955.762)">
      <path id="Tracé_213" data-name="Tracé 213" class="cls-16" d="M0,14.657A14.714,14.714,0,0,1,14.657,0h76.56a14.714,14.714,0,0,1,14.657,14.657V136.965a14.714,14.714,0,0,1-14.657,14.657H14.657A14.631,14.631,0,0,1,0,137.02Z"/>
    </g>
    <g id="Groupe_352" data-name="Groupe 352" transform="translate(1610.426 12961.147)">
      <path id="Tracé_214" data-name="Tracé 214" class="cls-17" d="M106.426,12a11.835,11.835,0,0,1,11.825,11.825V143.857a11.835,11.835,0,0,1-11.825,11.825h-65.9A11.835,11.835,0,0,1,28.7,143.857V23.825A11.871,11.871,0,0,1,40.525,12h65.9Z" transform="translate(-27.423 -10.723)"/>
      <path id="Tracé_215" data-name="Tracé 215" class="cls-8" d="M39.5,153.327h0a10.52,10.52,0,0,1-10.493-10.493V22.8A10.52,10.52,0,0,1,39.5,12.309h65.9A10.52,10.52,0,0,1,115.9,22.8V142.834A10.52,10.52,0,0,1,105.4,153.327Zm0,2.665h65.9a13.127,13.127,0,0,0,13.1-13.1V22.8A13.127,13.127,0,0,0,105.4,9.7H39.5A13.127,13.127,0,0,0,26.4,22.8V142.834a13.174,13.174,0,0,0,13.1,13.158Z" transform="translate(-26.4 -9.7)"/>
    </g>
    <path id="Tracé_1179" data-name="Tracé 1179" class="cls-18" d="M150.486,113.836V76.157L146.1,70.5v40.949Z" transform="translate(1530.781 12956.781)"/>
    <g id="Groupe_353" data-name="Groupe 353" transform="translate(1627.082 12996.09)">
      <g id="Groupe_62" data-name="Groupe 62" transform="translate(0 0)">
        <g id="Groupe_61" data-name="Groupe 61">
          <g id="Groupe_60" data-name="Groupe 60">
            <g id="Groupe_57" data-name="Groupe 57" transform="translate(0.056 0)">
              <path id="Tracé_217" data-name="Tracé 217" class="cls-19" d="M56.5,58.6v80.7c37.808-19.877,39.418-30.361,23.818-58.646C75.321,71.523,66.882,64.049,56.5,58.6Z" transform="translate(-56.5 -58.6)"/>
            </g>
            <g id="Groupe_59" data-name="Groupe 59">
              <path id="Tracé_218" data-name="Tracé 218" class="cls-20" d="M75.544,149.191h44.915c-.056-2.18-.222-4.36-.444-6.591H75.1c.222,2.232.389,4.411.444,6.591Z" transform="translate(-64.718 -112.083)"/>
              <g id="Groupe_58" data-name="Groupe 58">
                <path id="Tracé_219" data-name="Tracé 219" class="cls-21" d="M57.455,137.65a55.752,55.752,0,0,0,6.44-14.428,83.469,83.469,0,0,0,3-16.037A87.431,87.431,0,0,0,64.062,74.8a53.641,53.641,0,0,0-7.551-16.4h44.915a30.554,30.554,0,0,1,2,3.114,46.985,46.985,0,0,1,3.276,6.7,73.075,73.075,0,0,1,4.219,15.206A89.43,89.43,0,0,1,112.2,99.764a101.941,101.941,0,0,1-1.555,15.881,64.769,64.769,0,0,1-4.608,15.258c-1,2.284-5.33,4.463-6.662,6.591-.333.519-5.163,1.038-5.552,1.557-.111.156-4.608.156-4.719.156H56.4a18.747,18.747,0,0,0,1.055-1.557C57.677,137.339,57.4,137.754,57.455,137.65Z" transform="translate(-56.4 -58.4)"/>
              </g>
            </g>
          </g>
        </g>
        <path id="Tracé_220" data-name="Tracé 220" class="cls-22" d="M95.924,129.956l16.989,18.891s-3.054,11.574-8.05,11.574H70.107c.167-1.142.278-2.335.389-3.477a87.431,87.431,0,0,0-2.831-32.385,62.109,62.109,0,0,0-3.165-8.615l3.72-2.543Z" transform="translate(-60.003 -108.158)"/>
      </g>
      <g id="Groupe_63" data-name="Groupe 63" class="cls-23" transform="translate(1.055 79.25)">
        <path id="Tracé_221" data-name="Tracé 221" class="cls-24" d="M58.3,61.4Z" transform="translate(-58.3 -61.4)"/>
      </g>
      <g id="Groupe_64" data-name="Groupe 64" class="cls-25" transform="translate(1.055 79.25)">
        <path id="Tracé_222" data-name="Tracé 222" class="cls-26" d="M58.3,61.325Z" transform="translate(-58.3 -61.325)"/>
      </g>
      <g id="Groupe_65" data-name="Groupe 65" class="cls-27" transform="translate(1.055 57.349)">
        <path id="Tracé_223" data-name="Tracé 223" class="cls-28" d="M111.487,51.1c0,.052-.056.1-.056.156-1.388,5.346-5.5,11.47-8.827,11.47H63.186A75.873,75.873,0,0,1,58.3,74.3v4.048H88.613a38.352,38.352,0,0,0,4.553-.156c.389-.519,5.163-1.038,5.552-1.557,1.332-2.076,5.663-4.308,6.662-6.591.611-1.4,1.166-2.8,1.666-4.256A65.3,65.3,0,0,0,111.487,51.1Z" transform="translate(-58.3 -51.1)"/>
      </g>
    </g>
    <rect id="Rectangle_308" data-name="Rectangle 308" class="cls-17" width="59.683" height="7.37" transform="translate(1623.25 12992.561)"/>
    <path id="Tracé_1180" data-name="Tracé 1180" class="cls-29" d="M114.356,205.4H65v3.166h45.026Z" transform="translate(1566.855 12792.039)"/>
    <path id="Tracé_1181" data-name="Tracé 1181" class="cls-17" d="M103.908,60.614H49.5V45.2h53.52Z" transform="translate(1573.75 13023.133)"/>
    <g id="Groupe_354" data-name="Groupe 354" transform="translate(1635.299 12993.702)">
      <path id="Tracé_226" data-name="Tracé 226" class="cls-19" d="M90.187,135.7a2.077,2.077,0,0,0-.777.156L74.7,141.72c-1.11.467-2.443,1.038-3.5,1.609a65.344,65.344,0,0,1,5.552,16.4,91.925,91.925,0,0,1,1.832,19.047c1.11-.986,2.276-2.076,3.109-2.958l13.213-13.909c1.666-1.765,12.381-5.968,11.659-9.342l-3.72-11.989C102.179,137.672,91.853,135.7,90.187,135.7Z" transform="translate(-71.2 -135.7)"/>
    </g>
    <path id="Tracé_1182" data-name="Tracé 1182" class="cls-30" d="M87.654,158.951c3.165-3.322,6.329-6.7,9.494-10.017,1.166-1.246,2.387-2.491,3.553-3.737a7.374,7.374,0,0,0,1.666-3.166,14.343,14.343,0,0,0,.278-6.332h35.81c.222,0-4.442,1.816-4.442,2.076.056,1.349,6.218,2.8,5.829,4.152a8.035,8.035,0,0,1-.944,2.232,9.617,9.617,0,0,1-1.332,1.609c-3.664,3.841-7.328,7.733-10.993,11.574-.5.519-.944.986-1.443,1.505-.389.415-.777.83-1.221,1.246l-1.555,1.453c-.111.1-.278.363-.444.363H84.6C85.655,160.975,86.654,159.989,87.654,158.951Z" transform="translate(1558.137 12874.869)"/>
    <path id="Tracé_1183" data-name="Tracé 1183" class="cls-21" d="M122.944,174.2h19.82c2.443,0,3.664,3.114,4,4.93l2.5,11.989H149.2c.222,0,.278,1.868.278,2.076a12.921,12.921,0,0,1-.444,4.1h-37.42a13.648,13.648,0,0,0,.222-6.176l-2.5-11.989h0a5.306,5.306,0,0,1-.278-1.09c-.5-1.505-1.666-3.841-3.664-3.841Z" transform="translate(1548.887 12819.502)"/>
    <rect id="Rectangle_309" data-name="Rectangle 309" class="cls-17" width="12.547" height="108.885" transform="translate(1619.363 12982.492)"/>
    <path id="Tracé_1184" data-name="Tracé 1184" class="cls-31" d="M51.573,76.5c-.666.675-1.332,1.3-1.888,1.868L36.8,92.277c-1.666,1.765-2.443,5.968-1.721,9.342l2.443,11.989c.611,2.906,2.221,4.93,3.886,4.93a2.076,2.076,0,0,0,.777-.156l4.664-1.972c.555,7.214,2.665,16.037,4.775,22.991V76.5Z" transform="translate(1580.283 12928.101)"/>
    <path id="Tracé_1185" data-name="Tracé 1185" class="cls-32" d="M114.356,73.032H65V70.8h45.026Z" transform="translate(1566.855 12997.43)"/>
    <text id="OFF" class="cls-33" transform="translate(1637 13101)"><tspan x="0" y="0">OFF</tspan></text>
    <text id="ON" class="cls-33" transform="translate(1637 12987)"><tspan x="0" y="0">ON</tspan></text>
  </g>
</svg>
