<svg xmlns="http://www.w3.org/2000/svg" xmlns:xlink="http://www.w3.org/1999/xlink" viewBox="-1999 12765 1920 1200">
  <defs>
    <style>
      .cls-1 {
        clip-path: url(#clip-Screen-4-3);
      }

      .cls-2 {
        fill: #4d1d1d;
      }

      .cls-3 {
        fill: #381515;
      }

      .cls-4 {
        fill: #290f0f;
      }

      .cls-5 {
        clip-path: url(#clip-path);
      }

      .cls-6 {
        fill: #ff82a2;
      }

      .cls-7 {
        fill: #e36b89;
      }

      .cls-8 {
        fill: #fff;
      }

      .cls-9 {
        fill: #deb852;
      }

      .cls-10 {
        fill: #386eff;
      }

      .cls-11 {
        fill: #87a7ff;
      }
    </style>
    <clipPath id="clip-path">
      <path id="Tracé_382" data-name="Tracé 382" d="M560.43,183.908C544.366,44.146,365.82-5.883,280.678.543,195.536-5.883,16.991,44.146.926,183.908s181.758,88.355,212.281,77.11,67.471-11.245,67.471-11.245,36.948,0,67.471,11.245S576.495,323.669,560.43,183.908Z"/>
    </clipPath>
    <clipPath id="clip-Screen-4-3">
      <rect x="-1999" y="12765" width="1920" height="1200"/>
    </clipPath>
  </defs>
  <g id="Screen-4-3" class="cls-1">
    <g id="Groupe_356" data-name="Groupe 356" transform="translate(-749.759 13519.318) rotate(180)">
      <g id="Groupe_119" data-name="Groupe 119" transform="translate(8.578 17.817)">
        <path id="Tracé_377" data-name="Tracé 377" class="cls-2" d="M560.43,183.908C544.366,44.146,365.82-5.883,280.678.543,195.536-5.883,16.991,44.146.926,183.908s181.758,88.355,212.281,77.11,67.471-11.245,67.471-11.245,36.948,0,67.471,11.245S576.495,323.669,560.43,183.908Z" transform="translate(0 0)"/>
        <path id="Tracé_378" data-name="Tracé 378" class="cls-3" d="M451.257,139.513C438.405,33.258,294.513-4.379,226.124.44,157.506-4.608,13.843,33.258.762,139.513s146.187,67.012,170.972,58.521,54.39-8.491,54.39-8.491,29.834,0,54.39,8.491S464.338,245.539,451.257,139.513Z" transform="translate(54.554 33.838)"/>
        <path id="Tracé_379" data-name="Tracé 379" class="cls-4" d="M337.7,112.091C328.065,26.949,220.433-3.573,169.027.328,117.85-3.573,10.447,26.949.579,112.091s109.468,53.931,127.828,47.046,40.62-6.885,40.62-6.885,22.261,0,40.62,6.885C228.236,166.022,347.572,197.233,337.7,112.091Z" transform="translate(111.422 54.604)"/>
      </g>
      <g id="Groupe_138" data-name="Groupe 138" transform="translate(8.578 17.817)">
        <g id="Groupe_120" data-name="Groupe 120" class="cls-5" transform="translate(0 0)">
          <path id="Tracé_380" data-name="Tracé 380" class="cls-6" d="M82.847,6.381C19.736,15.79,3.9,26.347,0,47.919c59.668,8.95,124.385,16.524,168.677,16.524,42.456,0,103.5-7.114,160.875-15.376C312.8-6.471,159.957-5.094,82.847,6.381Z" transform="translate(111.771 19.176)"/>
          <path id="Tracé_381" data-name="Tracé 381" class="cls-7" d="M295.816,0C202.642,2.065,0,64.258,0,64.258c27.31,5.508,75.274,14.229,127.139,22.031,2.983-13.54,15.606-33.506,79.634-36.719,98.911-4.819,225.821-9.639,250.147,37.866C511.769,79.4,563.176,70,591.862,64.258,591.633,64.258,388.991,2.065,295.816,0Z" transform="translate(-15.138 -19.194)"/>
        </g>
        <g id="Groupe_121" data-name="Groupe 121" class="cls-5" transform="translate(0 0)">
          <path id="Tracé_383" data-name="Tracé 383" class="cls-7" d="M372.7,22.72c-3.213-7.114-7.114-13.311-12.163-17.9-6.885,8.032-16.524,12.622-25.7,14.917,1.377.229,2.524.459,3.672.688C306.144,15.606,228.116,0,194.151,0c-39.473,0-75.5,8.95-118.877,18.589a220.8,220.8,0,0,1-33.047,4.819C30.982,18.13,28,9.868,28.228,2.295c-6.655,4.59-11.7,12.163-15.606,20.884.918,0,1.606.229,2.524.229-.918,0-1.836-.229-2.524-.229C0,51.865,0,94.322,0,94.322L193,61.045l193,33.277C385.319,94.092,385.319,51.406,372.7,22.72Zm-335.519.689a21,21,0,0,0-3.9.229A22.266,22.266,0,0,1,37.178,23.408ZM42,23.179c-1.606,0-3.213.229-4.59.229C39.014,23.408,40.391,23.179,42,23.179Zm-24.326.229a6.354,6.354,0,0,1-2.065-.229A6.354,6.354,0,0,1,17.671,23.408Zm6.655.229H22.031A7.693,7.693,0,0,1,24.326,23.638Zm-3.442-.229h0Zm4.59.229h0Zm6.885,0h0Zm312.8-2.524a10.292,10.292,0,0,0,2.524.229A10.292,10.292,0,0,1,345.157,21.113Zm-6.426-.918c1.147.229,2.065.229,3.213.459A13.544,13.544,0,0,1,338.732,20.2Zm3.442.688c.918.229,1.836.229,2.524.459A9.76,9.76,0,0,0,342.174,20.884Z" transform="translate(88.134 237.15)"/>
          <path id="Tracé_384" data-name="Tracé 384" class="cls-6" d="M332.547,30.594a31.18,31.18,0,0,0-9.409-5.967C288.943,11.776,196.687-1.076,164.558.072,132.429-1.076,40.173,11.776,5.978,24.627A21.541,21.541,0,0,0,.011,27.84c-.229,7.573,2.983,15.835,14,21.113a220.806,220.806,0,0,0,33.047-4.819C90.432,34.5,126.691,25.545,165.935,25.545c32.818,0,106.255,14.458,140.679,19.966C316.023,43.216,325.662,38.856,332.547,30.594Z" transform="translate(116.12 211.146)"/>
        </g>
        <g id="Groupe_123" data-name="Groupe 123" class="cls-5" transform="translate(0 0)">
          <path id="Tracé_386" data-name="Tracé 386" class="cls-8" d="M32.745.015C56.383.015,53.17,23.653,53.17,37.422S42.384,83.55,27.467,99.615s-33.276-75.044-25.7-87.9C9.108-.9,20.812.015,32.745.015Z" transform="translate(126.301 41.837)"/>
          <g id="Groupe_122" data-name="Groupe 122" transform="translate(151.933 50.113)">
            <path id="Tracé_387" data-name="Tracé 387" class="cls-9" d="M20.2,0a2.512,2.512,0,0,1,.459.918c.229.688.688,1.606,1.147,2.754s.918,2.754,1.377,4.36l.688,2.754c.229.918.229,2.065.459,3.213a69.5,69.5,0,0,1,.459,7.114v3.9c0,1.377-.229,2.754-.229,4.131a25.289,25.289,0,0,1-.459,4.131,33.994,33.994,0,0,1-.688,4.36c-.459,2.754-1.147,5.737-1.836,8.491s-1.606,5.737-2.524,8.491a79.273,79.273,0,0,1-3.213,7.8c-1.147,2.524-2.295,4.819-3.442,7.114A29.445,29.445,0,0,1,8.721,75.5a43.78,43.78,0,0,1-3.442,4.819C4.36,81.7,3.213,82.847,2.524,83.995A35.367,35.367,0,0,1,0,86.978a31.417,31.417,0,0,1,1.606-3.672c.459-1.147,1.147-2.524,1.836-4.131s1.377-3.442,2.295-5.508,1.606-4.131,2.524-6.426,1.606-4.819,2.524-7.114c.918-2.524,1.606-5.049,2.524-7.8.688-2.754,1.606-5.278,2.295-8.032s1.377-5.508,1.836-8.032c.459-2.754,1.147-5.278,1.377-8.032a22.611,22.611,0,0,0,.459-3.9c.229-1.147.229-2.524.459-3.672a17.37,17.37,0,0,0,.229-3.442c0-1.147.229-2.295.229-3.213,0-2.065.229-4.131.229-5.737V3.9c0-1.147-.229-2.295-.229-2.983C20.2.459,20.2,0,20.2,0Z" transform="translate(0)"/>
          </g>
        </g>
        <g id="Groupe_125" data-name="Groupe 125" class="cls-5" transform="translate(0 0)">
          <path id="Tracé_389" data-name="Tracé 389" class="cls-8" d="M24.556.055C52.324,1.891,72.749,16.12,71.6,43.888S53.472,95.295,34.194,96.442,0,52.609,0,34.25,8.491-1.092,24.556.055Z" transform="translate(191.176 52.583)"/>
          <g id="Groupe_124" data-name="Groupe 124" transform="translate(223.305 61.358)">
            <path id="Tracé_390" data-name="Tracé 390" class="cls-9" d="M13.77,0A22.693,22.693,0,0,1,17.9,1.836a36.578,36.578,0,0,1,9.639,7.8,42.768,42.768,0,0,1,4.819,7.114,36.068,36.068,0,0,1,3.213,9.18A37.875,37.875,0,0,1,36.26,36.26l-.229,2.524-.459,2.524c-.229,1.606-.688,3.442-.918,5.049a49.607,49.607,0,0,1-3.213,9.868,53.943,53.943,0,0,1-4.36,8.95A63.082,63.082,0,0,1,21.8,72.749a36.659,36.659,0,0,1-5.967,5.967c-3.9,3.442-8.262,5.278-11.245,5.508a16.57,16.57,0,0,1-3.442,0A4.017,4.017,0,0,0,0,83.995H1.147a7.679,7.679,0,0,0,3.213-.918c2.524-.918,5.737-3.442,8.95-6.885A72.5,72.5,0,0,0,17.9,70a58.927,58.927,0,0,0,4.131-7.573c1.377-2.754,2.524-5.508,3.672-8.491a66.7,66.7,0,0,0,2.754-8.95,32.495,32.495,0,0,0,.918-4.59l.459-2.295.229-2.524a36.936,36.936,0,0,0,0-8.721,45.475,45.475,0,0,0-1.836-8.032,32.177,32.177,0,0,0-3.442-6.885,45.081,45.081,0,0,0-7.573-8.95C15.147,1.147,13.77,0,13.77,0Z"/>
          </g>
        </g>
        <g id="Groupe_127" data-name="Groupe 127" class="cls-5" transform="translate(0 0)">
          <path id="Tracé_392" data-name="Tracé 392" class="cls-8" d="M35.393,0C50.311,0,59.031,4.819,64.31,14.917c6.885,13.081,0,78.257-23.638,82.618S-1.1,69.766.052,46.128,8.543,0,35.393,0Z" transform="translate(279.02 53.785)"/>
          <g id="Groupe_126" data-name="Groupe 126" transform="translate(317.168 58.604)">
            <path id="Tracé_393" data-name="Tracé 393" class="cls-9" d="M2.983,0H4.131A10.833,10.833,0,0,1,7.573.459a16.1,16.1,0,0,1,5.278,1.836,15.508,15.508,0,0,1,5.967,4.59,21.536,21.536,0,0,1,4.36,7.8,33.749,33.749,0,0,1,1.377,9.639c.229,3.213.229,6.426.229,9.868s-.229,6.885-.459,10.327-.918,6.885-1.377,10.1a59.259,59.259,0,0,1-2.295,9.639,59.325,59.325,0,0,1-7.344,16.294,29.109,29.109,0,0,1-4.59,5.508,20.7,20.7,0,0,1-4.36,3.213A26.239,26.239,0,0,1,1.147,90.65,9.649,9.649,0,0,0,0,91.109a3.962,3.962,0,0,0,.918-.688,16.738,16.738,0,0,0,2.524-2.065,19.787,19.787,0,0,0,3.442-3.9A26.876,26.876,0,0,0,10.1,78.716c.918-2.295,1.836-4.59,2.754-7.344s1.606-5.508,2.295-8.491,1.147-6.2,1.606-9.409.918-6.426,1.147-9.868a71.324,71.324,0,0,0,.688-9.868c.23-3.213.459-6.426.459-9.639v-4.36a25.289,25.289,0,0,0-.459-4.131,22.425,22.425,0,0,0-2.524-6.885c-2.524-3.9-6.2-5.967-8.721-7.344A18.771,18.771,0,0,0,4.131.23,6.439,6.439,0,0,0,2.983,0Z"/>
          </g>
        </g>
        <g id="Groupe_129" data-name="Groupe 129" class="cls-5" transform="translate(0 0)">
          <path id="Tracé_395" data-name="Tracé 395" class="cls-8" d="M.49,25.973C4.621-1.108,37.9-7.3,45.47,8.761s1.147,94.322-14,96.387C22.062,106.525-3.871,54.889.49,25.973Z" transform="translate(368.543 34.238)"/>
          <g id="Groupe_128" data-name="Groupe 128" transform="translate(395.884 38.868)">
            <path id="Tracé_396" data-name="Tracé 396" class="cls-9" d="M0,0H1.147A11.589,11.589,0,0,1,4.59.459,17.161,17.161,0,0,1,9.639,2.983,17.5,17.5,0,0,1,14,8.95a36.719,36.719,0,0,1,2.524,8.032,59.239,59.239,0,0,1,.918,9.18c.23,3.213,0,6.426,0,9.639-.23,3.213-.23,6.426-.459,9.639s-.459,6.426-.688,9.868c-.23,3.213-.689,6.426-.918,9.409S14.458,70.684,14,73.438s-1.147,5.508-1.606,7.8A32.347,32.347,0,0,1,7.573,92.486a10.785,10.785,0,0,1-2.524,2.295A9.649,9.649,0,0,0,3.9,95.24a3.962,3.962,0,0,0,.918-.688A11.071,11.071,0,0,0,6.655,91.8C7.8,89.273,8.491,85.371,8.95,80.552c.23-2.295.459-5.049.459-7.8.23-2.754.23-5.737.459-8.721.23-6.2.459-12.622.689-19.048.23-3.213.459-6.426.459-9.639.23-3.213.459-6.2.459-9.18V17.671a35.169,35.169,0,0,0-1.147-7.344A15.356,15.356,0,0,0,7.8,4.819,11.1,11.1,0,0,0,4.131,1.836C2.983,1.147,1.836.918,1.147.459A9.653,9.653,0,0,1,0,0Z" transform="translate(0)"/>
          </g>
        </g>
        <g id="Groupe_131" data-name="Groupe 131" class="cls-5" transform="translate(0 0)">
          <path id="Tracé_398" data-name="Tracé 398" class="cls-8" d="M8.49,57.062c-11.7-2.524-12.852-47.046,6.426-55.767S56.684,30.211,52.323,45.128C48.193,60.275,23.637,60.275,8.49,57.062Z" transform="translate(135.181 187.203)"/>
          <g id="Groupe_130" data-name="Groupe 130" transform="translate(157.67 191.94)">
            <path id="Tracé_399" data-name="Tracé 399" class="cls-9" d="M0,0A12.514,12.514,0,0,1,2.295.918,40.138,40.138,0,0,1,8.032,4.131a47.1,47.1,0,0,1,13.77,14,48.557,48.557,0,0,1,2.524,4.819A21.467,21.467,0,0,1,25.933,28a20.467,20.467,0,0,1,.688,5.049,28.252,28.252,0,0,1-.459,4.59c-.229.688-.229,1.377-.459,2.065a11.184,11.184,0,0,1-.688,1.606,12.444,12.444,0,0,1-1.377,2.524L22.261,45.9A15.455,15.455,0,0,1,22.49,43.6V40.85a19.819,19.819,0,0,0-.229-3.442c-.229-1.147-.459-2.524-.688-3.672A14.588,14.588,0,0,0,20.2,29.6a32.511,32.511,0,0,0-1.836-4.131c-.688-1.377-1.606-2.754-2.295-4.131A175.34,175.34,0,0,0,5.278,6.655C3.672,4.59,2.295,2.983,1.377,1.836S0,0,0,0Z"/>
          </g>
        </g>
        <g id="Groupe_133" data-name="Groupe 133" class="cls-5" transform="translate(0 0)">
          <path id="Tracé_401" data-name="Tracé 401" class="cls-8" d="M4.648,49.683C-2.926,46.011-2.926,4.7,17.5.342S54.907,34.537,48.481,44.176,21.86,58.175,4.648,49.683Z" transform="translate(223.706 185.172)"/>
          <g id="Groupe_132" data-name="Groupe 132" transform="translate(246.025 188.727)">
            <path id="Tracé_402" data-name="Tracé 402" class="cls-9" d="M0,0A1.776,1.776,0,0,1,.688.229,7.1,7.1,0,0,1,2.524.688c.688.229,1.606.688,2.754,1.147A18.472,18.472,0,0,1,8.491,3.9a31.851,31.851,0,0,1,6.655,6.885,43.236,43.236,0,0,1,5.278,9.639A27.585,27.585,0,0,1,22.261,31.67a19.549,19.549,0,0,1-.918,5.278,13.16,13.16,0,0,1-2.295,4.36,35.3,35.3,0,0,1-2.754,2.983c-.459.229-.918.688-1.377.918a5.015,5.015,0,0,0-1.147.688,9.447,9.447,0,0,1-1.836.688,1.776,1.776,0,0,1-.689.229l.459-.459a8.737,8.737,0,0,0,1.147-1.377c.459-.688.918-1.377,1.606-2.295.459-.918.918-1.836,1.377-2.983a17.4,17.4,0,0,0,.688-3.672,12.479,12.479,0,0,0,0-4.131,37.191,37.191,0,0,0-.688-4.59c-.459-1.606-.918-2.983-1.377-4.59A69.957,69.957,0,0,0,5.967,6.655,28.671,28.671,0,0,0,3.9,3.9c-.688-.688-1.377-1.606-1.836-2.065A6.085,6.085,0,0,0,.688.688Z"/>
          </g>
        </g>
        <g id="Groupe_135" data-name="Groupe 135" class="cls-5" transform="translate(0 0)">
          <path id="Tracé_404" data-name="Tracé 404" class="cls-8" d="M3.913,51.428C-4.119,48.674-.447,1.169,21.125.022,42.468-1.126,51.188,43.855,45.681,51.428S16.765,55.559,3.913,51.428Z" transform="translate(296.502 183.198)"/>
          <g id="Groupe_134" data-name="Groupe 134" transform="translate(319.233 186.203)">
            <path id="Tracé_405" data-name="Tracé 405" class="cls-9" d="M0,0A1.776,1.776,0,0,1,.689.23,3.663,3.663,0,0,1,2.524.918c.688.459,1.606.918,2.754,1.606A29.073,29.073,0,0,1,8.262,5.049a41.463,41.463,0,0,1,5.967,7.573,58.8,58.8,0,0,1,4.819,10.1,24.209,24.209,0,0,1,1.377,5.508,43.635,43.635,0,0,1,.689,5.737,22.346,22.346,0,0,1-.459,5.508,11.132,11.132,0,0,1-1.836,4.819,9.668,9.668,0,0,1-2.754,3.213,8.7,8.7,0,0,1-2.983,1.377,7.382,7.382,0,0,1-1.836.229h-.688a13.014,13.014,0,0,0,2.065-1.377,5,5,0,0,0,1.606-2.065l.688-1.377a3.317,3.317,0,0,0,.459-1.606,20.21,20.21,0,0,0,.459-3.9,28.123,28.123,0,0,0-.459-4.36,54.5,54.5,0,0,0-2.524-9.639c-1.147-3.213-2.295-6.426-3.672-9.639-.689-1.377-1.377-2.983-2.065-4.36S5.737,8.262,5.278,7.114C4.59,5.967,4.131,4.819,3.442,3.9S2.295,2.295,1.836,1.606C1.377,1.148.918.459.459.23A.8.8,0,0,1,0,0Z"/>
          </g>
        </g>
        <g id="Groupe_137" data-name="Groupe 137" class="cls-5" transform="translate(0 0)">
          <path id="Tracé_407" data-name="Tracé 407" class="cls-8" d="M2.64,54.966C-6.081,50.146,7.918,5.625,28.343.346s27.769,51.406,20.425,58.98C41.194,66.67,12.278,60.244,2.64,54.966Z" transform="translate(367.541 181.725)"/>
          <g id="Groupe_136" data-name="Groupe 136" transform="translate(399.555 185.514)">
            <path id="Tracé_408" data-name="Tracé 408" class="cls-9" d="M0,0A1.776,1.776,0,0,1,.689.229,3.9,3.9,0,0,1,2.065,1.606a38.445,38.445,0,0,1,3.9,5.967,54.978,54.978,0,0,1,3.9,8.95A83,83,0,0,1,12.852,27.31,62.308,62.308,0,0,1,14,38.555a28.243,28.243,0,0,1-1.836,10.1c-.23.688-.689,1.377-.918,2.065A9.716,9.716,0,0,1,10.1,52.324,16.737,16.737,0,0,1,7.573,54.39c-.459.229-.688.459-1.147.459a1.38,1.38,0,0,0-.918.229H4.819l.459-.459c.23-.229.459-.229.689-.459l.688-.688A7.179,7.179,0,0,0,7.8,51.177q.344-1.377.688-3.442C8.95,42.686,7.8,35.571,6.426,28.457,5.737,24.785,5.049,21.343,4.36,17.9S2.983,11.475,2.3,8.721,1.148,3.672.689,2.065A7.094,7.094,0,0,1,.23.229Z"/>
          </g>
        </g>
      </g>
      <g id="Groupe_143" data-name="Groupe 143" transform="translate(0 0)">
        <g id="Groupe_139" data-name="Groupe 139">
          <path id="Tracé_410" data-name="Tracé 410" class="cls-10" d="M562.123,202.413c0-.459-.23-1.836-.459-3.672-.229-1.377-.459-2.983-.688-5.049a36.83,36.83,0,0,0-1.147-6.655c-.459-2.295-.918-5.049-1.606-8.032s-1.607-6.2-2.524-9.639a182.9,182.9,0,0,0-8.95-23.408c-.918-2.065-2.295-4.131-3.442-6.426a70.775,70.775,0,0,0-3.9-6.655c-1.377-2.065-2.983-4.36-4.36-6.655-1.606-2.065-3.442-4.36-5.049-6.655A164.763,164.763,0,0,0,503.6,94.092a206.949,206.949,0,0,0-35.571-21.8,290.369,290.369,0,0,0-43.145-16.524A390.61,390.61,0,0,0,376,44.751C359.022,42,341.351,39.7,323.221,38.325c-2.295-.229-4.59-.229-6.885-.459-2.295,0-4.59-.229-6.885-.229-2.295-.229-4.59-.229-6.885-.229s-4.59-.229-6.885-.229h-14c-4.59.229-9.18.229-14,.459s-9.639.688-14.458.918l-14.458,1.377c-4.819.459-9.639,1.147-14.688,1.606-2.524.229-4.819.688-7.344,1.147a70.266,70.266,0,0,0-7.344,1.147A370.6,370.6,0,0,0,149.954,57.6a262.125,262.125,0,0,0-29.146,11.016A246.422,246.422,0,0,0,93.039,83.306l-6.655,4.36c-2.295,1.377-4.36,3.213-6.426,4.59l-3.213,2.295a34.336,34.336,0,0,0-2.983,2.524c-2.065,1.606-4.131,3.442-6.2,5.049A130,130,0,0,0,56.321,113.37l-3.213,3.213a29.07,29.07,0,0,0-2.524,2.983l-4.819,6.426a66.47,66.47,0,0,0-4.36,6.655l-2.065,3.442a25.084,25.084,0,0,0-1.836,3.442c-1.147,2.295-2.524,4.59-3.672,7.114l-3.213,7.344a70.1,70.1,0,0,0-2.983,7.344c-.918,2.524-1.836,4.819-2.754,7.573-1.377,5.049-2.983,10.1-3.9,15.376-.459,2.524-1.147,5.049-1.606,7.8l-1.147,7.8a22.611,22.611,0,0,0-.459,3.9l-.229,4.131a22.265,22.265,0,0,0-.229,3.9,22.151,22.151,0,0,0,0,3.9c0,10.327,1.377,20.425,5.049,29.6a56.718,56.718,0,0,0,16.523,22.949,73.663,73.663,0,0,0,25.7,13.081,128.6,128.6,0,0,0,29.834,4.819,197.006,197.006,0,0,0,30.752-.459c20.425-1.606,40.62-5.508,60.127-10.327,9.639-2.524,19.507-5.049,28.457-8.262l3.213-1.147,1.377-.459.918-.229,1.836-.688c2.524-.689,4.819-1.606,7.114-2.295,1.147-.459,2.524-.689,3.9-1.147l4.131-1.147c2.754-.688,5.508-1.377,8.262-1.836a299.858,299.858,0,0,1,31.211-4.36c2.524-.229,5.278-.229,7.8-.459l3.9-.229h4.131c5.508.229,10.327.459,15.376.918l7.573.688c2.524.229,5.049.689,7.344.918,4.819.688,9.868,1.836,14.688,2.754,4.819,1.147,9.639,2.295,14.458,3.672,2.295.918,4.819,1.606,7.114,2.295l3.442,1.147c.918.229,2.295.918,2.983,1.147,3.672,1.377,7.8,2.754,11.7,3.9,4.131,1.147,8.032,2.524,12.163,3.442,8.032,2.295,16.064,4.131,23.867,5.967,31.441,6.655,61.275,9.409,86.519,5.737,12.622-1.836,23.867-5.278,33.047-10.327a59.847,59.847,0,0,0,20.884-18.818c4.819-7.114,7.114-14.688,8.721-21.343a87.172,87.172,0,0,0,1.836-17.671v-6.426c0-1.836-.23-3.442-.23-4.819a12.846,12.846,0,0,1-.918-3.9Zm13.77-1.606h0c0,.229.229,1.606.459,4.36.229,1.377.229,3.213.459,5.278a71.407,71.407,0,0,1,.23,7.344,118.234,118.234,0,0,1-1.606,20.425,78.507,78.507,0,0,1-10.1,26.621,73.361,73.361,0,0,1-25.474,24.785c-11.016,6.655-24.1,11.245-38.1,14.229a234.079,234.079,0,0,1-44.981,4.131,332.77,332.77,0,0,1-49.112-3.672c-8.491-1.147-17.212-2.754-25.933-4.59-4.36-.918-8.721-1.836-13.311-2.983s-8.95-2.295-13.77-3.9c-1.377-.459-2.295-.689-3.442-1.147l-2.983-.918a59.26,59.26,0,0,1-5.967-1.836c-3.9-1.147-8.262-1.836-12.393-2.754-4.36-.688-8.491-1.377-12.852-1.836-2.295-.229-4.36-.459-6.655-.688a64.836,64.836,0,0,0-6.655-.459c-4.36-.459-8.95-.459-13.311-.688-3.9,0-8.721.229-13.311.459q-13.77,1.033-27.539,3.442c-2.295.459-4.36.918-6.426,1.377l-3.213.689a25.953,25.953,0,0,0-3.442.918c-2.524.688-4.819,1.377-7.344,2.295l-3.213.918-4.131,1.377a312.713,312.713,0,0,1-31.441,7.573,380.27,380.27,0,0,1-65.176,7.114c-22.261.23-45.21-1.377-67.93-9.18-11.245-3.9-22.261-9.639-31.67-18.13A74.523,74.523,0,0,1,4.914,250.377c-4.131-11.7-5.278-23.867-4.819-35.8,0-2.983.229-6.2.459-8.95l.459-4.131.229-1.147.229-1.147.459-2.065L3.767,189.1c.459-2.754,1.377-5.737,1.836-8.491,1.147-5.737,3.213-11.245,5.049-16.523.918-2.754,2.065-5.278,3.213-8.032a48.416,48.416,0,0,1,3.672-7.8l3.9-7.8c1.377-2.524,2.983-5.049,4.36-7.344a32.137,32.137,0,0,1,2.295-3.672l2.524-3.442c1.606-2.295,3.213-4.819,5.049-7.114A301.027,301.027,0,0,1,57.927,92.945a238.411,238.411,0,0,1,25.7-22.261A329.909,329.909,0,0,1,111.4,51.636c4.819-2.983,9.639-5.508,14.458-8.491,2.524-1.377,5.049-2.524,7.344-3.9,2.524-1.377,5.049-2.524,7.573-3.672,9.868-4.819,20.2-9.18,30.293-13.081,10.327-3.672,20.654-7.344,30.982-10.1a296.31,296.31,0,0,1,31.441-7.114A294.833,294.833,0,0,1,264.93,1.147c5.049-.459,10.786-.688,15.835-.918,2.524,0,5.049,0,7.344-.229h7.8A261.168,261.168,0,0,1,326.2,2.295,343.187,343.187,0,0,1,432.918,33.735c31.211,14.917,57.6,32.818,78.028,51.406A236.915,236.915,0,0,1,555.7,141.368c1.147,2.295,2.295,4.36,3.442,6.426a38.177,38.177,0,0,1,2.983,6.2c.918,2.065,1.836,4.131,2.524,5.967a14.035,14.035,0,0,1,1.148,2.754c.229.918.688,1.836.918,2.754,1.147,3.672,2.524,7.114,3.442,10.327s1.606,6.2,2.295,8.95a60.221,60.221,0,0,1,1.377,6.885,45.871,45.871,0,0,0,.918,4.819,22.228,22.228,0,0,1,1.148,4.36Z"/>
        </g>
        <g id="Groupe_142" data-name="Groupe 142" transform="translate(31.076 7.511)">
          <g id="Groupe_140" data-name="Groupe 140" transform="translate(0 0)">
            <path id="Tracé_411" data-name="Tracé 411" class="cls-11" d="M0,125.366a21.144,21.144,0,0,1,1.606-2.983c1.147-1.836,2.754-4.59,5.278-8.032a105.079,105.079,0,0,1,9.18-11.7c3.672-4.36,8.032-9.409,13.081-14.458S39.7,77.861,45.9,72.582a245.88,245.88,0,0,1,20.2-15.606c7.344-5.049,14.917-10.1,23.179-14.688l6.2-3.442c2.065-1.147,4.131-2.065,6.2-3.213,4.131-2.295,8.491-4.131,12.852-6.2s8.721-3.672,13.081-5.508,8.721-3.442,13.081-5.049,8.721-2.983,13.081-4.36c4.36-1.147,8.721-2.524,13.081-3.672,4.36-1.377,8.491-2.295,12.622-3.213s8.262-1.606,12.393-2.295c3.9-.688,7.8-1.377,11.7-1.836s7.344-1.147,11.016-1.377C221.69,1.44,228.116.751,233.853.522S244.639-.167,248.77.063h12.852s-4.59.459-12.852,1.377c-4.131.229-8.95,1.147-14.688,1.836s-11.934,1.836-19.048,2.754c-3.442.459-7.114,1.377-10.786,2.065s-7.573,1.377-11.475,2.295-8.032,1.836-11.934,2.983l-12.393,3.442c-4.131,1.377-8.491,2.524-12.622,3.9s-8.491,2.983-12.852,4.36c-4.36,1.606-8.721,3.213-12.852,5.049s-8.491,3.442-12.852,5.508c-4.131,1.836-8.491,3.9-12.622,5.967-2.065,1.147-4.131,2.065-6.2,3.213s-4.131,2.295-5.967,3.442c-4.131,2.065-7.8,4.59-11.7,6.885s-7.573,4.59-11.245,7.114c-7.344,4.819-14,9.868-20.425,14.688C42.915,81.992,36.948,86.811,31.9,91.4A324.7,324.7,0,0,0,8.032,115.5c-2.754,3.213-4.59,5.737-5.967,7.344A11.522,11.522,0,0,0,0,125.366Z"/>
          </g>
          <g id="Groupe_141" data-name="Groupe 141" transform="translate(9.18 250.338)">
            <path id="Tracé_412" data-name="Tracé 412" class="cls-11" d="M0,20.3s3.672,1.147,10.327,2.983c3.213.918,7.344,1.836,11.934,2.983,2.295.459,4.819.918,7.344,1.606,2.524.459,5.278,1.147,8.262,1.606,2.754.459,5.967.918,8.95,1.377,3.213.229,6.2.689,9.639.918a73.344,73.344,0,0,0,10.1.229h5.278c1.606,0,3.442-.229,5.278-.229,1.836-.229,3.672-.229,5.508-.459a44.566,44.566,0,0,0,5.508-.459c3.672-.459,7.344-.689,11.245-1.377,3.672-.688,7.573-1.147,11.245-1.836s7.573-1.606,11.245-2.295c3.672-.918,7.573-1.606,11.245-2.524s7.573-1.836,11.245-2.983c3.672-.918,7.344-2.065,11.016-2.983s7.114-2.065,10.786-2.983c7.114-2.065,13.77-3.9,20.425-5.737,3.213-.918,6.426-1.606,9.639-2.295s6.2-1.377,8.95-2.065c2.983-.459,5.737-1.147,8.262-1.606,2.754-.459,5.278-.688,7.573-.918,1.147-.229,2.295-.229,3.442-.459,1.147,0,2.295-.229,3.213-.229,2.065-.229,3.9-.229,5.737-.459,3.442-.229,6.2,0,8.032,0h2.754a25.011,25.011,0,0,0-2.754.229c-1.836.229-4.59.459-7.8.918-1.606.229-3.442.688-5.508.918a13.545,13.545,0,0,1-3.213.459l-3.442.688c-2.295.459-4.819.918-7.344,1.606s-5.278,1.377-8.032,2.065c-5.508,1.606-11.7,3.442-17.9,5.508-6.426,2.065-13.081,4.36-19.966,6.426-6.885,2.295-14.229,4.59-21.572,6.655-3.672.918-7.573,2.065-11.245,2.983-3.9.918-7.573,1.836-11.475,2.754-3.9.688-7.8,1.377-11.7,2.295-3.9.688-7.8,1.147-11.7,1.606-7.8.918-15.606,1.377-22.72,1.606a44.061,44.061,0,0,1-5.508,0c-1.836,0-3.672-.23-5.508-.23a78.528,78.528,0,0,1-10.557-.918c-3.442-.459-6.655-.918-9.868-1.377q-4.819-1.033-8.95-2.065c-2.983-.688-5.508-1.377-8.262-2.065A68.679,68.679,0,0,1,21.8,27.871q-6.885-2.41-11.7-4.131c-3.213-1.147-5.737-2.295-7.344-2.983A6.662,6.662,0,0,1,0,20.3Z"/>
          </g>
          <path id="Tracé_413" data-name="Tracé 413" class="cls-11" d="M5.2.557C16.673-2.885,18.05,10.655,8.181,12.95-1.916,15.245-2.375,2.852,5.2.557Z" transform="translate(185.511 270.766)"/>
          <path id="Tracé_414" data-name="Tracé 414" class="cls-11" d="M7.541.188c10.327-1.836,13.311,10.327,2.754,13.77S-5.081,2.483,7.541.188Z" transform="translate(207.494 260.579)"/>
          <path id="Tracé_415" data-name="Tracé 415" class="cls-11" d="M3.5.129c3.9-1.147,5.049,5.737.459,6.426S-1.783,1.735,3.5.129Z" transform="translate(228.293 266.375)"/>
          <path id="Tracé_416" data-name="Tracé 416" class="cls-11" d="M3.4.129c3.9-1.147,5.049,5.737.459,6.426S-1.645,1.735,3.4.129Z" transform="translate(235.728 257.196)"/>
          <path id="Tracé_417" data-name="Tracé 417" class="cls-11" d="M3.5.129c3.9-1.147,5.049,5.737.459,6.426S-1.783,1.735,3.5.129Z" transform="translate(173.214 278.309)"/>
          <path id="Tracé_418" data-name="Tracé 418" class="cls-11" d="M9.21.224C20.455-1.841,20,11.01,8.522,12.387-2.953,13.994-2.953,2.519,9.21.224Z" transform="translate(199.628 12.002)"/>
          <path id="Tracé_419" data-name="Tracé 419" class="cls-11" d="M4.647,0c9.868,0,6.2,8.491,0,9.18S-1.549,0,4.647,0Z" transform="translate(227.141 15.209)"/>
          <path id="Tracé_420" data-name="Tracé 420" class="cls-11" d="M2.7.057c5.737-.688,6.426,5.049,2.295,6.2C-.288,7.86-1.895.746,2.7.057Z" transform="translate(237.125 6.661)"/>
          <path id="Tracé_421" data-name="Tracé 421" class="cls-11" d="M2.7.057c5.737-.688,6.426,5.049,2.295,6.2C-.288,7.86-1.895.746,2.7.057Z" transform="translate(216.47 21.578)"/>
        </g>
      </g>
    </g>
  </g>
</svg>
