<svg xmlns="http://www.w3.org/2000/svg" xmlns:xlink="http://www.w3.org/1999/xlink" viewBox="-6263 12765 1920 1200">
  <defs>
    <style>
      .cls-1 {
        clip-path: url(#clip-Screen-4_4);
      }

      .cls-2 {
        fill: #a2a2aa;
      }

      .cls-3 {
        fill: #f8fbff;
      }

      .cls-4 {
        fill: #fff;
      }

      .cls-5 {
        fill: #9898a8;
      }

      .cls-6 {
        fill: #dd5b5b;
      }

      .cls-7 {
        fill: #a54d4d;
      }

      .cls-8 {
        fill: #ff6d55;
      }

      .cls-15, .cls-9 {
        fill: #a86c6c;
      }

      .cls-9 {
        opacity: 0.6;
      }

      .cls-10 {
        opacity: 0.5;
      }

      .cls-11 {
        fill: #db1814;
      }

      .cls-12 {
        opacity: 0.7;
      }

      .cls-13 {
        fill: #c65252;
      }

      .cls-14, .cls-18 {
        opacity: 0.3;
      }

      .cls-16 {
        fill: #a8a8b2;
      }

      .cls-17 {
        fill: #d35650;
      }

      .cls-18 {
        fill: #80978d;
      }

      .cls-19 {
        fill: #d6d5db;
      }

      .cls-20 {
        fill: #ff4a4a;
        font-size: 21px;
        font-family: Roboto-Medium, Roboto;
        font-weight: 500;
      }
    </style>
    <clipPath id="clip-Screen-4_4">
      <rect x="-6263" y="12765" width="1920" height="1200"/>
    </clipPath>
  </defs>
  <g id="Screen-4_4" data-name="Screen-4–4" class="cls-1">
    <g id="Groupe_297" data-name="Groupe 297" transform="translate(-4812.231 12955.762)">
      <g id="Groupe_69" data-name="Groupe 69">
        <g id="Groupe_56" data-name="Groupe 56">
          <g id="Groupe_54" data-name="Groupe 54">
            <path id="Tracé_213" data-name="Tracé 213" class="cls-2" d="M0,14.657A14.714,14.714,0,0,1,14.657,0h76.56a14.714,14.714,0,0,1,14.657,14.657V136.965a14.714,14.714,0,0,1-14.657,14.657H14.657A14.631,14.631,0,0,1,0,137.02Z"/>
          </g>
          <g id="Groupe_55" data-name="Groupe 55" transform="translate(14.657 5.385)">
            <path id="Tracé_214" data-name="Tracé 214" class="cls-3" d="M106.426,12a11.835,11.835,0,0,1,11.825,11.825V143.857a11.835,11.835,0,0,1-11.825,11.825h-65.9A11.835,11.835,0,0,1,28.7,143.857V23.825A11.871,11.871,0,0,1,40.525,12h65.9Z" transform="translate(-27.423 -10.723)"/>
            <path id="Tracé_215" data-name="Tracé 215" class="cls-4" d="M39.5,153.327h0a10.52,10.52,0,0,1-10.493-10.493V22.8A10.52,10.52,0,0,1,39.5,12.309h65.9A10.52,10.52,0,0,1,115.9,22.8V142.834A10.52,10.52,0,0,1,105.4,153.327Zm0,2.665h65.9a13.127,13.127,0,0,0,13.1-13.1V22.8A13.127,13.127,0,0,0,105.4,9.7H39.5A13.127,13.127,0,0,0,26.4,22.8V142.834a13.174,13.174,0,0,0,13.1,13.158Z" transform="translate(-26.4 -9.7)"/>
          </g>
        </g>
        <g id="Groupe_68" data-name="Groupe 68" transform="translate(27.482 25.094)">
          <path id="Tracé_216" data-name="Tracé 216" class="cls-5" d="M150.486,70.5v40.307l-4.386,6.052v-43.8Z" transform="translate(-92.469 -56.454)"/>
          <g id="Groupe_66" data-name="Groupe 66" transform="translate(3.831 3.276)">
            <g id="Groupe_62" data-name="Groupe 62" transform="translate(0 4.053)">
              <g id="Groupe_61" data-name="Groupe 61">
                <g id="Groupe_60" data-name="Groupe 60">
                  <g id="Groupe_57" data-name="Groupe 57" transform="translate(0.056 0.111)">
                    <path id="Tracé_217" data-name="Tracé 217" class="cls-6" d="M56.5,144.932V58.6c37.808,21.264,39.418,32.478,23.818,62.736C75.321,131.107,66.882,139.1,56.5,144.932Z" transform="translate(-56.5 -58.6)"/>
                  </g>
                  <g id="Groupe_59" data-name="Groupe 59">
                    <path id="Tracé_218" data-name="Tracé 218" class="cls-7" d="M75.544,142.6h44.915c-.056,2.332-.222,4.664-.444,7.051H75.1c.222-2.387.389-4.719.444-7.051Z" transform="translate(-64.718 -95.853)"/>
                    <g id="Groupe_58" data-name="Groupe 58">
                      <path id="Tracé_219" data-name="Tracé 219" class="cls-8" d="M57.455,60.066A61.777,61.777,0,0,1,63.9,75.5a94.88,94.88,0,0,1,3,17.155A99.8,99.8,0,0,1,64.062,127.3a59.328,59.328,0,0,1-7.551,17.544h44.915a33.047,33.047,0,0,0,2-3.331,51.809,51.809,0,0,0,3.276-7.162,82.468,82.468,0,0,0,4.219-16.267,102.194,102.194,0,0,0,1.277-17.488,116.423,116.423,0,0,0-1.555-16.989,72.921,72.921,0,0,0-4.608-16.323c-1-2.443-5.33-4.775-6.662-7.051-.333-.555-5.163-1.11-5.552-1.666A44.683,44.683,0,0,0,89.1,58.4H56.4c.444.611.722,1.11,1.055,1.666C57.677,60.4,57.4,59.955,57.455,60.066Z" transform="translate(-56.4 -58.4)"/>
                    </g>
                  </g>
                </g>
              </g>
              <path id="Tracé_220" data-name="Tracé 220" class="cls-9" d="M95.924,145.989l16.989-20.209s-3.054-12.381-8.05-12.381H70.107c.167,1.221.278,2.5.389,3.72a99.8,99.8,0,0,1-2.831,34.644A69.474,69.474,0,0,1,64.5,160.98l3.72,2.72Z" transform="translate(-60.003 -82.865)"/>
            </g>
            <g id="Groupe_63" data-name="Groupe 63" class="cls-10" transform="translate(1.055 5.718)">
              <path id="Tracé_221" data-name="Tracé 221" class="cls-11" d="M58.3,61.4Z" transform="translate(-58.3 -61.4)"/>
            </g>
            <g id="Groupe_64" data-name="Groupe 64" class="cls-12" transform="translate(1.055 5.677)">
              <path id="Tracé_222" data-name="Tracé 222" class="cls-13" d="M58.3,61.367Z" transform="translate(-58.3 -61.325)"/>
            </g>
            <g id="Groupe_65" data-name="Groupe 65" class="cls-14" transform="translate(1.055)">
              <path id="Tracé_223" data-name="Tracé 223" class="cls-15" d="M111.487,80.247c0-.056-.056-.111-.056-.167-1.388-5.718-5.5-12.27-8.827-12.27H63.186A84.34,84.34,0,0,0,58.3,55.43V51.1H88.613a35.865,35.865,0,0,1,4.553.167c.389.555,5.163,1.11,5.552,1.666,1.332,2.221,5.663,4.608,6.662,7.051.611,1.5,1.166,3,1.666,4.553A73.514,73.514,0,0,1,111.487,80.247Z" transform="translate(-58.3 -51.1)"/>
            </g>
          </g>
          <rect id="Rectangle_8" data-name="Rectangle 8" class="cls-3" width="59.683" height="7.884" transform="translate(0 89.663)"/>
          <path id="Tracé_224" data-name="Tracé 224" class="cls-16" d="M114.356,208.787H65V205.4h45.026Z" transform="translate(-56.395 -116.459)"/>
          <path id="Tracé_225" data-name="Tracé 225" class="cls-3" d="M103.908,45.2H49.5V61.689h53.52Z" transform="translate(-49.5 -45.2)"/>
          <g id="Groupe_67" data-name="Groupe 67" transform="translate(12.048 50.244)">
            <path id="Tracé_226" data-name="Tracé 226" class="cls-6" d="M90.187,181.781a1.959,1.959,0,0,1-.777-.167L74.7,175.34c-1.11-.5-2.443-1.11-3.5-1.721a73.272,73.272,0,0,0,5.552-17.544A104.977,104.977,0,0,0,78.584,135.7c1.11,1.055,2.276,2.221,3.109,3.165l13.213,14.879c1.666,1.888,12.381,6.385,11.659,9.993l-3.72,12.825C102.179,179.671,91.853,181.781,90.187,181.781Z" transform="translate(-71.2 -135.7)"/>
          </g>
          <path id="Tracé_227" data-name="Tracé 227" class="cls-17" d="M87.654,138.865c3.165,3.553,6.329,7.162,9.494,10.715,1.166,1.332,2.387,2.665,3.553,4a8.084,8.084,0,0,1,1.666,3.387,16.382,16.382,0,0,1,.278,6.773h35.81c.222,0-4.441-1.943-4.441-2.221.056-1.443,6.218-3,5.829-4.441a8.927,8.927,0,0,0-.944-2.387,10.167,10.167,0,0,0-1.332-1.721c-3.664-4.108-7.328-8.272-10.993-12.381-.5-.555-.944-1.055-1.443-1.61-.389-.444-.777-.888-1.221-1.332l-1.555-1.555c-.111-.111-.278-.389-.444-.389H84.6C85.655,136.7,86.654,137.754,87.654,138.865Z" transform="translate(-65.113 -85.456)"/>
          <path id="Tracé_228" data-name="Tracé 228" class="cls-8" d="M122.944,198.906h19.82c2.443,0,3.664-3.331,4-5.274l2.5-12.825H149.2c.222,0,.278-2,.278-2.221a14.742,14.742,0,0,0-.444-4.386h-37.42a15.589,15.589,0,0,1,.222,6.607l-2.5,12.825h0a6,6,0,0,0-.278,1.166c-.5,1.61-1.666,4.108-3.664,4.108Z" transform="translate(-74.365 -102.581)"/>
        </g>
        <rect id="Rectangle_9" data-name="Rectangle 9" class="cls-3" width="12.547" height="116.478" transform="translate(23.595 16.933)"/>
        <path id="Tracé_229" data-name="Tracé 229" class="cls-18" d="M51.573,143.789c-.666-.722-1.332-1.388-1.888-2L36.8,126.911c-1.666-1.888-2.443-6.385-1.721-9.993l2.443-12.825c.611-3.109,2.221-5.274,3.886-5.274a1.959,1.959,0,0,1,.777.167l4.664,2.11c.555-7.717,2.665-17.155,4.775-24.595v67.289Z" transform="translate(-15.486 -34.028)"/>
      </g>
      <path id="Tracé_230" data-name="Tracé 230" class="cls-19" d="M114.356,70.8H65v2.387h45.026Z" transform="translate(-28.913 -31.493)"/>
    </g>
    <text id="OFF" class="cls-20" transform="translate(-4771 13101)"><tspan x="0" y="0">OFF</tspan></text>
    <text id="ON" class="cls-20" transform="translate(-4771 12987)"><tspan x="0" y="0">ON</tspan></text>
  </g>
</svg>
