<svg xmlns="http://www.w3.org/2000/svg" xmlns:xlink="http://www.w3.org/1999/xlink" viewBox="-6339 15363 1920 1200">
  <defs>
    <style>
      .cls-1 {
        clip-path: url(#clip-Screen-5-1);
      }

      .cls-2 {
        opacity: 0.096;
      }

      .cls-3, .cls-5 {
        fill: url(#radial-gradient);
      }

      .cls-4 {
        fill: none;
        stroke: #000;
        stroke-width: 5px;
      }

      .cls-6 {
        fill: url(#linear-gradient);
      }

      .cls-7 {
        fill: url(#linear-gradient-2);
      }

      .cls-8 {
        fill: url(#linear-gradient-3);
      }

      .cls-9 {
        fill: url(#linear-gradient-4);
      }

      .cls-10 {
        fill: url(#linear-gradient-5);
      }

      .cls-11 {
        fill: #63c;
      }

      .cls-12 {
        fill: #aa951b;
        opacity: 0.35;
      }

      .cls-13 {
        fill: #28a5ea;
      }

      .cls-14, .cls-15 {
        stroke: none;
      }
    </style>
    <radialGradient id="radial-gradient" cx="0.5" cy="0.5" r="0.5" gradientUnits="objectBoundingBox">
      <stop offset="0" stop-color="#fff"/>
      <stop offset="0.897" stop-color="#c3c3c3"/>
      <stop offset="1" stop-color="gray"/>
    </radialGradient>
    <linearGradient id="linear-gradient" y1="0.5" x2="0.993" y2="0.5" gradientUnits="objectBoundingBox">
      <stop offset="0" stop-color="#fff"/>
      <stop offset="1" stop-color="#bcbec0"/>
    </linearGradient>
    <linearGradient id="linear-gradient-2" x1="0.498" y1="0.998" x2="0.498" y2="0.005" gradientUnits="objectBoundingBox">
      <stop offset="0" stop-color="#bcbec0"/>
      <stop offset="1" stop-color="#fff"/>
    </linearGradient>
    <linearGradient id="linear-gradient-3" x1="1.607" y1="-8.43" x2="2.847" y2="-8.43" xlink:href="#linear-gradient"/>
    <linearGradient id="linear-gradient-4" x1="0.498" y1="1.003" x2="0.498" y2="0.011" xlink:href="#linear-gradient-2"/>
    <linearGradient id="linear-gradient-5" x1="0.498" y1="1.009" x2="0.498" y2="0.016" xlink:href="#linear-gradient-2"/>
    <clipPath id="clip-Screen-5-1">
      <rect x="-6339" y="15363" width="1920" height="1200"/>
    </clipPath>
  </defs>
  <g id="Screen-5-1" class="cls-1">
    <g id="Groupe_335" data-name="Groupe 335" class="cls-2" transform="translate(-6453 14648)">
      <g id="Soustraction_3" data-name="Soustraction 3" class="cls-3" transform="translate(1047.998 843.481)">
        <path class="cls-14" d="M36.221,72.439a36.229,36.229,0,0,1-14.1-69.594,36.229,36.229,0,0,1,28.2,66.747A36,36,0,0,1,36.221,72.439Zm0-66.866A30.654,30.654,0,0,0,24.292,64.458,30.654,30.654,0,0,0,48.15,7.982,30.447,30.447,0,0,0,36.221,5.573Z"/>
        <path class="cls-15" d="M 36.22110748291016 72.43936157226562 C 31.33226776123047 72.43936157226562 26.58900833129883 71.48076629638672 22.12318801879883 69.59260559082031 C 17.80896759033203 67.76764678955078 13.9353084564209 65.15652465820312 10.60976791381836 61.83046340942383 C 7.283168315887451 58.5044059753418 4.671308040618896 54.63084411621094 2.846768140792847 50.31710433959961 C 0.9578081965446472 45.85092544555664 8.198242539947387e-06 41.10800552368164 8.198242539947387e-06 36.21768569946289 C 8.198242539947387e-06 31.32836532592773 0.9578081965446472 26.58644485473633 2.846768140792847 22.12126541137695 C 4.671328067779541 17.80752372741699 7.283188343048096 13.93396472930908 10.60976791381836 10.6079044342041 C 13.93590831756592 7.282844543457031 17.8095874786377 4.670724391937256 22.12318801879883 2.845744609832764 C 26.58910751342773 0.9576045870780945 31.33234786987305 4.600829925038852e-06 36.22110748291016 4.600829925038852e-06 C 41.10988998413086 4.600829925038852e-06 45.85294723510742 0.9576045870780945 50.31854629516602 2.845744609832764 C 54.63182830810547 4.670724391937256 58.505126953125 7.282844543457031 61.83086776733398 10.6079044342041 C 65.15702819824219 13.93396472930908 67.76850891113281 17.80752372741699 69.59278869628906 22.12126541137695 C 71.48143005371094 26.58644485473633 72.43904876708984 31.32836532592773 72.43904876708984 36.21768569946289 C 72.43904876708984 41.10800552368164 71.48143005371094 45.85092544555664 69.59278869628906 50.31710433959961 C 67.76853179931641 54.63084411621094 65.15705108642578 58.5044059753418 61.83086776733398 61.83046340942383 C 58.50572967529297 65.15652465820312 54.63240814208984 67.76764678955078 50.31854629516602 69.59260559082031 C 45.85302734375 71.48076629638672 41.10994720458984 72.43936157226562 36.22110748291016 72.43936157226562 Z M 36.22110748291016 5.573184490203857 C 32.08324813842773 5.573184490203857 28.06968879699707 6.383384704589844 24.2918872833252 7.981744766235352 C 20.64148902893066 9.524944305419922 17.36386871337891 11.73498439788818 14.55006790161133 14.54964447021484 C 11.73502826690674 17.36330413818359 9.525148391723633 20.64024543762207 7.981788158416748 24.2891845703125 C 6.383588314056396 28.06748390197754 5.573208332061768 32.08040618896484 5.573208332061768 36.21768569946289 C 5.573208332061768 40.35596466064453 6.383588314056396 44.3698844909668 7.981788158416748 48.14818572998047 C 9.526008605957031 51.79912567138672 11.73590850830078 55.07706451416016 14.55006790161133 57.88972473144531 C 17.36540794372559 60.70540618896484 20.64302825927734 62.91442489624023 24.2918872833252 64.45762634277344 C 28.06962776184082 66.05598449707031 32.08320999145508 66.86618804931641 36.22110748291016 66.86618804931641 C 40.35902786254883 66.86618804931641 44.37258911132812 66.05598449707031 48.15032958984375 64.45762634277344 C 51.79922866821289 62.91442489624023 55.07684707641602 60.70540618896484 57.89216995239258 57.88972473144531 C 60.70632934570312 55.07706451416016 62.91622924804688 51.79912567138672 64.46042633056641 48.14818572998047 C 66.05863189697266 44.3698844909668 66.86901092529297 40.35596466064453 66.86901092529297 36.21768569946289 C 66.86901092529297 32.08040618896484 66.05863189697266 28.06748390197754 64.46042633056641 24.2891845703125 C 62.91706848144531 20.64024543762207 60.70716857910156 17.36330413818359 57.89216995239258 14.54964447021484 C 55.07832717895508 11.73498439788818 51.80070877075195 9.524944305419922 48.15032958984375 7.981744766235352 C 44.3725471496582 6.383384704589844 40.35896682739258 5.573184490203857 36.22110748291016 5.573184490203857 Z"/>
      </g>
      <line id="Ligne_8" data-name="Ligne 8" class="cls-4" y2="132.161" transform="translate(1083.755 715.5)"/>
    </g>
    <path id="Soustraction_6" data-name="Soustraction 6" class="cls-5" d="M131-13516a38.767,38.767,0,0,1-15.18-3.064,38.886,38.886,0,0,1-12.4-8.358,38.854,38.854,0,0,1-8.359-12.4A38.755,38.755,0,0,1,92-13555a38.741,38.741,0,0,1,3.065-15.179,38.877,38.877,0,0,1,8.359-12.4,38.9,38.9,0,0,1,12.4-8.357A38.768,38.768,0,0,1,131-13594a38.764,38.764,0,0,1,15.18,3.064,38.891,38.891,0,0,1,12.4,8.357,38.876,38.876,0,0,1,8.358,12.4A38.746,38.746,0,0,1,170-13555a38.761,38.761,0,0,1-3.065,15.182,38.853,38.853,0,0,1-8.358,12.4,38.88,38.88,0,0,1-12.4,8.358A38.763,38.763,0,0,1,131-13516Zm0-72a32.79,32.79,0,0,0-12.845,2.593,32.878,32.878,0,0,0-10.49,7.072,32.876,32.876,0,0,0-7.073,10.487A32.789,32.789,0,0,0,98-13555a32.8,32.8,0,0,0,2.593,12.847,32.883,32.883,0,0,0,7.073,10.489,32.9,32.9,0,0,0,10.49,7.072A32.79,32.79,0,0,0,131-13522a32.79,32.79,0,0,0,12.845-2.593,32.9,32.9,0,0,0,10.49-7.072,32.882,32.882,0,0,0,7.073-10.489A32.8,32.8,0,0,0,164-13555a32.789,32.789,0,0,0-2.593-12.845,32.876,32.876,0,0,0-7.073-10.487,32.878,32.878,0,0,0-10.49-7.072A32.79,32.79,0,0,0,131-13588Z" transform="translate(-5514 29093)"/>
    <g id="Groupe_336" data-name="Groupe 336" transform="translate(-5387 15365)">
      <g id="Groupe_230" data-name="Groupe 230" transform="translate(0 -4.258)">
        <path id="Tracé_976" data-name="Tracé 976" class="cls-6" d="M5.1,149.858a2.3,2.3,0,0,1-2.3-2.368V2.3c.019-.019,4.536-.038,4.6,0V147.49A2.433,2.433,0,0,1,5.1,149.858Z"/>
      </g>
      <g id="Groupe_231" data-name="Groupe 231">
        <path id="Tracé_977" data-name="Tracé 977" class="cls-7" d="M7.7,131.6H2.5a2.308,2.308,0,1,1,0-4.6H7.7a2.308,2.308,0,1,1,0,4.6Z"/>
      </g>
      <g id="Groupe_232" data-name="Groupe 232">
        <path id="Tracé_978" data-name="Tracé 978" class="cls-8" d="M5.5,127H5.2a1.689,1.689,0,0,1-1.8-1.6c0-.4-.4-9.2,6.4-11.8a1.709,1.709,0,1,1,1.2,3.2c-4.5,1.8-4.2,8.4-4.2,8.4A1.656,1.656,0,0,1,5.5,127Z"/>
      </g>
      <g id="Groupe_233" data-name="Groupe 233">
        <path id="Tracé_979" data-name="Tracé 979" class="cls-9" d="M7.7,127.2H2.5a2.308,2.308,0,1,1,0-4.6H7.7a2.308,2.308,0,1,1,0,4.6Z"/>
      </g>
      <g id="Groupe_234" data-name="Groupe 234">
        <path id="Tracé_980" data-name="Tracé 980" class="cls-10" d="M7.7,122.8H2.5a2.308,2.308,0,1,1,0-4.6H7.7a2.308,2.308,0,1,1,0,4.6Z"/>
      </g>
    </g>
    <g id="Groupe_334" data-name="Groupe 334" transform="translate(-4732.229 15422.771)">
      <path id="Tracé_252" data-name="Tracé 252" class="cls-11" d="M178.208,355.884A178.218,178.218,0,0,0,356.415,177.676C355.884,79.795,276.089,0,178.208,0S0,79.795,0,178.208C0,276.089,79.795,355.884,178.208,355.884Z"/>
      <path id="Tracé_253" data-name="Tracé 253" class="cls-12" d="M50.318,109.4c23.406,10.639,47.877,6.384,54.792-9.043S98.195,64.183,74.788,54.076C51.382,43.437,26.912,47.693,20,63.119,13.613,78.546,26.912,99.293,50.318,109.4Z" transform="translate(79.481 208.182)"/>
      <path id="Tracé_254" data-name="Tracé 254" class="cls-13" d="M45.548,98.234c18.619,8.511,38.3,5.32,44.153-6.916,5.32-12.235-5.32-29.258-24.47-37.237C46.612,45.569,26.93,48.761,21.078,61,15.758,73.231,26.93,90.254,45.548,98.234Z" transform="translate(85.315 212.965)"/>
      <path id="Tracé_255" data-name="Tracé 255" class="cls-12" d="M33.7,75.927C42.21,72.735,44.87,59.436,39.55,46.669S23.592,25.922,15.08,29.646C6.569,32.306,3.909,45.6,9.229,58.372,14.016,71.139,25.187,79.119,33.7,75.927Z" transform="translate(28.009 124.091)"/>
      <path id="Tracé_256" data-name="Tracé 256" class="cls-13" d="M28.762,67.388c6.916-2.66,9.043-13.3,4.788-23.938S20.782,26.959,13.867,29.618s-9.043,13.3-4.788,23.938C13.335,63.664,21.846,70.048,28.762,67.388Z" transform="translate(29.754 125.183)"/>
      <path id="Tracé_257" data-name="Tracé 257" class="cls-12" d="M117.955,99.061c17.555-18.619,18.087-46.281,1.6-61.708S75.4,24.586,57.843,43.2c-17.023,19.151-17.555,46.813-1.064,62.24S100.932,117.679,117.955,99.061Z" transform="translate(193.244 117.98)"/>
      <path id="Tracé_258" data-name="Tracé 258" class="cls-13" d="M105.809,86.324c13.831-14.895,14.363-37.237,1.064-49.473S71.231,26.744,57.4,41.639,43.037,78.876,56.336,91.112C69.636,103.879,91.446,101.751,105.809,86.324Z" transform="translate(201.666 124.866)"/>
      <path id="Tracé_259" data-name="Tracé 259" class="cls-12" d="M55.1,41.046c11.171,6.916,23.938,6.916,28.726,0,4.256-6.916-1.064-18.619-12.235-25.534s-23.938-6.916-28.726,0S43.93,34.13,55.1,41.046Z" transform="translate(177.899 44.6)"/>
      <path id="Tracé_260" data-name="Tracé 260" class="cls-13" d="M53.539,35.41c9.043,5.852,19.151,5.852,22.874,0S75.349,20.515,66.306,14.664s-19.151-5.852-22.874,0S44.5,29.559,53.539,35.41Z" transform="translate(182.121 44.384)"/>
      <ellipse id="Ellipse_66" data-name="Ellipse 66" class="cls-12" cx="22.342" cy="18.087" rx="22.342" ry="18.087" transform="translate(119.692 118.096)"/>
      <path id="Tracé_261" data-name="Tracé 261" class="cls-12" d="M73.418,77.306c7.447-7.447,9.043-18.087,3.724-23.406s-15.959-3.192-22.874,4.256C46.82,65.6,45.224,76.242,50.544,81.562,55.331,86.881,65.971,84.753,73.418,77.306Z" transform="translate(204.799 220.062)"/>
      <path id="Tracé_262" data-name="Tracé 262" class="cls-12" d="M37.659,24.8c6.384-3.192,10.107-9.575,7.979-14.363S36.063,4.59,29.68,7.781c-6.916,3.192-10.639,9.575-7.979,14.363C23.828,26.4,31.276,28,37.659,24.8Z" transform="translate(90.012 25.732)"/>
      <path id="Tracé_263" data-name="Tracé 263" class="cls-12" d="M41.7,59.1c6.916,3.192,13.831,1.6,15.959-3.192s-1.6-11.171-8.511-14.363-13.831-1.6-15.959,3.192C31.057,50.06,34.781,55.911,41.7,59.1Z" transform="translate(140.767 172.301)"/>
      <path id="Tracé_264" data-name="Tracé 264" class="cls-12" d="M136.715,124.479c0-47.877,19.151-91.5,50-123.947-3.192,0-5.852-.532-8.511-.532A178.208,178.208,0,1,0,304.815,303.751C210.658,296.836,136.715,219.169,136.715,124.479Z"/>
    </g>
  </g>
</svg>
