<svg xmlns="http://www.w3.org/2000/svg" viewBox="973.62 2694.646 720.292 474.123">
      <defs>
        <style>
          .cls-1 {
            fill: #26292b
          }

          .cls-2 {
            fill: #f6901e
          }

          .cls-4 {
            fill: #231f20;
            opacity: .16
          }

          .cls-34,
          .cls-5 {
            fill: #fff
          }

          .cls-6 {
            fill: #bed230
          }

          .cls-7 {
            fill: #212120;
            opacity: .52
          }

          .cls-9 {
            fill: #c6385d
          }

          .cls-12 {
            fill: #f7a71b
          }

          .cls-14 {
            fill: #8e489a
          }

          .cls-15,
          .cls-17 {
            fill: #e3f3f5
          }

          .cls-15 {
            opacity: .57
          }

          .cls-19 {
            fill: #274748
          }

          .cls-20 {
            fill: #43b6b8
          }

          .cls-21 {
            fill: #283593
          }

          .cls-22 {
            fill: #ffd451
          }

          .cls-23 {
            fill: #ffca28
          }

          .cls-24 {
            fill: #3949ab
          }

          .cls-34 {
            opacity: .67
          }

        </style>
      </defs>
      <g id="Groupe_19" data-name="Groupe 19" transform="translate(-92 2473)">
        <ellipse id="Ellipse_16" cx="156.128" cy="26.414" class="cls-1" data-name="Ellipse 16" rx="156.128" ry="26.414" transform="translate(1269.387 642.94)"
        />
        <ellipse id="Ellipse_17" cx="89.148" cy="15.094" class="cls-1" data-name="Ellipse 17" rx="89.148" ry="15.094" transform="translate(1577.869 638.224)"
        />
        <ellipse id="Ellipse_24" cx="89.148" cy="15.094" class="cls-1" data-name="Ellipse 24" rx="89.148" ry="15.094" transform="translate(1100.524 638.224)"
        />
        <g id="Groupe_1" data-name="Groupe 1" transform="translate(1546.279 348.577)">
          <path id="Tracé_26" d="M178.424 182.1c.322-1.074 32.231 33.2 36.528 60.594 0 0 12.463 0 11.818 3.223 0 0-1.074 2.471-6.876 1.826 0 0 7.413 7.306 5.05 9.777s-6.983-5.157-8.488-5.157c-1.5.107 0 2.793-.43 5.587s-3.545 1.182-3.975-1.4c-.322-2.578-.107-5.157-2.149-3.116-2.041 1.934-5.372 6.124-6.661 2.686-.967-2.471 3.868-7.735 4.19-9.24s-6.983-22.991-17.512-35.454-17.4-19.876-17.62-20.2c-.106-.426 4.406-2.786 6.125-9.126z"
            class="cls-2" data-name="Tracé 26" transform="translate(12.838 13.554)" />
          <path id="Tracé_27" d="M48.348 187c-.322-1.074-32.231 33.2-36.529 60.594 0 0-12.463 0-11.818 3.223 0 0 1.074 2.471 6.876 1.826 0 0-7.413 7.306-5.05 9.777s6.983-5.157 8.488-5.157c1.5.107 0 2.793.43 5.587s3.545 1.182 3.975-1.4c.322-2.578.107-5.05 2.149-3.116s5.372 6.124 6.661 2.686c.967-2.471-3.868-7.735-4.19-9.24s6.983-22.991 17.512-35.454 17.4-19.876 17.62-20.2-4.297-2.786-6.124-9.126z"
            class="cls-2" data-name="Tracé 27" transform="translate(.022 13.919)" />
          <g id="Groupe_12" data-name="Groupe 12" transform="translate(67.604 268.176)">
            <path id="Tracé_28" d="M89.007 280c-.537-12.678 2.041-20.2 9.347-29.115l-11.5-1.289c-5.05 8.595-7.2 15.9-7.2 26.859-3.653-.322-12.892-.537-16.545 4.62-1.5 2.149 5.372 3.116 7.735 2.578 0 0-5.8 1.826-3.76 4.19 2.041 2.256 10.529 1.182 13.537-.752 0 0-3.868 6.016 1.289 3.868s9.89-8.054 7.097-10.959z"
              class="cls-2" data-name="Tracé 28" transform="translate(-62.902 -249.6)" />
          </g>
          <g id="Groupe_13" data-name="Groupe 13" transform="translate(141.518 266.349)">
            <path id="Tracé_29" d="M141.047 278.3c.537-12.678-2.041-20.2-9.347-29.115l11.5-1.289c5.05 8.595 7.2 15.9 7.2 26.859 3.653-.322 12.892-.537 16.545 4.62 1.5 2.149-5.372 3.116-7.735 2.578 0 0 5.8 1.826 3.76 4.19-2.041 2.256-10.529 1.182-13.537-.752 0 0 3.868 6.016-1.289 3.868s-9.89-8.054-7.097-10.959z"
              class="cls-2" data-name="Tracé 29" transform="translate(-131.7 -247.9)" />
          </g>
          <path id="Tracé_30" fill="#d44767" d="M215.952 56.513c-.537-1.289-1.182-2.471-1.719-3.653a33.107 33.107 0 0 0-3.868-5.909 26.935 26.935 0 0 0-2.256-2.471c-.322-.537-.537-1.182-.859-1.719l.322.322c1.182 1.074 2.149 1.826 2.793 2.364a6.3 6.3 0 0 0 1.074.752 14.412 14.412 0 0 0-1.4-4.3 16.189 16.189 0 0 0-2.364-3.438 14.88 14.88 0 0 0-2.793-2.471 24.931 24.931 0 0 0 2.9.645 11.708 11.708 0 0 0 1.289.107 21.491 21.491 0 0 0-6.876-5.479 8.316 8.316 0 0 0-1.719-.752 18.643 18.643 0 0 0 2.471 0c.967-.107 1.5-.215 1.5-.215a48.981 48.981 0 0 0-6.769-3.331h1.719a11.975 11.975 0 0 0 1.4-.215 28.322 28.322 0 0 0-8.81-3.868 25.844 25.844 0 0 0-7.95-.537 15.97 15.97 0 0 0-5.049 1.4c-.322 0-.645-.107-.967-.107a15.776 15.776 0 0 0-4.835-2.686 12.671 12.671 0 0 0-4.083-.645 6.277 6.277 0 0 0-2.471.645 2.383 2.383 0 0 0-.752.43 10.09 10.09 0 0 0 1.934 1.289 41.259 41.259 0 0 0-5.372.322 47.034 47.034 0 0 0-4.727.859c-1.4.322-2.578.645-3.653.967a10.672 10.672 0 0 0-4.62 2.471c-.43.43-.645.752-.859.967s-.215.322-.215.322a16.731 16.731 0 0 1 5.372-.967c.86 0 1.719-.107 2.578-.107a42.363 42.363 0 0 0-4.942 2.471c-1.719.967-3.223 2.041-4.512 2.9s-2.464 1.724-3.431 2.364c-2.041 1.4-3.545 2.364-4.512 3.008-.537.322-.86.537-1.182.752-.215.215-.322.215-.322.215a20.1 20.1 0 0 0 6.339-1.074 11.147 11.147 0 0 0 1.074-.43l-.859.859a58.119 58.119 0 0 0-4.835 5.587c-1.182 1.5-1.934 2.578-2.471 3.223a3.522 3.522 0 0 0-.645.859 1.33 1.33 0 0 1-.215.322 6.158 6.158 0 0 0 1.5-.43c-.107.107-.215.322-.43.43a10.429 10.429 0 0 0-1.612 2.471 3.96 3.96 0 0 0-.43.967 9.291 9.291 0 0 0 2.471-.645 11.509 11.509 0 0 0-2.686 3.223 9.647 9.647 0 0 0-.859 2.471 2.209 2.209 0 0 0 0 .967c.43-.215.967-.43 1.4-.645-.107.215-.215.537-.322.752a6.593 6.593 0 0 0-.322 2.256 2.973 2.973 0 0 0 .107.859 20.717 20.717 0 0 0 2.256-1.4 2.247 2.247 0 0 1 .645-.43c-.215.322-.43.752-.645 1.074a18.651 18.651 0 0 0-1.612 2.793 13.469 13.469 0 0 0-.967 2.686 6.676 6.676 0 0 0 .215 3.76 3.15 3.15 0 0 0 .43.859c.107.215.215.215.215.215a10.2 10.2 0 0 1 1.612-3.438 21.79 21.79 0 0 1 1.4-1.934v.107a20.186 20.186 0 0 0-.645 3.438v2.793a5.788 5.788 0 0 0 1.4-.752c-.322 1.4-.537 2.471-.752 3.545-.215 1.182-.43 2.149-.537 2.9a7.234 7.234 0 0 0-.107 1.074 10.012 10.012 0 0 0 3.331-3.008v.752c-.107 1.612-.107 2.793-.107 3.868v3.223a6.482 6.482 0 0 0 2.471-2.041c.215 1.612.43 2.9.645 3.975a14.623 14.623 0 0 0 .645 2.578l.322.967a8.212 8.212 0 0 0 1.612-2.793 9.533 9.533 0 0 1 .215 1.612 19.185 19.185 0 0 1 .107 2.256 3.8 3.8 0 0 1-.107.645v.215a3.063 3.063 0 0 0 1.5-.86 4.431 4.431 0 0 0 1.074-1.4 6.057 6.057 0 0 0 .43-1.289c.645.645 1.289 1.182 2.041 1.826l-12.463 25.463a84.962 84.962 0 0 0-22.347-2.9 83.067 83.067 0 0 0-20.735 2.578L88.64 72.736a34.541 34.541 0 0 0 4.942-3.116 5.544 5.544 0 0 0-.215 1.182c0 .43 0 .752.107.86a.831.831 0 0 1 .107.322 3.358 3.358 0 0 1 1.182-.967 11.419 11.419 0 0 0 1.182-.967 16.411 16.411 0 0 0 1.934-1.934 1.483 1.483 0 0 0 .322-.43v.322a5.42 5.42 0 0 0 0 1.5 24.071 24.071 0 0 0 4.62-6.124 2.348 2.348 0 0 1 .322-.537c0 .107.107.215.107.322a9.938 9.938 0 0 1 .537 1.074 1.33 1.33 0 0 0 .215.322c.645-3.116 1.5-5.479 2.041-7.628l.322-1.612a4.629 4.629 0 0 0 .752 1.074c.322.322.537.645.752.859s.322.215.322.215c-.107-3.008.107-5.372.107-7.413v-1.713c.322.537.645.967.859 1.289a8.785 8.785 0 0 0 .859.967l.322.322a19.247 19.247 0 0 1-.43-4.835c0-1.5.215-2.793.215-4.083.107-1.182.107-2.256.107-3.331.322.322.645.43.859.645a1.33 1.33 0 0 1 .322.215c-.645-2.9-1.074-5.157-1.612-7.2-.215-.645-.43-1.182-.645-1.826a4.218 4.218 0 0 0 1.5.322 1.828 1.828 0 0 1 .752.107h.967a14.911 14.911 0 0 1-3.223-3.116c-.859-1.074-1.5-2.041-2.256-3.008.215 0 .537.107.752.107 1.182.107 1.934.107 1.934.107-1.612-1.182-3.223-2.149-4.512-3.116-.322-.215-.537-.43-.859-.645-.322-.322-.537-.752-.859-1.074a14.043 14.043 0 0 0-1.182-1.289 5.231 5.231 0 0 0 1.289.107 8.736 8.736 0 0 0 1.934 0c-2.686-1.826-5.157-3.223-7.306-4.4a.105.105 0 0 0-.107-.107h2.256c-1.4-.752-2.686-1.5-3.868-2.041a16.778 16.778 0 0 0-1.4-1.4c-.215-.107-.322-.215-.537-.322h2.686A40.68 40.68 0 0 0 89.284 7.2c1.5-.107 2.793-.322 3.76-.43a17.255 17.255 0 0 1 3.116-1.4A115.345 115.345 0 0 0 83.7 3.117c.322 0 .752-.107 1.074-.107a53.017 53.017 0 0 0 5.8-.967 16.1 16.1 0 0 0 1.826-.538A49.593 49.593 0 0 0 79.508 0a30.5 30.5 0 0 0-10.529 2.15 16.841 16.841 0 0 0-3.116 1.5c-.537.107-.967.215-1.4.322a33.822 33.822 0 0 0-17.938 5.161c1.4 0 2.793-.107 3.975-.107a22.473 22.473 0 0 0-2.256 1.074c-1.612.859-3.008 1.719-3.868 2.256a9.984 9.984 0 0 0-1.4 1.074 14.4 14.4 0 0 0 2.149-.107c-.322.107-.537.215-.859.322-2.146.855-3.866 1.719-5.155 2.255a14.059 14.059 0 0 0-1.4.752 5.581 5.581 0 0 1-.537.322 38.76 38.76 0 0 0 5.05-.107c-.859.322-1.612.537-2.256.859-1.934.752-3.653 1.4-4.835 1.934s-1.826.859-1.826.859a28.932 28.932 0 0 0 6.016.215h.215c-.322.215-.752.322-1.074.537a37.459 37.459 0 0 0-6.983 4.512q4.029-.806 7.413-1.612l-.107.107c-1.826 1.074-3.331 2.041-4.4 2.793-.537.322-.967.645-1.289.859a3.179 3.179 0 0 0-.43.322c.645 0 1.182-.107 1.826-.107-1.4.859-2.686 1.612-3.653 2.149a7.384 7.384 0 0 1-1.4.645 4.517 4.517 0 0 0-.537.215 16.3 16.3 0 0 0 6.554-.537c.43-.107.752-.215 1.182-.322-.967 1.182-1.826 2.256-2.578 3.331-1.182 1.612-2.149 3.008-2.9 3.975a9.686 9.686 0 0 0-.752 1.182c-.215.322-.215.43-.215.43a22.5 22.5 0 0 0 5.264-3.008 47.93 47.93 0 0 0-2.149 7.2 41.77 41.77 0 0 0-.967 5.694c-.107 1.4-.107 2.149-.107 2.149a60.935 60.935 0 0 0 3.438-6.124 4.407 4.407 0 0 0-.107 1.182 14.528 14.528 0 0 0-.43 3.116 24.306 24.306 0 0 1-.107 2.9 16.635 16.635 0 0 1-.107 2.364c-.107.752-.107 1.4-.215 1.934-.107 1.074-.107 1.719-.107 1.719.645-.752 1.182-1.4 1.719-2.149a10.109 10.109 0 0 0 1.289-2.364 6.949 6.949 0 0 0 .43-1.4c.107.322.322.752.43 1.074a13.363 13.363 0 0 0-.43 1.719 17.009 17.009 0 0 0-.109 3.981A7.988 7.988 0 0 0 39 62.314a11.577 11.577 0 0 0 1.719-2.793 14.039 14.039 0 0 0 0 3.008c.107.967.322 1.719.43 2.471a7.187 7.187 0 0 0 .752 1.826 4.829 4.829 0 0 0 .645.967l.322.322a8.533 8.533 0 0 1 .107-2.364c.107-.752.322-1.5.43-2.149a.4.4 0 0 1 .107-.322 21.732 21.732 0 0 0 2.149 7.843c.322-1.4.645-2.686.859-3.975a3.849 3.849 0 0 0 .43 1.182 21 21 0 0 0 2.149 4.19 9.984 9.984 0 0 0 1.074 1.4c-.107-1.182-.107-2.364-.215-3.438.537.537 1.074 1.074 1.719 1.612a19.364 19.364 0 0 0 3.331 2.149 25.159 25.159 0 0 0 5.264 1.934c1.289.322 2.041.43 2.041.43-1.4-1.182-2.793-2.256-3.975-3.331A37.028 37.028 0 0 0 72.2 75.959h1.719l7.735 42.652c-.322.107-.645.322-.967.43-1.4.215-2.793.43-4.083.752a32.4 32.4 0 0 0-7.735 2.793 27.92 27.92 0 0 0-5.05 3.116 16.734 16.734 0 0 0-1.826 1.5h3.76a66.493 66.493 0 0 0-8.7 4.083 55.9 55.9 0 0 0-6.876 4.4c-1.612 1.182-2.471 1.934-2.471 1.934 3.223-.537 6.124-1.074 8.81-1.719-3.008 1.719-5.587 3.438-7.95 5.05a89.909 89.909 0 0 0-7.95 5.909 34.157 34.157 0 0 1-3.008 2.256 24.747 24.747 0 0 0 3.008-.645c.967-.322 1.934-.537 2.793-.859 1.719-.537 3.331-1.182 4.835-1.719-.107.215-.322.43-.43.645-.859.43-1.612.859-2.364 1.289-3.223 1.719-5.909 3.331-7.735 4.4a22.07 22.07 0 0 0-2.149 1.289 4.251 4.251 0 0 0-.752.537 45.864 45.864 0 0 0 8.917-1.182c-.967.43-1.934.967-2.793 1.4a59 59 0 0 0-6.554 3.868 16.149 16.149 0 0 1-1.826 1.182 4.913 4.913 0 0 1-.645.43c2.686-.107 5.264-.43 7.628-.752-.645.537-1.289 1.074-1.826 1.612a54.823 54.823 0 0 0-5.909 6.661 20.649 20.649 0 0 0-1.826 2.793c2.578-1.4 4.835-2.686 7.091-3.975a60.13 60.13 0 0 0-5.157 6.124 44.018 44.018 0 0 0-3.868 6.769c-.322.859-.537 1.612-.752 2.041-.107.43-.215.752-.215.752 2.256-1.934 4.4-3.545 6.339-5.157a41.917 41.917 0 0 0-8.273 14.4c1.826-1.4 3.545-2.793 5.157-4.083-.215.322-.322.752-.537 1.074a65.1 65.1 0 0 0-2.471 6.554 64.175 64.175 0 0 0-2.794 13.65c1.826-2.9 3.438-5.694 4.835-8.273-.107 2.256-.215 4.3-.215 6.124 0 3.975-.107 7.2-.322 9.454a7.611 7.611 0 0 0-.107 1.5v1.182a3.8 3.8 0 0 0 .107.645.375.375 0 0 0 .107.215 12.93 12.93 0 0 1 1.182-2.471l.645-1.289.322-.645c0 .645-.107 1.289-.107 1.934-.107 3.438.107 6.231.107 8.273 0 .967.107 1.826.107 2.364v.859a37.557 37.557 0 0 0 3.545-8.917c.43 3.008.752 5.587.967 7.95a53.954 53.954 0 0 1 .215 6.882 4.028 4.028 0 0 1-.107 1.182 2.094 2.094 0 0 1-.107.859v.752a13.546 13.546 0 0 0 2.256-3.438c.107.537.107 1.074.215 1.612a52.563 52.563 0 0 0 1.612 7.735c.537 1.826.967 2.9.967 2.9.537-2.256.967-4.3 1.289-6.339a27.391 27.391 0 0 0 1.4 3.116 13.764 13.764 0 0 0 1.182 2.149c.43.645.752 1.289 1.074 1.826a22.491 22.491 0 0 1 1.719 2.9 9.348 9.348 0 0 1 .859 2.041c.107.215.107.43.215.645a.375.375 0 0 0 .107.215 13.1 13.1 0 0 0 .43-3.438c.107.215.322.43.43.645a28.333 28.333 0 0 0 4.835 5.694 22 22 0 0 0 2.256 1.719c-.43-1.289-.86-2.578-1.289-3.76.967 1.289 1.826 2.471 2.686 3.545 1.826 2.364 3.545 4.3 4.62 5.694a5.9 5.9 0 0 1 .752.967 1.824 1.824 0 0 0 .645.645l.537.537a42.011 42.011 0 0 0-.752-4.19 9.4 9.4 0 0 0 .859 1.074c.43.537.967 1.182 1.4 1.612l2.364 2.364a7.043 7.043 0 0 1 1.289 1.719 2.348 2.348 0 0 0 .322.537.333.333 0 0 1 .107.215 7.008 7.008 0 0 0-.215-2.578 15.215 15.215 0 0 0-.752-2.364 16.743 16.743 0 0 0 1.719 2.149 29.574 29.574 0 0 0 5.8 5.264c.752.537 1.289.967 1.719 1.289a6.578 6.578 0 0 1 .645.537 22.479 22.479 0 0 0-1.826-4.3c-.215-.43-.43-.859-.645-1.4.859.537 1.612 1.074 2.364 1.612a48.257 48.257 0 0 0 5.05 2.793 49.1 49.1 0 0 0 10.959 4.19c-.86-.859-1.719-1.719-2.578-2.471a37.846 37.846 0 0 0 4.835 1.719c3.545 1.074 6.446 1.612 8.488 2.041 1.074.215 1.826.322 2.364.43a4.867 4.867 0 0 0 .859.107 69.055 69.055 0 0 0-6.446-4.4 109.269 109.269 0 0 0 14.719.967 107.946 107.946 0 0 0 11.925-.645c-.537.43-1.074.752-1.612 1.182-1.289.967-2.364 1.719-3.331 2.471a16.41 16.41 0 0 1-2.256 1.4 4.9 4.9 0 0 1-.859.43 23.362 23.362 0 0 0 5.8-.967c1.719-.537 3.438-1.074 5.05-1.612 3.223-1.182 6.016-2.471 8.488-3.653l1.289-.645-2.686 2.686c-1.289 1.4-1.934 2.256-1.934 2.256a73.411 73.411 0 0 0 14.934-6.554 56.03 56.03 0 0 0 6.769-4.727c-1.4 1.934-2.471 3.653-3.331 4.942-.43.752-.859 1.4-1.074 1.826l-.322.645a45.982 45.982 0 0 0 12.57-8.81 39.992 39.992 0 0 0 5.157-6.124c.107-.107.215-.215.322-.215-.107.645-.322 1.289-.43 1.934a14.731 14.731 0 0 0-.215 2.9c0 .859.107 1.4.107 1.826a3.007 3.007 0 0 1 .107.645 51.4 51.4 0 0 1 3.975-5.909 61.022 61.022 0 0 0 3.116-5.372 24.589 24.589 0 0 0 1.074-2.471l.859-.859a22.843 22.843 0 0 0 0 4.727c.107.859.215 1.5.322 2.041a3.463 3.463 0 0 0 .215.645 75.4 75.4 0 0 1 3.331-7.2c1.074-2.256 1.934-4.3 2.686-6.124.215-.43.322-.967.537-1.4a14.643 14.643 0 0 0 .967 3.76 8.982 8.982 0 0 0 .752 1.719 2.4 2.4 0 0 0 .322.537c.537-2.578 1.074-4.835 1.719-6.876s1.182-3.868 1.719-5.694c.215-.752.43-1.5.645-2.149a13.47 13.47 0 0 0 .537 2.578c.215.752.43 1.4.537 1.719a3.465 3.465 0 0 0 .215.645c.859-2.471 1.719-4.62 2.364-6.661s1.289-3.975 1.719-5.694c.215-1.074.43-2.041.645-3.008.107.752.215 1.4.322 2.041a22.485 22.485 0 0 0 .645 2.686 70.183 70.183 0 0 0 2.364-7.843 43.971 43.971 0 0 0 1.182-6.876c.107-1.074.107-2.149.107-3.223.967 1.4 1.612 2.149 1.612 2.149a66.521 66.521 0 0 0-1.5-14.4 35.366 35.366 0 0 0-1.074-3.975c1.4 1.289 2.686 2.364 3.653 3.116a27.477 27.477 0 0 0 2.578 1.719c-2.793-5.8-5.372-10.529-7.628-14.4a39.923 39.923 0 0 0 3.331 3.116 9.944 9.944 0 0 0 1.719 1.182 2.66 2.66 0 0 1 .645.43c-1.182-2.793-2.149-5.264-3.116-7.628s-1.934-4.4-2.793-6.339a48.56 48.56 0 0 0-2.9-5.372c.215.107.322.215.537.215a12.857 12.857 0 0 0 1.826.645 3.465 3.465 0 0 1 .645.215c-3.116-4.512-5.479-8.273-7.413-11.388-.645-.967-1.182-1.934-1.719-2.793a34.22 34.22 0 0 0 3.331.967c.859.215 1.612.322 2.041.43a4.5 4.5 0 0 0 .752.107c-4.4-3.868-7.95-7.091-11.066-9.777a11.149 11.149 0 0 0 2.471.322c.43 0 .859.107 1.289.107h1.719a101.743 101.743 0 0 1-10.529-7.413c.537 0 .967.107 1.4.107a18.42 18.42 0 0 0 2.793 0c-4.62-3.008-8.595-5.372-11.925-7.306l-.215-.215h1.934a15.566 15.566 0 0 0 2.471-.322 118.711 118.711 0 0 0-11.388-6.231c-.537-.215-.967-.43-1.5-.645h1.719c1.826-.107 2.793-.215 2.793-.215a71.974 71.974 0 0 0-14.289-6.124c-1.074-.322-2.041-.537-2.9-.859l12.012-24.054a35.844 35.844 0 0 0 8.38 1.182 7.53 7.53 0 0 0-2.471 3.223 12.456 12.456 0 0 0 5.264-.967 5.589 5.589 0 0 0-.322.537 17.666 17.666 0 0 0 10.744-4.3l-.322.322a27.286 27.286 0 0 0-2.041 2.256 3.223 3.223 0 0 0-.537.859 12.365 12.365 0 0 0 9.132-4.19 12.844 12.844 0 0 0-1.074 3.545 31.479 31.479 0 0 0 6.339-6.124c.752-1.074 1.5-2.149 2.041-3.116s1.074-2.041 1.5-3.008a15.3 15.3 0 0 0 .537-1.719l.322-.322a9.974 9.974 0 0 0-.752 3.331 3.378 3.378 0 0 0 0 1.182 36.93 36.93 0 0 0 2.9-2.9 26.553 26.553 0 0 0 2.256-2.9 12.02 12.02 0 0 0 1.934-6.231 8.613 8.613 0 0 0-.322-2.471 1.527 1.527 0 0 0 .215-.645 10.589 10.589 0 0 0 .537 2.578 3.15 3.15 0 0 0 .43.86l.107.215c.537-1.4.967-2.578 1.5-3.76a22.281 22.281 0 0 0 1.074-3.545 10.4 10.4 0 0 0 .215-3.116c.107.107.107.322.215.43a12.049 12.049 0 0 1 .537 1.4 7.424 7.424 0 0 0 .537 1.074 12.249 12.249 0 0 0 .859-4.3 22.528 22.528 0 0 0-.43-3.975 10.7 10.7 0 0 0-.967-2.793 9.426 9.426 0 0 0 2.793 2.041c.43.215.752.322.967.43a.832.832 0 0 0 .322.107 24 24 0 0 1-2.246-4.297zM94.764 10.53c-.215-.107-.537-.215-.752-.322s-.322-.215-.537-.322h1.074a1.527 1.527 0 0 1 .215.644zm93.47 83.8z"
            data-name="Tracé 30" transform="translate(1.846 .013)" />
          <ellipse id="Ellipse_6" cx="27.504" cy="27.504" class="cls-4" data-name="Ellipse 6" rx="27.504" ry="27.504" transform="translate(44.181 10.972)"
          />
          <ellipse id="Ellipse_7" cx="25.033" cy="25.033" class="cls-5" data-name="Ellipse 7" rx="25.033" ry="25.033" transform="rotate(-76.714 55.04308 .7948)"
          />
          <ellipse id="Ellipse_8" cx="16.223" cy="16.223" class="cls-6" data-name="Ellipse 8" rx="16.223" ry="16.223" transform="rotate(-22.5 72.02887 -106.1246)"
          />
          <ellipse id="Ellipse_9" cx="8.38" cy="8.38" class="cls-7" data-name="Ellipse 9" rx="8.38" ry="8.38" transform="rotate(-80.782 49.51615 -16.31764)"
          />
          <ellipse id="Ellipse_10" cx="7.735" cy="4.297" class="cls-5" data-name="Ellipse 10" rx="7.735" ry="4.297" transform="rotate(-14.3 96.51712 -216.94342)"
          />
          <path id="Tracé_31" d="M72.286 32.9c.645 1.5-1.074 3.653-3.76 4.727s-5.372.752-6.016-.752 1.074-3.653 3.76-4.727 5.372-.756 6.016.752z"
            class="cls-5" data-name="Tracé 31" transform="translate(4.663 2.357)" />
          <ellipse id="Ellipse_11" cx="27.504" cy="27.504" class="cls-4" data-name="Ellipse 11" rx="27.504" ry="27.504" transform="translate(151.188 27.84)"
          />
          <ellipse id="Ellipse_12" cx="25.033" cy="25.033" class="cls-5" data-name="Ellipse 12" rx="25.033" ry="25.033" transform="rotate(-76.85 119.03623 -58.14227)"
          />
          <ellipse id="Ellipse_13" cx="16.223" cy="16.223" class="cls-6" data-name="Ellipse 13" rx="16.223" ry="16.223" transform="translate(157.956 28.807)"
          />
          <ellipse id="Ellipse_14" cx="8.38" cy="8.38" class="cls-7" data-name="Ellipse 14" rx="8.38" ry="8.38" transform="matrix(.923 -.384 .384 .923 163.209 40.537)"
          />
          <path id="Tracé_32" d="M168.338 32.082c.537 2.256-2.256 5.05-6.446 6.016-4.083 1.074-7.95 0-8.488-2.256s2.256-5.05 6.446-6.016c4.083-.967 7.95 0 8.488 2.256z"
            class="cls-5" data-name="Tracé 32" transform="translate(11.428 2.204)" />
          <path id="Tracé_33" d="M171.886 48.6c.645 1.5-1.074 3.653-3.76 4.727s-5.372.752-6.016-.752 1.074-3.653 3.76-4.727 5.372-.756 6.016.752z"
            class="cls-5" data-name="Tracé 33" transform="translate(12.07 3.524)" />
          <ellipse id="Ellipse_15" cx="37.388" cy="10.744" fill="#4e2356" data-name="Ellipse 15" rx="37.388" ry="10.744" transform="translate(81.784 190.284)"
          />
          <path id="Tracé_34" d="M50.81 152.7a1.33 1.33 0 0 0-.215.322c-.107.215-.43.537-.645.967-.537.86-1.289 2.041-2.149 3.438s-1.719 3.008-2.686 4.835c-.43.967-.967 1.826-1.5 2.793-.537 1.074-1.074 2.041-1.612 3.223v-1.719a16.932 16.932 0 0 1 .752-4.512 15.95 15.95 0 0 1 2.9-5.479 13.349 13.349 0 0 1 5.155-3.868z"
            class="cls-9" data-name="Tracé 34" transform="translate(3.148 11.369)" />
          <path id="Tracé_35" d="M53.969 172.8l-.107.107c-.107 0-.215.107-.322.215a3.114 3.114 0 0 0-.859 1.074c-.215.537-.537 1.289-.859 2.041s-.645 1.719-.967 2.578c-.752 1.934-1.612 4.083-2.578 6.554a40.8 40.8 0 0 1-3.975 7.306s.107-.752.322-2.041.645-3.116 1.182-5.264a43.035 43.035 0 0 1 2.686-6.876 35.287 35.287 0 0 1 2.149-3.331 9.278 9.278 0 0 1 1.4-1.5 5.959 5.959 0 0 1 .859-.645 1.767 1.767 0 0 1 1.069-.218z"
            class="cls-9" data-name="Tracé 35" transform="translate(3.319 12.864)" />
          <path id="Tracé_36" d="M38.79 180.4v1.074a14.839 14.839 0 0 1-.322 2.686 13.047 13.047 0 0 1-3.868 7.091v-1.074a14.838 14.838 0 0 1 .322-2.793 12.36 12.36 0 0 1 3.868-6.984z"
            class="cls-9" data-name="Tracé 36" transform="translate(2.597 13.429)" />
          <path id="Tracé_37" d="M52.988 138.1a3.96 3.96 0 0 1-.43.967 16.318 16.318 0 0 1-1.5 2.256 13.315 13.315 0 0 1-6.558 4.727 2.834 2.834 0 0 1 .537-.967 11.56 11.56 0 0 1 1.612-2.364 11.335 11.335 0 0 1 6.339-4.619z"
            class="cls-9" data-name="Tracé 37" transform="translate(3.334 10.284)" />
          <path id="Tracé_38" d="M140.488 38.7a3.96 3.96 0 0 1-.43.967 16.317 16.317 0 0 1-1.5 2.256A13.315 13.315 0 0 1 132 46.65a2.835 2.835 0 0 1 .537-.967 11.561 11.561 0 0 1 1.612-2.364 11.985 11.985 0 0 1 6.339-4.619z"
            class="cls-9" data-name="Tracé 38" transform="translate(9.841 2.892)" />
          <path id="Tracé_39" d="M60.89 148.9v1.074a14.84 14.84 0 0 1-.322 2.686 13.047 13.047 0 0 1-3.868 7.091v-1.074a14.839 14.839 0 0 1 .322-2.793 13.83 13.83 0 0 1 3.868-6.984z"
            class="cls-9" data-name="Tracé 39" transform="translate(4.241 11.087)" />
          <path id="Tracé_40" d="M54.375 195.4s1.4 8.487-3.975 15.256c0 .107.107-8.81 3.975-15.256z" class="cls-9" data-name="Tracé 40"
            transform="translate(3.772 14.545)" />
          <path id="Tracé_41" d="M42.09 203.1s3.223 5.587-.645 10.959c0 0-1.826-6.017.645-10.959z" class="cls-9" data-name="Tracé 41"
            transform="translate(3.058 15.118)" />
          <path id="Tracé_42" d="M64.19 208.3s3.223 5.587-.645 10.959c0 0-1.826-6.124.645-10.959z" class="cls-9" data-name="Tracé 42"
            transform="translate(4.702 15.504)" />
          <path id="Tracé_43" d="M54.3 220.2a1.33 1.33 0 0 1 .215.322c.107.215.322.43.537.86.43.752 1.074 1.719 1.826 2.9a40.806 40.806 0 0 1 2.041 4.3 33.2 33.2 0 0 1 1.612 5.479 1.329 1.329 0 0 0-.322-.215l-.752-.752a19.132 19.132 0 0 1-2.364-2.9 17.566 17.566 0 0 1-2.149-4.512 19.564 19.564 0 0 1-.644-5.482z"
            class="cls-9" data-name="Tracé 43" transform="translate(4.061 16.389)" />
          <path id="Tracé_44" d="M138.4 58a.831.831 0 0 0 .107.322 6.848 6.848 0 0 1 .215.967 21.124 21.124 0 0 1 .537 3.438 31.641 31.641 0 0 1 .322 4.727 27.44 27.44 0 0 1-.537 5.694 1.329 1.329 0 0 1-.215-.322 4.21 4.21 0 0 1-.43-.967 24.123 24.123 0 0 1-1.074-3.545 15.408 15.408 0 0 1-.322-5.05A17.323 17.323 0 0 1 138.4 58z"
            class="cls-9" data-name="Tracé 44" transform="translate(10.207 4.327)" />
          <path id="Tracé_45" d="M70.2 227.3s.322.43.859 1.182a22 22 0 0 1 1.826 3.331 23.545 23.545 0 0 1 2.256 11.066 9.232 9.232 0 0 1-.752-1.289c-.43-.859-1.074-2.041-1.719-3.545A24.353 24.353 0 0 1 70.2 227.3z"
            class="cls-9" data-name="Tracé 45" transform="translate(5.244 16.917)" />
          <path id="Tracé_46" d="M154.674 229.5a1.694 1.694 0 0 1-.107.43 8.165 8.165 0 0 1-.43 1.182 19.794 19.794 0 0 1-2.256 3.975 20.2 20.2 0 0 1-4.512 4.62 29.6 29.6 0 0 1-3.116 1.826 14.525 14.525 0 0 1-3.653 1.182l.322-.322a8.784 8.784 0 0 1 .967-.859c.86-.752 2.041-1.826 3.438-3.116s2.9-2.793 4.512-4.3c1.505-1.502 3.116-3.118 4.835-4.618z"
            class="cls-9" data-name="Tracé 46" transform="translate(10.48 17.081)" />
          <path id="Tracé_47" d="M165.013 215.4a1.176 1.176 0 0 1 .215.43 4.651 4.651 0 0 1 .43 1.182 10.281 10.281 0 0 1-.107 4.4 11.4 11.4 0 0 1-1.074 2.793 14.815 14.815 0 0 1-1.826 2.686 30.512 30.512 0 0 1-5.05 4.727s.215-.645.645-1.612a30.827 30.827 0 0 1 2.149-3.868c.859-1.5 1.934-3.116 2.793-4.942a15.3 15.3 0 0 0 1.825-5.796z"
            class="cls-9" data-name="Tracé 47" transform="translate(11.745 16.032)" />
          <path id="Tracé_48" d="M170.33 209a.831.831 0 0 0 .107.322 6.16 6.16 0 0 0 .43.752c.322.645.859 1.4 1.4 2.256a12.128 12.128 0 0 1 1.5 3.545 5.766 5.766 0 0 1 .107 2.364 4.277 4.277 0 0 1-.967 2.256.832.832 0 0 0-.107-.322 2.733 2.733 0 0 0-.215-.752c-.215-.645-.537-1.5-.967-2.471a18.753 18.753 0 0 1-1.4-3.545 7.142 7.142 0 0 1-.322-2.256 5.121 5.121 0 0 1 .434-2.149z"
            class="cls-9" data-name="Tracé 48" transform="translate(12.659 15.556)" />
          <path id="Tracé_49" d="M166.308 193.2a4.2 4.2 0 0 1 .322 1.182 11.135 11.135 0 0 1 .322 3.008 11.794 11.794 0 0 1-.752 4.083 9.962 9.962 0 0 1-2.9 3.975 9.3 9.3 0 0 1 .107-1.182c.107-.752.215-1.826.43-3.008a28.607 28.607 0 0 1 2.471-8.058z"
            class="cls-9" data-name="Tracé 49" transform="translate(12.168 14.381)" />
          <path id="Tracé_50" d="M181.645 187.3a.831.831 0 0 0 .107.322 5 5 0 0 1 .322.967 32.557 32.557 0 0 0 1.4 3.223 10.988 10.988 0 0 1 .859 2.256 8.07 8.07 0 0 1 .537 2.793 7.73 7.73 0 0 1-.322 3.116 5.789 5.789 0 0 1-.752 1.4 5.631 5.631 0 0 1-1.182 1.074.831.831 0 0 1 .107-.322 6.84 6.84 0 0 0 .215-.967 9.929 9.929 0 0 0-.215-3.438c-.107-.645-.322-1.4-.537-2.256-.215-.752-.537-1.612-.752-2.578a26.994 26.994 0 0 1-.43-2.9 8.853 8.853 0 0 1 .643-2.69z"
            class="cls-9" data-name="Tracé 50" transform="translate(13.485 13.943)" />
          <path id="Tracé_51" fill="#d34093" d="M165.9 167a5.153 5.153 0 0 1 4.19 5.909s-3.975-1.934-4.19-5.909z" data-name="Tracé 51"
            transform="translate(12.362 12.433)" />
          <path id="Tracé_52" d="M164.4 164.2a.831.831 0 0 1 .322.107 7.407 7.407 0 0 0 .86.322 7.668 7.668 0 0 1 2.578 1.934 8.995 8.995 0 0 1 2.256 3.975 10.6 10.6 0 0 1 .322 2.578 7.97 7.97 0 0 1-.537 2.686 7.514 7.514 0 0 1-.43-1.182c-.322-.752-.752-1.719-1.182-2.9l-1.826-3.653a26.381 26.381 0 0 1-2.363-3.867z"
            class="cls-9" data-name="Tracé 52" transform="translate(12.25 12.225)" />
          <path id="Tracé_53" d="M167.5 144.7s6.016 1.612 6.769 7.95c0 .108-5.269-2.9-6.769-7.95z" class="cls-9" data-name="Tracé 53"
            transform="translate(12.481 10.775)" />
          <path id="Tracé_54" d="M148.5 121.7s6.231-.215 8.917 5.587c-.107 0-6.017-1.287-8.917-5.587z" class="cls-9" data-name="Tracé 54"
            transform="translate(11.068 9.064)" />
          <path id="Tracé_55" d="M91.1 16.1s6.016 1.612 6.769 7.95c0 .108-5.269-2.9-6.769-7.95z" class="cls-9" data-name="Tracé 55"
            transform="translate(6.799 1.211)" />
          <path id="Tracé_56" d="M97.457 33.9s2.364 5.8-2.149 10.206c0 0-.86-6.016 2.149-10.206z" class="cls-9" data-name="Tracé 56"
            transform="translate(7.104 2.535)" />
          <path id="Tracé_57" d="M177.2 161.3a5.859 5.859 0 0 1 1.074.43 9.414 9.414 0 0 1 2.471 1.719 9.993 9.993 0 0 1 2.471 3.331 10.228 10.228 0 0 1 .859 4.835l-.215-.215c-.107-.107-.322-.43-.537-.645-.43-.537-1.074-1.4-1.826-2.364a51.3 51.3 0 0 1-4.297-7.091z"
            class="cls-9" data-name="Tracé 57" transform="translate(13.202 12.009)" />
          <path id="Tracé_58" d="M40.018 40.9v.215a1.168 1.168 0 0 1-.107.537 8.428 8.428 0 0 1-.215 1.5 4.753 4.753 0 0 1-.537 1.612c-.322.537-.859 1.182-1.612 2.256a.105.105 0 0 0-.107-.107.558.558 0 0 1-.215-.43 3.108 3.108 0 0 1-.325-1.823 4.093 4.093 0 0 1 .752-2.364 3.1 3.1 0 0 1 2.366-1.396z"
            class="cls-9" data-name="Tracé 58" transform="translate(2.766 3.055)" />
          <path id="Tracé_59" d="M191.161 63.8s3.653 1.826.215 4.4a3.022 3.022 0 0 1-.215-4.4z" class="cls-9" data-name="Tracé 59"
            transform="translate(14.175 4.758)" />
          <path id="Tracé_60" d="M44.659 53.4s3.653 1.826.215 4.4a3.121 3.121 0 0 1-.215-4.4z" class="cls-9" data-name="Tracé 60" transform="translate(3.282 3.985)"
          />
          <path id="Tracé_61" d="M193.71 46.6l.215.215c.107.107.322.215.537.43a19.747 19.747 0 0 1 1.5 1.5A13.7 13.7 0 0 1 197.685 51a8.125 8.125 0 0 1 1.074 3.545 2.973 2.973 0 0 1-.752-.43 9.2 9.2 0 0 1-1.826-1.4 10.1 10.1 0 0 1-1.934-2.578 4.591 4.591 0 0 1-.537-3.537z"
            class="cls-9" data-name="Tracé 61" transform="translate(14.419 3.479)" />
          <path id="Tracé_62" d="M176.213 80.9a2.583 2.583 0 0 1-.215.859 9.1 9.1 0 0 1-1.074 1.934 6.3 6.3 0 0 1-2.471 1.719 5.368 5.368 0 0 1-3.653-.112 6.574 6.574 0 0 1 .645-.537c.43-.322.967-.752 1.612-1.182a17.836 17.836 0 0 1 5.156-2.681z"
            class="cls-9" data-name="Tracé 62" transform="translate(12.577 6.03)" />
          <path id="Tracé_63" d="M96.313 55.5a2.582 2.582 0 0 1-.215.859 9.105 9.105 0 0 1-1.074 1.934 6.3 6.3 0 0 1-2.471 1.719A5.368 5.368 0 0 1 88.9 59.9a6.577 6.577 0 0 1 .645-.537c.43-.322.967-.752 1.612-1.182a17.836 17.836 0 0 1 5.156-2.681z"
            class="cls-9" data-name="Tracé 63" transform="translate(6.635 4.141)" />
          <path id="Tracé_64" d="M52.2 61.9a9.64 9.64 0 0 1 2.9.537 6.7 6.7 0 0 1 4.083 4.4 8.507 8.507 0 0 1-2.793-.859A8.107 8.107 0 0 1 52.2 61.9z"
            class="cls-9" data-name="Tracé 64" transform="translate(3.906 4.617)" />
          <path id="Tracé_65" fill="#e17993" d="M142.55 236.572c0 17.3-13 17.942-29.545 17.942s-30.4-.645-30.4-17.942S96.03 205.2 112.575 205.2s29.975 13.967 29.975 31.372z"
            data-name="Tracé 65" transform="translate(6.167 15.274)" />
          <path id="Tracé_66" d="M100.128 179.8a7.657 7.657 0 0 0-7.628 7.628v9.672a105.5 105.5 0 0 0 15.363 1.612v-11.284a7.822 7.822 0 0 0-7.735-7.628z"
            class="cls-5" data-name="Tracé 66" transform="translate(6.903 13.385)" />
          <path id="Tracé_67" d="M123.428 181.8a7.657 7.657 0 0 0-7.628 7.628v9.025a104.709 104.709 0 0 0 15.363-1.719v-7.413a7.8 7.8 0 0 0-7.735-7.521z"
            class="cls-5" data-name="Tracé 67" transform="translate(8.636 13.534)" />
        </g>
        <g id="Groupe_17" data-name="Groupe 17" transform="translate(1065.62 411.815)">
          <path id="Tracé_68" d="M114.479 239.616c-4.245-7.358-2.83-18.49 1.226-29.716h-13.4c-.755 11.132-.094 22.83 4.245 28.961 0 0-16.037-.472-18.49 4.811 0 0-2.075 4.056 1.6 4.906a30.753 30.753 0 0 0 3.585.472c-.377 1.415-.094 2.736 1.6 2.924 3.019.377 6.415-1.415 7.736-2.264h.66c.094.943 1.509 2.547 4.906 3.113a10.271 10.271 0 0 0 11.132-6.415c1.238-4.056-4.8-6.792-4.8-6.792z"
            class="cls-12" data-name="Tracé 68" transform="translate(-5.019 -11.887)" />
          <path id="Tracé_69" d="M150.7 239.516c4.245-7.358 2.83-18.49-1.226-29.716h13.4c.755 11.132.094 22.83-4.245 28.961 0 0 16.037-.472 18.49 4.811 0 0 2.075 4.056-1.6 4.906a30.749 30.749 0 0 1-3.585.472c.377 1.415.094 2.736-1.6 2.924-3.019.377-6.415-1.415-7.736-2.264h-.66c-.094.943-1.509 2.547-4.906 3.113a10.271 10.271 0 0 1-11.132-6.415c-1.236-4.056 4.8-6.792 4.8-6.792z"
            class="cls-12" data-name="Tracé 69" transform="translate(-8.318 -11.881)" />
          <path id="Tracé_70" d="M205.334 144.484c.566 1.132 28.678-47.074 26.414-80 0 0 14.528-3.3 12.924-6.887 0 0-1.887-2.641-8.49-.377 0 0 6.7-10.471 3.3-12.641s-6.7 7.83-8.49 8.207c-1.792.283-.755-3.3-1.981-6.415s-4.434-.377-4.245 2.736c.283 3.113 1.132 5.943-1.7 4.245s-7.83-5.755-8.49-1.415c-.472 3.113 6.6 8.019 7.358 9.622.849 1.7-2.075 28.584-10.943 45.848s-15 27.641-15.094 28.112c-.091.381 5.757 2.081 9.437 8.965z"
            class="cls-2" data-name="Tracé 70" transform="translate(-11.159 -2.507)" />
          <path id="Tracé_71" d="M39.531 138.384c-.566 1.132-28.678-47.074-26.414-80 0 0-14.528-3.3-12.924-6.887 0 0 1.887-2.641 8.49-.377 0 0-6.7-10.471-3.3-12.641s6.7 7.83 8.49 8.207c1.792.283.755-3.3 1.981-6.415s4.432-.371 4.246 2.739c-.283 3.019-1.226 5.849 1.6 4.151s7.83-5.755 8.49-1.415c.472 3.113-6.6 8.019-7.358 9.622-.849 1.7 2.075 28.584 10.943 45.848s15 27.641 15.094 28.112c.19.566-5.659 2.172-9.338 9.056z"
            class="cls-2" data-name="Tracé 71" transform="translate(-.069 -2.162)" />
          <path id="Tracé_72" fill="#69c9d0" d="M199.242 199.24c.849.943 1.6 1.887 2.358 2.736a25.619 25.619 0 0 0 2.264 2.264c.755.66 1.415 1.226 2.075 1.792a24.21 24.21 0 0 0 3.113 2.17c.755.472 1.132.66 1.132.66-.283-.849-.472-1.6-.755-2.358-.094-.377-.283-.755-.377-1.132s-.283-.755-.377-1.132c-.283-.755-.472-1.509-.755-2.264s-.472-1.509-.755-2.264c-1.038-3.019-2.075-6.038-3.113-8.962-.189-.472-.377-1.038-.566-1.509l.094.094c.755.66 1.509 1.132 2.075 1.6a18.245 18.245 0 0 0 3.207 1.887c.755.377 1.226.566 1.226.566l-.849-2.264c-.094-.377-.283-.755-.377-1.132s-.283-.755-.377-1.132a19.756 19.756 0 0 1-.755-2.17c-.283-.755-.472-1.509-.755-2.17-.943-2.924-1.981-5.755-2.924-8.585-.472-1.415-1.038-2.83-1.509-4.151-.472-1.415-1.038-2.736-1.6-4.151l-.283-.566c.755.849 1.509 1.6 2.17 2.264a35.224 35.224 0 0 0 2.736 2.358 5.9 5.9 0 0 0 1.038.755 110.294 110.294 0 0 0-4.245-18.113c-.094-.283-.189-.66-.283-.943a1.656 1.656 0 0 1 .472.377 35.08 35.08 0 0 0 3.113 2.075c.755.472 1.132.66 1.132.66a117.524 117.524 0 0 0-6.981-17.735q-1.415-2.972-2.83-5.66c.66.189 1.226.377 1.7.472.566.094.943.189.943.189a76.869 76.869 0 0 0-3.4-11.32c-.849-1.981-1.7-3.962-2.641-5.755a13.186 13.186 0 0 0 2.641 1.6 6.649 6.649 0 0 0 3.207.66 5.08 5.08 0 0 0 .755-.094.73.73 0 0 1 .283-.094 7.847 7.847 0 0 1-1.887-2.83 31.906 31.906 0 0 1-1.038-3.207c-.66-2.358-1.321-4.623-2.075-6.981-.755-2.264-1.415-4.528-2.264-6.792-.66-1.7-1.321-3.4-1.981-5 .472.566 1.038 1.038 1.509 1.509 1.415 1.415 2.641 2.736 3.679 3.773a19.429 19.429 0 0 0 1.509 1.415 7.594 7.594 0 0 0 1.321.849c.377.189.66.283.849.377a.413.413 0 0 1 .283.094 11.606 11.606 0 0 1-.943-4.056 20.863 20.863 0 0 0-.472-2.358 22.02 22.02 0 0 0-.66-2.358 65.118 65.118 0 0 0-3.49-8.585c-1.226-2.641-2.453-5.094-3.49-7.358a12.6 12.6 0 0 1-.66-1.7c1.321 1.038 2.547 1.887 3.585 2.547a16.744 16.744 0 0 0 2.547 1.321 6.516 6.516 0 0 1 .943.472 51.854 51.854 0 0 0-1.6-7.075c-.66-2.264-1.321-4.339-1.887-6.226-.283-.943-.566-1.887-.755-2.83-.283-.943-.472-1.981-.755-2.924a6.008 6.008 0 0 1-.189-.66c.283.094.472.189.755.283a14.554 14.554 0 0 0 1.6.472 12.3 12.3 0 0 1 1.226.283c.66.094 1.038.189 1.038.189-2.17-4.623-4.245-8.679-6.038-12.547-.943-1.887-1.792-3.773-2.547-5.566a2.825 2.825 0 0 0-.377-.755c.283.189.66.472.943.66a12.937 12.937 0 0 1 1.887 1.509l.472.472.189.189a8.388 8.388 0 0 0 .189-4.339 19.4 19.4 0 0 0-1.321-4.151 27.016 27.016 0 0 0-4.056-6.792c-.377-.377-.66-.755-1.038-1.132q1.132.142 1.981.283c1.321.189 2.453.377 3.207.472a10.672 10.672 0 0 1 1.132.189 30.659 30.659 0 0 0-12.17-10.56c2.453-.377 4.622-.755 6.415-1.038 1.6-.283 2.924-.566 3.868-.755l1.415-.283a55.5 55.5 0 0 0-10.566-4.339c-1.887-.472-3.679-.943-5.566-1.226 1.321-.377 2.453-.66 3.207-.849.943-.283 1.415-.377 1.415-.377a41.354 41.354 0 0 0-11.32-3.113 48.111 48.111 0 0 0-11.037-.094A58.518 58.518 0 0 0 145.187 10c3.49-2.453 6.6-4.623 8.773-6.132 1.132-.755 2.075-1.415 2.736-1.792a8.793 8.793 0 0 1 1.038-.66A28.17 28.17 0 0 0 147.64.849a34.6 34.6 0 0 0-9.056 2.451 43.123 43.123 0 0 0-12.452 8.49 9.951 9.951 0 0 0-.473-1.79 13.742 13.742 0 0 0-2.924-5 12.775 12.775 0 0 0-3.868-3.113 11.219 11.219 0 0 0-3.585-1.321A2.17 2.17 0 0 0 113.773 0h-1.038a2.962 2.962 0 0 0-.849.094 36.23 36.23 0 0 1 2.075 5.094c.566 1.509.943 3.019 1.321 4.434a28.679 28.679 0 0 0-8.868-5.189 25.676 25.676 0 0 0-5.943-1.415 27.02 27.02 0 0 0-4.717-.094 17.17 17.17 0 0 0-3.019.377 10.673 10.673 0 0 0-1.135.189 70.5 70.5 0 0 0 6.038 5l1.132.849A32.3 32.3 0 0 0 95 7.736a36.323 36.323 0 0 0-6.509-1.6 44.939 44.939 0 0 0-10.566-.189 33.921 33.921 0 0 0-4.056.66 63.6 63.6 0 0 0 5.849 4.434 10.969 10.969 0 0 0-1.7-.377 24.267 24.267 0 0 0-7.358-.566 18.219 18.219 0 0 0-3.4.566c-1.038.283-1.981.66-2.83.943a23.161 23.161 0 0 0-4.151 2.358 21.007 21.007 0 0 0-2.358 1.981 4.2 4.2 0 0 0-.755.755c2.641.377 5.189.66 7.547.943.283 0 .566.094.849.094a25.254 25.254 0 0 0-5.849 2.358 24.564 24.564 0 0 0-7.264 6.038 11.422 11.422 0 0 0-1.6 2.264 4.17 4.17 0 0 0-.472.849 70.848 70.848 0 0 0 7.924-.377 23.2 23.2 0 0 0-3.113 2.924c-.943 1.038-1.792 2.17-2.547 3.113-.755 1.038-1.415 1.887-1.981 2.641a13.722 13.722 0 0 1-1.415 1.887c-.377.472-.566.755-.566.755a13.444 13.444 0 0 0 6.132.283c-.094.094-.189.283-.377.377q-1.132 1.274-1.981 2.264a20.8 20.8 0 0 1-1.6 1.509c-.472.377-.66.566-.66.566a9.473 9.473 0 0 0 4.525 1.411c-.566.66-1.038 1.415-1.509 1.981-.849 1.132-1.509 2.075-2.17 2.83a15.855 15.855 0 0 1-1.792 1.792 3.592 3.592 0 0 0-.566.472c-.189.094-.189.189-.189.189a8.51 8.51 0 0 0 3.773.849 10.282 10.282 0 0 0 2.453-.283l-.094.57-1.6 1.6a32.6 32.6 0 0 0-4.245 6.038 20.808 20.808 0 0 0-1.038 2.075c-.189.472-.377.849-.377.849a19.012 19.012 0 0 0 5.189-.189c-.094.094-.094.189-.189.189a26.346 26.346 0 0 0-3.679 8.019c-.755 2.547-1.132 5.094-1.509 6.981-.094.943-.283 1.7-.283 2.264a5.824 5.824 0 0 0-.094.849 16.643 16.643 0 0 0 4.434-1.7c-.377.566-.755 1.226-1.132 1.792-1.887 3.113-3.49 5.943-4.811 8.019-.66 1.038-1.226 1.887-1.509 2.453a9.8 9.8 0 0 0-.566.943 21.478 21.478 0 0 0 4.811-.849 37.718 37.718 0 0 0-2.926 5.381c-.755 1.6-1.321 3.113-1.792 4.434-.472 1.415-.943 2.736-1.226 3.962a7.355 7.355 0 0 0-.094 2.83c.094.283.094.566.189.66l.094.189A12.348 12.348 0 0 1 44.813 110c.849-.472 1.792-.943 2.83-1.6a5.232 5.232 0 0 0 .755-.566l-.189 1.415c-.094.094-.189.283-.283.377-1.7 2.358-3.207 4.528-4.717 6.6s-2.83 3.868-4.151 5.566-2.547 3.113-3.585 4.34a19.212 19.212 0 0 0-1.415 1.6 15.712 15.712 0 0 1-1.132 1.226 11.1 11.1 0 0 0-.943 1.042 28.11 28.11 0 0 0 10.094-2.924 33 33 0 0 0 3.962-2.264c-2.358 4.811-4.34 9.245-5.943 13.4-1.887 4.622-3.4 8.773-4.434 11.7-.472 1.509-.943 2.736-1.226 3.585a12.334 12.334 0 0 0-.377 1.321 40.952 40.952 0 0 0 9.622-7.547l-.189 1.321c-.755 1.7-1.509 3.3-2.17 4.906-2.358 5.377-4.245 10.094-5.566 13.49-.66 1.7-1.132 3.019-1.509 4.056a8.161 8.161 0 0 0-.472 1.509 50.644 50.644 0 0 0 6.792-5.283c-.566 2.264-1.038 4.34-1.6 6.226a28.639 28.639 0 0 1-1.132 3.4c-.189.566-.377 1.038-.566 1.6L36.7 179.9a27.078 27.078 0 0 1-2.736 4.717 14.775 14.775 0 0 1-2.641 2.736c-.189.189-.377.283-.472.377a1.3 1.3 0 0 0-.377.283c-.189.189-.283.189-.283.189a13.256 13.256 0 0 0 5.66-.755 18.039 18.039 0 0 0 3.019-1.509c-.094.377-.283.755-.377 1.038a35.662 35.662 0 0 1-2.641 5.377 39.723 39.723 0 0 1-3.207 4.151c-1.038 1.132-1.887 2.075-2.453 2.641a6.8 6.8 0 0 1-.943.943 21.758 21.758 0 0 0 7.924-1.7c-.755.472-1.509.943-2.17 1.415a37.93 37.93 0 0 1-4.151 2.264l-1.7.849a13.839 13.839 0 0 1-1.321.566c-.755.283-1.132.472-1.132.472a21.3 21.3 0 0 0 8.113 1.887c-.189.189-.472.283-.66.472-2.264 1.7-3.49 2.83-3.49 2.83a48.679 48.679 0 0 0 12.83 0c-.283.283-.472.566-.755.849a28.1 28.1 0 0 0-2.547 3.208 37.887 37.887 0 0 0 15.188-2.924c1.132-.472 2.17-.943 3.207-1.415a13.845 13.845 0 0 0-.849 1.415 4.3 4.3 0 0 0-.377.755 24.464 24.464 0 0 0 10.188-.566c-1.415 1.7-2.17 2.83-2.17 2.83a36.057 36.057 0 0 0 14.245-2.075 36.946 36.946 0 0 0 4.811-2.075 5.631 5.631 0 0 0-.849 1.415 6.785 6.785 0 0 0-.943 2.264v.849a3.211 3.211 0 0 1 1.321-.189h1.321a7.139 7.139 0 0 0 1.415-.094 7.283 7.283 0 0 0 1.415-.189 31.947 31.947 0 0 0 5.377-1.226c.943-.283 1.792-.66 2.736-1.038a3.843 3.843 0 0 0-.566 1.038 8.719 8.719 0 0 1-.472.849c2.358-.094 4.528-.189 6.7-.472a56.427 56.427 0 0 0 5.755-1.132c-.189.849-.283 1.415-.283 1.415a18.666 18.666 0 0 0 8.113-1.038v.849a1.717 1.717 0 0 0 .377 1.038c.189.189.377.189.377.094v-.094h.094c.094 0 .189-.094.377-.094h.283l.189-.094c.094 0 .189 0 .189-.094h.189l.66-.377.66-.377c.189-.094.377-.283.566-.377a7.867 7.867 0 0 0 1.132-.755 32.449 32.449 0 0 0 3.4-2.641l1.132 1.132 1.415 1.132a8.147 8.147 0 0 0 1.509.943 10.787 10.787 0 0 0 2.924 1.226 9.258 9.258 0 0 0 2.075.189 3.336 3.336 0 0 0 .566-.094.329.329 0 0 0 .189-.094 38.836 38.836 0 0 1-.472-4.245 25.939 25.939 0 0 0 5.189 3.3 25.073 25.073 0 0 0 3.019 1.226 23.377 23.377 0 0 0-.849-6.887h.283a14.508 14.508 0 0 0 1.226 1.132c.66.566 1.226 1.038 1.887 1.509a13.691 13.691 0 0 0 1.792 1.132 13.363 13.363 0 0 0 1.7.755 9.669 9.669 0 0 0 2.453.755c.566.094.943.189.943.189-.094-.566-.283-1.038-.377-1.6l-.189-.755-.094-.283a3.539 3.539 0 0 0 .943.094 7.5 7.5 0 0 0 2.075 0 2.61 2.61 0 0 0 .755-.094c-.189-.566-.283-1.132-.472-1.6a33.351 33.351 0 0 0 3.207 2.264 20.29 20.29 0 0 0 6.887 2.17c.943.094 1.7.189 2.264.189h.849a25.254 25.254 0 0 0-2.358-5.849c.283.094.566.283.849.377a23.975 23.975 0 0 0 7.924 1.7 20.832 20.832 0 0 0 2.453 0 4.28 4.28 0 0 0 .943-.094l-.283-.566a24.78 24.78 0 0 0 7.924 2.075c-.283-1.226-.566-2.453-.943-3.585.189.189.377.472.566.66a22.464 22.464 0 0 0 3.49 3.3 14.913 14.913 0 0 0 3.4 1.792 7.858 7.858 0 0 0 1.415.377 4.867 4.867 0 0 0 1.038.189 6.352 6.352 0 0 0 .943.094c-.566-1.981-1.038-3.773-1.509-5.566a21.227 21.227 0 0 1-.472-2.075 32.091 32.091 0 0 0 4.528 4.34 20.436 20.436 0 0 0 4.811 2.83 13.064 13.064 0 0 0 3.49.849h1.226a26.027 26.027 0 0 1-4.34-6.981c-.566-1.226-1.132-2.453-1.7-3.773-.566-1.226-1.132-2.547-1.7-3.773-.189-.472-.472-1.038-.66-1.509.094-.189.189-.283.283-.472a5.333 5.333 0 0 0 1.129 2.54z"
            data-name="Tracé 72" transform="translate(-1.577)" />
          <ellipse id="Ellipse_18" cx="18.773" cy="18.773" class="cls-4" data-name="Ellipse 18" rx="18.773" ry="18.773" transform="matrix(.939 -.345 .345 .939 67.348 47.897)"
          />
          <ellipse id="Ellipse_19" cx="17.075" cy="17.075" class="cls-5" data-name="Ellipse 19" rx="17.075" ry="17.075" transform="translate(74.367 39.999)"
          />
          <ellipse id="Ellipse_20" cx="11.037" cy="11.037" class="cls-14" data-name="Ellipse 20" rx="11.037" ry="11.037" transform="rotate(-78.586 79.7872 -14.84502)"
          />
          <path id="Tracé_73" d="M102.42 60.86a5.66 5.66 0 1 1-5.66-5.66 5.559 5.559 0 0 1 5.66 5.66z" class="cls-7" data-name="Tracé 73"
            transform="translate(-5.224 -3.126)" />
          <path id="Tracé_74" d="M100.486 53.291c.377 1.6-1.6 3.4-4.34 4.151-2.83.755-5.472 0-5.849-1.509-.377-1.6 1.6-3.4 4.339-4.151 2.831-.755 5.472-.095 5.85 1.509z"
            class="cls-5" data-name="Tracé 74" transform="translate(-5.176 -2.915)" />
          <path id="Tracé_75" d="M103.7 66.144c.377 1.038-.755 2.453-2.547 3.207s-3.679.566-4.056-.472.755-2.453 2.547-3.207 3.584-.566 4.056.472z"
            class="cls-5" data-name="Tracé 75" transform="translate(-5.56 -3.693)" />
          <ellipse id="Ellipse_21" cx="18.773" cy="18.773" class="cls-4" data-name="Ellipse 21" rx="18.773" ry="18.773" transform="translate(128.516 39.716)"
          />
          <ellipse id="Ellipse_22" cx="17.075" cy="17.075" class="cls-5" data-name="Ellipse 22" rx="17.075" ry="17.075" transform="translate(130.214 39.433)"
          />
          <ellipse id="Ellipse_23" cx="11.037" cy="11.037" class="cls-14" data-name="Ellipse 23" rx="11.037" ry="11.037" transform="translate(136.158 46.131)"
          />
          <path id="Tracé_76" d="M150.1 60.26a5.66 5.66 0 1 0 5.66-5.66 5.559 5.559 0 0 0-5.66 5.66z" class="cls-7" data-name="Tracé 76"
            transform="translate(-8.565 -3.092)" />
          <path id="Tracé_77" d="M152.1 52.691c-.377 1.6 1.6 3.4 4.34 4.151 2.83.755 5.472 0 5.849-1.509.377-1.6-1.6-3.4-4.339-4.151-2.834-.755-5.475-.095-5.85 1.509z"
            class="cls-5" data-name="Tracé 77" transform="translate(-8.676 -2.881)" />
          <path id="Tracé_78" d="M149.1 65.544c-.377 1.038.755 2.453 2.547 3.207s3.679.566 4.056-.472-.755-2.453-2.547-3.207-3.589-.566-4.056.472z"
            class="cls-5" data-name="Tracé 78" transform="translate(-8.504 -3.659)" />
          <g id="Groupe_16" data-name="Groupe 16" transform="translate(32.092 25.57)">
            <path id="Tracé_79" d="M97.706 36.313A83.087 83.087 0 0 0 86.2 33.2h-6.04L49.5 76.218c3.679.849 7.075 2.924 10.754 3.962 3.4 1.038 6.981 1.7 10.377 2.547l32.169-45a51.288 51.288 0 0 1-5.094-1.414z"
              class="cls-15" data-name="Tracé 79" transform="translate(-34.96 -27.45)" />
            <g id="Groupe_15" data-name="Groupe 15">
              <g id="Groupe_14" data-name="Groupe 14" opacity=".39" transform="translate(13.289 6.837)">
                <path id="Tracé_80" d="M78.2 34.492c-24.15-1.132-27.829 5-27.829 5s-3.679 3.3-1.509 21.32c2.453 21.414 14.622 21.98 37.263 21.32 19.716-.566 22.075-21.037 22.264-32.263.185-11.321-6.041-14.151-30.189-15.377z"
                  class="cls-17" data-name="Tracé 80" transform="translate(-48.174 -34.352)" />
                <path id="Tracé_81" d="M193.471 37.652c-9.056-4.056-34.244-2.547-45.659.566 0 0-8.49 1.981-8.113 11.037.377 8.49.566 30.754 20.094 33.3s32.924-1.981 35.376-9.717c2.547-7.738 7.359-31.129-1.698-35.186z"
                  class="cls-17" data-name="Tracé 81" transform="translate(-53.356 -34.4)" />
              </g>
              <path id="Tracé_82" d="M202.325 38.007a83.088 83.088 0 0 0-11.509-3.113l-6.038-.094L151.1 82.723c3.679.849 5.66 1.792 9.245 2.924 3.4 1.038 11.415-.189 14.811-1.132l32.169-45.093c-1.698-.471-3.396-.849-5-1.415z"
                class="cls-15" data-name="Tracé 82" transform="translate(-40.714 -27.54)" />
              <path id="Tracé_83" fill="#231f20" d="M203.528 30.4c-7.17-3.113-49.9-.377-67.734.566-14.339.755-20.848.566-20.848.566s-46.6-8.868-71.79-1.509c0 0-8.679 1.7-8.49 7.547s-3.114 13.964 4.244 19.718c7.358 5.849-3.3 27.075 28.773 29.433s40.188-5.849 42.923-16.6c2.736-10.849 7.924-17.452 14.717-13.113 6.792 4.245.943 29.433 33.678 31.131 32.641 1.7 34.81-10.849 37.357-19.15s3.68-13.589 6.982-16.229c3.207-2.83 7.36-19.245.188-22.36zM85.324 81.721c-22.641.66-34.81.094-37.357-21.32-2.17-18.018 1.509-21.32 1.509-21.32s3.679-6.226 27.829-5c24.15 1.132 30.376 4.056 30.188 15.283-.093 11.226-2.452 31.791-22.169 32.357zm103.865-9.339c-2.547 7.736-15.849 12.169-35.376 9.717-19.528-2.547-19.716-24.716-20.094-33.3-.377-9.056 8.113-11.037 8.113-11.037 11.415-3.113 36.6-4.623 45.659-.566s4.245 27.45 1.698 35.186z"
                data-name="Tracé 83" transform="translate(-34.087 -27.105)" />
            </g>
          </g>
          <path id="Tracé_84" d="M166.417 145.833a26.17 26.17 0 0 1-26.226 26.226H93.4c8.679-20 8.679-32.169 0-50.659h48.961a24.036 24.036 0 0 1 24.056 24.056z"
            class="cls-19" data-name="Tracé 84" transform="translate(-5.354 -6.875)" />
          <path id="Tracé_86" d="M91.6 120.5v6.038a9.183 9.183 0 0 0 17.452 3.962 9.271 9.271 0 0 0 8.207 5.189 9.175 9.175 0 0 0 8.773-6.415 9.229 9.229 0 0 0 18.018-2.83V120.5z"
            class="cls-5" data-name="Tracé 86" transform="translate(-5.252 -6.824)" />
          <path id="Tracé_87" d="M129.335 162.2a8.144 8.144 0 0 0-7.264 4.528 8.111 8.111 0 0 0-7.17-4.528 8.011 8.011 0 0 0-7.641 5.66 8.13 8.13 0 0 0-7.641-5.66 8.012 8.012 0 0 0-8.019 8.019v5.189h45.753v-5.283a8.053 8.053 0 0 0-8.018-7.925z"
            class="cls-5" data-name="Tracé 87" transform="translate(-5.252 -9.185)" />
          <path id="Tracé_88" d="M58.581 155.5s-.094.472-.283 1.321-.472 1.887-.849 3.207c-.189.66-.377 1.321-.566 2.075a16.417 16.417 0 0 1-1.038 2.358 9.547 9.547 0 0 1-4.245 3.679s.189-.472.566-1.226a31.945 31.945 0 0 0 1.415-3.019c.283-.566.472-1.226.755-1.981a23.04 23.04 0 0 1 .943-2.264 11.134 11.134 0 0 1 3.302-4.15z"
            class="cls-20" data-name="Tracé 88" transform="translate(-2.987 -8.806)" />
          <path id="Tracé_89" d="M60.4 185.7v.377a5.414 5.414 0 0 1-.094 1.132 11.443 11.443 0 0 1-1.226 3.773 15.151 15.151 0 0 1-3.3 4.34 19.35 19.35 0 0 1-5.377 3.4s.283-.472.849-1.321c.566-.755 1.415-1.887 2.358-3.113s2.075-2.641 3.207-4.056c1.224-1.513 2.451-2.932 3.583-4.532z"
            class="cls-20" data-name="Tracé 89" transform="translate(-2.919 -10.516)" />
          <path id="Tracé_90" d="M68.535 200.8a6.1 6.1 0 0 1-.755 1.226 16.248 16.248 0 0 1-2.264 2.736 14.55 14.55 0 0 1-4.056 2.738 13.82 13.82 0 0 1-5.66 1.226 6.914 6.914 0 0 1 1.132-.849c.755-.566 1.7-1.226 2.924-2.075a46.712 46.712 0 0 1 8.679-5.002z"
            class="cls-20" data-name="Tracé 90" transform="translate(-3.225 -11.371)" />
          <path id="Tracé_91" d="M61.73 123.6a.73.73 0 0 1-.094.283 4.785 4.785 0 0 1-.189.849q-.283 1.132-.849 2.83a11.711 11.711 0 0 1-2.17 3.679 11.305 11.305 0 0 1-1.981 1.6 7.3 7.3 0 0 1-2.547.755 1.168 1.168 0 0 0 .189-.283 3.01 3.01 0 0 1 .566-.66 20.048 20.048 0 0 0 1.6-2.358c.66-1.038 1.321-2.17 2.17-3.4a13.719 13.719 0 0 1 3.305-3.295z"
            class="cls-20" data-name="Tracé 91" transform="translate(-3.117 -7)" />
          <path id="Tracé_92" d="M68.292 101.5a6.354 6.354 0 0 1-.094.943 7.215 7.215 0 0 1-.849 2.17 6.371 6.371 0 0 1-2.17 2.358A7.1 7.1 0 0 1 61.5 108.2s.189-.283.472-.755a9.58 9.58 0 0 1 1.415-1.792 14.485 14.485 0 0 1 4.905-4.153z"
            class="cls-20" data-name="Tracé 92" transform="translate(-3.548 -5.748)" />
          <path id="Tracé_93" d="M180.7 98.3a6.521 6.521 0 0 1 1.415.472 25.123 25.123 0 0 1 3.49 1.6 18.181 18.181 0 0 1 4.151 3.3 15.728 15.728 0 0 1 3.3 5.283s-.472-.283-1.226-.849-1.887-1.321-3.113-2.264A45.77 45.77 0 0 1 180.7 98.3z"
            class="cls-20" data-name="Tracé 93" transform="translate(-10.298 -5.567)" />
          <path id="Tracé_94" d="M71.977 138.6a4.715 4.715 0 0 1 .094 1.038 10.366 10.366 0 0 1-.377 2.641 8.539 8.539 0 0 1-1.6 3.207 9.24 9.24 0 0 1-3.49 2.641 7.7 7.7 0 0 1 .377-1.038c.189-.66.566-1.509.943-2.453a19.943 19.943 0 0 1 4.053-6.036z"
            class="cls-20" data-name="Tracé 94" transform="translate(-3.837 -7.849)" />
          <path id="Tracé_95" d="M72.341 169.4l.189.189a4.1 4.1 0 0 1 .377.66 7.4 7.4 0 0 1 .755 2.641 6.647 6.647 0 0 1-.755 3.679 7.561 7.561 0 0 1-1.226 1.792 7.269 7.269 0 0 1-1.981 1.321.73.73 0 0 1 .094-.283 4.281 4.281 0 0 0 .189-.755c.189-.566.377-1.415.66-2.453.189-.943.472-2.075.755-3.207a22.64 22.64 0 0 1 .943-3.584z"
            class="cls-20" data-name="Tracé 95" transform="translate(-4.012 -9.593)" />
          <path id="Tracé_96" d="M179 131.3a1.032 1.032 0 0 0 .377.189c.189.094.472.283.943.566.755.472 1.792 1.226 3.019 2.075a30.87 30.87 0 0 1 3.679 3.49 13.025 13.025 0 0 1 2.736 5.472l-.283-.283c-.189-.189-.472-.377-.849-.755-.66-.566-1.7-1.509-2.83-2.453a42.961 42.961 0 0 1-3.679-3.585A14.169 14.169 0 0 1 179 131.3z"
            class="cls-20" data-name="Tracé 96" transform="translate(-10.202 -7.436)" />
          <path id="Tracé_97" d="M187.4 118.4a10.17 10.17 0 0 1 3.207 2.075 10.679 10.679 0 0 1 2.358 2.924 13.819 13.819 0 0 1 1.509 4.34 5.532 5.532 0 0 1-.943-.66 17.057 17.057 0 0 1-2.075-1.887 17.862 17.862 0 0 1-4.056-6.792z"
            class="cls-20" data-name="Tracé 97" transform="translate(-10.678 -6.705)" />
          <path id="Tracé_98" d="M181 161.1s.283.472.755 1.321a27.621 27.621 0 0 1 1.6 3.585 30 30 0 0 1 2.264 11.509 8.682 8.682 0 0 1-.849-1.415c-.472-.849-1.132-2.17-1.792-3.679A25.8 25.8 0 0 1 181 161.1z"
            class="cls-20" data-name="Tracé 98" transform="translate(-10.311 -9.123)" />
          <path id="Tracé_99" d="M193.2 153.1l.283.283a5.592 5.592 0 0 1 .755.755c.66.66 1.509 1.509 2.547 2.641a34.706 34.706 0 0 1 3.113 3.868 20.711 20.711 0 0 1 1.6 2.358c.566.849 1.038 1.792 1.6 2.736a1.033 1.033 0 0 0-.377-.189 6.054 6.054 0 0 1-.943-.566 17.98 17.98 0 0 1-3.113-2.358 22.242 22.242 0 0 1-3.4-4.151 19.8 19.8 0 0 1-2.065-5.377z"
            class="cls-20" data-name="Tracé 99" transform="translate(-11.006 -8.67)" />
          <path id="Tracé_100" d="M196.7 192.8a5.533 5.533 0 0 1 .943.66 27.446 27.446 0 0 1 2.17 1.887 16.8 16.8 0 0 1 2.358 3.113 9.759 9.759 0 0 1 1.038 1.981c.377.755.66 1.509 1.038 2.358a.73.73 0 0 1-.283-.094 4.137 4.137 0 0 1-.849-.472 12.437 12.437 0 0 1-2.453-1.981 16.153 16.153 0 0 1-3.962-7.452z"
            class="cls-20" data-name="Tracé 100" transform="translate(-11.204 -10.918)" />
          <path id="Tracé_101" d="M166.9 196a.73.73 0 0 1 .283.094 5.564 5.564 0 0 1 .755.377 11.752 11.752 0 0 1 2.17 1.887 10.248 10.248 0 0 1 1.981 3.3 13.36 13.36 0 0 1 .66 2.075c.189.755.283 1.509.472 2.453a1.167 1.167 0 0 0-.283-.189 3.011 3.011 0 0 1-.66-.566 12.514 12.514 0 0 1-1.887-2.264 21.831 21.831 0 0 1-1.981-3.3A19.342 19.342 0 0 1 166.9 196z"
            class="cls-20" data-name="Tracé 101" transform="translate(-9.517 -11.1)" />
          <path id="Tracé_102" d="M98.645 195.9s-1.981 7.453-9.245 10.283c-.094 0 3.49-6.983 9.245-10.283z" class="cls-20" data-name="Tracé 102"
            transform="translate(-5.128 -11.094)" />
          <path id="Tracé_103" d="M139.8 191.7s6.509 2.264 7.83 9.245c0 .094-5.943-3.679-7.83-9.245z" class="cls-20" data-name="Tracé 103"
            transform="translate(-7.982 -10.856)" />
          <path id="Tracé_104" d="M134.378 208.3a2.669 2.669 0 0 1 .566.283 3.775 3.775 0 0 1 1.132 1.038 2.486 2.486 0 0 1 .472 1.887 3.043 3.043 0 0 1-1.415 2.17 4.9 4.9 0 0 0-.283-.472 7.638 7.638 0 0 1-.566-1.226 5.485 5.485 0 0 1 .094-3.68z"
            class="cls-20" data-name="Tracé 104" transform="translate(-7.654 -11.796)" />
        </g>
        <g id="Groupe_18" data-name="Groupe 18" transform="translate(1229.778 221.646)">
          <g id="Groupe_10" data-name="Groupe 10">
            <g id="Groupe_1-2" data-name="Groupe 1" transform="translate(23.334 193.921)">
              <path id="Tracé_1" d="M45.152 167.557c-16.446-5.662-17.524-23.994-12.671-38.013 5.931-16.715 23.185-28.308 37.2-37.744 11.054-7.549.809-25.612-10.514-18.063-21.3 14.558-41.518 30.734-48.8 56.616C3.9 154.077 16.3 179.689 39.49 187.507c12.941 4.314 18.333-15.637 5.662-19.95z"
                class="cls-21" data-name="Tracé 1" transform="translate(-8.667 -71.93)" />
            </g>
            <g id="Groupe_2" data-name="Groupe 2" transform="translate(322.517 193.921)">
              <path id="Tracé_2" d="M154.31 187.507c22.107-7.549 34.509-31 29.925-53.92-5.662-27.5-27.229-45.023-49.337-59.851-11.323-7.549-21.568 10.514-10.514 18.063 13.75 9.166 26.96 19.141 35.317 33.969 7.818 13.75 6.47 35.857-10.784 41.788-12.941 4.314-7.549 24.264 5.392 19.95z"
                class="cls-21" data-name="Tracé 2" transform="translate(-119.64 -71.93)" />
            </g>
            <g id="Groupe_5" data-name="Groupe 5">
              <g id="Groupe_3" data-name="Groupe 3">
                <path id="Tracé_3" d="M14.319 91.663c34.239 10.514 69.556 16.446 105.143 19.411a76.19 76.19 0 0 1 18.872-41.788c-5.392-6.74-103.8 8.358-109.457-7.279C24.833 50.685 22.677 6.74 25.912 0A385.01 385.01 0 0 0 2.726 63.895Q1.513 68.748.3 74.409C1.918 82.5 5.692 88.967 14.319 91.663z"
                  class="cls-22" data-name="Tracé 3" transform="translate(.477)" />
                <path id="Tracé_4" d="M14.808 44.854c-8.627-2.7-12.4-9.166-13.75-17.254C-.29 35.149-.559 42.967 1.6 49.707c3.5 10.784 12.941 12.4 23.725 13.48a850.766 850.766 0 0 1 94.359 15.906 90.812 90.812 0 0 1 .27-14.828C84.364 61.3 49.047 55.369 14.808 44.854z"
                  class="cls-23" data-name="Tracé 4" transform="translate(-.012 46.809)" />
              </g>
              <g id="Groupe_4" data-name="Groupe 4" transform="translate(270.376)">
                <path id="Tracé_5" d="M224.315 91.663c-34.239 10.514-69.556 16.446-105.143 19.411A76.19 76.19 0 0 0 100.3 69.287c5.392-6.74 103.8 8.358 109.457-7.279C213.8 50.685 215.958 6.74 212.723 0a385.011 385.011 0 0 1 23.185 63.895q1.213 4.853 2.426 10.514c-1.617 8.091-5.392 14.558-14.019 17.254z"
                  class="cls-22" data-name="Tracé 5" transform="translate(-100.3)" />
                <path id="Tracé_6" d="M212.443 44.854c8.627-2.7 12.4-9.166 13.75-17.254 1.348 7.549 1.618 15.367-.539 22.107-3.5 10.784-12.941 12.4-23.725 13.48a850.766 850.766 0 0 0-94.359 15.906 90.812 90.812 0 0 0-.27-14.828c35.857-2.965 71.174-8.896 105.143-19.411z"
                  class="cls-23" data-name="Tracé 6" transform="translate(-88.428 46.809)" />
              </g>
            </g>
            <path id="Tracé_7" d="M331.131 156.982a112.725 112.725 0 0 0-30.465-57.155 15.616 15.616 0 0 1 10.514.539 70.124 70.124 0 0 0-25.612-26.151c6.47-.27 12.941-.539 19.141-.539a162.04 162.04 0 0 0-66.052-28.038c3.774-2.7 7.818-5.392 11.593-8.088-17.25-3.235-34.776-11.05-52.031-7.01 6.74-6.74 8.9-11.323 23.994-13.48-15.906-11.862-49.067 8.088-49.067 8.088C162.632 21.1 148.344 8.433 137.02 8.7a13.762 13.762 0 0 1 5.931 9.436c-20.489.539-40.979.809-61.468 1.348 18.6.809 21.3 4.853 28.847 21.029-16.715.541-34.508 8.087-50.415 14.287 2.157 1.618 21.029 7.549 23.455 5.931a203.973 203.973 0 0 0-52.57 47.184 1.4 1.4 0 0 0 1.618 2.157l11.593-5.392c1.348-.539 2.426.809 1.618 2.157a191.874 191.874 0 0 0-28.308 61.738 1.446 1.446 0 0 0 2.426 1.348 117.483 117.483 0 0 1 18.333-16.176 1.4 1.4 0 0 1 2.157 1.618 173.687 173.687 0 0 0-11.054 60.66 1.332 1.332 0 0 0 2.426.809 29.43 29.43 0 0 0 3.5-4.583 1.432 1.432 0 0 1 2.7.539 210.249 210.249 0 0 0 12.4 64.7c.539 1.348 2.7 1.078 2.7-.27.27-1.618 2.426-1.887 2.7-.27a195.172 195.172 0 0 0 22.916 59.581 1.435 1.435 0 0 0 2.7-.809v-3.232a1.4 1.4 0 0 1 2.7-.539c5.931 16.985 12.941 33.7 20.22 49.876 2.426-5.122 4.044-10.514 6.2-15.906a68.1 68.1 0 0 1 7.549 14.558 257.576 257.576 0 0 1 11.593-30.195 1.528 1.528 0 0 1 2.7 0c1.078 3.5 80.34-.539 81.419 2.966 3.5 10.245 8.358 19.95 12.4 29.656 1.348-6.2.27-13.21 5.662-17.254a42.55 42.55 0 0 1 7.818 15.1c4.853-13.48 9.975-27.229 15.637-40.44.539 5.662 1.078 11.323 1.618 16.715a166.644 166.644 0 0 0 33.969-70.9 24.215 24.215 0 0 1 7.549 11.593A282.633 282.633 0 0 0 308.485 226c4.044 2.157 8.358 4.314 12.4 6.2a268.545 268.545 0 0 0-7.01-84.384 131.741 131.741 0 0 0 17.256 9.166z"
              class="cls-24" data-name="Tracé 7" transform="translate(29.29 14.752)" />
            <path id="Tracé_8" d="M135.9 68.279L134.287 61c-.539 1.887-1.348 3.5-1.887 5.392a22.286 22.286 0 0 0 3.5 1.887z" class="cls-24"
              data-name="Tracé 8" transform="translate(224.517 103.455)" />
            <path id="Tracé_9" d="M269.191 155.567c4.044-8.358 4.044-18.872 4.044-29.117-10.514 14.558-14.558 33.43-27.229 47.989 0-8.358 4.044-16.715 2.157-25.073-16.715 10.514-18.872 29.117-29.117 43.945-4.044-6.2 0-12.4-2.157-18.872-12.4 18.872-18.872 41.788-39.631 52.032-2.157-14.558 4.044-29.117-4.044-43.945-6.2 14.558-12.4 29.117-22.916 39.631 0-10.514-4.044-18.872-8.358-27.229 2.157 4.044-4.044 10.514-2.157 14.558-10.514-14.558-22.916-25.073-33.43-39.631 0 8.358 0 14.558 2.157 22.916-18.871-18.871-45.831-39.63-50.145-68.747-4.044 6.2 0 16.715-4.044 22.916-10.514-16.715-14.558-37.474-12.4-58.5-2.157 4.044-6.2 8.358-6.2 14.558-5.662-11.323-6.2-24.533-6.2-36.4a171.367 171.367 0 0 0-7.821 50.687 1.332 1.332 0 0 0 2.426.809 29.43 29.43 0 0 0 3.5-4.583 1.432 1.432 0 0 1 2.7.539 210.249 210.249 0 0 0 12.4 64.7c.539 1.348 2.7 1.078 2.7-.27.27-1.618 2.426-1.887 2.7-.27a195.173 195.173 0 0 0 22.911 59.59 1.435 1.435 0 0 0 2.7-.809v-3.235a1.4 1.4 0 0 1 2.7-.539c5.931 16.985 12.941 33.7 20.22 49.876 2.426-5.122 4.044-10.514 6.2-15.906a68.1 68.1 0 0 1 7.543 14.553 257.582 257.582 0 0 1 11.593-30.2 1.528 1.528 0 0 1 2.7 0c1.078 3.5 80.34-.539 81.419 2.966 3.5 10.245 8.358 19.95 12.4 29.656 1.348-6.2.27-13.21 5.662-17.254a42.551 42.551 0 0 1 7.818 15.1c4.853-13.48 9.975-27.229 15.637-40.44.539 5.662 1.078 11.323 1.618 16.715a166.643 166.643 0 0 0 33.969-70.9 24.216 24.216 0 0 1 7.549 11.593A282.629 282.629 0 0 0 301 127.26c4.044 2.157 8.358 4.314 12.4 6.2a267.625 267.625 0 0 0-1.618-55c-11.048 28.04-24.797 54.731-42.591 77.107z"
              class="cls-21" data-name="Tracé 9" transform="translate(36.771 112.953)" />
            <g id="Groupe_7" data-name="Groupe 7" transform="translate(121.288 93.281)">
              <ellipse id="Ellipse_1" cx="81.958" cy="85.193" class="cls-21" data-name="Ellipse 1" rx="81.958" ry="85.193" transform="translate(.539)"
              />
              <ellipse id="Ellipse_2" cx="81.958" cy="85.193" fill="#7d89cd" data-name="Ellipse 2" rx="81.958" ry="85.193" transform="translate(.539 7.279)"
              />
              <g id="Groupe_6" data-name="Groupe 6" transform="translate(0 6.201)">
                <path id="Tracé_10" fill="#e3e8eb" d="M59 162.735A82.489 82.489 0 0 0 175.2 52.2C119.12 70.263 69.245 107.468 59 162.735z"
                  data-name="Tracé 10" transform="translate(-21.256 -10.951)" />
                <path id="Tracé_11" fill="#f1f1f1" d="M127.5 36.9a82.487 82.487 0 0 0-44.756 151.784c9.975-55.537 59.851-92.472 115.927-110.535A82.042 82.042 0 0 0 127.5 36.9z"
                  data-name="Tracé 11" transform="translate(-45 -36.9)" />
                <ellipse id="Ellipse_3" cx="50.685" cy="50.685" fill="#212121" data-name="Ellipse 3" rx="50.685" ry="50.685" transform="rotate(-85.24 83.9151 49.35387)"
                />
                <path id="Tracé_12" fill="#ffb74d" d="M63.9 117.89a45.764 45.764 0 0 0 77.375-33.161 45.131 45.131 0 0 0-8.9-27.229C103.531 71.789 79 92.009 63.9 117.89z"
                  data-name="Tracé 12" transform="translate(-12.946 -1.963)" />
                <path id="Tracé_13" fill="#ffe0b2" d="M104.432 50.5A45.793 45.793 0 0 0 58.6 96.332a44.946 44.946 0 0 0 14.289 33.161c14.828-25.881 39.631-46.1 68.208-60.66A45.436 45.436 0 0 0 104.432 50.5z"
                  data-name="Tracé 13" transform="translate(-21.935 -13.835)" />
                <path id="Tracé_14" fill="#263238" d="M114.667 68.454A27.185 27.185 0 0 0 65.6 84.629a27.289 27.289 0 0 0 8.627 19.95 27.663 27.663 0 0 0 18.873 7.55A27.154 27.154 0 0 0 120.328 84.9a30.883 30.883 0 0 0-5.661-16.446z"
                  data-name="Tracé 14" transform="translate(-10.063 -2.132)" />
                <ellipse id="Ellipse_4" cx="26.151" cy="26.151" fill="#fafafa" data-name="Ellipse 4" rx="26.151" ry="26.151" transform="rotate(-80.811 48.28212 27.24653)"
                />
                <path id="Tracé_15" fill="#fafafa" d="M105.646 88.223A11.323 11.323 0 1 1 94.323 76.9a11.572 11.572 0 0 1 11.323 11.323z"
                  data-name="Tracé 15" opacity=".67" transform="translate(19.447 30.939)" />
                <path id="Tracé_16" d="M55.9 50.3v23.455c14.828 0 14.828-23.455 0-23.455z" class="cls-34" data-name="Tracé 16" transform="translate(-26.514 -14.174)"
                />
                <path id="Tracé_17" d="M93.435 81.36a2.692 2.692 0 0 0-1.348-1.078 4.632 4.632 0 0 0-4.583 0 2.692 2.692 0 0 0-1.348 1.078c-1.078 1.618-1.887 3.235-1.348 5.122a5.258 5.258 0 0 0 5.122 3.774 5.56 5.56 0 0 0 4.583-2.7 4.555 4.555 0 0 0 .809-2.7c-.539-1.07-1.078-2.148-1.887-3.496z"
                  class="cls-34" data-name="Tracé 17" transform="translate(22.223 35.646)" />
              </g>
            </g>
            <g id="Groupe_8" data-name="Groupe 8" transform="translate(102.921 354.387)">
              <path id="Tracé_18" d="M48.2 225.675c10.784-1.078 21.568-1.887 32.621-2.966 7.279-.539 11.054-6.2 9.975-13.21a356.67 356.67 0 0 1-3.774-67.939c.539-13.48-20.489-13.48-20.759 0a392.81 392.81 0 0 0 4.583 73.331c3.235-4.314 6.74-8.9 9.975-13.21-10.784 1.078-21.568 1.887-32.621 2.966-13.21 1.348-13.48 22.107 0 21.029z"
                class="cls-21" data-name="Tracé 18" transform="translate(-38.187 -131.45)" />
            </g>
            <g id="Groupe_9" data-name="Groupe 9" transform="translate(244.582 354.387)">
              <path id="Tracé_19" d="M133.511 204.646c-10.784-1.078-21.568-1.887-32.621-2.966 3.235 4.314 6.74 8.9 9.975 13.21a392.81 392.81 0 0 0 4.583-73.331c-.539-13.48-21.3-13.48-20.759 0a359.135 359.135 0 0 1-3.775 67.941c-1.078 7.01 2.7 12.671 9.975 13.21 10.784 1.078 21.568 1.887 32.621 2.966 13.48 1.078 13.21-19.681 0-21.029z"
                class="cls-21" data-name="Tracé 19" transform="translate(-90.733 -131.45)" />
            </g>
          </g>
          <path id="Tracé_20" d="M8.39 18.5c-4.853 0-4.853 9.706 0 9.706 7.548 0 7.548-9.706 0-9.706z" class="cls-24" data-name="Tracé 20"
            transform="translate(8.024 31.376)" />
          <path id="Tracé_21" d="M15 27.9C.168 27.9.168 52.164 15 52.164S29.824 27.9 15 27.9z" class="cls-24" data-name="Tracé 21"
            transform="translate(6.54 47.318)" />
          <path id="Tracé_22" d="M29.062 26.9c-7.549 0-7.549 12.941 0 12.941 9.975.269 9.975-12.941 0-12.941z" class="cls-24" data-name="Tracé 22"
            transform="translate(39.654 45.622)" />
          <path id="Tracé_23" d="M26.506 34.5c-9.975 0-9.975 12.671 0 12.671 7.549 0 7.549-12.671 0-12.671z" class="cls-24" data-name="Tracé 23"
            transform="translate(32.234 58.511)" />
          <ellipse id="Ellipse_5" cx="7.818" cy="7.818" class="cls-24" data-name="Ellipse 5" rx="7.818" ry="7.818" transform="translate(342.089 70.904)"
          />
          <path id="Tracé_24" d="M149.806 32c-9.975 0-9.975 14.558 0 14.558 7.549 0 7.549-14.558 0-14.558z" class="cls-24" data-name="Tracé 24"
            transform="translate(241.349 54.271)" />
          <path id="Tracé_25" d="M149.631 22.8a5.931 5.931 0 1 0 5.931 5.931 5.984 5.984 0 0 0-5.931-5.931z" class="cls-24" data-name="Tracé 25"
            transform="translate(243.681 38.668)" />
        </g>
      </g>
    </svg>