<?xml version="1.0" encoding="utf-8"?>
<!-- Generator: Adobe Illustrator 22.0.1, SVG Export Plug-In . SVG Version: 6.00 Build 0)  -->
<svg version="1.1" id="Calque_1" xmlns="http://www.w3.org/2000/svg" xmlns:xlink="http://www.w3.org/1999/xlink" x="0px" y="0px"
	 viewBox="0 0 1422 806.6" style="enable-background:new 0 0 1422 806.6;" xml:space="preserve">
<style type="text/css">
	.st0{fill:#FFFFFF;}
	.st1{fill:#707070;}
</style>
<g id="Soustraction_1" transform="translate(8934 7455)">
	<path class="st0" d="M-8804.6-6648.9c-16,0-32.2-0.3-48.1-1c-15.8-0.7-31.8-1.7-47.5-3.1c-11-0.9-22.2-2.1-33.3-3.4v-798.2h1108.2
		c-1.2,13.8-2.8,27.7-4.8,41.4c-2,13.8-4.3,27.7-7,41.4c-2.7,13.6-5.8,27.3-9.2,40.7c-3.4,13.3-7.2,26.8-11.3,40
		c-4.1,13.1-8.5,26.3-13.3,39.3c-4.7,12.9-9.9,25.8-15.3,38.5c-5.4,12.6-11.2,25.3-17.2,37.6c-6,12.3-12.4,24.7-19.1,36.7
		c-6.6,12-13.7,24.1-20.9,35.8c-7.2,11.7-14.9,23.4-22.7,34.8c-7.8,11.3-16,22.7-24.4,33.8c-8.4,11-17.1,22-26,32.7
		c-8.9,10.6-18.2,21.2-27.7,31.6c-9.4,10.3-19.3,20.5-29.2,30.4c-10,9.9-20.3,19.7-30.7,29.1c-10.4,9.5-21.3,18.8-32.2,27.9
		c-21.8,18.1-44.9,35.5-68.5,51.7c-23.7,16.3-48.4,31.8-73.6,46.1c-25.3,14.4-51.7,27.8-78.4,40c-26.9,12.3-54.7,23.6-82.7,33.6
		c-14.1,5-28.5,9.8-42.8,14.3c-14.4,4.5-29.1,8.7-43.7,12.5c-14.7,3.9-29.7,7.5-44.6,10.7c-15,3.3-30.2,6.2-45.4,8.9
		c-15.2,2.6-30.8,5-46.2,7c-15.5,2-31.3,3.7-46.9,5.1c-15.7,1.4-31.7,2.4-47.5,3.1C-8772.4-6649.2-8788.6-6648.9-8804.6-6648.9z"/>
	<path class="st1" d="M-8804.6-6649.4c16,0,32.2-0.3,48.1-1c15.8-0.7,31.8-1.7,47.5-3.1c15.6-1.3,31.4-3,46.9-5.1
		c15.4-2,30.9-4.3,46.2-7c15.2-2.6,30.4-5.6,45.4-8.9c14.9-3.3,29.9-6.9,44.6-10.7c14.6-3.8,29.3-8.1,43.7-12.5
		c14.3-4.4,28.7-9.2,42.8-14.3c28-10,55.8-21.3,82.6-33.6c26.7-12.2,53-25.7,78.3-40c25.2-14.3,49.9-29.8,73.6-46.1
		c23.6-16.2,46.6-33.6,68.4-51.7c10.9-9,21.7-18.4,32.1-27.9c10.4-9.5,20.8-19.3,30.7-29.1c9.9-9.9,19.8-20.1,29.2-30.4
		c9.5-10.3,18.8-20.9,27.6-31.5c8.9-10.7,17.7-21.7,26-32.7c8.4-11.1,16.6-22.4,24.4-33.7c7.8-11.4,15.4-23.1,22.7-34.8
		c7.2-11.7,14.3-23.8,20.9-35.8c6.6-12.1,13.1-24.4,19.1-36.7c6-12.3,11.8-25,17.2-37.6c5.4-12.7,10.5-25.6,15.3-38.4
		c4.7-12.9,9.2-26.1,13.3-39.2c4.1-13.2,7.9-26.7,11.3-40c3.4-13.4,6.5-27.1,9.2-40.7c2.7-13.7,5.1-27.6,7-41.4
		c1.9-13.5,3.5-27.2,4.7-40.8h-1107.3v797.2c11,1.3,22.1,2.4,33,3.3c15.7,1.4,31.7,2.4,47.5,3.1
		C-8836.8-6649.7-8820.6-6649.4-8804.6-6649.4 M-8804.6-6648.4c-16,0-32.2-0.3-48.1-1c-15.8-0.7-31.8-1.7-47.5-3.1
		c-11.2-1-22.5-2.1-33.7-3.4V-7455h1109c-1.2,14-2.9,28.1-4.8,42c-2,13.8-4.3,27.7-7,41.4c-2.7,13.6-5.8,27.3-9.2,40.8
		c-3.4,13.4-7.2,26.8-11.3,40.1c-4.1,13.1-8.6,26.4-13.3,39.3c-4.7,12.9-9.9,25.8-15.3,38.5c-5.4,12.6-11.2,25.3-17.2,37.7
		c-6,12.3-12.4,24.7-19.1,36.8c-6.6,12-13.7,24.1-20.9,35.8c-7.2,11.7-14.9,23.4-22.7,34.8c-7.8,11.4-16,22.7-24.4,33.8
		c-8.4,11-17.1,22-26.1,32.7c-8.9,10.6-18.2,21.3-27.7,31.6c-9.4,10.3-19.3,20.5-29.2,30.4c-10,9.9-20.3,19.7-30.7,29.2
		c-10.4,9.5-21.3,18.8-32.2,27.9c-21.9,18.1-44.9,35.5-68.5,51.8c-23.7,16.3-48.4,31.8-73.6,46.1c-25.3,14.4-51.7,27.8-78.4,40
		c-26.9,12.3-54.7,23.6-82.7,33.6c-14.1,5-28.5,9.8-42.8,14.3c-14.4,4.5-29.1,8.7-43.7,12.5c-14.7,3.9-29.7,7.5-44.6,10.7
		c-15,3.3-30.2,6.2-45.4,8.9c-15.2,2.6-30.8,5-46.2,7c-15.5,2-31.3,3.7-46.9,5.1c-15.7,1.4-31.7,2.4-47.5,3.1
		C-8772.4-6648.7-8788.6-6648.4-8804.6-6648.4z"/>
</g>
</svg>
