<svg xmlns="http://www.w3.org/2000/svg" viewBox="10574.001 4302 1422.027 806.641">
  <defs>
    <style>
      .cls-1 {
        fill: #fff;
      }

      .cls-2, .cls-3 {
        stroke: none;
      }

      .cls-3 {
        fill: #707070;
      }
    </style>
  </defs>
  <g id="Soustraction_1" data-name="Soustraction 1" class="cls-1" transform="translate(8934 7455)">
    <path class="cls-2" d="M 1805.876098632812 -2346.859375 C 1785.359130859375 -2346.859375 1764.599365234375 -2347.20703125 1744.172973632812 -2347.892333984375 C 1723.919189453125 -2348.571533203125 1703.41748046875 -2349.60302734375 1683.237182617188 -2350.95849609375 C 1669.0908203125 -2351.908447265625 1654.71484375 -2353.046630859375 1640.500610351562 -2354.342041015625 L 1640.500610351562 -3152.5 L 3061.46826171875 -3152.499755859375 C 3059.892578125 -3138.69091796875 3057.824462890625 -3124.7529296875 3055.319580078125 -3111.0625 C 3052.7958984375 -3097.269287109375 3049.760009765625 -3083.345703125 3046.296142578125 -3069.67822265625 C 3042.8515625 -3056.085205078125 3038.892333984375 -3042.38232421875 3034.529052734375 -3028.95068359375 C 3030.195068359375 -3015.603515625 3025.33642578125 -3002.137939453125 3020.088134765625 -2988.927490234375 C 3014.8681640625 -2975.7939453125 3009.131591796875 -2962.5810546875 3003.037841796875 -2949.65576171875 C 2996.97412109375 -2936.79443359375 2990.383544921875 -2923.850341796875 2983.449462890625 -2911.18310546875 C 2976.54443359375 -2898.572021484375 2969.122314453125 -2885.91259765625 2961.38916015625 -2873.556640625 C 2953.684326171875 -2861.24560546875 2945.453369140625 -2848.88671875 2936.924560546875 -2836.8232421875 C 2928.42919921875 -2824.807373046875 2919.41259765625 -2812.76513671875 2910.125244140625 -2801.03125 C 2900.859375 -2789.325439453125 2891.07958984375 -2777.615966796875 2881.0576171875 -2766.228271484375 C 2871.073974609375 -2754.88134765625 2860.554443359375 -2743.5205078125 2849.791259765625 -2732.46142578125 C 2839.08056640625 -2721.4541015625 2827.844482421875 -2710.457275390625 2816.39453125 -2699.77685546875 C 2804.99853515625 -2689.14599609375 2793.06787109375 -2678.530517578125 2780.93408203125 -2668.224365234375 C 2768.8310546875 -2657.94677734375 2756.22900390625 -2647.7275390625 2743.478271484375 -2637.850830078125 C 2730.713623046875 -2627.96484375 2717.46337890625 -2618.158447265625 2704.09521484375 -2608.704345703125 C 2690.71142578125 -2599.239013671875 2676.8359375 -2589.86083984375 2662.854248046875 -2580.8310546875 C 2634.8447265625 -2562.740234375 2605.3095703125 -2545.333984375 2575.069091796875 -2529.095458984375 C 2544.736572265625 -2512.806640625 2512.975341796875 -2497.30615234375 2480.66748046875 -2483.02490234375 C 2448.1923828125 -2468.670654296875 2414.388427734375 -2455.20458984375 2380.194580078125 -2443.0009765625 C 2345.749267578125 -2430.70849609375 2310.086669921875 -2419.40478515625 2274.197265625 -2409.403564453125 C 2256.133056640625 -2404.369384765625 2237.662109375 -2399.567626953125 2219.29736328125 -2395.131591796875 C 2200.837646484375 -2390.673095703125 2181.970947265625 -2386.4599609375 2163.220947265625 -2382.609619140625 C 2144.41259765625 -2378.746337890625 2125.1728515625 -2375.1376953125 2106.0361328125 -2371.8837890625 C 2086.864013671875 -2368.623779296875 2067.274658203125 -2365.635498046875 2047.812622070312 -2363.001220703125 C 2028.278930664062 -2360.35888671875 2008.362060546875 -2358.0068359375 1988.614990234375 -2356.010009765625 C 1968.746948242188 -2354.002197265625 1948.5263671875 -2352.302490234375 1928.514770507812 -2350.95849609375 C 1908.33349609375 -2349.60302734375 1887.831909179688 -2348.571533203125 1867.578979492188 -2347.892333984375 C 1847.154052734375 -2347.20703125 1826.394165039062 -2346.859375 1805.876098632812 -2346.859375 Z"/>
    <path class="cls-3" d="M 1805.876098632812 -2347.359375 C 1826.388793945312 -2347.359375 1847.142944335938 -2347.706787109375 1867.562255859375 -2348.39208984375 C 1887.809448242188 -2349.071044921875 1908.305541992188 -2350.102294921875 1928.481079101562 -2351.457275390625 C 1948.4873046875 -2352.801025390625 1968.702270507812 -2354.500244140625 1988.564819335938 -2356.507568359375 C 2008.306030273438 -2358.503662109375 2028.217529296875 -2360.855224609375 2047.745483398438 -2363.496826171875 C 2067.2021484375 -2366.130126953125 2086.78564453125 -2369.117919921875 2105.952392578125 -2372.376708984375 C 2125.083251953125 -2375.629638671875 2144.3173828125 -2379.2373046875 2163.120361328125 -2383.099609375 C 2181.86474609375 -2386.94873046875 2200.725830078125 -2391.160400390625 2219.179931640625 -2395.61767578125 C 2237.5390625 -2400.05224609375 2256.00439453125 -2404.852294921875 2274.063232421875 -2409.88525390625 C 2309.941162109375 -2419.88330078125 2345.59228515625 -2431.18359375 2380.0263671875 -2443.471923828125 C 2414.208984375 -2455.67138671875 2448.00146484375 -2469.1328125 2480.46533203125 -2483.482177734375 C 2512.761474609375 -2497.75830078125 2544.51123046875 -2513.253173828125 2574.83251953125 -2529.5361328125 C 2605.061279296875 -2545.76806640625 2634.584716796875 -2563.16748046875 2662.5830078125 -2581.2509765625 C 2676.558837890625 -2590.277099609375 2690.428466796875 -2599.651123046875 2703.806396484375 -2609.112548828125 C 2717.168701171875 -2618.5625 2730.413330078125 -2628.364501953125 2743.172119140625 -2638.24609375 C 2755.916748046875 -2648.1181640625 2768.512939453125 -2658.33251953125 2780.6103515625 -2668.60546875 C 2792.738525390625 -2678.906494140625 2804.6630859375 -2689.516845703125 2816.053466796875 -2700.142333984375 C 2827.49755859375 -2710.817626953125 2838.727783203125 -2721.808349609375 2849.43310546875 -2732.81005859375 C 2860.190185546875 -2743.863037109375 2870.7041015625 -2755.2177734375 2880.68212890625 -2766.55859375 C 2890.698486328125 -2777.93994140625 2900.47265625 -2789.642578125 2909.733154296875 -2801.34130859375 C 2919.01513671875 -2813.068359375 2928.026123046875 -2825.103271484375 2936.516357421875 -2837.11181640625 C 2945.039794921875 -2849.16796875 2953.265380859375 -2861.51904296875 2960.96533203125 -2873.82177734375 C 2968.693359375 -2886.169677734375 2976.1103515625 -2898.820556640625 2983.010986328125 -2911.42333984375 C 2989.940185546875 -2924.081787109375 2996.526123046875 -2937.0166015625 3002.58544921875 -2949.868896484375 C 3008.675048828125 -2962.78466796875 3014.4072265625 -2975.98828125 3019.62353515625 -2989.1123046875 C 3024.867919921875 -3002.3125 3029.72265625 -3015.76806640625 3034.053466796875 -3029.10498046875 C 3038.41357421875 -3042.5263671875 3042.369384765625 -3056.218505859375 3045.811767578125 -3069.801025390625 C 3049.272705078125 -3083.457763671875 3052.30615234375 -3097.370361328125 3054.82763671875 -3111.15234375 C 3057.296630859375 -3124.6474609375 3059.34130859375 -3138.384521484375 3060.90771484375 -3151.999755859375 L 1641.000610351562 -3152 L 1641.000610351562 -2354.798583984375 C 1655.062377929688 -2353.520751953125 1669.279296875 -2352.39697265625 1683.270751953125 -2351.457275390625 C 1703.445434570312 -2350.102294921875 1723.941528320312 -2349.071044921875 1744.189697265625 -2348.39208984375 C 1764.6103515625 -2347.706787109375 1785.36474609375 -2347.359375 1805.876098632812 -2347.359375 M 1805.876098632812 -2346.359375 C 1785.353881835938 -2346.359375 1764.588256835938 -2346.70703125 1744.15625 -2347.392578125 C 1723.892822265625 -2348.072021484375 1703.38525390625 -2349.10400390625 1683.203735351562 -2350.45947265625 C 1668.892822265625 -2351.420654296875 1654.357177734375 -2352.573486328125 1640.000610351562 -2353.885498046875 L 1640.000610351562 -3153 L 3062.0283203125 -3152.999755859375 C 3060.443359375 -3138.99560546875 3058.3515625 -3124.85595703125 3055.811279296875 -3110.972412109375 C 3053.286376953125 -3097.172119140625 3050.248291015625 -3083.2373046875 3046.781005859375 -3069.555419921875 C 3043.333984375 -3055.953857421875 3039.3720703125 -3042.240478515625 3035.004638671875 -3028.796142578125 C 3030.66650390625 -3015.4365234375 3025.803955078125 -3001.960693359375 3020.552734375 -2988.742919921875 C 3015.329345703125 -2975.600341796875 3009.588623046875 -2962.377685546875 3003.489990234375 -2949.4423828125 C 2997.4208984375 -2936.56982421875 2990.82568359375 -2923.61669921875 2983.887939453125 -2910.943115234375 C 2976.978271484375 -2898.3232421875 2969.551025390625 -2885.655517578125 2961.81298828125 -2873.291259765625 C 2954.102294921875 -2860.97119140625 2945.865966796875 -2848.6044921875 2937.3330078125 -2836.53466796875 C 2928.82958984375 -2824.507568359375 2919.807373046875 -2812.4580078125 2910.517333984375 -2800.720703125 C 2901.245849609375 -2789.00830078125 2891.46044921875 -2777.2919921875 2881.432861328125 -2765.89794921875 C 2871.4423828125 -2754.543212890625 2860.91748046875 -2743.176513671875 2850.149658203125 -2732.112548828125 C 2839.4287109375 -2721.0947265625 2828.1865234375 -2710.0927734375 2816.735595703125 -2699.4111328125 C 2805.33544921875 -2688.776611328125 2793.39892578125 -2678.155517578125 2781.257568359375 -2667.84326171875 C 2769.151611328125 -2657.563232421875 2756.5439453125 -2647.339111328125 2743.784423828125 -2637.45556640625 C 2731.01611328125 -2627.56640625 2717.759765625 -2617.755615234375 2704.3837890625 -2608.296142578125 C 2690.99853515625 -2598.82958984375 2677.117431640625 -2589.447509765625 2663.12548828125 -2580.410888671875 C 2635.10498046875 -2562.31298828125 2605.55810546875 -2544.899658203125 2575.3056640625 -2528.655029296875 C 2544.962646484375 -2512.3603515625 2513.18994140625 -2496.8544921875 2480.86962890625 -2482.567626953125 C 2448.3828125 -2468.2080078125 2414.5673828125 -2454.737548828125 2380.362548828125 -2442.530029296875 C 2345.906005859375 -2430.233642578125 2310.23193359375 -2418.92626953125 2274.33154296875 -2408.921875 C 2256.264404296875 -2403.88671875 2237.787841796875 -2399.08349609375 2219.414794921875 -2394.645751953125 C 2200.9462890625 -2390.18505859375 2182.07373046875 -2385.970703125 2163.321533203125 -2382.119873046875 C 2144.502685546875 -2378.254638671875 2125.25732421875 -2374.64501953125 2106.1201171875 -2371.390869140625 C 2086.94091796875 -2368.1298828125 2067.345947265625 -2365.140625 2047.879638671875 -2362.505859375 C 2028.341552734375 -2359.863037109375 2008.4189453125 -2357.510009765625 1988.665283203125 -2355.5126953125 C 1968.783447265625 -2353.50341796875 1948.557373046875 -2351.803466796875 1928.548217773438 -2350.45947265625 C 1908.36572265625 -2349.10400390625 1887.858276367188 -2348.072021484375 1867.595703125 -2347.392578125 C 1847.165161132812 -2346.70703125 1826.399536132812 -2346.359375 1805.876098632812 -2346.359375 Z"/>
  </g>
</svg>
