<?xml version="1.0" encoding="utf-8"?>
<!-- Generator: Adobe Illustrator 22.0.1, SVG Export Plug-In . SVG Version: 6.00 Build 0)  -->
<svg version="1.1" id="Calque_1" xmlns="http://www.w3.org/2000/svg" xmlns:xlink="http://www.w3.org/1999/xlink" x="0px" y="0px"
	 viewBox="0 0 1422 806.6" style="enable-background:new 0 0 1422 806.6;" xml:space="preserve">
<style type="text/css">
	.st0{fill:#FFFFFF;}
	.st1{fill:#707070;}
</style>
<g id="Soustraction_1" transform="translate(8934 7455)">
	<path class="st0" d="M-8768.1-6648.9c-20.5,0-41.3-0.3-61.7-1c-20.3-0.7-40.8-1.7-60.9-3.1c-14.1-0.9-28.5-2.1-42.7-3.4v-798.2
		h1421c-1.6,13.8-3.6,27.7-6.1,41.4c-2.5,13.8-5.6,27.7-9,41.4c-3.4,13.6-7.4,27.3-11.8,40.7c-4.3,13.3-9.2,26.8-14.4,40
		c-5.2,13.1-11,26.3-17,39.3c-6.1,12.9-12.7,25.8-19.6,38.5c-6.9,12.6-14.3,25.3-22.1,37.6c-7.7,12.3-15.9,24.7-24.5,36.7
		c-8.5,12-17.5,24.1-26.8,35.8c-9.3,11.7-19,23.4-29.1,34.8c-10,11.3-20.5,22.7-31.3,33.8c-10.7,11-21.9,22-33.4,32.7
		c-11.4,10.6-23.3,21.2-35.5,31.6c-12.1,10.3-24.7,20.5-37.5,30.4c-12.8,9.9-26,19.7-39.4,29.1c-13.4,9.5-27.3,18.8-41.2,27.9
		c-28,18.1-57.5,35.5-87.8,51.7c-30.3,16.3-62.1,31.8-94.4,46.1c-32.5,14.4-66.3,27.8-100.5,40c-34.4,12.3-70.1,23.6-106,33.6
		c-18.1,5-36.5,9.8-54.9,14.3c-18.5,4.5-37.3,8.7-56.1,12.5c-18.8,3.9-38,7.5-57.2,10.7c-19.2,3.3-38.8,6.2-58.2,8.9
		c-19.5,2.6-39.5,5-59.2,7c-19.9,2-40.1,3.7-60.1,5.1c-20.2,1.4-40.7,2.4-60.9,3.1C-8726.8-6649.2-8747.6-6648.9-8768.1-6648.9z"/>
	<path class="st1" d="M-8768.1-6649.4c20.5,0,41.3-0.3,61.7-1c20.2-0.7,40.7-1.7,60.9-3.1c20-1.3,40.2-3,60.1-5.1
		c19.7-2,39.7-4.3,59.2-7c19.5-2.6,39-5.6,58.2-8.9c19.1-3.3,38.4-6.9,57.2-10.7c18.7-3.8,37.6-8.1,56.1-12.5
		c18.4-4.4,36.8-9.2,54.9-14.3c35.9-10,71.5-21.3,106-33.6c34.2-12.2,68-25.7,100.4-40c32.3-14.3,64-29.8,94.4-46.1
		c30.2-16.2,59.8-33.6,87.8-51.7c14-9,27.8-18.4,41.2-27.9c13.4-9.5,26.6-19.3,39.4-29.1c12.7-9.9,25.3-20.1,37.4-30.4
		c12.1-10.3,24.1-20.9,35.4-31.5c11.4-10.7,22.7-21.7,33.4-32.7c10.8-11.1,21.3-22.4,31.2-33.7c10-11.4,19.8-23.1,29.1-34.8
		c9.3-11.7,18.3-23.8,26.8-35.8c8.5-12.1,16.7-24.4,24.4-36.7c7.7-12.3,15.1-25,22-37.6c6.9-12.7,13.5-25.6,19.6-38.4
		c6.1-12.9,11.8-26.1,17-39.2c5.2-13.2,10.1-26.7,14.4-40c4.4-13.4,8.3-27.1,11.8-40.7c3.5-13.7,6.5-27.6,9-41.4
		c2.5-13.5,4.5-27.2,6.1-40.8H-8933v797.2c14.1,1.3,28.3,2.4,42.3,3.3c20.2,1.4,40.7,2.4,60.9,3.1
		C-8809.4-6649.7-8788.6-6649.4-8768.1-6649.4 M-8768.1-6648.4c-20.5,0-41.3-0.3-61.7-1c-20.3-0.7-40.8-1.7-61-3.1
		c-14.3-1-28.8-2.1-43.2-3.4V-7455h1422c-1.6,14-3.7,28.1-6.2,42c-2.5,13.8-5.6,27.7-9,41.4c-3.4,13.6-7.4,27.3-11.8,40.8
		c-4.3,13.4-9.2,26.8-14.5,40.1c-5.2,13.1-11,26.4-17.1,39.3c-6.1,12.9-12.7,25.8-19.6,38.5c-6.9,12.6-14.3,25.3-22.1,37.7
		c-7.7,12.3-15.9,24.7-24.5,36.8c-8.5,12-17.5,24.1-26.8,35.8c-9.3,11.7-19.1,23.4-29.1,34.8c-10,11.4-20.5,22.7-31.3,33.8
		c-10.7,11-22,22-33.4,32.7c-11.4,10.6-23.3,21.3-35.5,31.6c-12.1,10.3-24.7,20.5-37.5,30.4c-12.8,9.9-26,19.7-39.4,29.2
		c-13.4,9.5-27.3,18.8-41.3,27.9c-28,18.1-57.6,35.5-87.8,51.8c-30.3,16.3-62.1,31.8-94.4,46.1c-32.5,14.4-66.3,27.8-100.5,40
		c-34.5,12.3-70.1,23.6-106,33.6c-18.1,5-36.5,9.8-54.9,14.3c-18.5,4.5-37.3,8.7-56.1,12.5c-18.8,3.9-38.1,7.5-57.2,10.7
		c-19.2,3.3-38.8,6.2-58.2,8.9c-19.5,2.6-39.5,5-59.2,7c-19.9,2-40.1,3.7-60.1,5.1c-20.2,1.4-40.7,2.4-61,3.1
		C-8726.8-6648.7-8747.6-6648.4-8768.1-6648.4z"/>
</g>
</svg>
